<svg xmlns="http://www.w3.org/2000/svg" xmlns:xlink="http://www.w3.org/1999/xlink" viewBox="0 0 700 300" xmlns:v="https://vecta.io/nano"><style><![CDATA[.d{fill:#231f20}.e{fill:#424143}.f{fill:#808284}.g{fill:#fff}.h{fill:#59595c}.i{fill:#d1d2d3}.j{fill:#929497}.k{opacity:.5}.l{fill:#6e6e71}.m{fill:#754c28}.n{fill:#47200d}.o{fill:#a7a8ac}.p{fill:#293c90}.q{fill:#1e75bb}.r{fill:#e5e6e6}.s{fill:#a24f24}.t{fill:#3b2314}.u{fill:#201f3f}.v{fill:#bc202e}.w{fill:#842728}.x{fill:#710f12}.y{fill:#f79420}.z{fill:#3c2417}.AA{fill:#9f9db2}.AB{fill:#dddbee}.AC{clip-path:url(#i)}.AD{clip-path:url(#k)}.AE{clip-path:url(#m)}.AF{clip-path:url(#o)}]]></style><path d="M134.043 105.29l4.279-1.027 8.239 34.326-4.279 1.027z" class="o"/><path d="M145.4 138.2l-2.6.3-7.7-32.4 3.1.5z" class="l"/><path d="M141.5 119.7l-.2 1.5-1.8 1.5 1 13.3c.1.8 1.1.9 1.1.9l.5-17-.6-.2z" fill="#cdd1d1"/><path d="M139.3 119.8l.4 1.5 2 1.3 1 13.3c.1.8-.9 1.1-.9 1.1l-3-16.8.5-.4z" class="l"/><path d="M142.9 108.2c-.5-.1-1.2.2-1.8.7-.7.5-1.1 1.2-1.1 1.8 0 0 0 .4.1 1.1a.55.55 0 0 0-.3.5c0 .2.2.4.3.5l.7 7.9 1.4.2s.8-4.5 1.4-5.2 1.9-1.8 1.9-3c.2-1.9-1.3-4.4-2.6-4.5zm1.6 4.3c0 .7-.5 1.4-1.5 2.2l-1.7 1.1c-.2-1.4-.4-4.4-.3-5.1 0-.3.3-.8.7-1.1.3-.3.6-.4.9-.4h.1c.6.1 1.9 1.9 1.8 3.3zm-4.8-.3a.55.55 0 0 0-.3-.5c0-.6-.1-1-.1-1.1-.1-.6-.7-1.2-1.4-1.6s-1.3-.5-1.9-.4c-1.3.3-2.4 3-2 4.8.3 1.2 1.7 2.1 2.4 2.7s2.2 4.9 2.2 4.9l1.4-.4-.5-8c.1 0 .2-.2.2-.4zm-.9 3.8l-1.9-.8c-1-.7-1.6-1.3-1.8-2-.3-1.4.7-3.4 1.2-3.5h.1a1.9 1.9 0 0 1 .9.3c.5.3.8.7.9 1 .3.6.5 3.6.6 5z" fill="#f79421"/><circle cx="140.6" cy="123.6" r=".7" class="e"/><path d="M140.8 135.7h0a1.08 1.08 0 0 1-1.4-.7l-6.4-18.8a1.08 1.08 0 0 1 .7-1.4h0a1.08 1.08 0 0 1 1.4.7l6.4 18.8c.2.6-.1 1.3-.7 1.4z" fill="#ffdd0f"/><path d="M140.8 135.7h0a1.08 1.08 0 0 1-1.4-.7l-5.9-18.5.9-.5 7 18.3c.3.6 0 1.3-.6 1.4z" fill="#bea730"/><path d="M136.17 125.57l2.083-.71.161.473-2.083.71z" class="p"/><use xlink:href="#B" class="q"/><path d="M147.1 125.1h0c-.3-.1-.6-.4-.5-.7l1.5-8.4c.1-.3.4-.6.7-.5h0c.3.1.6.4.5.7l-1.5 8.4c0 .3-.4.6-.7.5z" class="u"/><use xlink:href="#C" class="p"/><path d="M142.2 135.4h0c-.6-.1-1-.7-.9-1.3l3.6-19.5c.1-.6.7-1 1.3-.9h0c.6.1 1 .7.9 1.3l-3.6 19.5c-.2.6-.7 1-1.3.9z" class="v"/><path d="M144.2 124.2h0c-.3-.1-.6-.4-.5-.7l1.5-8.4c.1-.3.4-.6.7-.5h0c.3.1.6.4.5.7l-1.5 8.4c0 .3-.3.6-.7.5z" class="w"/><use xlink:href="#C" x="-2.902" y="-.905" class="x"/><path d="M148.3 140.1h-12.9l-.8-18.9H149z"/><path d="M146.5 140l-9.7-.4-.5-17 11.7-.7z" class="d"/><path d="M138.2 126.3h8v7.3h-8z" class="j"/><path d="M146.2 133.6l-7.3-.6v-5.8l7.1-.7z" class="i"/><g class="d"><path d="M320.1 133.4l-3.6-.7 12.7-62.5L291 17.4l2.9-2.2 39.2 54.1z"/><path d="M333.2 135.8c-1.4-2.7-7.8-5.4-15.5-5.5-7.7.1-14.2 2.8-15.5 5.5 10.3 1.6 20.7 1.6 31 0z"/></g><path d="M322.4 130.7c-.6 4.2-12.2 4.9-20.1 4.9 0 .1-.1.1-.1.2a101.35 101.35 0 0 0 31.1 0c-1.1-2.1-5.4-4.2-10.9-5.1z"/><g fill="#808184"><path d="M293.4 38.8c2.9-6.3 1.7-15.5-4.4-20.3-6.4-4.4-15.5-2.8-20.7 1.9 5.9 9.4 14.3 15.6 25.1 18.4z"/><path d="M282.9 26.9h0c-2.3-1.7-2.8-4.9-1.1-7.1l5-6.9c1.7-2.3 4.9-2.8 7.1-1.1h0c2.3 1.7 2.8 4.9 1.1 7.1l-5 6.9c-1.7 2.2-4.9 2.7-7.1 1.1z"/></g><g fill="#404041"><path d="M289.9 19.4c-.1.3-.3.5-.3.8-.3 1.4 0 3.1.1 4.5.1 4.4-1 8.4-4 11.3 2.4 1.1 5 2.1 7.7 2.8 2.7-5.9 1.7-14.5-3.5-19.4z"/><path d="M294.4 12.1c-.5 2-1.4 3.7-2.9 5.3-.8.8-1.7 1.6-1.9 2.7-.3 1.4 0 3.1.1 4.5v1.5c.1-.1.3-.3.4-.5l5-6.9c1.5-1.9 1.1-4.8-.7-6.6z"/></g><path d="M324.8 70.2c0 3 2.4 5.4 5.4 5.4s5.4-2.4 5.4-5.4-2.4-5.4-5.4-5.4c-3-.1-5.4 2.4-5.4 5.4z" class="d"/><path d="M331.2 64.8c.4 1.5.2 3.3-.3 4.8-.7 2-2.1 3.7-3.8 5 .9.6 1.9 1 3.1 1 3 0 5.4-2.4 5.4-5.4.1-2.7-1.8-4.9-4.4-5.4z"/><path d="M466.6 134.4l-28.3.3-.3-17.1 28.6-.4z" class="d"/><path d="M464.9 133.4l-24.8.5 1.1-10.1 23.1-.4z" class="e"/><path d="M498.7 116.9l-92.4 1.1-2.3-70.1 96.1-1.8z" class="i"/><path d="M493.3 105.1l-81.1-.5 2-48.2 79.3-3.8z" class="r"/><path d="M498.7 116.9l-92.4 1.1-.2-6.8 92.8-1.2z" class="d"/><use xlink:href="#D" class="e"/><path d="M496.7 43.2l-90.5 2.5c-2 0-3.4 1.7-3.3 3.8l2.2 67.3c.1 1.9 1.9 3 3.8 3l88.6-.1c1.9 0 3.4-1.7 3.4-3.6l.7-70.5c.2-2.2-2.8-2.4-4.9-2.4zm-.3 6.7l-1 56.7-85.9 1.1-1.7-56.2 88.6-1.6z" class="h"/><path d="M476.2 136.7l-47.4.5v-2.7l47.4-.5z" class="d"/><path d="M414.8 55.5h67.8v47.6h-67.8z" class="i"/><path d="M414.8 55.6h67.8v1.1h-67.8z" class="f"/><path d="M482.6 56.8h-68v-1.3h68v1.3zm-67.8-.1h67.7v-1h-67.7v1z" class="d"/><path d="M474 55.6h8.6v1.1H474z" class="g"/><use xlink:href="#E" class="d"/><path d="M414.8 56.7H434v1.1h-19.2z" class="f"/><path d="M434 57.9h-19.3v-1.3H434v1.3zm-19.2-.1h19v-1h-19v1z" class="d"/><path d="M414.8 56.7h8v1.1h-8z" class="f"/><path d="M422.9 57.9h-8.2v-1.3h8.2v1.3zm-8.1-.1h7.9v-1h-7.9v1z" class="d"/><path d="M422.8 56.7h6.6v1.1h-6.6z" class="i"/><path d="M429.4 57.9h-6.7v-1.3h6.7v1.3zm-6.5-.1h6.4v-1h-6.4v1z" class="d"/><path d="M414.8 57.9H434v29.7h-19.2z" class="f"/><path d="M434 87.7h-19.3V57.8H434v29.9zm-19.2-.2h19V57.9h-19v29.6z" class="d"/><path d="M433.9 57.9H474v29.7h-40.1z" class="i"/><path d="M474.1 87.7h-40.2V57.8h40.2v29.9zm-40.1-.2h39.9V57.9H434v29.6z" class="d"/><path d="M437 60.6h34.2V86H437z" class="g"/><path d="M446.7 87.6h35.9V103h-35.9z" class="f"/><path d="M482.6 103.1h-36V87.5h36v15.6zm-35.8-.1h35.7V87.7h-35.7V103z" class="d"/><path d="M414.8 87.6h32V103h-32z" class="f"/><use xlink:href="#F" class="d"/><path d="M414.8 87.6h67.8v1.3h-67.8z" class="i"/><g class="d"><path d="M482.6 89h-68v-1.4h68V89zm-67.8-.2h67.7v-1.1h-67.7v1.1z"/><path d="M482.6 90.2h-35.9v-1.4h35.9v1.4zm-35.7-.1h35.6V89h-35.6v1.1z"/><use xlink:href="#G"/></g><use xlink:href="#H" class="y"/><g class="d"><use xlink:href="#G" y="1.3"/><use xlink:href="#I"/></g><use xlink:href="#H" y="2.5" class="g"/><g class="d"><path d="M482.6 95.4h-35.9V94h35.9v1.4zm-35.7-.2h35.6v-1.1h-35.6v1.1z"/><use xlink:href="#I" y="2.6"/><use xlink:href="#G" y="6.4"/></g><use xlink:href="#H" y="6.4" fill="#f7ec32"/><path d="M482.6 99.2h-35.9v-1.4h35.9v1.4zm-35.7-.1h35.6V98h-35.6v1.1z" class="d"/><use xlink:href="#H" y="7.6" fill="#f7ec32"/><use xlink:href="#G" y="9" class="d"/><use xlink:href="#H" y="8.9" fill="#2cabe1"/><g class="d"><use xlink:href="#I" y="7.7"/><use xlink:href="#H" y="10.2"/><use xlink:href="#I" y="9"/></g><g class="i"><path d="M446.8 90.2h-32.1v-1.4h32.1v1.4zm-32-.1h31.8V89h-31.8v1.1z"/><use xlink:href="#J"/><use xlink:href="#J" y="1.3"/><use xlink:href="#K"/><path d="M446.8 95.4h-32.1V94h32.1v1.4zm-32-.2h31.8v-1.1h-31.8v1.1z"/><use xlink:href="#K" y="2.6"/><use xlink:href="#J" y="6.4"/><path d="M446.8 99.2h-32.1v-1.4h32.1v1.4zm-32-.1h31.8V98h-31.8v1.1z"/><use xlink:href="#J" y="9"/><use xlink:href="#K" y="7.7"/><use xlink:href="#K" y="9"/></g><g class="d"><path d="M433.9 56.7H474v1.1h-40.1z"/><path d="M474.1 57.9h-40.2v-1.3h40.2v1.3zm-40.1-.1h39.9v-1H434v1z"/></g><path d="M433.9 56.7h11.6v1.1h-11.6z" class="i"/><path d="M445.6 57.9h-11.7v-1.3h11.7v1.3zm-11.6-.1h11.5v-1H434v1z" class="d"/><path d="M433.9 57.9H474v1.3h-40.1z" class="f"/><path d="M474.1 59.2h-40.2v-1.4h40.2v1.4zm-40.1-.1h39.9V58H434v1.1z" class="d"/><path d="M433.9 57.9h17.3v1.3h-17.3z" class="f"/><g class="d"><path d="M451.3 59.2h-17.5v-1.4h17.5v1.4zm-17.3-.1h17.2V58H434v1.1z"/><path d="M433.9 57.9h11.6v1.3h-11.6z"/><path d="M445.6 59.2h-11.7v-1.4h11.7v1.4zm-11.6-.1h11.5V58H434v1.1z"/></g><path d="M433.9 57.9h6v1.3h-6z" class="f"/><path d="M440 59.2h-6.1v-1.4h6.1v1.4zm-6-.1h5.8V58H434v1.1z" class="d"/><path d="M474 56.7h8.6v7.1H474z" class="f"/><use xlink:href="#L" class="d"/><path d="M474 63.8h8.6v7H474z" class="f"/><g class="d"><use xlink:href="#L" y="7"/><path d="M474 63.8h8.6v1.1H474z"/><path d="M482.6 65h-8.7v-1.2h8.7V65zm-8.5-.2h8.4v-.9h-8.4v.9z"/></g><path d="M474 63.8h4v1.1h-4z" class="f"/><path d="M478 65h-4.1v-1.2h4.1V65zm-3.9-.2h3.8v-.9h-3.8v.9z" class="d"/><path d="M474 70.8h8.6v16.8H474z" class="f"/><g class="d"><path d="M482.6 87.7h-8.7v-17h8.7v17zm-8.5-.2h8.4V70.9h-8.4v16.6zm-.1-30.8h8.6v1.1H474z"/><use xlink:href="#E" y="1.1"/></g><path d="M474 56.7h2.8v1.1H474z" class="f"/><path d="M476.9 57.9h-3v-1.3h3v1.3zm-2.8-.1h2.7v-1h-2.7v1z" class="d"/><path d="M433.9 89.1h3.1v.8h-3.1z" class="g"/><path d="M433.9 90.4h6.3v.8h-6.3zm0 1.3h2.1v.8h-2.1z" class="y"/><path d="M433.9 93h4.8v.8h-4.8z" class="g"/><path d="M433.9 94.3h3.1v.8h-3.1zm0 3.8h6.3v.8h-6.3zm0 1.3h4v.8h-4z" class="y"/><path d="M433.9 100.7h5.5v.8h-5.5zm0 1.3h6.3v.8h-6.3zm-17.5 0h4v.8h-4zm0-1.3h8v.8h-8zm0-1.3h2.6v.8h-2.6zm0-1.3h6.2v.8h-6.2zm0-1.3h4v.8h-4zm0-1.2h6.2v.8h-6.2zm0-1.3h3.1v.8h-3.1zm0-1.3h8v.8h-8zm0-1.3h5.2v.8h-5.2zm0-1.3h7v.8h-7zm0-1.3h8v.8h-8z" class="g"/><g class="d"><use xlink:href="#F"/><path d="M227.8 134.4l-28.3.3-.2-17.1 28.6-.4z"/></g><path d="M226.1 133.4l-24.8.5 1.1-10.1 23.1-.4z" class="e"/><path d="M260 116.9l-92.5 1.1-2.2-70.1 96-1.8z" class="i"/><path d="M254.5 105.1l-81.1-.5 2.1-48.2 79.3-3.8z" class="r"/><path d="M260 116.9l-92.5 1.1-.2-6.8 92.8-1.2z" class="d"/><use xlink:href="#D" x="-238.8" class="e"/><path d="M258 43.2l-90.5 2.5c-2 0-3.4 1.7-3.3 3.8l2.2 67.3c.1 1.9 1.9 3 3.8 3l88.6-.1c1.9 0 3.4-1.7 3.4-3.6l.7-70.5c.1-2.2-2.9-2.4-4.9-2.4zm-.4 6.7l-1 56.7-85.9 1.1-1.7-56.2 88.6-1.6z" class="h"/><path d="M237.4 136.7l-47.3.5-.1-2.7 47.4-.5z" class="d"/><path d="M175.4 54.5h72.3v50.8h-72.3z" class="i"/><g class="d"><path d="M175.4 54.5h8.4v36.8h-8.4z"/><path d="M183.9 91.4h-8.5V54.5h8.5v36.9zm-8.4-.1h8.3V54.6h-8.3v36.7z"/></g><path d="M175.4 75.5h8.4v7.7h-8.4z" class="f"/><path d="M183.9 83.2h-8.5v-7.8h8.5v7.8zm-8.4-.1h8.3v-7.6h-8.3v7.6z" class="d"/><path d="M175.4 62.4h8.4v5.4h-8.4z" class="f"/><path d="M183.9 67.8h-8.5v-5.4h8.5v5.4zm-8.4 0h8.3v-5.3h-8.3v5.3z" class="d"/><path d="M175.4 67.8h8.4v7.7h-8.4z" class="f"/><path d="M183.9 75.5h-8.5v-7.7h8.5v7.7zm-8.4-.1h8.3v-7.6h-8.3v7.6z" class="d"/><path d="M175.4 83.2h8.4v5.1h-8.4z" class="f"/><path d="M183.9 88.3h-8.5v-5.2h8.5v5.2zm-8.4-.1h8.3v-5h-8.3v5z" class="d"/><path d="M175.4 88.1h8.4v2.7h-8.4z" class="f"/><path d="M183.9 90.8h-8.5V88h8.5v2.8zm-8.4 0h8.3v-2.6h-8.3v2.6z" class="d"/><path d="M175.4 90.8h8.4v5.3h-8.4z" class="f"/><path d="M183.9 96.2h-8.5v-5.4h8.5v5.4zm-8.4-.1h8.3v-5.2h-8.3v5.2z" class="d"/><path d="M175.4 96.1h8.4v6.6h-8.4z" class="f"/><path d="M183.9 102.7h-8.5V96h8.5v6.7zm-8.4 0h8.3v-6.5h-8.3v6.5z" class="d"/><path d="M236.4 61.1h11.4v44.1h-11.4z" class="f"/><path d="M247.8 105.2h-11.5V61.1h11.5v44.1zm-11.4 0h11.3v-44h-11.3v44z" class="d"/><use xlink:href="#M" class="f"/><use xlink:href="#N" class="d"/><use xlink:href="#M" y="7.4" class="f"/><use xlink:href="#O" class="d"/><use xlink:href="#M" y="14.7" class="f"/><use xlink:href="#N" y="14.7" class="d"/><use xlink:href="#M" y="22.1" class="f"/><use xlink:href="#O" y="14.7" class="d"/><use xlink:href="#M" y="29.4" class="f"/><use xlink:href="#N" y="29.4" class="d"/><use xlink:href="#M" y="36.8" class="f"/><use xlink:href="#O" y="29.4" class="d"/><path d="M175.4 54.5h72.3v4.7h-72.3z" class="f"/><use xlink:href="#P" class="d"/><path d="M175.4 54.5h72.3v4.7h-72.3z" class="f"/><g class="d"><use xlink:href="#P"/><path d="M175.4 59.2h72.3v1.7h-72.3z"/><path d="M247.8 60.9h-72.4v-1.8h72.4v1.8zm-72.3 0h72.2v-1.6h-72.2v1.6z"/></g><path d="M175.4 54.5h72.3v2.3h-72.3z" class="f"/><path d="M247.8 56.9h-72.4v-2.4h72.4v2.4zm-72.3-.1h72.2v-2.3h-72.2v2.3z" class="d"/><path d="M175.4 59.2H191v1.7h-15.6z" class="f"/><g class="d"><path d="M191.1 60.9h-15.7v-1.8h15.7v1.8zm-15.6 0H191v-1.6h-15.5v1.6zm59 0h1.8v44.3h-1.8z"/><path d="M236.4 105.2h-1.9V60.9h1.9v44.3zm-1.8 0h1.8V60.9h-1.8v44.3z"/></g><g class="g"><path d="M193.1 65.7h33.1v33.1h-33.1z"/><use xlink:href="#Q"/><use xlink:href="#Q" x="2"/><use xlink:href="#Q" x="4"/><use xlink:href="#Q" x="6"/><path d="M186 55.1h1.3v1.1H186zm2 0h1.3v1.1H188zm2 0h1.3v1.1H190zm2 0h1.3v1.1H192zm2 0h1.3v1.1H194zm2 0h1.3v1.1H196z"/><use xlink:href="#Q" x="19.8"/><use xlink:href="#R"/><path d="M180.9 57.4h1.2v1.3h-1.2zm3.1 0h1.2v1.3H184z"/><use xlink:href="#R" x="9.3"/><path d="M189 57.4v1.3h3.1 2.5v-1.3h-2.5zm6.3 0v1.3h3.1 2.4v-1.3h-2.4zm6.2 0v1.3h3.1 2.4v-1.3h-2.4z"/><use xlink:href="#R" x="31.1"/><use xlink:href="#R" x="34.2"/><use xlink:href="#R" x="37.3"/><use xlink:href="#R" x="40.5"/><use xlink:href="#R" x="43.6"/><use xlink:href="#R" x="46.7"/></g><g class="i"><use xlink:href="#S"/><use xlink:href="#S" x="3.8"/><use xlink:href="#S" y="2.6"/><use xlink:href="#S" x="3.8" y="2.6"/><use xlink:href="#S" y="5.1"/><use xlink:href="#S" x="3.8" y="5.1"/><use xlink:href="#S" y="7.7"/><use xlink:href="#S" x="3.8" y="7.7"/><path d="M176.8 73.5h1.6V75h-1.6zm3.8 0h1.6V75h-1.6z"/><use xlink:href="#S" y="12.8"/><use xlink:href="#S" x="3.8" y="12.8"/><use xlink:href="#S" y="15.4"/><use xlink:href="#S" x="3.8" y="15.4"/><use xlink:href="#S" y="17.9"/><use xlink:href="#S" x="3.8" y="17.9"/><use xlink:href="#S" y="20.5"/><use xlink:href="#S" x="3.8" y="20.5"/><use xlink:href="#S" y="23"/><use xlink:href="#S" x="3.8" y="23"/><use xlink:href="#S" y="25.6"/><use xlink:href="#S" x="3.8" y="25.6"/><use xlink:href="#S" y="28.1"/><use xlink:href="#S" x="3.8" y="28.1"/><use xlink:href="#S" y="30.7"/><use xlink:href="#S" x="3.8" y="30.7"/></g><path d="M179.7 99.2h2.3v2.3h-2.3z" class="f"/><path d="M181.6 99.5v1.6H180v-1.6h1.6 0zm.6-.7h-2.9v2.9h2.9v-2.9h0z" class="g"/><path d="M177.2 96.7h2.9v2.9h-2.9z" class="d"/><path d="M180.1 99.6h-2.9v-2.9h2.9v2.9zm-2.9-.1h2.8v-2.8h-2.8v2.8z" class="g"/><path d="M231.5 55.1h4.9v1.1h-4.9z" class="i"/><path d="M236.7 55.1h6.2v1.1h-6.2z" class="d"/><g class="i"><use xlink:href="#T"/><use xlink:href="#T" y="2.2"/><use xlink:href="#T" y="4.3"/><use xlink:href="#T" y="7.4"/><use xlink:href="#T" y="9.5"/><use xlink:href="#T" y="11.7"/><use xlink:href="#T" y="14.7"/><use xlink:href="#T" y="16.9"/><use xlink:href="#T" y="19"/><use xlink:href="#T" y="22.1"/><use xlink:href="#T" y="24.2"/><use xlink:href="#T" y="26.4"/><use xlink:href="#T" y="29.4"/><use xlink:href="#T" y="31.6"/><use xlink:href="#T" y="33.7"/><use xlink:href="#U"/><use xlink:href="#U" y="2.2"/><use xlink:href="#U" y="4.3"/><use xlink:href="#U" y="7.4"/><use xlink:href="#U" y="9.5"/><use xlink:href="#U" y="11.7"/><use xlink:href="#U" y="14.7"/><use xlink:href="#U" y="16.9"/><use xlink:href="#U" y="19"/><use xlink:href="#U" y="22.1"/><use xlink:href="#U" y="24.2"/><use xlink:href="#U" y="26.4"/><use xlink:href="#U" y="29.4"/><use xlink:href="#U" y="31.6"/><use xlink:href="#U" y="33.7"/></g><path d="M220.4 66.6h32.7V87h-32.7z" class="g"/><path d="M220.4 66.6h32.7v2.1h-32.7z" class="q"/><path d="M250.7 66.8h1.5v1.5h-1.5zm-2.3 0h1.5v1.5h-1.5zm-2.2 0h1.5v1.5h-1.5z" class="g"/><path d="M223.2 71h8.8v8.8h-8.8z" fill="#bbbdbf"/><path d="M548.5 114.8h0a1.08 1.08 0 0 1-1.4-.7l-6.4-18.8a1.08 1.08 0 0 1 .7-1.4h0a1.08 1.08 0 0 1 1.4.7l6.4 18.8c.1.6-.2 1.2-.7 1.4z" fill="#ffdd0f"/><path d="M548.5 114.8h0a1.08 1.08 0 0 1-1.4-.7l-5.9-18.5.9-.5 7 18.3c.2.6-.1 1.2-.6 1.4z" fill="#bea730"/><path d="M543.884 104.655l2.083-.71.161.473-2.083.71z" class="p"/><path d="M552.7 115.4h0c-.6-.1-1-.7-.9-1.3l3.6-19.5c.1-.6.7-1 1.3-.9h0c.6.1 1 .7.9 1.3l-3.6 19.5c-.1.6-.7 1-1.3.9z" class="q"/><path d="M554.8 104.2h0c-.3-.1-.6-.4-.5-.7l1.5-8.4c.1-.3.4-.6.7-.5h0c.3.1.6.4.5.7l-1.5 8.4c-.1.3-.4.6-.7.5z" class="u"/><use xlink:href="#C" x="407.698" y="-20.884" class="p"/><path d="M550.138 82.002l4.393.257-2.061 35.24-4.393-.257z" class="o"/><path d="M551.5 116.8l-2.6-.5 2.1-33.2 2.8 1.4z" class="l"/><use xlink:href="#B" x="404.8" y="-21.8" class="v"/><path d="M551.9 103.3h0c-.3-.1-.6-.4-.5-.7l1.5-8.4c.1-.3.4-.6.7-.5h0c.3.1.6.4.5.7l-1.5 8.4c0 .3-.4.5-.7.5z" class="w"/><use xlink:href="#C" x="404.79" y="-21.801" class="x"/><use xlink:href="#V" class="q"/><path d="M549.6 101.7h0c-.3 0-.6-.2-.7-.5l-1-8.5c0-.3.2-.6.5-.7h0c.3 0 .6.2.7.5l1 8.5c.1.3-.1.7-.5.7z" class="u"/><path d="M548.602 102.123l2.184-.262.06.496-2.184.262z" class="p"/><use xlink:href="#V" x="-3" class="v"/><path d="M546.6 101.7h0c-.3 0-.6-.2-.7-.5l-1-8.5c0-.3.2-.6.5-.7h0c.3 0 .6.2.7.5l1 8.5c.1.3-.2.6-.5.7z" class="w"/><path d="M545.602 102.158l2.184-.262.06.496-2.184.262z" class="x"/><path d="M555.9 119.2h-12.8l-.8-18.9h14.4z"/><path d="M554.2 119.1l-9.7-.5-.5-16.9 11.6-.7z" class="d"/><path d="M545.9 105.4h8v7.3h-8z" class="j"/><path d="M553.9 112.7l-7.3-.6-.1-5.8 7.2-.7z" class="i"/><path d="M530.8 135.9l44.3 1.2 2.1-17.3-47.9-1.6z" class="r"/><path d="M530.6 134l44.7 1.3.2-1.7-45-1.3zm-.8-9.6l46.7 1.5.1-.9-46.9-1.6zm17.3 2.5l32.1 1 1.2 1zm-17-5l46.3 1.5 1.7 1.1zm-.3-4l49.1 1.7 1.7 2.1zm.4 11.8l12.3 1.9 13-1.1z" class="i"/><g class="d"><g class="k"><use xlink:href="#W"/></g><g class="k"><use xlink:href="#W" x="262.2"/></g></g><path d="M349.1 138.2l-230.5 2.3 5.7 103.9 216.7-.1z" class="h"/><path d="M342.2 229.1l-169.2-36-48.7 51.3 216.7-.1z" class="l"/><path d="M348.6 144.8L119 147l-.5-9.4 230.8-2.5z" fill="#603813"/><path d="M343.6 143.1l-221.2 1.5-1-4.5 225.2-3.6z" class="m"/><path d="M340.7 248.6h-7.3l.3-4.3h7.3zm-166.6 0h-49.6l-.2-4.2H174z" class="e"/><path d="M346.6 170.9l-79.3.6-1.4 44.4 77.3-.2z" class="j"/><path d="M335.6 173.2l-66.1.4-1.3 39.5 60.9-.1z" class="t"/><path d="M348.6 144.8l-80.5.8-.9 26.6 79.3-.6z" class="j"/><path d="M336.5 146.6l-65.3 2.1-.1 21.5 65.7-.5z" class="t"/><path d="M126.3 146.9l-7.3.1 5.3 97.4h6.9z" class="e"/><path d="M124.4 150.9l-3.8-3.2 5.5 95.6 3.9-.3z" class="h"/><path d="M172.6 185.8h-7.2l1.7 58.6h6.9z" class="e"/><path d="M171.3 189.2l-4.8-1.8 1.7 54.7 3.2.2z" class="h"/><path d="M348.6 144.8l-7.7.1-7.1 99.4h7.2z" class="e"/><path d="M346.9 148.5l-4.5-2.9-7.6 98 5.1-.4z" class="h"/><path d="M268.1 145.6h-7.6l-1.8 70.4 7.2-.1z" class="e"/><path d="M266.2 148.8l-4.2-2.3-1.9 67.7 4.3.5z" class="h"/><path d="M133 244.4h32.9l-1.9-62.8-34.1.2z" class="d"/><path d="M135.1 240.4l27.4 2.2-1.1-55-27.4-2.4z" class="e"/><path d="M259.8 167.2l-132.4 1 .2 5.1 132.1-1z" class="j"/><path d="M256.1 169.2l-126.1.4-.9 2.9 126.1-1.6z" class="l"/><path d="M212.6 167.5l-78 .6-.2-4.3 78.2-.6z" class="d"/><path d="M212.6 167.5l-78 .6 2-3.1 74.6.4z" class="e"/><path d="M319.8 155.7l-31.3.3.2-6 31.4-.3z" class="j"/><path d="M318.2 154.9l-27.6-.6-.5-3.2 28.9-.8z" class="h"/><path d="M318.2 182.5l-30.8.2.2-5.8 30.9-.2z" class="j"/><path d="M316 181.4l-26 .1-1-3.1 27.9-.9z" class="h"/><use xlink:href="#X" class="d"/><use xlink:href="#Y" class="e"/><path d="M141.4 191.8l-5.5.1v-1.4l5.5-.1z" class="g"/><path d="M163 204.2l-30.1-2.9-.3-5.8 30.1 1.2z" class="d"/><path d="M585.4 138.2L355 140.5l5.7 103.9 216.7-.1z" class="h"/><path d="M578.5 229.1l-169.2-36-48.6 51.3 216.7-.1z" class="l"/><path d="M584.9 144.8L355.3 147l-.5-9.4 230.9-2.5z" fill="#603813"/><path d="M580 143.1l-221.2 1.5-1-4.5 225.2-3.6z" class="m"/><path d="M577.1 248.6h-7.4l.3-4.3h7.4zm-166.6 0h-49.6l-.2-4.2h49.7z" class="e"/><path d="M583 170.9l-79.4.6-1.3 44.4 77.2-.2z" class="j"/><path d="M572 173.2l-66.2.4-1.2 39.5 60.9-.1z" class="t"/><path d="M584.9 144.8l-80.5.8-.8 26.6 79.3-.6z" class="j"/><path d="M572.9 146.6l-65.3 2.1-.1 21.5 65.7-.5z" class="t"/><path d="M362.7 146.9l-7.4.1 5.4 97.4h6.9z" class="e"/><path d="M360.8 150.9l-3.9-3.2 5.6 95.6 3.8-.3z" class="h"/><path d="M409 185.8h-7.3l1.7 58.6h7z" class="e"/><path d="M407.7 189.2l-4.8-1.8 1.7 54.7 3.2.2z" class="h"/><path d="M584.9 144.8l-7.6.1-7.1 99.4h7.2z" class="e"/><path d="M583.3 148.5l-4.5-2.9-7.7 98 5.2-.4z" class="h"/><path d="M504.4 145.6h-7.5l-1.8 70.4 7.2-.1z" class="e"/><path d="M502.6 148.8l-4.3-2.3-1.8 67.7 4.3.5z" class="h"/><path d="M369.3 244.4h32.9l-1.8-62.8-34.2.2z" class="d"/><path d="M371.5 240.4l27.4 2.2-1.2-55-27.4-2.4z" class="e"/><path d="M496.2 167.2l-132.5 1 .3 5.1 132.1-1z" class="j"/><path d="M492.4 169.2l-126.1.4-.8 2.9 126-1.6z" class="l"/><path d="M448.9 167.5l-77.9.6-.2-4.3 78.1-.6z" class="d"/><path d="M448.9 167.5l-77.9.6 2-3.1 74.5.4z" class="e"/><path d="M556.2 155.7l-31.3.3.2-6 31.4-.3z" class="j"/><path d="M554.6 154.9l-27.6-.6-.5-3.2 28.8-.8z" class="h"/><path d="M554.5 182.5l-30.8.2.3-5.8 30.9-.2z" class="j"/><path d="M552.3 181.4l-26 .1-1-3.1 28-.9z" class="h"/><use xlink:href="#X" x="236.4" class="d"/><use xlink:href="#Y" x="236.3" class="e"/><path d="M377.8 191.8l-5.5.1-.1-1.4 5.5-.1z" class="g"/><path d="M399.3 204.2l-30.1-2.9-.2-5.8 30.1 1.2z" class="d"/><path d="M409.7 53.6h32.7V74h-32.7z" class="g"/><path d="M409.7 53.6h32.7v2.1h-32.7z" class="q"/><path d="M440 53.8h1.5v1.5H440zm-2.2 0h1.5v1.5h-1.5zm-2.2 0h1.5v1.5h-1.5z" class="g"/><path d="M251.4 46.6H266v16.5h-14.6z" fill="#fff1a2"/><g class="g k"><path d="M257.6 45.2h2v3.5h-2z"/></g><path d="M253.5 52.6h10.4v.7h-10.4zm0 2.6h10.4v.7h-10.4zm0 2.6h10.4v.7h-10.4z" class="o"/><path d="M206.7 67.8h24.7v28.6h-24.7z" fill="#e78052"/><path d="M167.5 251.1c-1.3 5.1-5.3-.7-9.7.9-10.5 5.1 4.5 11.8 24.4 11.8 3.8 0 .7-12.7.7-12.7h-15.4z" fill="#2d1c12"/><path d="M168.3 258.4c-2-.3-4.7-.6-6.3-2-1.5-1.3-.9-2.9.2-4.1-1.4-.5-2.9-.8-4.4-.2-10.5 5.1 4.5 11.8 24.4 11.8.3 0 .5-.1.8-.2-4.3-3-9.4-4.5-14.7-5.3z" class="z"/><defs><path id="A" d="M157.8 252.1l-1.8 1.3c-.5.5-1 1.1-1.2 1.7s0 1.2.3 1.7a6.73 6.73 0 0 0 1.5 1.4c1.2.7 2.5 1.3 3.9 1.8s2.8.9 4.2 1.2c2.8.7 5.7 1.2 8.7 1.6l8.8 1c-3 .3-6 .3-9 .1s-6-.6-8.9-1.4-5.8-1.7-8.4-3.6c-.6-.5-1.2-1-1.6-1.8-.4-.7-.6-1.7-.2-2.5s1-1.3 1.6-1.7l1-.6c.4 0 .7-.1 1.1-.2z"/><path id="B" d="M145.1 136.3h0c-.6-.1-1-.7-.9-1.3l3.6-19.5c.1-.6.7-1 1.3-.9h0c.6.1 1 .7.9 1.3l-3.6 19.5c-.2.6-.8 1-1.3.9z"/><path id="C" d="M145.961 125.211l2.164.394-.09.492-2.164-.394z"/><path id="D" d="M500.2 42.3l-96.3 1.8c-2 0-3.5 1.7-3.5 3.8l2.2 63.3.2 6.7c.1 1.9 1.7 3.4 3.6 3.4l92.2-1.1c1.9 0 3.5-1.6 3.6-3.5l.1-6.8 1.4-64c.1-1.9-1.5-3.6-3.5-3.6zm-3.8 7.6l-1 56.7-85.9 1.1-1.7-56.2 88.6-1.6z"/><path id="E" d="M482.6 56.8h-8.7v-1.3h8.7v1.3zm-8.5-.1h8.4v-1h-8.4v1z"/><path id="F" d="M446.8 103.1h-32.1V87.5h32.1v15.6zm-32-.1h31.8V87.7h-31.8V103z"/><path id="G" d="M482.6 91.5h-35.9v-1.4h35.9v1.4zm-35.7-.1h35.6v-1.1h-35.6v1.1z"/><path id="H" d="M446.9 91.5h35.7v1.3h-35.7z"/><path id="I" d="M482.6 94.1h-35.9v-1.4h35.9v1.4zm-35.7-.2h35.6v-1.1h-35.6v1.1z"/><path id="J" d="M446.8 91.5h-32.1v-1.4h32.1v1.4zm-32-.1h31.8v-1.1h-31.8v1.1z"/><path id="K" d="M446.8 94.1h-32.1v-1.4h32.1v1.4zm-32-.2h31.8v-1.1h-31.8v1.1z"/><path id="L" d="M482.6 63.9h-8.7v-7.2h8.7v7.2zm-8.5-.2h8.4v-6.9h-8.4v6.9z"/><path id="M" d="M236.4 61.1h11.4v7.3h-11.4z"/><path id="N" d="M247.8 68.5h-11.5v-7.4h11.5v7.4zm-11.4-.1h11.3v-7.3h-11.3v7.3z"/><path id="O" d="M247.8 75.8h-11.5v-7.4h11.5v7.4zm-11.4 0h11.3v-7.3h-11.3v7.3z"/><path id="P" d="M247.8 59.3h-72.4v-4.8h72.4v4.8zm-72.3-.1h72.2v-4.6h-72.2v4.6z"/><path id="Q" d="M178.1 55.1h1.3v1.1h-1.3z"/><path id="R" d="M176.6 57.4h2.4v1.3h-2.4z"/><path id="S" d="M176.8 63.2h1.6v1.5h-1.6z"/><path id="T" d="M237.6 62h1.4v1.2h-1.4z"/><path id="U" d="M240.1 62h5.5v1.2h-5.5z"/><path id="V" d="M551 113h0c-.6.1-1.1-.4-1.2-1l-2.4-19.7c-.1-.6.4-1.1 1-1.2h0c.6-.1 1.1.4 1.2 1l2.4 19.7c0 .6-.4 1.1-1 1.2z"/><path id="W" d="M301.9 273.7c0 6.5-34.8 11.8-77.7 11.8s-77.7-5.3-77.7-11.8 34.8-11.8 77.7-11.8 77.7 5.3 77.7 11.8z"/><path id="X" d="M251.2 167.1v-.4c.1-4.1-4.4-7.4-10.1-7.4s-10.3 3.4-10.3 7.5v.4l20.4-.1z"/><path id="Y" d="M247.1 165.6c0-.1-3-4.5-5.5-4.9-5.6-.7-10.6 2-10.7 6.1v.4l16.2-1.6z"/><path id="Z" d="M235.5 88.4c-11.2-1.4-22.4-1.4-33.6 0l1-6.9c10.6-1.2 21.3-1.2 32 0l.6 6.9z"/><path id="a" d="M221.1 85.6c-6.5.5-12.8 1.7-19.2 2.7v.1c11.2-1.4 22.4-1.4 33.6 0l-.6-6.8c-3.2 3.8-9 3.6-13.8 4z"/><path id="b" d="M175.6 272.7c0 2.4-1.9 4.3-4.3 4.3s-4.3-1.9-4.3-4.3 1.9-4.3 4.3-4.3c2.4-.1 4.3 1.9 4.3 4.3z"/><path id="c" d="M171.3 278.8c-3.4 0-6.2-2.8-6.2-6.2s2.8-6.2 6.2-6.2 6.2 2.8 6.2 6.2c0 3.5-2.8 6.2-6.2 6.2zm0-8.6c-1.4 0-2.5 1.1-2.5 2.5s1.1 2.5 2.5 2.5 2.5-1.1 2.5-2.5-1.1-2.5-2.5-2.5z"/><path id="d" d="M273.4 272.7h0a6.7 6.7 0 0 0-13.4 0h0 13.4z"/><path id="e" d="M258.4 188c0-.1 0-.1 0 0l-7.3-67.1-6.1-2.7-52.3 1.4-6.2 4.5-6.8 64v.2.2c0 .1 3.2 15.6 3.2 15.6.3 1.7 1.8 2.9 3.5 2.9h65.3c1.7 0 3.2-1.2 3.5-2.9l3.2-16.1z"/><path id="f" d="M255.4 137.7c-1.5 5.1-4.1 9.7-7.2 14-11.1 15.3-28.3 25.5-46.2 30.6-7.3 2.1-14.8 3.4-22.3 4.2l-.1 1.4v.2.2.2.2.1l3.1 15.4c.3 1.7 1.8 2.9 3.5 2.9h65.3c1.7 0 3.2-1.2 3.5-2.9l3.1-15.4v-.1-.2-.2-.2-.2l-2.3-52.4c0 .7-.2 1.5-.4 2.2z"/><path id="g" d="M202.6 264.3c-.3 0 6.2-7.3 6.2-7.3.4-.4 3.6-.1 3.2.4l-8.3 6.4c-.2.1-.8.5-1.1.5z"/><path id="h" d="M234.7 257.1c-.6-.2 1.1-2.3 1.7-2.2l28.4 8.2c.5.2-30.1-6-30.1-6z"/></defs><clipPath id="i"><use xlink:href="#A"/></clipPath><g class="d"><path d="M153.8 252.1h28.4v12.1h-28.4z" class="AC"/><path d="M182.2 264.2v-12.1 12.1z" class="AC"/></g><path d="M269.7 251.1c1.3 5.1 5.3-.7 9.7.9 10.5 5.1-4.5 11.8-24.4 11.8-3.8 0-.7-12.7-.7-12.7h15.4z" class="z"/><path d="M279.4 252.1c-4.4-1.7-8.4 4.1-9.7-.9h-15.4l-.4 1.9c6.5-2.6 9.7 5.6 13.7 9.9 12.8-2.1 20-7 11.8-10.9z" fill="#2d1c12"/><defs><path id="j" d="M279.4 252.1l1.8 1.3c.5.5 1 1.1 1.2 1.7s0 1.2-.3 1.7a6.73 6.73 0 0 1-1.5 1.4c-1.2.7-2.5 1.3-3.9 1.8s-2.8.9-4.2 1.2c-2.8.7-5.7 1.2-8.7 1.6l-8.8 1c3 .3 6 .3 9 .1s6-.6 8.9-1.4 5.8-1.7 8.4-3.6c.6-.5 1.2-1 1.6-1.8.4-.7.6-1.7.2-2.5s-1-1.3-1.6-1.7l-1-.6c-.4 0-.7-.1-1.1-.2z"/></defs><clipPath id="k"><use xlink:href="#j"/></clipPath><g class="d"><path d="M255 263.8v-11.7h28.4v12.1H255z" class="AD"/><path d="M255 252.1v11.7-11.7z" class="AD"/></g><path d="M264.5 172.6l-28.3-7.7h-35.3l-28.3 7.7-5.1 78.5h15.4l6.5-60.4h58.3l6.5 60.4h15.5z" class="e"/><path d="M169.6 218.3l-2.2 32.8h15.4l5-46.6c-4 6.4-10.8 11.1-18.2 13.8zm96.2-26.5c-.9 4.8-2 9.5-3.9 14.1-2.5 6-6.4 11.3-10.8 16.1l3.1 29.2h15.4l-3.8-59.4z" fill="#313032"/><path d="M167.1 146.1l19.7 4.9 1.1-11.3-5.3-6.8z" class="AA"/><path d="M186.2 90.6l-23.4 46.1s-1.2 3.7 2.8 8.1c4 4.3 8.1 0 8.1 0l17.3-22.4-4.8-31.8z" class="AB"/><path d="M188.2 114.6c-1.2 2.6-3.1 5-4.9 7.2-1.6 2 3.8 3.4 7 1.2l.5-.7-1.6-10.9c-.2 1.2-.6 2.2-1 3.2z" class="AA"/><path d="M238.1 62.4l-3.3 5.4-5.5 6.6-2.2 1.9h-15.4l-2.7-2.4-2.9-3.3-3.6-8.5-2.5-11.2-.7-4.7c-.1.4-.1.7-.1.8 0 .4.8 6.1.8 6.1l2.6 12.3 3.6 9.3 2.9 3.6 2.7 2.6h15.4l2.2-2.1 5.5-7.2 3.3-5.9c.6-1.2 2.8-11.5 2.8-11.5s.2-5.1.2-8.7c0 3-.2 6.4-.2 6.4s-2.3 9.4-2.9 10.5z" class="z"/><path d="M241.1 44.1c0-.8-.1-1.4-.2-1.7-.4-1.9-4-8.1-8.8-11.7s-13.2-4.2-17.8-3.5c-4.7.7-10.5 8.9-10.5 8.9v1.6 1l-2.3.1-1.5 2.6-.6 3.2c-.1.6-.2 1.2-.3 1.6.2 1.6.7 4.7.7 4.7l2.6 11.2 3.6 8.5 2.9 3.3 2.7 2.4H227l2.2-1.9 5.5-6.6 3.3-5.4c.6-1.1 2.8-10.5 2.8-10.5s.2-3.4.2-6.4c.1-.6.1-1 .1-1.4z" fill="#603b17"/><g class="d k"><path d="M241.1 45.4V44c0-.8-.1-1.4-.2-1.7-.2-.9-1-2.6-2.3-4.6.3 3.6.2 7.3-.4 11-1.4 9.1-5.5 18.4-12.9 24.1a21.6 21.6 0 0 1-6.1 3.4c-2.2.8-4.6 1.3-7.1 1.5-1.1.1-2.3.1-3.4.1l.3.4 2.7 2.6h15.4l2.2-2.1 5.5-7.2 3.3-5.9c.6-1.2 2.8-11.5 2.8-11.5s.2-5.1.2-8.7z"/></g><use xlink:href="#Z" fill="#c6c3e1"/><use xlink:href="#a" fill="#9796a4"/><path d="M240.9 169c-13.8 7.6-30.6 7.6-44.3 0-.1-.3-6.6-47.7-10.4-78.4 21.5-5.3 43.6-5.3 65.1 0L240.9 169z" class="AB"/><path d="M330.4 97.9l20.3.4s.8 7.5.1 9.7-2.8 5-4.1 5.5-3.7-1-4.3-1.4-.1-2.7-.1-2.7l-10.4-1-1.5-10.5z" fill="#fab57a"/><g class="k"><path d="M348.4 105.4c-1.8-.5-3.9 0-5.8.2-2.1.3-4.2.4-6.3.5l-4.7.1.3 2.1 10.4 1s-.5 2.3.1 2.7 3 1.9 4.3 1.4c.9-.3 2.3-1.9 3.2-3.6.4-1.7.7-3.7-1.5-4.4z" fill="#bd8e68"/></g><path d="M327 97.9h7.4l-.5 12h-5.5z" class="r"/><path d="M328 106.7l.4 3.2h5.5l.2-4.1-6.1.9z" fill="#bcbdbf"/><path d="M251.3 90.6l36.7 13.7 40.3-7.8 3.1 16.3-43.4 9-40.7-4.7z" class="AB"/><g class="AA"><path d="M248.4 105.3c-.8.4-1.7 1.4-2.4 2-1.4 1.2-2.8 2.6-4.6 3.3-1.8.8-3.8.9-5.7 1.1-5.6.5-11.2.5-16.8.5l-29.9.3 7.6 56.5c13.8 7.6 30.6 7.6 44.3 0 .1-.2 4.8-34.6 8.6-63.8-.4-.1-.7-.1-1.1.1z"/><path d="M314.9 108.8c-5.1 1.6-9.7 4.3-14.9 5.8-4.5 1.3-8.6.9-13.2.1-5.3-.9-10.8-.8-16.1-1.5-4.7-.6-9.6-1.3-13.9-3.1-2.1-.9-3.9-2.1-5.7-3.6-.6-.5-1.2-1.3-2-1.4l-1.8 12 40.7 4.6 43.4-9-1-5.2c-5.2.5-10.5-.3-15.5 1.3z"/></g><use xlink:href="#b" class="e"/><use xlink:href="#c"/><path d="M178 272.7h0a6.7 6.7 0 0 0-13.4 0h0H178z"/><circle cx="266.7" cy="272.7" r="4.3" class="e"/><use xlink:href="#c" x="95.4"/><use xlink:href="#d"/><circle cx="236.9" cy="272.7" r="4.3" class="e"/><use xlink:href="#c" x="65.6"/><use xlink:href="#d" x="-29.7"/><circle cx="199.6" cy="272.7" r="4.3" class="e"/><use xlink:href="#c" x="28.3"/><use xlink:href="#d" x="-67.1"/><path d="M175.5 161h6.5v35.7h-6.5zm80.6 0h6.5v35.7h-6.5z"/><path d="M175.5 161h6.5v8.6h-6.5zm80.6 0h6.5v8.6h-6.5z" class="h"/><path d="M215.6 202.3h7.2v54.2h-7.2z" class="o"/><path d="M216.4 202.3h1.6v54.2h-1.6z" class="g"/><path d="M213.8 202.3h10.8V223h-10.8z" class="d"/><path d="M215.6 202.3h2.4V223h-2.4z" class="g"/><path d="M210.9 202.3h16.2v10.3h-16.2z" class="d"/><path d="M213.6 202.3h3.6v10.3h-3.6z" class="g"/><path d="M213.8 231.4h10.8v25.1h-10.8z" class="d"/><path d="M215.6 231.4h2.4v25.1h-2.4z" class="g"/><path d="M258.3 188.5v-.2-.2-.2l-3.1-69.5c-.1-1.9-1.7-3.4-3.6-3.4h-65.3c-1.9 0-3.5 1.5-3.6 3.4l-3.1 69.5v.2.2.2.2.1l3.1 15.4c.3 1.7 1.8 2.9 3.5 2.9h65.3c1.7 0 3.2-1.2 3.5-2.9l3.1-15.4v-.1c.2-.1.2-.1.2-.2z" class="e"/><use xlink:href="#e" class="d"/><use xlink:href="#f"/><path d="M170.5 269c-1.3 0-2.5-.8-2.8-2.1-.5-1.6.4-3.2 2-3.7l32.1-9.4c.3-.1.7-.2 1.1-.2l30.8-.1c.4 0 .8.1 1.1.2l32.2 9.1c1.6.4 2.5 2.1 2 3.6-.4 1.6-2.1 2.5-3.6 2l-32.1-9.1-29.8.1-32 9.4c-.5.2-.8.2-1 .2z"/><path d="M202.6 268.9c-.8 0-1.6-.3-2.2-1-1.1-1.2-1-3.1.2-4.2l10.4-9.3c.5-.5 1.3-.9 2.1-.9h10.1c.8 0 1.5.3 2.1.9l.1.1 10.4 9.1c1.2 1.1 1.4 2.9.3 4.2-1.1 1.2-2.9 1.4-4.2.3l-9.8-8.6h-7.8l-9.8 8.7c-.5.4-1.2.7-1.9.7z"/><g class="g"><g class="k"><use xlink:href="#g"/></g><g class="k"><use xlink:href="#h"/></g></g><path d="M207.9 37.4c1.3-2.2 2.7-4.4 5-5.5 1.2-.6 2.5-.7 3.9-.9 2.8-.3 5.7-.6 8.5-.1s5.6 1.7 7.4 3.9c1.2 1.5 1.9 3.5 2.4 5.4 1.1 5 .6 10.3-1.8 14.8-2.3 4.5-6.5 8.1-11.4 9.4-2.8.7-6 .7-8.2-1.1-.9-.8-1.6-1.8-2.3-2.8-2.3-3.3-4.6-6.7-5.8-10.5s-1.2-8.2 1-11.6l1.3-1z" fill="#764d2a"/><path d="M342.4 109.3l2.1-2.4-1.1 2.2 3-.4-2.6.9.2.7z" fill="#ba875c"/><path d="M496.319 96.484h-24.7v-28.6h24.7z" fill="#e78052"/><g class="m"><path d="M440.3 251.1c-1.1 5.1-4.5-.7-8.2.9-8.9 5.1 3.8 11.8 20.7 11.8 3.2 0 .6-12.7.6-12.7h-13.1z"/><path d="M440.9 258.4c-1.7-.3-4-.6-5.3-2-1.2-1.3-.7-2.9.2-4.1-1.1-.5-2.4-.8-3.7-.2-8.9 5.1 3.8 11.8 20.7 11.8.2 0 .5-.1.6-.2-3.7-3-7.9-4.5-12.5-5.3z"/></g><defs><path id="l" d="M432 252.1c-.5.4-1.1.8-1.5 1.3-.5.5-.8 1.1-1 1.7s0 1.2.3 1.7.8 1 1.3 1.4c1 .7 2.1 1.3 3.3 1.8s2.3.9 3.5 1.2c2.4.7 4.9 1.2 7.3 1.6l7.5 1c-2.5.3-5 .3-7.6.1-2.5-.2-5-.6-7.5-1.4s-4.9-1.7-7.1-3.6c-.5-.5-1-1-1.4-1.8-.4-.7-.5-1.7-.2-2.5s.8-1.3 1.4-1.7c.3-.2.6-.4.8-.6.4 0 .7-.1.9-.2z"/></defs><use xlink:href="#l" class="m"/><clipPath id="m"><use xlink:href="#l"/></clipPath><g class="m"><path d="M428.7 252.1h24.1v12.1h-24.1z" class="AE"/><path d="M452.7 264.2v-12.1 12.1z" class="AE"/><path d="M526.8 251.1c1.1 5.1 4.5-.7 8.2.9 8.9 5.1-3.8 11.8-20.7 11.8-3.2 0-.6-12.7-.6-12.7h13.1z"/><path d="M535 252.1c-3.7-1.7-7.1 4.1-8.2-.9h-13.1s-.2.8-.3 1.9c5.5-2.6 8.2 5.6 11.6 9.9 10.9-2.1 16.9-7 10-10.9z"/></g><defs><path id="n" d="M535 252.1c.5.4 1.1.8 1.5 1.3.5.5.8 1.1 1 1.7s0 1.2-.3 1.7-.8 1-1.3 1.4c-1 .7-2.1 1.3-3.3 1.8s-2.3.9-3.5 1.2c-2.4.7-4.9 1.2-7.3 1.6l-7.5 1c2.5.3 5 .3 7.6.1 2.5-.2 5-.6 7.5-1.4s4.9-1.7 7.1-3.6c.5-.5 1-1 1.4-1.8.4-.7.5-1.7.2-2.5s-.8-1.3-1.4-1.7c-.3-.2-.6-.4-.8-.6-.3 0-.6-.1-.9-.2z"/></defs><use xlink:href="#n" class="m"/><clipPath id="o"><use xlink:href="#n"/></clipPath><g class="m"><path d="M514.3 264.2v-.3-11.8h24.1v12.1z" class="AF"/><path d="M514.3 263.9v.3h0z" class="AF"/></g><path d="M529.3 177l-30.8-12.1h-29.9l-24 7.7-4.3 78.5h13l5.5-60.4h54.4l.5 60.4h13.1z" class="e"/><path d="M442.1 218.3l-1.8 32.8h13.1l4.2-46.6c-3.5 6.4-9.3 11.1-15.5 13.8zm86.4-22.1c-.8 4.8-11.2 20.9-14.9 25.7l.2 29.2h13.1l1.6-54.9z" fill="#313032"/><path d="M539.1 138.2l-27.9-1.9 9.9-16.6z"/><path d="M516.9 90.6l27.7 35.3s4 6.1 0 10.4-13.5-.3-13.5-.3l-19-13.6 4.8-31.8z" class="d"/><use xlink:href="#Z" x="265.6" fill="#c6c3e1"/><use xlink:href="#a" x="265.6" fill="#9796a4"/><path d="M462.2 169c13.8 7.6 30.6 7.6 44.3 0 .1-.3 6.6-47.7 10.4-78.4-21.5-5.3-43.6-5.3-65.1 0l10.4 78.4z" class="e"/><path d="M372.6 97.9l-20.3.4s-.8 7.5-.1 9.7 2.8 5 4.1 5.5 3.7-1 4.3-1.4.1-2.7.1-2.7l10.4-1 1.5-10.5z" fill="#fab57a"/><g class="k"><path d="M354.6 105.4c1.8-.5 3.9 0 5.8.2 2.1.3 4.2.4 6.3.5l4.7.1-.3 2.1-10.4 1s.5 2.3-.1 2.7-3 1.9-4.3 1.4c-.9-.3-2.3-1.9-3.2-3.6-.4-1.7-.7-3.7 1.5-4.4z" fill="#bd8e68"/></g><path d="M376 97.9h-7.4l.5 12h5.5z" class="r"/><path d="M375 106.7l-.4 3.2h-5.5l-.2-4.1 6.1.9z" fill="#bcbdbf"/><path d="M451.8 90.6L415 104.3l-40.3-7.8-3.1 16.3 43.4 9 40.7-4.7z" class="e"/><g class="d"><path d="M454.6 105.3c.8.4 1.7 1.4 2.4 2 1.4 1.2 2.8 2.6 4.6 3.3 1.8.8 3.8.9 5.7 1.1 5.6.5 11.2.5 16.8.5l29.9.3-7.6 56.5c-13.8 7.6-30.6 7.6-44.3 0-.1-.2-4.8-34.6-8.6-63.8.4-.1.8-.1 1.1.1z"/><path d="M388.2 108.8c5.1 1.6 9.7 4.3 14.9 5.8 4.5 1.3 8.6.9 13.2.1 5.3-.9 10.8-.8 16.1-1.5 4.7-.6 9.6-1.3 13.9-3.1 2.1-.9 3.9-2.1 5.7-3.6.6-.5 1.2-1.3 2-1.4l1.8 12-40.7 4.6-43.4-9 1-5.2c5.1.5 10.4-.3 15.5 1.3z"/></g><circle cx="437.1" cy="272.7" r="4.3" class="e"/><use xlink:href="#c" x="265.8"/><use xlink:href="#d" x="170.5"/><use xlink:href="#b" x="361.2" class="e"/><use xlink:href="#c" x="361.2"/><path d="M539.2 272.7h0a6.7 6.7 0 1 0-13.4 0h0 13.4z"/><path d="M507.1 272.7c0 2.4-1.9 4.3-4.3 4.3s-4.3-1.9-4.3-4.3 1.9-4.3 4.3-4.3c2.3-.1 4.3 1.9 4.3 4.3z" class="e"/><path d="M502.8 278.8c-3.4 0-6.2-2.8-6.2-6.2s2.8-6.2 6.2-6.2 6.2 2.8 6.2 6.2c-.1 3.5-2.8 6.2-6.2 6.2zm0-8.6c-1.4 0-2.5 1.1-2.5 2.5s1.1 2.5 2.5 2.5 2.5-1.1 2.5-2.5c-.1-1.4-1.2-2.5-2.5-2.5z"/><use xlink:href="#d" x="236.1"/><path d="M469.7 272.7c0 2.4-1.9 4.3-4.3 4.3s-4.3-1.9-4.3-4.3 1.9-4.3 4.3-4.3 4.3 1.9 4.3 4.3z" class="e"/><use xlink:href="#c" x="294.1"/><use xlink:href="#d" x="198.8"/><path d="M441.3 161h6.5v35.7h-6.5zm80.6 0h6.5v35.7h-6.5z"/><path d="M441.3 161h6.5v8.6h-6.5zm80.6 0h6.5v8.6h-6.5z" class="h"/><path d="M481.4 202.3h7.2v54.2h-7.2z" class="o"/><path d="M482.3 202.3h1.6v54.2h-1.6z" class="g"/><path d="M479.6 202.3h10.8V223h-10.8z" class="d"/><path d="M481.4 202.3h2.4V223h-2.4z" class="g"/><path d="M476.7 202.3h16.2v10.3h-16.2z" class="d"/><path d="M479.4 202.3h3.6v10.3h-3.6z" class="g"/><path d="M479.6 231.4h10.8v25.1h-10.8z" class="d"/><path d="M481.4 231.4h2.4v25.1h-2.4z" class="g"/><path d="M524.2 188.5v-.2-.2-.2l-3.1-69.5c-.1-1.9-1.7-3.4-3.6-3.4h-65.3c-1.9 0-3.5 1.5-3.6 3.4l-3.1 69.5v.2.2.2.2.1l3.1 15.4c.3 1.7 1.8 2.9 3.5 2.9h65.3c1.7 0 3.2-1.2 3.5-2.9l3.1-15.4v-.1l.2-.2z" class="e"/><use xlink:href="#e" x="265.8" class="d"/><use xlink:href="#f" x="265.8"/><path d="M436.3 269c-1.3 0-2.5-.8-2.8-2.1-.5-1.6.4-3.2 2-3.7l32.1-9.4c.3-.1.7-.2 1.1-.2l30.8-.1c.3 0 .8.1 1.1.2l32.2 9.1c1.6.4 2.5 2.1 2 3.6-.4 1.6-2.1 2.5-3.6 2l-32.1-9.1-29.8.1-32 9.4c-.5.2-.7.2-1 .2z"/><path d="M468.4 268.9c-.8 0-1.6-.3-2.2-1-1.1-1.2-1-3.1.2-4.2l10.4-9.3c.5-.5 1.3-.9 2.1-.9H489c.8 0 1.5.3 2.1.9l.1.1 10.4 9.1c1.2 1.1 1.4 2.9.3 4.2-1.1 1.2-2.9 1.4-4.2.3l-9.8-8.6h-7.8l-9.8 8.7c-.5.4-1.2.7-1.9.7z"/><g class="g"><g class="k"><use xlink:href="#g" x="265.8"/></g><g class="k"><use xlink:href="#h" x="265.8"/></g></g><path d="M360.6 109.3l-2.1-2.4 1.1 2.2-3-.4 2.7.9-.3.7z" fill="#ba875c"/><g fill="#ee9f5e"><path d="M494.2 88.3s-14.5-12-22.7-1.5c0 0 5.7 7.9 11.8 8 5.4.1 10.9-6.5 10.9-6.5z"/><path d="M482.3 83.1c3.4 3.3 8.2 6.3 12 5.3-.9-8.5 0-9.2 0-9.2s-14.4-7.5-22.7 3l.4 4.4c.4-.5 9.9-3.2 10.3-3.5z"/></g><path d="M462.6 70.1c-.8-2.5-2.4-7.9-2.6-10.9-.6-8.4 1.7-14.8 2-16.5.5-3 6.1-11.6 10.5-12.5 1.7-.4 14.6-2 19.5-.5s10.7 8.3 11.3 11.8c2.2 11.3 2.3 17.8.2 25.9-4.5 7.5-6.3 13.5-9.5 17.8-2.8 1.4-6.7-.6-11.5-3.9-3-.5-7.2.8-10.5 3-5.4-5.7-3.3-7.9-9.4-14.2z" fill="#672f12"/><path d="M483 81.7s-10.3-4.6-2.2-16c0 0-7.9 7.1-4.7 16.6 2.1-.7 5.9-.6 6.9-.6zm20.5-14.2S491.8 73 486 66.3c0 0 3.4 6.3 14.6 6.1l2.9-4.9zm-36.1 8.6s-3.7-9.5 11.1-12.1c0 0-7.3-1.4-15.5 6.3l4.4 5.8z" class="n"/><path d="M500.6 73.6s-12.2 8.9-15.7-7.6c0 0 .6 18 15.7 7.6z" class="s"/><path d="M495 84s-13.3-1.3-13.6-14.5c0 0-2.6 13.5 12.7 15.7l.9-1.2zm-15.4-19.8s-16.8 5.3-7.8 20.2c.1-.1-7.1-13.1 7.8-20.2z" class="n"/><path d="M463.6 39.2s-2.4 11.9 1.8 14.6c6.9 4.4 13.8 7.9 13.8 7.9s-13.4-5.2-19-8.9c-.1 0 .2-5.8 3.4-13.6zm1.8-2.2s-4.7 15.4 11.9 22.9c.1 0-12.9-5.7-11.9-22.9z" class="s"/><path d="M472.1 30.2s-4.1 3.4-3.7 8.1c1.1 11 12.3 22.4 12.3 22.4s-10.4-13.9-10.4-23.1c0-4.5 1.8-7.4 1.8-7.4zm.5 0l4.6-.6s-6.1 17.7 3.7 28.5c0 0-12.8-11.7-8.3-27.9zm7-1s-5.1 8.9-1.9 22c0 .1-.8-12.5 1.9-22zm10.7 0s2.2 18.5-7.5 29.1c0 0 13.8-11.8 12.8-26.7 0 .1-1.2-2-5.3-2.4zm6.8 3.7s5.8 12.6-.8 20.7-12.5 9.3-12.5 9.3 11.4-4.6 13.8-8.6 5.2-13.6-.5-21.4z" class="n"/><path d="M487.6 29.1s3.8 11.6-3 21.7c0 0 5.3-12.3 3-21.7z" class="s"/><path d="M499.5 35.5s2.6.3 3.7 5.5 1.6 10.1 1.4 12.3-5.6 11.9-19.1 11.6c0 0 15.6-5.8 15.2-17.1-.3-11.3-1.2-12.3-1.2-12.3z" class="n"/><g class="s"><path d="M460.2 53.4s1.6 6.3 18.3 9.8c0 0-11.9 2.3-17.6-1.5-.1 0-1.2-3.3-.7-8.3z"/><path d="M488.5 62.4s-11.2-6.7-16.8.5c-5.5 7.2-7.7 14.8-3.6 20.3 4.1 5.4 15.8 13.1 24.9 6.7 9.2-6.5 13.7-21.5-4.5-27.5z"/></g><path d="M487.9 63.8s-9.9-6.4-14.7.5-6.7 14.2-3.1 19.4 13.9 12.5 21.8 6.4c8-6.3 12-20.7-4-26.3z" fill="#672f12"/><g class="n"><path d="M483.3 71.1s-8.9 4.5-5.5 10.4 14.8 1.7 11-4.9c0 0-3.3 9.3-9.3 4-3.4-3.1 3.8-9.5 3.8-9.5zm5.5-6.2s-6.7-2.5-10.5 5.4c0 0 1.2-7.9 5.7-8.2 0 .1 2.6-.7 4.8 2.8z"/><path d="M473.3 64.7s-5.4 9.8 3.9 15.8c0 0-8.2-9 .3-18.5l-4.2 2.7zM468.4 80s8.6 12.1 19.4 3c0 0 1.7 5.2-6.2 8.7 0-.1-9.3.4-13.2-11.7z"/></g><path d="M483.8 74s12-2 8.9 14.3c-.1.1 8.5-17.7-8.9-14.3zm13.6-5.1s-9.3-6.2-15.1 4.2c0 0 2.7-12.9 15.1-4.2z" class="s"/><path d="M486.6 73.8s-8.6 3.7-1.9 8.2c0 0-3.8-3 1.9-8.2z" class="n"/><path d="M246.2 47.3h-3.6c0-10.8-9.7-19.6-21.7-19.6s-21.7 8.8-21.7 19.6h-3.6c0-12.6 11.4-22.9 25.3-22.9 14 0 25.3 10.3 25.3 22.9z"/><path d="M201.6 45c0-1.6-1.3-2.8-2.8-2.8h-2.1c-1.6 0-2.8 1.3-2.8 2.8v15.2c0 1.6 1.3 2.8 2.8 2.8h2.1c1.6 0 2.8-1.3 2.8-2.8V45z"/><path d="M194.9 47.6h-6.6c-1.2 0-2.1 1-2.1 2.1v5.6c0 1.2 1 2.1 2.1 2.1h3.9v-4.1h1.5v4.1h1.1c1.2 0 2.1-1 2.1-2.1v-5.6c.1-1.1-.8-2.1-2-2.1zm45.9-2.6c0-1.6 1.3-2.8 2.8-2.8h2.1c1.6 0 2.8 1.3 2.8 2.8v15.2c0 1.6-1.3 2.8-2.8 2.8h-2.1c-1.6 0-2.8-1.3-2.8-2.8V45z"/><path d="M247.4 47.6h6.6c1.2 0 2.1 1 2.1 2.1v5.6c0 1.2-1 2.1-2.1 2.1h-3.9v-4.1h-1.5v4.1h-1.1c-1.2 0-2.1-1-2.1-2.1v-5.6c-.1-1.1.8-2.1 2-2.1zm-21.5-24.3c-3.3-.3-6.6-.3-10 0-.8.1-1.4.8-1.3 1.6l.4 2.8c.1.8.8 1.4 1.7 1.3a40.25 40.25 0 0 1 8.5 0c.8.1 1.6-.5 1.7-1.3l.4-2.8c0-.8-.6-1.5-1.4-1.6z"/></svg>