<svg version="1.1" xmlns="http://www.w3.org/2000/svg">
  <symbol viewBox="0 0 108.68 155.54">
  <g id="mobileLogo"><circle cx="53.16" cy="101.65" r="19.36"/><path d="M108.52,100.79V0H82V54.68a54.28,54.28,0,1,0-13.26,98.85,2,2,0,0,0,.48-.13V132a13.85,13.85,0,0,1-2.8,1.72,31.54,31.54,0,0,1-13.57,2.75,32.67,32.67,0,0,1-24.33-10,34.11,34.11,0,0,1-9.7-24.61c0-9.86,3.33-18.23,9.91-24.89S43.66,67,53.51,67c5,0,15.14,1.33,21.35,6.22,5.71,4.51,11.83,11.09,11.63,28.38-.06,5.12,0,28.08.12,43.39a21.19,21.19,0,0,0,2.6-2.13,54.12,54.12,0,0,0,19.28-40h0v-1.42C108.49,101.22,108.52,101,108.52,100.79Z" transform="translate(0.16)"/>
  </g>
  </symbol>
  <symbol viewBox="0 0 545.74 192.55">
  <g id="desktopLogo"><path d="M436.67,128.7c0,8-.29,13.61-.87,16.68a23.29,23.29,0,0,1-2.53,7.28,21.19,21.19,0,0,1-8.25,8,25.68,25.68,0,0,1-12.26,2.78c-8.19,0-13.78-2.07-17.11-6.34-3.53-4.54-5.33-12.85-5.33-24.69V77.81h-20.8v53.73c0,18.29,3.27,31.19,10,39.44s17.9,12.65,32.85,12.65a44.91,44.91,0,0,0,18.17-3.38,33.08,33.08,0,0,0,6.12-3.53V181h20.8V77.81h-20.8Z" transform="translate(-25.26 -28.55)"/>
  <path d="M223.29,146.74a31.57,31.57,0,0,1-10.51,11.59,30,30,0,0,1-16.79,4.8c-9,0-16.18-2.71-22.1-8.27a30.59,30.59,0,0,1-9.22-17.26h84.75v-5.28c0-16.7-4.92-30.52-14.62-41.07s-22.58-16.08-38-16.08c-15.65,0-28.72,5.17-38.85,15.38s-15.24,23.23-15.24,38.72a53.21,53.21,0,0,0,15.53,38.35,51.24,51.24,0,0,0,38.08,16,50.61,50.61,0,0,0,30-9.22c8.53-6.06,15.22-14.82,19.88-26l.69-1.65Zm-48.64-43.93c5.56-5,12.22-7.43,20.33-7.43,8.83,0,15.72,2.25,21.07,6.88,4.31,3.74,7.59,9.11,9.79,16H165.42A30.85,30.85,0,0,1,174.65,102.81Z" transform="translate(-25.26 -28.55)"/>
  <path d="M544.87,146.74a31.66,31.66,0,0,1-10.51,11.59,30,30,0,0,1-16.79,4.8c-9,0-16.18-2.71-22.1-8.27a30.55,30.55,0,0,1-9.21-17.26H571v-5.28c0-16.7-4.92-30.52-14.61-41.07s-22.59-16.08-38-16.08c-15.65,0-28.72,5.17-38.85,15.38s-15.24,23.23-15.24,38.72a53.21,53.21,0,0,0,15.53,38.35,51.27,51.27,0,0,0,38.08,16,50.59,50.59,0,0,0,30-9.22c8.53-6.06,15.22-14.82,19.88-26l.69-1.65Zm-48.64-43.93c5.57-5,12.22-7.43,20.33-7.43,8.83,0,15.73,2.25,21.07,6.88,4.31,3.75,7.59,9.12,9.79,16H487A30.92,30.92,0,0,1,496.23,102.81Z" transform="translate(-25.26 -28.55)"/>
  <g><circle cx="53" cy="101.65" r="19.36"/><path d="M133.78,129.34V28.55H107.26V83.23A54.28,54.28,0,1,0,94,182.08c.17,0,.32-.09.48-.13V160.53a13.58,13.58,0,0,1-2.8,1.72A31.59,31.59,0,0,1,78.11,165a32.66,32.66,0,0,1-24.33-10,34.1,34.1,0,0,1-9.7-24.61c0-9.86,3.33-18.23,9.91-24.89s14.93-10,24.78-10c5,0,15.14,1.33,21.35,6.22,5.71,4.51,11.83,11.09,11.63,28.38-.06,5.12,0,28.08.12,43.39a21.23,21.23,0,0,0,2.6-2.13,54.1,54.1,0,0,0,19.28-40h0v-.92c0-.17,0-.33,0-.5S133.78,129.51,133.78,129.34Z" transform="translate(-25.26 -28.55)"/></g>
  <path d="M362.14,218.52s0-3.4-.05-8.85l0-6.64v0c-.12-23.14-.32-64.92-.22-73.6.31-26.8-9.18-37-18-44-9.62-7.59-25.32-9.65-33.1-9.65-15.27,0-28.19,5.24-38.42,15.58s-15.38,23.29-15.38,38.58c0,15,5.07,27.88,15.05,38.17s22.72,15.55,37.72,15.55a48.89,48.89,0,0,0,21.11-4.24,23.37,23.37,0,0,0,9.06-7.43V221.1h22.31v-2.58Zm-52.62-55.61c-18.07,0-32.72-15-32.72-33.51s14.65-33.52,32.72-33.52,32.71,15,32.71,33.52S327.58,162.91,309.52,162.91Z" transform="translate(-25.26 -28.55)"/></g>
  </symbol>
  <symbol viewBox="0 0 123 120"><path id="searchIcon" d="M49.988,0h0.016v0.007C63.803,0.011,76.298,5.608,85.34,14.652c9.027,9.031,14.619,21.515,14.628,35.303h0.007v0.033v0.04 h-0.007c-0.005,5.557-0.917,10.905-2.594,15.892c-0.281,0.837-0.575,1.641-0.877,2.409v0.007c-1.446,3.66-3.315,7.12-5.547,10.307 l29.082,26.139l0.018,0.016l0.157,0.146l0.011,0.011c1.642,1.563,2.536,3.656,2.649,5.78c0.11,2.1-0.543,4.248-1.979,5.971 l-0.011,0.016l-0.175,0.203l-0.035,0.035l-0.146,0.16l-0.016,0.021c-1.565,1.642-3.654,2.534-5.78,2.646 c-2.097,0.111-4.247-0.54-5.971-1.978l-0.015-0.011l-0.204-0.175l-0.029-0.024L78.761,90.865c-0.88,0.62-1.778,1.209-2.687,1.765 c-1.233,0.755-2.51,1.466-3.813,2.115c-6.699,3.342-14.269,5.222-22.272,5.222v0.007h-0.016v-0.007 c-13.799-0.004-26.296-5.601-35.338-14.645C5.605,76.291,0.016,63.805,0.007,50.021H0v-0.033v-0.016h0.007 c0.004-13.799,5.601-26.296,14.645-35.338C23.683,5.608,36.167,0.016,49.955,0.007V0H49.988L49.988,0z M50.004,11.21v0.007h-0.016 h-0.033V11.21c-10.686,0.007-20.372,4.35-27.384,11.359C15.56,29.578,11.213,39.274,11.21,49.973h0.007v0.016v0.033H11.21 c0.007,10.686,4.347,20.367,11.359,27.381c7.009,7.012,16.705,11.359,27.403,11.361v-0.007h0.016h0.033v0.007 c10.686-0.007,20.368-4.348,27.382-11.359c7.011-7.009,11.358-16.702,11.36-27.4h-0.006v-0.016v-0.033h0.006 c-0.006-10.686-4.35-20.372-11.358-27.384C70.396,15.56,60.703,11.213,50.004,11.21L50.004,11.21z"/></symbol>
  <symbol viewBox="0 0 28 24"><g id="menuIcon"><rect x="2" y="3" rx="2" width="24" height="5"/><rect x="2" y="10" rx="2" width="24" height="5"/><rect x="2" y="17" rx="2" width="24" height="5"/></g></symbol>
  <symbol viewBox="0 0 80 80"><path id="showIcon" d="M70.3 13.8L40 66.3 9.7 13.8z" style="transform: rotate(var(--rotation-angle)); transform-origin: center; transition: transform 0.3s linear"/></symbol>
  <symbol viewBox="0 0 200 100">
  <g id="clever">
  <g><path fill="none" d="M -0.5,-0.5 C 66.1667,-0.5 132.833,-0.5 199.5,-0.5C 199.5,32.8333 199.5,66.1667 199.5,99.5C 132.833,99.5 66.1667,99.5 -0.5,99.5C -0.5,66.1667 -0.5,32.8333 -0.5,-0.5 Z"/></g>
  <g><path fill="#fefefe" style="fill: var(--icon-bg-color)" d="M 62.5,31.5 C 62.5,45.1667 62.5,58.8333 62.5,72.5C 61.5386,70.7354 61.2053,68.7354 61.5,66.5C 61.1667,65.8333 60.8333,65.1667 60.5,64.5C 61.8333,55.8333 61.8333,47.1667 60.5,38.5C 60.5,38.1667 60.5,37.8333 60.5,37.5C 61.1667,35.5 61.8333,33.5 62.5,31.5 Z"/></g>
  <g><path fill="#fefefe" style="fill: var(--icon-bg-color)" d="M 70.5,31.5 C 71.1667,38.5 71.8333,45.5 72.5,52.5C 71.1667,55.5 71.1667,58.5 72.5,61.5C 71.8333,65.1667 71.1667,68.8333 70.5,72.5C 70.5,58.8333 70.5,45.1667 70.5,31.5 Z"/></g>
  <g><path fill="#496ff2" d="M 60.5,37.5 C 60.5,37.8333 60.5,38.1667 60.5,38.5C 59.1879,40.4788 57.5212,42.1455 55.5,43.5C 44.3094,36.4358 37.3094,39.2691 34.5,52C 35.0598,61.5605 40.0598,65.5605 49.5,64C 51.8987,63.2689 54.0653,62.1022 56,60.5C 57.3712,62.0414 58.8712,63.3747 60.5,64.5C 60.8333,65.1667 61.1667,65.8333 61.5,66.5C 54.836,72.0911 47.1693,73.9244 38.5,72C 26.0639,65.0279 22.5639,54.8612 28,41.5C 37.5573,29.9911 48.3907,28.6578 60.5,37.5 Z"/></g>
  <g><path fill="#496ff2" d="M 62.5,31.5 C 65.1667,31.5 67.8333,31.5 70.5,31.5C 70.5,45.1667 70.5,58.8333 70.5,72.5C 67.8333,72.5 65.1667,72.5 62.5,72.5C 62.5,58.8333 62.5,45.1667 62.5,31.5 Z"/></g>
  <g><path fill="#fefefe" style="fill: var(--icon-bg-color)" d="M 60.5,38.5 C 61.8333,47.1667 61.8333,55.8333 60.5,64.5C 58.8712,63.3747 57.3712,62.0414 56,60.5C 54.0653,62.1022 51.8987,63.2689 49.5,64C 40.0598,65.5605 35.0598,61.5605 34.5,52C 37.3094,39.2691 44.3094,36.4358 55.5,43.5C 57.5212,42.1455 59.1879,40.4788 60.5,38.5 Z"/></g>
  <g><path fill="#496ff2" d="M 100.5,52.5 C 100.5,54.8333 100.5,57.1667 100.5,59.5C 93.6457,59.176 86.979,59.5093 80.5,60.5C 80.8588,62.371 81.8588,63.871 83.5,65C 88.0573,65.6742 92.3907,65.3409 96.5,64C 97.6872,65.0195 98.6872,66.1861 99.5,67.5C 97.5719,69.5882 95.2385,71.0882 92.5,72C 82.4895,74.4979 75.8228,70.9979 72.5,61.5C 71.1667,58.5 71.1667,55.5 72.5,52.5C 76.9613,41.304 84.628,38.4706 95.5,44C 98.0723,46.3128 99.739,49.1461 100.5,52.5 Z"/></g>
  <g><path fill="#fefefe" style="fill: var(--icon-bg-color)" d="M 120.5,42.5 C 123.287,41.5233 126.287,41.19 129.5,41.5C 129.737,42.791 129.404,43.791 128.5,44.5C 126.365,42.631 123.698,41.9644 120.5,42.5 Z"/></g>
  <g><path fill="#496ff2" d="M 154.5,52.5 C 154.5,54.8333 154.5,57.1667 154.5,59.5C 147.646,59.176 140.979,59.5093 134.5,60.5C 134.859,62.371 135.859,63.871 137.5,65C 141.988,65.5601 146.321,65.2268 150.5,64C 151.687,65.0195 152.687,66.1861 153.5,67.5C 151.572,69.5882 149.239,71.0882 146.5,72C 136.489,74.4979 129.823,70.9979 126.5,61.5C 126.665,57.8183 126.499,54.1516 126,50.5C 125.59,51.9007 125.09,53.234 124.5,54.5C 122.349,60.1412 120.183,65.8078 118,71.5C 115.205,72.7825 112.372,72.7825 109.5,71.5C 107.159,65.4713 104.825,59.4713 102.5,53.5C 102.672,52.5084 102.338,51.8417 101.5,51.5C 100.513,48.8544 99.5134,46.1878 98.5,43.5C 101.5,42.1667 104.5,42.1667 107.5,43.5C 109.568,49.5381 111.735,55.5381 114,61.5C 116.077,55.1011 118.244,48.7678 120.5,42.5C 123.698,41.9644 126.365,42.631 128.5,44.5C 127.588,45.7382 127.421,47.0715 128,48.5C 131.845,42.333 137.345,40.1663 144.5,42C 150.058,43.391 153.391,46.891 154.5,52.5 Z"/></g>
  <g><path fill="#fefefe" style="fill: var(--icon-bg-color)" d="M 156.5,42.5 C 156.5,52.5 156.5,62.5 156.5,72.5C 159.167,72.5 161.833,72.5 164.5,72.5C 161.713,73.4767 158.713,73.81 155.5,73.5C 155.5,69.1667 155.5,64.8333 155.5,60.5C 148.5,60.5 141.5,60.5 134.5,60.5C 140.979,59.5093 147.646,59.176 154.5,59.5C 154.5,57.1667 154.5,54.8333 154.5,52.5C 155.167,49.1667 155.833,45.8333 156.5,42.5 Z"/></g>
  <g><path fill="#496ff2" d="M 156.5,42.5 C 159.167,42.5 161.833,42.5 164.5,42.5C 164.34,44.1992 164.506,45.8659 165,47.5C 166.076,44.921 167.909,43.2543 170.5,42.5C 171.5,42.5 172.5,42.5 173.5,42.5C 173.5,45.1667 173.5,47.8333 173.5,50.5C 172.209,50.2627 171.209,50.596 170.5,51.5C 167.909,52.2543 166.076,53.921 165,56.5C 164.501,61.8229 164.334,67.1563 164.5,72.5C 161.833,72.5 159.167,72.5 156.5,72.5C 156.5,62.5 156.5,52.5 156.5,42.5 Z"/></g>
  <g><path fill="#fefefe" style="fill: var(--icon-bg-color)" d="M 170.5,42.5 C 171.568,41.5655 172.901,41.2322 174.5,41.5C 174.5,44.8333 174.5,48.1667 174.5,51.5C 173.167,51.5 171.833,51.5 170.5,51.5C 171.209,50.596 172.209,50.2627 173.5,50.5C 173.5,47.8333 173.5,45.1667 173.5,42.5C 172.5,42.5 171.5,42.5 170.5,42.5 Z"/></g>
  <g><path fill="#fefefe" style="fill: var(--icon-bg-color)" d="M 83.5,48.5 C 88.8249,47.3137 91.8249,49.3137 92.5,54.5C 88.5,54.5 84.5,54.5 80.5,54.5C 80.615,52.0532 81.615,50.0532 83.5,48.5 Z"/></g>
  <g><path fill="#fefefe" style="fill: var(--icon-bg-color)" d="M 137.5,48.5 C 142.709,47.3961 145.709,49.3961 146.5,54.5C 142.5,54.5 138.5,54.5 134.5,54.5C 134.615,52.0532 135.615,50.0532 137.5,48.5 Z"/></g>
  <g><path fill="#fefefe" style="fill: var(--icon-bg-color)" d="M 126.5,61.5 C 125.833,59.1667 125.167,56.8333 124.5,54.5C 125.09,53.234 125.59,51.9007 126,50.5C 126.499,54.1516 126.665,57.8183 126.5,61.5 Z"/></g>
  <g><path fill="#fefefe" style="fill: var(--icon-bg-color)" d="M 101.5,51.5 C 102.338,51.8417 102.672,52.5084 102.5,53.5C 101.532,55.6074 101.198,57.9407 101.5,60.5C 94.5,60.5 87.5,60.5 80.5,60.5C 86.979,59.5093 93.6457,59.176 100.5,59.5C 100.5,57.1667 100.5,54.8333 100.5,52.5C 101.167,52.5 101.5,52.1667 101.5,51.5 Z"/></g>
  </g>
  </symbol>
  <symbol viewBox="0 0 250 125">
  <g id="articulate">
  <g><path fill="none" d="M -0.5,-0.5 C 82.8333,-0.5 166.167,-0.5 249.5,-0.5C 249.5,41.1667 249.5,82.8333 249.5,124.5C 166.167,124.5 82.8333,124.5 -0.5,124.5C -0.5,82.8333 -0.5,41.1667 -0.5,-0.5 Z"/></g>
  <g><path fill="#5f5f5f" d="M 86.5,44.5 C 91.3276,44.3852 92.6609,46.5519 90.5,51C 84.7377,51.4178 83.4044,49.2511 86.5,44.5 Z"/></g>
  <g><path fill="#5f5f5f" d="M 75.5,46.5 C 75.5,46.8333 75.5,47.1667 75.5,47.5C 74.1667,47.5 72.8333,47.5 71.5,47.5C 71.5,56.1667 71.5,64.8333 71.5,73.5C 70.5067,64.6822 70.1734,55.6822 70.5,46.5C 72.1667,46.5 73.8333,46.5 75.5,46.5 Z"/></g>
  <g><path fill="#5f5f5f" d="M 75.5,47.5 C 75.5,50.1667 75.5,52.8333 75.5,55.5C 77.5,55.5 79.5,55.5 81.5,55.5C 81.5,56.5 81.5,57.5 81.5,58.5C 79.5,58.5 77.5,58.5 75.5,58.5C 75.1795,63.6946 75.5128,68.6946 76.5,73.5C 76.5,74.1667 76.8333,74.5 77.5,74.5C 78.5676,75.4345 79.901,75.7678 81.5,75.5C 81.5,76.8333 81.5,78.1667 81.5,79.5C 75.8811,80.9368 72.5477,78.9368 71.5,73.5C 71.5,64.8333 71.5,56.1667 71.5,47.5C 72.8333,47.5 74.1667,47.5 75.5,47.5 Z"/></g>
  <g><path fill="#5f5f5f" d="M 148.5,46.5 C 150.167,46.5 151.833,46.5 153.5,46.5C 153.5,57.5 153.5,68.5 153.5,79.5C 151.833,79.5 150.167,79.5 148.5,79.5C 148.5,68.5 148.5,57.5 148.5,46.5 Z"/></g>
  <g><path fill="#5f5f5f" d="M 157.5,47.5 C 165.5,47.5 173.5,47.5 181.5,47.5C 181.5,48.5 181.5,49.5 181.5,50.5C 173.5,50.5 165.5,50.5 157.5,50.5C 157.5,49.5 157.5,48.5 157.5,47.5 Z"/></g>
  <g><path fill="#5f5f5f" d="M 191.5,54.5 C 190.532,52.3926 190.198,50.0593 190.5,47.5C 189.167,47.5 187.833,47.5 186.5,47.5C 186.5,56.1667 186.5,64.8333 186.5,73.5C 185.507,64.6822 185.173,55.6822 185.5,46.5C 187.5,46.5 189.5,46.5 191.5,46.5C 191.5,49.1667 191.5,51.8333 191.5,54.5 Z"/></g>
  <g><path fill="#5f5f5f" d="M 191.5,54.5 C 193.5,54.5 195.5,54.5 197.5,54.5C 197.5,55.8333 197.5,57.1667 197.5,58.5C 195.167,58.5 192.833,58.5 190.5,58.5C 190.179,63.6946 190.513,68.6946 191.5,73.5C 193.265,74.4614 195.265,74.7947 197.5,74.5C 197.5,76.1667 197.5,77.8333 197.5,79.5C 194.813,79.6641 192.146,79.4974 189.5,79C 187.393,77.7365 186.393,75.9032 186.5,73.5C 186.5,64.8333 186.5,56.1667 186.5,47.5C 187.833,47.5 189.167,47.5 190.5,47.5C 190.198,50.0593 190.532,52.3926 191.5,54.5 Z"/></g>
  <g><path fill="#5f5f5f" d="M 157.5,47.5 C 165.65,46.5073 173.983,46.1739 182.5,46.5C 182.5,48.1667 182.5,49.8333 182.5,51.5C 173.983,51.8261 165.65,51.4927 157.5,50.5C 165.5,50.5 173.5,50.5 181.5,50.5C 181.5,49.5 181.5,48.5 181.5,47.5C 173.5,47.5 165.5,47.5 157.5,47.5 Z"/></g>
  <g><path fill="#5f5f5f" d="M 32.5,54.5 C 39.3758,53.0474 44.8758,55.0474 49,60.5C 50.4155,66.7145 50.9155,73.0478 50.5,79.5C 48.8333,79.5 47.1667,79.5 45.5,79.5C 45.6495,78.448 45.4828,77.448 45,76.5C 36.1389,81.9554 29.4722,79.9554 25,70.5C 24.005,63.4916 26.505,58.1582 32.5,54.5 Z"/></g>
  <g><path fill="#5f5f5f" d="M 101.5,54.5 C 107.324,53.5884 112.49,54.9218 117,58.5C 118.009,60.0249 118.509,61.6916 118.5,63.5C 116.801,63.6602 115.134,63.4935 113.5,63C 106.489,56.1197 101.489,57.4531 98.5,67C 99.7146,73.2323 103.381,75.899 109.5,75C 111.96,72.0107 114.96,71.1774 118.5,72.5C 113.789,79.5204 107.456,81.3538 99.5,78C 91.0292,69.3392 91.6958,61.5059 101.5,54.5 Z"/></g>
  <g><path fill="#5f5f5f" d="M 164.5,54.5 C 171.376,53.0474 176.876,55.0474 181,60.5C 182.416,66.7145 182.916,73.0478 182.5,79.5C 180.833,79.5 179.167,79.5 177.5,79.5C 177.649,78.448 177.483,77.448 177,76.5C 168.139,81.9554 161.472,79.9554 157,70.5C 156.005,63.4916 158.505,58.1582 164.5,54.5 Z"/></g>
  <g><path fill="#5f5f5f" d="M 206.5,54.5 C 214.045,52.8639 219.878,55.1973 224,61.5C 224.497,63.8098 224.663,66.1432 224.5,68.5C 217.8,68.17 211.134,68.5033 204.5,69.5C 206.266,74.2157 209.599,76.049 214.5,75C 217.178,72.5537 220.178,72.0537 223.5,73.5C 217.853,80.0019 211.187,81.1686 203.5,77C 199.758,72.483 198.591,67.3163 200,61.5C 201.694,58.6424 203.861,56.309 206.5,54.5 Z"/></g>
  <g><path fill="#5f5f5f" d="M 54.5,54.5 C 56.1667,54.5 57.8333,54.5 59.5,54.5C 59.3505,55.552 59.5172,56.552 60,57.5C 61.995,55.253 64.495,54.253 67.5,54.5C 67.5,56.1667 67.5,57.8333 67.5,59.5C 63.8184,58.7253 61.3184,60.0586 60,63.5C 59.5006,68.8229 59.334,74.1563 59.5,79.5C 57.8333,79.5 56.1667,79.5 54.5,79.5C 54.5,71.1667 54.5,62.8333 54.5,54.5 Z"/></g>
  <g><path fill="#5f5f5f" d="M 90.5,55.5 C 89.1667,55.5 87.8333,55.5 86.5,55.5C 86.5,63.1667 86.5,70.8333 86.5,78.5C 87.8333,78.5 89.1667,78.5 90.5,78.5C 89.0813,79.4511 87.4147,79.7845 85.5,79.5C 85.5,71.1667 85.5,62.8333 85.5,54.5C 87.4147,54.2155 89.0813,54.5489 90.5,55.5 Z"/></g>
  <g><path fill="#5f5f5f" d="M 90.5,55.5 C 90.5,63.1667 90.5,70.8333 90.5,78.5C 89.1667,78.5 87.8333,78.5 86.5,78.5C 86.5,70.8333 86.5,63.1667 86.5,55.5C 87.8333,55.5 89.1667,55.5 90.5,55.5 Z"/></g>
  <g><path fill="#5f5f5f" d="M 122.5,70.5 C 122.5,65.5 122.5,60.5 122.5,55.5C 123.833,55.5 125.167,55.5 126.5,55.5C 126.181,60.3633 126.514,65.03 127.5,69.5C 129.342,76.1038 132.842,77.1038 138,72.5C 139.41,66.6208 139.91,60.6208 139.5,54.5C 141.167,54.5 142.833,54.5 144.5,54.5C 144.5,62.8333 144.5,71.1667 144.5,79.5C 142.833,79.5 141.167,79.5 139.5,79.5C 139.649,78.448 139.483,77.448 139,76.5C 130.644,82.0309 125.144,80.0309 122.5,70.5 Z"/></g>
  <g><path fill="#5f5f5f" d="M 127.5,69.5 C 126.514,65.03 126.181,60.3633 126.5,55.5C 125.167,55.5 123.833,55.5 122.5,55.5C 122.5,60.5 122.5,65.5 122.5,70.5C 121.512,65.3595 121.179,60.0262 121.5,54.5C 123.5,54.5 125.5,54.5 127.5,54.5C 127.5,59.5 127.5,64.5 127.5,69.5 Z"/></g>
  <g><path fill="#fefefe" style="fill: var(--icon-bg-color)" d="M 34.5,58.5 C 44.349,58.5172 47.5156,63.1839 44,72.5C 39.2909,76.7695 34.9576,76.4361 31,71.5C 29.5394,66.3265 30.7061,61.9932 34.5,58.5 Z"/></g>
  <g><path fill="#5f5f5f" d="M 75.5,46.5 C 76.4731,48.9479 76.8064,51.6146 76.5,54.5C 78.5,54.5 80.5,54.5 82.5,54.5C 82.5,56.1667 82.5,57.8333 82.5,59.5C 80.5,59.5 78.5,59.5 76.5,59.5C 76.5,64.1667 76.5,68.8333 76.5,73.5C 75.5128,68.6946 75.1795,63.6946 75.5,58.5C 77.5,58.5 79.5,58.5 81.5,58.5C 81.5,57.5 81.5,56.5 81.5,55.5C 79.5,55.5 77.5,55.5 75.5,55.5C 75.5,52.8333 75.5,50.1667 75.5,47.5C 75.5,47.1667 75.5,46.8333 75.5,46.5 Z"/></g>
  <g><path fill="#fefefe" style="fill: var(--icon-bg-color)" d="M 166.5,58.5 C 174.32,58.152 177.82,61.8186 177,69.5C 172.052,77.4875 167.052,77.4875 162,69.5C 161.333,67.8333 161.333,66.1667 162,64.5C 163.332,62.34 164.832,60.34 166.5,58.5 Z"/></g>
  <g><path fill="#5f5f5f" d="M 197.5,58.5 C 195.735,59.4614 193.735,59.7947 191.5,59.5C 191.5,64.1667 191.5,68.8333 191.5,73.5C 190.513,68.6946 190.179,63.6946 190.5,58.5C 192.833,58.5 195.167,58.5 197.5,58.5 Z"/></g>
  <g><path fill="#fefefe" style="fill: var(--icon-bg-color)" d="M 209.5,58.5 C 213.917,58.0417 217.25,59.7083 219.5,63.5C 214.533,64.6623 209.533,64.8289 204.5,64C 205.692,61.6451 207.359,59.8118 209.5,58.5 Z"/></g>
  <g><path fill="#5f5f5f" d="M 77.5,74.5 C 79.1667,74.5 80.8333,74.5 82.5,74.5C 82.7845,76.4147 82.4511,78.0813 81.5,79.5C 81.5,78.1667 81.5,76.8333 81.5,75.5C 79.901,75.7678 78.5676,75.4345 77.5,74.5 Z"/></g>
  </g>
  </symbol>
  <symbol viewBox="0 0 200 100">
  <g id="macerich">
  <g><path fill="none" d="M -0.5,-0.5 C 66.1667,-0.5 132.833,-0.5 199.5,-0.5C 199.5,32.8333 199.5,66.1667 199.5,99.5C 132.833,99.5 66.1667,99.5 -0.5,99.5C -0.5,66.1667 -0.5,32.8333 -0.5,-0.5 Z"/></g>
  <g><path fill="#387489" d="M 95.5,39.5 C 98.8066,39.0632 101.807,39.7298 104.5,41.5C 103.855,42.646 103.022,43.646 102,44.5C 97.611,42.4031 95.111,43.7365 94.5,48.5C 95.2558,53.3385 97.9224,54.6718 102.5,52.5C 106.378,53.9282 106.378,55.4282 102.5,57C 93.2232,58.0523 89.3899,53.8856 91,44.5C 92.025,42.313 93.525,40.6464 95.5,39.5 Z"/></g>
  <g><path fill="#387489" d="M 154.5,39.5 C 157.807,39.0632 160.807,39.7298 163.5,41.5C 163.291,42.086 162.957,42.586 162.5,43C 154.035,42.4321 151.702,45.7654 155.5,53C 157.568,53.6869 159.568,53.5202 161.5,52.5C 165.378,53.9282 165.378,55.4282 161.5,57C 152.223,58.0523 148.39,53.8856 150,44.5C 151.025,42.313 152.525,40.6464 154.5,39.5 Z"/></g>
  <g><path fill="none" d="M 188.5,36.5 C 193.023,35.9768 194.023,37.3101 191.5,40.5C 192.167,40.8333 192.833,41.1667 193.5,41.5C 191.423,44.1192 189.257,44.1192 187,41.5C 186.387,39.5048 186.887,37.8381 188.5,36.5 Z"/></g>
  <g><path fill="#387489" d="M 8.5,39.5 C 10.1667,39.5 11.8333,39.5 13.5,39.5C 15.1127,54.0617 21.4461,66.0617 32.5,75.5C 29.5541,76.6548 26.5541,76.8214 23.5,76C 13.6898,65.8711 8.68983,53.7044 8.5,39.5 Z"/></g>
  <g><path fill="#387489" d="M 57.5,74.5 C 53.03,75.4861 48.3633,75.8195 43.5,75.5C 28.8934,67.8878 20.5601,55.8878 18.5,39.5C 21.1667,39.5 23.8333,39.5 26.5,39.5C 27.7968,51.311 33.4635,60.4777 43.5,67C 48.0346,69.767 52.7013,72.267 57.5,74.5 Z"/></g>
  <g><path fill="none" d="M 54.5,40.5 C 52.8333,40.5 51.1667,40.5 49.5,40.5C 49.5,45.8333 49.5,51.1667 49.5,56.5C 50.5,56.5 51.5,56.5 52.5,56.5C 51.4324,57.4345 50.099,57.7678 48.5,57.5C 48.5,51.5 48.5,45.5 48.5,39.5C 50.7354,39.2053 52.7354,39.5386 54.5,40.5 Z"/></g>
  <g><path fill="#387489" d="M 54.5,40.5 C 55.9528,43.3531 57.1194,46.3531 58,49.5C 59.5304,46.4392 61.0304,43.4392 62.5,40.5C 64.1667,40.5 65.8333,40.5 67.5,40.5C 67.5,46.1667 67.5,51.8333 67.5,57.5C 66.5,57.5 65.5,57.5 64.5,57.5C 64.6655,53.4862 64.4988,49.4862 64,45.5C 62.9614,46.2438 62.4614,47.2438 62.5,48.5C 61.3756,51.0417 60.5423,53.7084 60,56.5C 58.9887,57.3366 57.8221,57.67 56.5,57.5C 55.6457,53.4174 54.479,49.4174 53,45.5C 52.5014,49.1516 52.3347,52.8183 52.5,56.5C 51.5,56.5 50.5,56.5 49.5,56.5C 49.5,51.1667 49.5,45.8333 49.5,40.5C 51.1667,40.5 52.8333,40.5 54.5,40.5 Z"/></g>
  <g><path fill="none" d="M 62.5,40.5 C 64.2646,39.5386 66.2646,39.2053 68.5,39.5C 68.8229,45.69 68.4896,51.69 67.5,57.5C 67.5,51.8333 67.5,46.1667 67.5,40.5C 65.8333,40.5 64.1667,40.5 62.5,40.5 Z"/></g>
  <g><path fill="#387489" d="M 78.5,39.5 C 79.675,39.281 80.675,39.6143 81.5,40.5C 83.8333,45.8333 86.1667,51.1667 88.5,56.5C 85.1674,58.2518 83.5007,57.2518 83.5,53.5C 81.1432,53.3367 78.8098,53.5034 76.5,54C 75.6634,55.0113 75.33,56.1779 75.5,57.5C 73.712,57.7852 72.0453,57.4519 70.5,56.5C 73.4374,50.9586 76.1041,45.2919 78.5,39.5 Z"/></g>
  <g><path fill="none" d="M 120.5,40.5 C 116.833,40.5 113.167,40.5 109.5,40.5C 109.5,46.1667 109.5,51.8333 109.5,57.5C 108.51,51.69 108.177,45.69 108.5,39.5C 112.702,39.1832 116.702,39.5166 120.5,40.5 Z"/></g>
  <g><path fill="#387489" d="M 120.5,40.5 C 120.5,41.5 120.5,42.5 120.5,43.5C 117.833,43.5 115.167,43.5 112.5,43.5C 112.5,44.5 112.5,45.5 112.5,46.5C 115.167,46.5 117.833,46.5 120.5,46.5C 120.5,47.8333 120.5,49.1667 120.5,50.5C 117.833,50.5 115.167,50.5 112.5,50.5C 112.5,51.5 112.5,52.5 112.5,53.5C 115.167,53.5 117.833,53.5 120.5,53.5C 120.5,54.8333 120.5,56.1667 120.5,57.5C 116.833,57.5 113.167,57.5 109.5,57.5C 109.5,51.8333 109.5,46.1667 109.5,40.5C 113.167,40.5 116.833,40.5 120.5,40.5 Z"/></g>
  <g><path fill="none" d="M 134.5,40.5 C 131.5,40.5 128.5,40.5 125.5,40.5C 125.5,46.1667 125.5,51.8333 125.5,57.5C 124.51,51.69 124.177,45.69 124.5,39.5C 128.042,39.1872 131.375,39.5206 134.5,40.5 Z"/></g>
  <g><path fill="#387489" d="M 134.5,40.5 C 136.95,40.8743 137.95,42.3743 137.5,45C 137.873,47.617 136.873,49.4503 134.5,50.5C 135.833,52.5 137.167,54.5 138.5,56.5C 136.955,57.4519 135.288,57.7852 133.5,57.5C 133.458,54.4148 132.125,52.0814 129.5,50.5C 128.526,52.7427 128.192,55.076 128.5,57.5C 127.5,57.5 126.5,57.5 125.5,57.5C 125.5,51.8333 125.5,46.1667 125.5,40.5C 128.5,40.5 131.5,40.5 134.5,40.5 Z"/></g>
  <g><path fill="none" d="M 145.5,40.5 C 144.5,40.5 143.5,40.5 142.5,40.5C 142.5,45.8333 142.5,51.1667 142.5,56.5C 143.5,56.5 144.5,56.5 145.5,56.5C 144.432,57.4345 143.099,57.7678 141.5,57.5C 141.5,51.5 141.5,45.5 141.5,39.5C 143.099,39.2322 144.432,39.5655 145.5,40.5 Z"/></g>
  <g><path fill="#387489" d="M 145.5,40.5 C 145.5,45.8333 145.5,51.1667 145.5,56.5C 144.5,56.5 143.5,56.5 142.5,56.5C 142.5,51.1667 142.5,45.8333 142.5,40.5C 143.5,40.5 144.5,40.5 145.5,40.5 Z"/></g>
  <g><path fill="none" d="M 171.5,40.5 C 170.5,40.5 169.5,40.5 168.5,40.5C 168.5,45.8333 168.5,51.1667 168.5,56.5C 169.5,56.5 170.5,56.5 171.5,56.5C 170.432,57.4345 169.099,57.7678 167.5,57.5C 167.5,51.5 167.5,45.5 167.5,39.5C 169.099,39.2322 170.432,39.5655 171.5,40.5 Z"/></g>
  <g><path fill="#387489" d="M 171.5,56.5 C 170.5,56.5 169.5,56.5 168.5,56.5C 168.5,51.1667 168.5,45.8333 168.5,40.5C 169.5,40.5 170.5,40.5 171.5,40.5C 171.5,42.5 171.5,44.5 171.5,46.5C 173.833,46.5 176.167,46.5 178.5,46.5C 178.5,44.1667 178.5,41.8333 178.5,39.5C 179.833,39.5 181.167,39.5 182.5,39.5C 182.5,45.5 182.5,51.5 182.5,57.5C 181.167,57.5 179.833,57.5 178.5,57.5C 178.5,54.8333 178.5,52.1667 178.5,49.5C 176.167,49.5 173.833,49.5 171.5,49.5C 171.5,51.8333 171.5,54.1667 171.5,56.5 Z"/></g>
  <g><path fill="#fefefe" style="fill: var(--icon-bg-color)" d="M 132.5,43.5 C 133.404,44.209 133.737,45.209 133.5,46.5C 132.167,46.5 130.833,46.5 129.5,46.5C 129.5,45.5 129.5,44.5 129.5,43.5C 130.5,43.5 131.5,43.5 132.5,43.5 Z"/></g>
  <g><path fill="#387489" d="M 64.5,57.5 C 63.8333,54.5 63.1667,51.5 62.5,48.5C 62.4614,47.2438 62.9614,46.2438 64,45.5C 64.4988,49.4862 64.6655,53.4862 64.5,57.5 Z"/></g>
  <g><path fill="#fefefe" style="fill: var(--icon-bg-color)" d="M 132.5,43.5 C 131.5,43.5 130.5,43.5 129.5,43.5C 129.5,44.5 129.5,45.5 129.5,46.5C 130.833,46.5 132.167,46.5 133.5,46.5C 132.081,47.4511 130.415,47.7845 128.5,47.5C 128.5,45.8333 128.5,44.1667 128.5,42.5C 130.099,42.2322 131.432,42.5655 132.5,43.5 Z"/></g>
  <g><path fill="#fefefe" style="fill: var(--icon-bg-color)" d="M 79.5,45.5 C 80.339,46.6412 81.0057,47.9745 81.5,49.5C 80.1667,50.8333 78.8333,50.8333 77.5,49.5C 78.1799,48.1401 78.8466,46.8068 79.5,45.5 Z"/></g>
  <g><path fill="none" d="M 6.5,56.5 C 5.56552,57.5676 5.23219,58.901 5.5,60.5C 4.35673,57.0242 4.19007,53.3575 5,49.5C 5.97696,51.74 6.47696,54.0733 6.5,56.5 Z"/></g>
  <g><path fill="#387489" d="M 6.5,56.5 C 7.96222,64.2592 11.6289,70.7592 17.5,76C 14.7728,76.8184 12.1062,76.6517 9.5,75.5C 7.38287,70.6974 6.04953,65.6974 5.5,60.5C 5.23219,58.901 5.56552,57.5676 6.5,56.5 Z"/></g>
  <g><path fill="none" d="M 57.5,74.5 C 58.4734,74.9867 59.4734,75.4867 60.5,76C 54.6513,76.8184 48.9846,76.6517 43.5,75.5C 48.3633,75.8195 53.03,75.4861 57.5,74.5 Z"/></g>
  </g>
  </symbol>
  <symbol viewBox="0 0 200 100">
  <g id="puritanlife">
  <g><path fill="none" d="M -0.5,-0.5 C 66.1667,-0.5 132.833,-0.5 199.5,-0.5C 199.5,32.8333 199.5,66.1667 199.5,99.5C 132.833,99.5 66.1667,99.5 -0.5,99.5C -0.5,66.1667 -0.5,32.8333 -0.5,-0.5 Z"/></g>
  <g><path fill="#2d6685" d="M 0.5,37.5 C 6.17645,37.3339 11.8431,37.5006 17.5,38C 22.0076,42.0532 22.6743,46.7199 19.5,52C 15.7924,54.1318 11.7924,54.9651 7.5,54.5C 7.5,56.8333 7.5,59.1667 7.5,61.5C 8.83333,61.5 10.1667,61.5 11.5,61.5C 11.5,62.5 11.5,63.5 11.5,64.5C 7.83333,64.5 4.16667,64.5 0.5,64.5C 0.5,63.5 0.5,62.5 0.5,61.5C 1.5,61.5 2.5,61.5 3.5,61.5C 3.5,54.5 3.5,47.5 3.5,40.5C 2.5,40.5 1.5,40.5 0.5,40.5C 0.5,39.5 0.5,38.5 0.5,37.5 Z"/></g>
  <g><path fill="#b5cdcf" d="M 132.5,37.5 C 135.898,37.1796 139.232,37.513 142.5,38.5C 141.311,39.4287 139.978,39.762 138.5,39.5C 138.5,46.8333 138.5,54.1667 138.5,61.5C 142.833,61.5 147.167,61.5 151.5,61.5C 151.5,60.1667 151.5,58.8333 151.5,57.5C 152.5,57.5 153.5,57.5 154.5,57.5C 154.5,59.8333 154.5,62.1667 154.5,64.5C 147.167,64.5 139.833,64.5 132.5,64.5C 132.5,63.5 132.5,62.5 132.5,61.5C 133.5,61.5 134.5,61.5 135.5,61.5C 135.5,54.1667 135.5,46.8333 135.5,39.5C 133.821,39.7148 132.821,39.0481 132.5,37.5 Z"/></g>
  <g><path fill="#b5cdcf" d="M 174.5,36.5 C 177.346,36.0301 179.679,36.8634 181.5,39C 181,39.5 180.5,40 180,40.5C 175.325,38.666 173.492,40.3327 174.5,45.5C 176.167,45.5 177.833,45.5 179.5,45.5C 179.5,46.5 179.5,47.5 179.5,48.5C 177.833,48.5 176.167,48.5 174.5,48.5C 174.5,52.8333 174.5,57.1667 174.5,61.5C 175.833,61.5 177.167,61.5 178.5,61.5C 178.5,62.5 178.5,63.5 178.5,64.5C 175.167,64.5 171.833,64.5 168.5,64.5C 171.015,58.6606 171.015,52.8273 168.5,47C 169.599,42.9219 171.599,39.4219 174.5,36.5 Z"/></g>
  <g><path fill="#b5cdcf" d="M 160.5,39.5 C 161.5,39.5 162.5,39.5 163.5,39.5C 163.5,40.8333 163.5,42.1667 163.5,43.5C 162.167,43.5 160.833,43.5 159.5,43.5C 159.433,42.0413 159.766,40.7079 160.5,39.5 Z"/></g>
  <g><path fill="#fefefe" style="fill: var(--icon-bg-color)" d="M 7.5,40.5 C 10.5184,40.3354 13.5184,40.502 16.5,41C 19.1667,44 19.1667,47 16.5,50C 13.6492,51.2886 10.6492,51.7886 7.5,51.5C 7.5,47.8333 7.5,44.1667 7.5,40.5 Z"/></g>
  <g><path fill="#2d6685" d="M 64.5,39.5 C 66.3464,39.2222 67.6798,39.8888 68.5,41.5C 67.6798,43.1112 66.3464,43.7778 64.5,43.5C 64.5,42.1667 64.5,40.8333 64.5,39.5 Z"/></g>
  <g><path fill="#2d6685" d="M 73.5,41.5 C 74.8333,41.5 76.1667,41.5 77.5,41.5C 77.5,42.8333 77.5,44.1667 77.5,45.5C 79.1667,45.5 80.8333,45.5 82.5,45.5C 82.5,46.5 82.5,47.5 82.5,48.5C 80.8333,48.5 79.1667,48.5 77.5,48.5C 77.3345,52.5138 77.5012,56.5138 78,60.5C 80.1474,61.1125 82.314,61.7792 84.5,62.5C 81.2972,65.1217 78.1305,65.1217 75,62.5C 74.1879,57.2499 73.0213,52.0832 71.5,47C 72.8847,45.4029 73.5514,43.5695 73.5,41.5 Z"/></g>
  <g><path fill="#b5cdcf" d="M 186.5,45.5 C 194.514,44.1886 198.514,47.522 198.5,55.5C 193.833,55.5 189.167,55.5 184.5,55.5C 185.56,61.0953 188.893,62.9286 194.5,61C 195.893,58.3167 197.226,58.15 198.5,60.5C 196.42,63.2574 193.586,64.5908 190,64.5C 182.831,63.1855 179.831,58.8522 181,51.5C 182.36,48.9774 184.193,46.9774 186.5,45.5 Z"/></g>
  <g><path fill="#2d6685" d="M 24.5,45.5 C 25.4959,45.4142 26.3292,45.7476 27,46.5C 27.1948,51.4179 27.6948,56.2512 28.5,61C 31.3471,61.9439 33.8471,61.4439 36,59.5C 36.4986,55.8484 36.6653,52.1817 36.5,48.5C 35.5,48.5 34.5,48.5 33.5,48.5C 33.5,47.5 33.5,46.5 33.5,45.5C 35.5,45.5 37.5,45.5 39.5,45.5C 39.5,50.8333 39.5,56.1667 39.5,61.5C 40.5,61.5 41.5,61.5 42.5,61.5C 42.5,62.5 42.5,63.5 42.5,64.5C 39.9556,64.8957 37.7889,64.229 36,62.5C 32.4646,65.1217 28.9646,65.1217 25.5,62.5C 24.5456,56.8955 24.2123,51.2289 24.5,45.5 Z"/></g>
  <g><path fill="#2d6685" d="M 50.5,61.5 C 50.9175,62.2216 51.5842,62.7216 52.5,63C 51.3333,63.1667 50.1667,63.3333 49,63.5C 47.3189,63.3917 46.1522,62.7251 45.5,61.5C 47.4302,57.6273 48.0969,53.294 47.5,48.5C 46.5,48.5 45.5,48.5 44.5,48.5C 44.5,47.5 44.5,46.5 44.5,45.5C 46.5,45.5 48.5,45.5 50.5,45.5C 50.3671,50.2717 51.7004,50.4384 54.5,46C 56.1341,45.5065 57.8008,45.3398 59.5,45.5C 59.5,46.5 59.5,47.5 59.5,48.5C 51.4967,49.1914 48.4967,53.5247 50.5,61.5 Z"/></g>
  <g><path fill="#2d6685" d="M 61.5,45.5 C 63.5,45.5 65.5,45.5 67.5,45.5C 67.5,50.8333 67.5,56.1667 67.5,61.5C 68.5,61.5 69.5,61.5 70.5,61.5C 70.5,62.5 70.5,63.5 70.5,64.5C 67.8333,64.5 65.1667,64.5 62.5,64.5C 64.1637,59.3431 64.8304,54.0098 64.5,48.5C 63.5,48.5 62.5,48.5 61.5,48.5C 61.5,47.5 61.5,46.5 61.5,45.5 Z"/></g>
  <g><path fill="#2d6685" d="M 89.5,45.5 C 92.5184,45.3354 95.5184,45.502 98.5,46C 99.9308,46.4652 101.097,47.2986 102,48.5C 102.965,53.8944 104.132,59.2277 105.5,64.5C 103.833,64.5 102.167,64.5 100.5,64.5C 100.719,63.325 100.386,62.325 99.5,61.5C 95.5555,64.9649 91.3888,65.2982 87,62.5C 85.6206,58.5245 86.7873,55.6912 90.5,54C 93.4816,53.502 96.4816,53.3354 99.5,53.5C 99.7135,51.8561 99.3802,50.3561 98.5,49C 94.715,48.7853 91.0484,48.6186 87.5,48.5C 88.1925,47.4822 88.8592,46.4822 89.5,45.5 Z"/></g>
  <g><path fill="#2d6685" d="M 108.5,45.5 C 110.167,45.5 111.833,45.5 113.5,45.5C 113.443,49.1331 114.443,49.2998 116.5,46C 120.274,44.8175 123.441,45.6508 126,48.5C 126.499,52.8206 126.666,57.1539 126.5,61.5C 127.5,61.5 128.5,61.5 129.5,61.5C 129.5,62.5 129.5,63.5 129.5,64.5C 127.5,64.5 125.5,64.5 123.5,64.5C 123.666,59.8215 123.499,55.1548 123,50.5C 120,47.8333 117,47.8333 114,50.5C 113.501,54.1516 113.335,57.8183 113.5,61.5C 114.5,61.5 115.5,61.5 116.5,61.5C 116.5,62.5 116.5,63.5 116.5,64.5C 113.833,64.5 111.167,64.5 108.5,64.5C 111.167,58.1667 111.167,51.8333 108.5,45.5 Z"/></g>
  <g><path fill="#b5cdcf" d="M 157.5,45.5 C 159.5,45.5 161.5,45.5 163.5,45.5C 163.106,52.0029 163.772,58.3362 165.5,64.5C 162.833,64.5 160.167,64.5 157.5,64.5C 160.167,58.1667 160.167,51.8333 157.5,45.5 Z"/></g>
  <g><path fill="#fefefe" style="fill: var(--icon-bg-color)" d="M 186.5,48.5 C 188.857,48.3367 191.19,48.5034 193.5,49C 194.337,50.0113 194.67,51.1779 194.5,52.5C 191.102,52.8204 187.768,52.487 184.5,51.5C 185.193,50.4822 185.859,49.4822 186.5,48.5 Z"/></g>
  <g><path fill="#fefefe" style="fill: var(--icon-bg-color)" d="M 91.5,55.5 C 94.1667,55.5 96.8333,55.5 99.5,55.5C 99.8234,59.692 97.8234,61.692 93.5,61.5C 89.0609,60.85 88.3942,58.85 91.5,55.5 Z"/></g>
  <g><path fill="#2d6685" d="M 45.5,61.5 C 46.1522,62.7251 47.3189,63.3917 49,63.5C 50.1667,63.3333 51.3333,63.1667 52.5,63C 51.5842,62.7216 50.9175,62.2216 50.5,61.5C 51.5,61.5 52.5,61.5 53.5,61.5C 53.5,62.5 53.5,63.5 53.5,64.5C 50.5,64.5 47.5,64.5 44.5,64.5C 44.2627,63.209 44.596,62.209 45.5,61.5 Z"/></g>
  </g>
  </symbol>
  <symbol viewBox="0 0 200 100">
  <g id="freshworks">
  <g><path fill="none" d="M -0.5,-0.5 C 66.1667,-0.5 132.833,-0.5 199.5,-0.5C 199.5,32.8333 199.5,66.1667 199.5,99.5C 132.833,99.5 66.1667,99.5 -0.5,99.5C -0.5,66.1667 -0.5,32.8333 -0.5,-0.5 Z"/></g>
  <g><path fill="#61f0f4" d="M 115.5,10.5 C 114.833,10.5 114.167,10.5 113.5,10.5C 104.446,12.6291 95.4461,14.9625 86.5,17.5C 88.0208,13.8848 90.6875,11.3848 94.5,10C 101.679,9.17874 108.679,9.3454 115.5,10.5 Z"/></g>
  <g><path fill="#15c6f6" d="M 113.5,10.5 C 113.167,11.1667 112.833,11.8333 112.5,12.5C 107.03,14.734 102.03,17.734 97.5,21.5C 93.6138,20.5098 89.6138,19.5098 85.5,18.5C 85.5,17.8333 85.8333,17.5 86.5,17.5C 95.4461,14.9625 104.446,12.6291 113.5,10.5 Z"/></g>
  <g><path fill="#2ec06f" d="M 112.5,12.5 C 107.452,19.5484 101.452,25.5484 94.5,30.5C 94.1289,26.9966 95.1289,23.9966 97.5,21.5C 102.03,17.734 107.03,14.734 112.5,12.5 Z"/></g>
  <g><path fill="#89db55" d="M 113.5,10.5 C 114.167,10.5 114.833,10.5 115.5,10.5C 115.5,10.8333 115.5,11.1667 115.5,11.5C 112.401,15.9293 109.734,20.596 107.5,25.5C 106.167,26.1667 105.167,27.1667 104.5,28.5C 101.528,30.6498 98.1947,31.6498 94.5,31.5C 94.5,31.1667 94.5,30.8333 94.5,30.5C 101.452,25.5484 107.452,19.5484 112.5,12.5C 112.833,11.8333 113.167,11.1667 113.5,10.5 Z"/></g>
  <g><path fill="#4fa7ea" d="M 85.5,18.5 C 89.6138,19.5098 93.6138,20.5098 97.5,21.5C 92.7236,23.0542 88.3903,25.3875 84.5,28.5C 83.1211,25.1174 83.4544,21.7841 85.5,18.5 Z"/></g>
  <g><path fill="#367bb2" d="M 97.5,21.5 C 95.1289,23.9966 94.1289,26.9966 94.5,30.5C 94.5,30.8333 94.5,31.1667 94.5,31.5C 90.9682,31.69 87.6348,31.0233 84.5,29.5C 84.5,29.1667 84.5,28.8333 84.5,28.5C 88.3903,25.3875 92.7236,23.0542 97.5,21.5 Z"/></g>
  <g><path fill="#fdb00e" d="M 115.5,11.5 C 116.654,17.987 116.821,24.6536 116,31.5C 114.615,35.3125 112.115,37.9792 108.5,39.5C 106.273,35.084 105.939,30.4173 107.5,25.5C 109.734,20.596 112.401,15.9293 115.5,11.5 Z"/></g>
  <g><path fill="#d54952" d="M 104.5,28.5 C 104.938,28.4346 105.272,28.6012 105.5,29C 103.041,32.75 100.708,36.5834 98.5,40.5C 100.045,41.4519 101.712,41.7852 103.5,41.5C 101.274,42.7563 98.941,42.7563 96.5,41.5C 95.2424,38.3061 94.5758,34.9728 94.5,31.5C 98.1947,31.6498 101.528,30.6498 104.5,28.5 Z"/></g>
  <g><path fill="#b466c2" d="M 84.5,29.5 C 87.6348,31.0233 90.9682,31.69 94.5,31.5C 94.5758,34.9728 95.2424,38.3061 96.5,41.5C 90.2025,39.8693 86.2025,35.8693 84.5,29.5 Z"/></g>
  <g><path fill="#eb5b28" d="M 107.5,25.5 C 105.939,30.4173 106.273,35.084 108.5,39.5C 107.22,40.9313 105.553,41.5979 103.5,41.5C 101.712,41.7852 100.045,41.4519 98.5,40.5C 100.708,36.5834 103.041,32.75 105.5,29C 105.272,28.6012 104.938,28.4346 104.5,28.5C 105.167,27.1667 106.167,26.1667 107.5,25.5 Z"/></g>
  <g><path fill="#5f5f5f" d="M 149.5,45.5 C 150.496,45.4142 151.329,45.7476 152,46.5C 152.333,51.5 152.667,56.5 153,61.5C 155.46,60.0422 157.627,58.2089 159.5,56C 160.448,55.5172 161.448,55.3505 162.5,55.5C 161.119,58.0745 159.452,60.5745 157.5,63C 159.371,65.904 161.371,68.7373 163.5,71.5C 162.635,72.5827 161.635,72.7494 160.5,72C 158.451,69.4066 156.285,66.9066 154,64.5C 152.625,66.9368 152.125,69.6035 152.5,72.5C 151.5,72.5 150.5,72.5 149.5,72.5C 149.5,63.5 149.5,54.5 149.5,45.5 Z"/></g>
  <g><path fill="#5f5f5f" d="M 27.5,46.5 C 28.8333,46.5 30.1667,46.5 31.5,46.5C 31.5,47.5 31.5,48.5 31.5,49.5C 27.5149,49.4399 25.8482,51.4399 26.5,55.5C 27.8333,55.5 29.1667,55.5 30.5,55.5C 30.5,56.5 30.5,57.5 30.5,58.5C 29.1667,58.5 27.8333,58.5 26.5,58.5C 26.5,63.1667 26.5,67.8333 26.5,72.5C 25.5,72.5 24.5,72.5 23.5,72.5C 24.0461,66.9333 23.3794,61.6 21.5,56.5C 23.0638,54.4249 24.0638,52.0916 24.5,49.5C 25.7701,48.7124 26.7701,47.7124 27.5,46.5 Z"/></g>
  <g><path fill="#5f5f5f" d="M 33.5,55.5 C 36.415,55.7461 39.415,56.0794 42.5,56.5C 40.6136,57.4063 38.7803,58.4063 37,59.5C 36.501,63.8206 36.3343,68.1539 36.5,72.5C 35.5,72.5 34.5,72.5 33.5,72.5C 33.5,66.8333 33.5,61.1667 33.5,55.5 Z"/></g>
  <g><path fill="#5f5f5f" d="M 48.5,54.5 C 55.5,54.1667 58.8333,57.5 58.5,64.5C 54.4454,64.1758 50.4454,64.5091 46.5,65.5C 46.9005,67.4342 47.9005,68.9342 49.5,70C 52.5144,70.1276 55.5144,70.1276 58.5,70C 54.4435,74.1773 50.1101,74.5106 45.5,71C 42.0195,64.4847 43.0195,58.9847 48.5,54.5 Z"/></g>
  <g><path fill="#5f5f5f" d="M 64.5,54.5 C 68.316,53.7887 71.316,54.9554 73.5,58C 73.1667,58.5 72.8333,59 72.5,59.5C 70.941,58.5535 69.2743,57.8868 67.5,57.5C 65.7336,57.4342 64.7336,58.2676 64.5,60C 67.3826,61.9185 70.3826,63.7519 73.5,65.5C 74.9626,70.8588 72.7959,73.5255 67,73.5C 64.6527,73.1547 62.8193,71.9881 61.5,70C 62.3325,68.2156 63.3325,68.2156 64.5,70C 66.5,70.6667 68.5,70.6667 70.5,70C 71.0219,69.4387 71.3552,68.772 71.5,68C 68.6174,66.0815 65.6174,64.2481 62.5,62.5C 60.9712,59.2817 61.6379,56.615 64.5,54.5 Z"/></g>
  <g><path fill="#5f5f5f" d="M 77.5,46.5 C 78.5,46.5 79.5,46.5 80.5,46.5C 80.335,49.8499 80.5017,53.1832 81,56.5C 85.2945,53.4939 88.9612,54.1605 92,58.5C 92.4992,63.1548 92.6658,67.8215 92.5,72.5C 91.5,72.5 90.5,72.5 89.5,72.5C 89.6657,68.1539 89.499,63.8206 89,59.5C 86.3333,56.8333 83.6667,56.8333 81,59.5C 80.501,63.8206 80.3343,68.1539 80.5,72.5C 79.5,72.5 78.5,72.5 77.5,72.5C 77.5,63.8333 77.5,55.1667 77.5,46.5 Z"/></g>
  <g><path fill="#5f5f5f" d="M 94.5,55.5 C 95.8221,55.33 96.9887,55.6634 98,56.5C 100.79,68.3942 102.957,68.0608 104.5,55.5C 105.675,55.281 106.675,55.6143 107.5,56.5C 108.367,59.9353 109.534,63.2686 111,66.5C 112.674,62.9793 113.84,59.3127 114.5,55.5C 115.5,55.5 116.5,55.5 117.5,55.5C 115.635,61.0966 113.968,66.7632 112.5,72.5C 111.325,72.719 110.325,72.3857 109.5,71.5C 108.633,68.0647 107.466,64.7314 106,61.5C 104.798,64.7735 103.798,68.1069 103,71.5C 102.282,72.4506 101.449,72.6172 100.5,72C 98.3995,66.5314 96.3995,61.0314 94.5,55.5 Z"/></g>
  <g><path fill="#5f5f5f" d="M 123.5,54.5 C 132.992,54.4441 136.492,59.1107 134,68.5C 129.009,75.0306 124.009,75.0306 119,68.5C 117.311,62.6547 118.811,57.988 123.5,54.5 Z"/></g>
  <g><path fill="#5f5f5f" d="M 137.5,55.5 C 140.513,56.1323 143.513,56.4656 146.5,56.5C 144.253,57.2446 142.42,58.578 141,60.5C 140.501,64.4862 140.334,68.4862 140.5,72.5C 139.5,72.5 138.5,72.5 137.5,72.5C 137.5,66.8333 137.5,61.1667 137.5,55.5 Z"/></g>
  <g><path fill="#5f5f5f" d="M 169.5,54.5 C 172.997,53.8906 175.663,55.0573 177.5,58C 177.167,58.5 176.833,59 176.5,59.5C 173.712,56.9252 171.045,56.9252 168.5,59.5C 171.698,61.742 174.864,64.0754 178,66.5C 179.042,69.8039 177.875,71.9705 174.5,73C 170.697,74.2075 167.697,73.2075 165.5,70C 165.833,69.5 166.167,69 166.5,68.5C 168.957,70.2249 171.623,70.7249 174.5,70C 175.022,69.4387 175.355,68.772 175.5,68C 172.151,66.2006 168.984,64.0339 166,61.5C 165.176,58.1604 166.343,55.827 169.5,54.5 Z"/></g>
  <g><path fill="#fefefe" style="fill: var(--icon-bg-color)" d="M 48.5,57.5 C 52.2708,56.7737 54.9374,58.107 56.5,61.5C 53.2317,62.487 49.8984,62.8204 46.5,62.5C 46.3915,60.4862 47.0582,58.8195 48.5,57.5 Z"/></g>
  <g><path fill="#fefefe" style="fill: var(--icon-bg-color)" d="M 123.5,57.5 C 126.365,57.0548 128.865,57.7215 131,59.5C 132.023,63.3169 131.523,66.8169 129.5,70C 122.475,70.8671 119.975,67.7004 122,60.5C 122.513,59.4734 123.013,58.4734 123.5,57.5 Z"/></g>
  </g>
  </symbol>
  <symbol viewBox="0 0 200 100">
  <g id="usertesting">
  <g><path fill="none" d="M -0.5,-0.5 C 66.1667,-0.5 132.833,-0.5 199.5,-0.5C 199.5,32.8333 199.5,66.1667 199.5,99.5C 132.833,99.5 66.1667,99.5 -0.5,99.5C -0.5,66.1667 -0.5,32.8333 -0.5,-0.5 Z"/></g>
  <g><path fill="#305bfc" d="M 17.5,28.5 C 40.1691,28.3334 62.8358,28.5 85.5,29C 87,29.8333 88.1667,31 89,32.5C 89.6667,41.8333 89.6667,51.1667 89,60.5C 88.5348,61.9308 87.7014,63.0975 86.5,64C 82.789,64.1747 79.1224,64.6747 75.5,65.5C 76.7521,67.7354 77.2521,70.0687 77,72.5C 73.2359,70.3681 69.7359,67.8681 66.5,65C 50.1667,64.6667 33.8333,64.3333 17.5,64C 16.6667,63.1667 15.8333,62.3333 15,61.5C 14.3333,51.5 14.3333,41.5 15,31.5C 16.045,30.6266 16.8783,29.6266 17.5,28.5 Z"/></g>
  <g><path fill="#305bfc" d="M 145.5,35.5 C 146.5,35.5 147.5,35.5 148.5,35.5C 148.5,36.5 148.5,37.5 148.5,38.5C 147.5,38.5 146.5,38.5 145.5,38.5C 145.5,37.5 145.5,36.5 145.5,35.5 Z"/></g>
  <g><path fill="#305bfc" d="M 137.5,37.5 C 138.5,37.5 139.5,37.5 140.5,37.5C 140.626,39.1998 141.293,40.6998 142.5,42C 139.915,46.3707 139.915,50.7041 142.5,55C 141.127,56.4787 139.627,56.312 138,54.5C 137.95,50.1406 137.117,45.9739 135.5,42C 136.707,40.6998 137.374,39.1998 137.5,37.5 Z"/></g>
  <g><path fill="#fefefe" style="fill: var(--icon-bg-color)" d="M 22.5,38.5 C 23.8333,38.5 25.1667,38.5 26.5,38.5C 26.3345,42.5138 26.5012,46.5138 27,50.5C 29.2691,53.0544 31.6025,53.0544 34,50.5C 34.4988,46.5138 34.6655,42.5138 34.5,38.5C 35.5,38.5 36.5,38.5 37.5,38.5C 37.6658,43.1785 37.4992,47.8452 37,52.5C 34.0189,56.6959 30.1856,57.5293 25.5,55C 24.7894,53.7453 23.956,52.5786 23,51.5C 22.501,47.1794 22.3343,42.8461 22.5,38.5 Z"/></g>
  <g><path fill="#305bfc" d="M 93.5,38.5 C 98.1667,38.5 102.833,38.5 107.5,38.5C 107.5,39.5 107.5,40.5 107.5,41.5C 105.833,41.5 104.167,41.5 102.5,41.5C 102.666,46.1785 102.499,50.8452 102,55.5C 100.989,56.3366 99.8221,56.67 98.5,56.5C 98.5,51.5 98.5,46.5 98.5,41.5C 96.8333,41.5 95.1667,41.5 93.5,41.5C 93.5,40.5 93.5,39.5 93.5,38.5 Z"/></g>
  <g><path fill="#fefefe" style="fill: var(--icon-bg-color)" d="M 43.5,40.5 C 45.5914,40.3184 47.5914,40.6518 49.5,41.5C 50.3857,42.325 50.719,43.325 50.5,44.5C 48.5,44.1667 46.5,43.8333 44.5,43.5C 44.5,44.5 44.5,45.5 44.5,46.5C 49.3725,46.533 51.5391,48.8663 51,53.5C 47.4936,57.4313 43.9936,57.4313 40.5,53.5C 40.8333,52.5 41.5,51.8333 42.5,51.5C 43.8415,53.0049 45.5082,53.6715 47.5,53.5C 47.719,52.325 47.3857,51.325 46.5,50.5C 40.1409,48.3781 39.1409,45.0448 43.5,40.5 Z"/></g>
  <g><path fill="#fefefe" style="fill: var(--icon-bg-color)" d="M 58.5,40.5 C 65.0628,40.0675 68.3962,43.0675 68.5,49.5C 64.774,49.1774 61.1073,49.5108 57.5,50.5C 57.9767,51.4776 58.6433,52.3109 59.5,53C 61.9359,52.9466 64.2692,53.1133 66.5,53.5C 63.4916,56.9676 60.1583,57.3009 56.5,54.5C 52.1299,49.0311 52.7965,44.3644 58.5,40.5 Z"/></g>
  <g><path fill="#fefefe" style="fill: var(--icon-bg-color)" d="M 71.5,40.5 C 73.864,41.5294 76.1974,41.5294 78.5,40.5C 80.1073,40.637 81.4406,41.3036 82.5,42.5C 82.1667,43.5 81.5,44.1667 80.5,44.5C 78.9579,43.2532 77.4579,43.2532 76,44.5C 75.6667,48.1667 75.3333,51.8333 75,55.5C 73.9887,56.3366 72.8221,56.67 71.5,56.5C 71.5,51.1667 71.5,45.8333 71.5,40.5 Z"/></g>
  <g><path fill="#4366fc" d="M 111.5,40.5 C 118.063,40.0675 121.396,43.0675 121.5,49.5C 117.774,49.1774 114.107,49.5108 110.5,50.5C 110.977,51.4776 111.643,52.3109 112.5,53C 114.936,52.9466 117.269,53.1133 119.5,53.5C 116.988,56.7092 113.988,57.2092 110.5,55C 105.003,49.6829 105.336,44.8495 111.5,40.5 Z"/></g>
  <g><path fill="#305bfc" d="M 125.5,40.5 C 128.665,39.9635 131.331,40.7969 133.5,43C 132.975,43.6924 132.308,44.1924 131.5,44.5C 129.802,43.3192 128.135,43.3192 126.5,44.5C 128.988,46.0693 131.488,47.736 134,49.5C 134.371,54.7545 131.871,56.9212 126.5,56C 123.766,55.2817 123.1,53.7817 124.5,51.5C 126.641,54.0186 128.641,54.0186 130.5,51.5C 128.573,49.8981 126.406,48.5647 124,47.5C 123.167,44.829 123.667,42.4957 125.5,40.5 Z"/></g>
  <g><path fill="#305bfc" d="M 145.5,40.5 C 146.5,40.5 147.5,40.5 148.5,40.5C 148.5,45.8333 148.5,51.1667 148.5,56.5C 147.5,56.5 146.5,56.5 145.5,56.5C 145.5,51.1667 145.5,45.8333 145.5,40.5 Z"/></g>
  <g><path fill="#305bfc" d="M 154.5,41.5 C 153.195,43.3972 152.529,45.7305 152.5,48.5C 152.529,51.2695 153.195,53.6028 154.5,55.5C 153.791,56.404 152.791,56.7373 151.5,56.5C 151.5,51.1667 151.5,45.8333 151.5,40.5C 152.791,40.2627 153.791,40.596 154.5,41.5 Z"/></g>
  <g><path fill="#305bfc" d="M 154.5,55.5 C 153.195,53.6028 152.529,51.2695 152.5,48.5C 152.529,45.7305 153.195,43.3972 154.5,41.5C 154.435,41.9382 154.601,42.2716 155,42.5C 157.925,39.9406 160.925,39.9406 164,42.5C 165.367,46.6996 165.867,51.0329 165.5,55.5C 164.167,55.5 162.833,55.5 161.5,55.5C 161.665,52.1501 161.498,48.8168 161,45.5C 159.688,43.3424 158.022,43.0091 156,44.5C 155.823,48.3563 155.323,52.023 154.5,55.5 Z"/></g>
  <g><path fill="#305bfc" d="M 171.5,40.5 C 174.365,40.0548 176.865,40.7215 179,42.5C 179.71,41.0267 180.876,40.3601 182.5,40.5C 182.666,45.8437 182.499,51.1771 182,56.5C 180.865,59.8587 178.532,61.192 175,60.5C 173.5,60.3333 172,60.1667 170.5,60C 169.549,59.2825 169.383,58.4491 170,57.5C 172.305,57.421 174.805,57.2543 177.5,57C 178.308,56.6924 178.975,56.1924 179.5,55.5C 176.998,55.3787 174.332,55.2121 171.5,55C 167.788,52.487 166.622,48.987 168,44.5C 169.376,43.2949 170.542,41.9616 171.5,40.5 Z"/></g>
  <g><path fill="#305bfc" d="M 59.5,43.5 C 62.0217,43.1281 64.0217,43.9614 65.5,46C 62.8333,46.6667 60.1667,46.6667 57.5,46C 58.3805,45.2917 59.0472,44.4584 59.5,43.5 Z"/></g>
  <g><path fill="#fefefe" style="fill: var(--icon-bg-color)" d="M 112.5,43.5 C 115.022,43.1281 117.022,43.9614 118.5,46C 115.833,46.6667 113.167,46.6667 110.5,46C 111.381,45.2917 112.047,44.4584 112.5,43.5 Z"/></g>
  <g><path fill="#fefefe" style="fill: var(--icon-bg-color)" d="M 172.5,43.5 C 179.692,44.3152 181.026,47.4819 176.5,53C 170.337,52.145 169.004,48.9784 172.5,43.5 Z"/></g>
  </g>
  </symbol>
</svg>
