<svg version="1.1" xmlns="http://www.w3.org/2000/svg">
<symbol viewBox="0 0 512 512">
<g id="mocha">
<path fill="#8d6748" d="M453,384.4L268.8,490.9c-7.9,4.6-17.7,4.6-25.6,0L59,384.4c-7.9-4.6-12.8-13.1-12.8-22V149.6  c0-9.2,4.9-17.4,12.8-22L243.2,21.1c7.9-4.6,17.7-4.6,25.6,0L453,127.8c7.9,4.6,12.8,13.1,12.8,22v212.8c-0.3,9-5.1,17.4-12.8,22  V384.4z"/>
<g fill="#fff">
<path d="M255.7,57.8c2.5,0,5,0.8,7.2,2L422,151.7c4.4,2.6,7.1,7.4,7.2,12.5V348c0,5.1-2.7,9.9-7.2,12.5l-159.1,91.8   c-2.3,1.3-4.5,2-7.2,2c-2.5,0-5-0.7-7.2-2L89.5,360.5c-4.4-2.6-7.1-7.4-7.2-12.5V164.3c0-5.1,2.7-9.9,7.2-12.5l159.1-91.8   C250.9,58.6,253.5,57.8,255.7,57.8 M255.7,50.2c-3.8,0-7.7,1.1-11,3.1L85.6,145.1c-6.8,3.9-11,11.1-11,18.9v183.7   c0,7.9,4.1,15.1,11,18.9l159.1,91.9c3.3,2,7.2,3.1,11,3.1c3.8,0,7.7-1.1,11-3.1l159.1-91.8c6.8-3.9,11-11.1,11-18.9V164   c0-7.9-4.1-15.1-11-18.9L266.7,53.2C263.4,51.2,259.6,50.2,255.7,50.2L255.7,50.2z M278.5,164c0-1.3-1.1-2.6-2.6-2.6h-48.1   c-1.3,0-2.6,1.1-2.6,2.6c0,8.7,1.3,38.6,14.1,53.2c0.5,0.5,1.1,0.8,1.8,0.8h21.4c0.7,0,1.3-0.3,1.8-0.8   C277.1,202.9,278.4,173,278.5,164L278.5,164z M259.6,210.6h-15.1c-0.7,0-1.3-0.3-1.8-0.8c-8.7-10.1-9.7-30.7-10-37.9   c0-1.3,1.1-2.6,2.6-2.6H269c1.3,0,2.6,1.1,2.6,2.6c0,7.2-1.3,27.4-10,37.9C260.8,210.3,260.3,210.6,259.6,210.6z M256.7,156.3   c0,0,9.2-5.4,3.6-15.1c-3.3-5.1-4.9-9.5-3.6-11.3c-3.3,4.1-9,8.4-2.8,17.6C256,149.9,257,154.8,256.7,156.3L256.7,156.3z    M246.6,157.1c0,0,6.1-3.6,2.3-10.1c-2.3-3.3-3.3-6.4-2.3-7.4c-2.3,2.8-5.9,5.6-1.8,12C246.1,152.8,246.6,156.1,246.6,157.1   L246.6,157.1z"/>
<path d="M267.4,186.8c-1.1,6.9-3.1,14.8-7.4,20c-0.5,0.5-1.1,0.8-1.5,0.8h-12.8c-0.5,0-1.3-0.3-1.5-0.8   c-3.1-3.8-5.1-9-6.4-14.3c0,0,14.8,2,23.3-1.1C267.1,189,267.4,186.8,267.4,186.8L267.4,186.8z M99.3,228.2h9.5l15.6,24.1   l15.6-24.1h9.5v51.2h-9v-36.6l-16.1,24.1h-0.3l-15.8-23.8v36.6h-9L99.3,228.2z M195.8,280.2c-3.7,0-7.3-0.7-10.7-2   c-3.2-1.3-6.1-3.2-8.4-5.6c-2.4-2.4-4.2-5.3-5.4-8.4c-1.3-3.1-2-6.8-2-10.1v-0.3c0-3.6,0.8-6.9,2-10.1c1.3-3.1,3.1-5.9,5.6-8.4   c2.4-2.4,5.3-4.4,8.4-5.6c3.3-1.5,6.9-2,10.7-2c3.7,0,7.3,0.7,10.7,2c3.2,1.3,6.1,3.2,8.4,5.6c2.4,2.4,4.2,5.3,5.4,8.4   c1.3,3.1,2,6.8,2,10.1v0.3c0,3.6-0.8,6.9-2,10.1c-1.3,3.1-3.1,5.9-5.6,8.4c-2.4,2.4-5.3,4.4-8.4,5.6   C203.2,279.6,199.6,280.2,195.8,280.2z M195.8,272c2.6,0,4.9-0.5,6.9-1.5c2-1,3.8-2.3,5.4-3.8c1.5-1.5,2.6-3.6,3.6-5.6   c0.8-2.2,1.2-4.6,1.3-6.9v-0.3c0-2.6-0.5-4.9-1.3-7.2c-0.8-2.2-2-4.2-3.6-5.9c-1.6-1.6-3.4-2.9-5.4-3.8c-2-1.1-4.3-1.5-6.9-1.5   c-2.4,0-4.8,0.5-6.9,1.5c-2,1-3.8,2.3-5.4,3.8c-1.5,1.5-2.6,3.6-3.6,5.6c-0.8,2.2-1.2,4.6-1.3,6.9v0.3c0,2.6,0.5,4.9,1.3,7.2   c0.8,2.2,2,4.2,3.6,5.9c1.6,1.6,3.4,2.9,5.4,3.8C191,271.5,193.4,272,195.8,272z M265.9,280.2c-3.5,0-7-0.7-10.2-2   c-3.1-1.3-5.9-3.3-8.2-5.6c-2.4-2.4-4.2-5.3-5.4-8.4c-1.3-3.3-2-6.8-2-10.1v-0.3c0-3.6,0.8-7.2,2-10.1c1.3-3.1,3.1-6,5.4-8.4   c2.4-2.4,5.3-4.4,8.4-5.6c3.4-1.4,7.1-2.1,10.7-2c2.3,0,4.3,0.3,6.4,0.5l5.4,1.5c1.5,0.8,3.1,1.5,4.3,2.6l3.8,3.3l-5.9,6.8   c-1.9-1.8-4.1-3.3-6.4-4.5c-2.5-1.2-5.2-1.9-7.9-1.8c-2.3,0-4.6,0.5-6.7,1.5c-2,1-3.8,2.3-5.4,3.8c-1.5,1.5-2.6,3.6-3.6,5.6   c-0.8,2.2-1.2,4.6-1.3,6.9v0.3c0,2.6,0.5,4.9,1.3,7.2c0.8,2.2,2,4.2,3.6,5.9c1.5,1.5,3.3,3.1,5.4,3.8c2,0.8,4.3,1.5,6.8,1.5   c3.1,0,5.9-0.5,7.9-1.8c2.4-1.4,4.6-3.1,6.7-4.9l5.9,5.9c-1.3,1.5-2.6,2.6-4.1,3.8c-1.5,1.3-3.1,2-4.5,2.8   c-1.7,0.9-3.5,1.5-5.4,1.8c-2.3,0.5-4.5,0.5-6.9,0.5L265.9,280.2z M304.7,228.2h9v21.2h24.6v-21.2h9v51.2h-9V258h-24.5v21.4h-9   L304.7,228.2z M386.9,228h8.2l22.5,51.4h-9.5L403,267h-24.1l-5.4,12.4h-9.2L386.9,228z M399.6,259.2l-8.7-20.5l-8.7,20.5   C382.2,259.2,399.6,259.2,399.6,259.2z M92.8,295.5h326.4v2.8H92.8V295.5z M419.2,199.3H280.4c0,1.1-0.3,1.8-0.3,2.8h138.9v-2.8   H419.2z M93,199.3v2.8h130.7c0-1.1-0.3-1.8-0.3-2.8H93z"/>
</g>
</g>
</symbol>
<symbol viewBox="0 0 139.38 34">
<g id="selenium" fill="#01a71c">
<path d="m46.2 26.37a18.85 18.85 0 0 1 -2.57-.2 25 25 0 0 1 -2.74-.53v-1.39a25.31 25.31 0 0 0 2.71.53 18 18 0 0 0 2.5.2 5.51 5.51 0 0 0 3.29-.84 2.79 2.79 0 0 0 1.14-2.39 2.85 2.85 0 0 0 -1.24-2.49 6 6 0 0 0 -1.29-.71q-.78-.29-1.67-.55a15.93 15.93 0 0 1 -2.33-.87 5.92 5.92 0 0 1 -1.58-1.05 3.6 3.6 0 0 1 -.9-1.34 5 5 0 0 1 -.29-1.74 4.46 4.46 0 0 1 .41-1.93 4.31 4.31 0 0 1 1.17-1.5 5.26 5.26 0 0 1 1.82-1 8 8 0 0 1 2.37-.29 20.51 20.51 0 0 1 4.41.57v1.42a20 20 0 0 0 -2.23-.44 15.2 15.2 0 0 0 -2-.15 4.86 4.86 0 0 0 -3.08.9 2.9 2.9 0 0 0 -1.22 2.42 3.25 3.25 0 0 0 .21 1.21 2.61 2.61 0 0 0 .7 1 4.83 4.83 0 0 0 1.27.79 14.31 14.31 0 0 0 2 .68q1.11.33 2.06.71a6.21 6.21 0 0 1 1.65.94 4.09 4.09 0 0 1 1.1 1.38 4.54 4.54 0 0 1 .4 2 4.15 4.15 0 0 1 -1.56 3.48 7.16 7.16 0 0 1 -4.51 1.18z"/>
<path d="m60.62 26.32a5.46 5.46 0 0 1 -4.28-1.62 6.9 6.9 0 0 1 -1.46-4.7 7.8 7.8 0 0 1 1.43-5 5 5 0 0 1 4.14-1.75 4.24 4.24 0 0 1 3.47 1.43 6.48 6.48 0 0 1 1.18 4.12q0 .54 0 .92a3.22 3.22 0 0 1 -.09.64h-8.57a5.39 5.39 0 0 0 1.17 3.5 4.18 4.18 0 0 0 3.19 1.14 10.52 10.52 0 0 0 1.82-.17 11.77 11.77 0 0 0 1.93-.52l.12 1.27a10.68 10.68 0 0 1 -2 .55 11.47 11.47 0 0 1 -2.05.19zm-.22-11.89q-3.68 0-3.94 4.74h7.15a6.49 6.49 0 0 0 -.78-3.63 2.76 2.76 0 0 0 -2.43-1.11z"/>
<path d="m68.64 7h1.58v19.11h-1.58z"/>
<path d="m79.56 26.32a5.46 5.46 0 0 1 -4.28-1.62 6.9 6.9 0 0 1 -1.45-4.7 7.8 7.8 0 0 1 1.43-5 5 5 0 0 1 4.14-1.75 4.24 4.24 0 0 1 3.47 1.43 6.48 6.48 0 0 1 1.13 4.12q0 .54 0 .92a3.22 3.22 0 0 1 -.09.64h-8.53a5.4 5.4 0 0 0 1.17 3.5 4.18 4.18 0 0 0 3.2 1.14 10.52 10.52 0 0 0 1.82-.17 11.8 11.8 0 0 0 1.93-.52l.12 1.27a10.68 10.68 0 0 1 -2 .55 11.47 11.47 0 0 1 -2.06.19zm-.21-11.89q-3.68 0-3.94 4.74h7.15a6.49 6.49 0 0 0 -.78-3.63 2.76 2.76 0 0 0 -2.43-1.11z"/>
<path d="m87.51 13.37h1.32l.12 1.49h.12q.94-.45 1.72-.78t1.43-.54a8.42 8.42 0 0 1 1.2-.31 6.54 6.54 0 0 1 1.1-.09 3.3 3.3 0 0 1 2.48.86 3.63 3.63 0 0 1 .83 2.63v9.51h-1.59v-9a3 3 0 0 0 -.55-2 2.18 2.18 0 0 0 -1.69-.6 7.25 7.25 0 0 0 -2.24.41 20.1 20.1 0 0 0 -2.67 1.12v10h-1.58z"/>
<path d="m102.75 10.52a.93.93 0 0 1 -1.06-1 1.06 1.06 0 0 1 2.12 0 .93.93 0 0 1 -1.06 1zm-.8 2.85h1.58v12.74h-1.58z"/>
<path d="m110.81 26.34q-3.14 0-3.14-3.47v-9.5h1.58v9a3.16 3.16 0 0 0 .48 2 1.92 1.92 0 0 0 1.59.6 6.83 6.83 0 0 0 2.48-.48q1.25-.48 2.59-1.14v-9.98h1.61v12.74h-1.32l-.12-1.58h-.09l-1.73.81q-.74.34-1.38.57a7.9 7.9 0 0 1 -1.23.33 7.34 7.34 0 0 1 -1.32.1z"/>
<path d="m122.18 13.37h1.3l.14 1.49h.09a19.53 19.53 0 0 1 2.58-1.31 5.51 5.51 0 0 1 2-.41 2.83 2.83 0 0 1 3 1.77h.12q.8-.5 1.45-.83a12.61 12.61 0 0 1 1.2-.54 6.17 6.17 0 0 1 1-.31 5.18 5.18 0 0 1 1-.09 3.3 3.3 0 0 1 2.45.84 3.63 3.63 0 0 1 .83 2.63v9.51h-1.56v-9a2.9 2.9 0 0 0 -.55-2 2.21 2.21 0 0 0 -1.69-.59 5.14 5.14 0 0 0 -1.78.38 14.45 14.45 0 0 0 -2.16 1.09v10.1h-1.6v-9a2.9 2.9 0 0 0 -.55-2 2.21 2.21 0 0 0 -1.69-.59 5.24 5.24 0 0 0 -1.86.4 14 14 0 0 0 -2.14 1.09v10.11h-1.58z"/>
<path d="m21.45 21.51a2.49 2.49 0 0 0 -2.55 2.21.08.08 0 0 0 .08.1h4.95a.08.08 0 0 0 .08-.09 2.41 2.41 0 0 0 -2.56-2.22z"/>
<path d="m32.06 4.91-10.5 11.79a.32.32 0 0 1 -.47 0l-5.36-5.53a.32.32 0 0 1 0-.4l1.77-2.27a.32.32 0 0 1 .52 0l3 3.32a.32.32 0 0 0 .49 0l8.36-11.46a.23.23 0 0 0 -.18-.36h-29.44a.25.25 0 0 0 -.25.25v33.5a.25.25 0 0 0 .25.25h32a.25.25 0 0 0 .25-.25v-28.69a.23.23 0 0 0 -.44-.15zm-23 25.36a8.08 8.08 0 0 1 -5.74-2 .31.31 0 0 1 0-.41l1.25-1.75a.31.31 0 0 1 .43-.11 6.15 6.15 0 0 0 4.2 1.64c1.64 0 2.44-.76 2.44-1.56 0-2.48-8.08-.78-8.08-6.06 0-2.33 2-4.27 5.32-4.27a7.88 7.88 0 0 1 5.25 1.76.31.31 0 0 1 0 .43l-1.23 1.71a.31.31 0 0 1 -.45.05 6.08 6.08 0 0 0 -3.84-1.32c-1.28 0-2 .57-2 1.41 0 2.23 8.06.74 8.06 6 0 2.54-1.83 4.48-5.62 4.48zm17.62-4.87a.27.27 0 0 1 -.28.28h-7.4a.09.09 0 0 0 -.08.1 2.81 2.81 0 0 0 3 2.32 4.62 4.62 0 0 0 2.56-.84.27.27 0 0 1 .4.06l.9 1.31a.28.28 0 0 1 -.06.37 6.67 6.67 0 0 1 -4.1 1.28 5.28 5.28 0 0 1 -5.57-5.48 5.31 5.31 0 0 1 5.4-5.46c3.11 0 5.22 2.33 5.22 5.74z"/>
</g>
</symbol>
<symbol viewBox="0 0 712 198">
<g id="karma">
<path d="M154.565 138.602l39.246 58.547h62.043l-70.31-103.883-30.979 45.336M29.492 169.994l28.736-27.07 45.942 54.225L74.678 88.375l-24.9 40.962-20.286 40.657" fill="#429F87"/>
<path d="M29.492 169.994l45.186-81.62-28.728 27.084L0 61.23l29.492 108.764M249.938.603h-62.043l-37.999 56.144V.603H92.985v58.229l30.344 111.834 7.071 26.483h19.496v-49.138L249.938.603" fill="#56C5A8"/>
<g font-family="Verdana, Arial, sans-serif" fill="#429F87"><text x="256" y="156" font-size="156" letter-spacing="1.2">ARMA</text></g>
</g>
</symbol>
<symbol viewBox="0 0 120 60">
<g id="cucumber">
<path d="M103.865 28.328c-1.372 0-2.242.686-2.882 1.738 0-.274.137-.595.137-.823v-.457h-2.287v11.437h2.287v-6.587c0-1.876 1.006-3.02 2.745-3.02h.457V28.33zm-93.003 4.2c-.64-1.006-1.555-1.693-2.882-1.693-2.104 0-3.614 1.6-3.614 3.614s1.5 3.614 3.614 3.614c1.327 0 2.242-.64 2.882-1.647l2.104 1.235A6.02 6.02 0 0 1 7.98 40.36c-3.888 0-6.13-2.928-6.13-5.856s2.287-5.856 6.13-5.856c2.38 0 3.888 1.144 4.986 2.7zm4.117-3.614h2.38v6.222c0 1.647 1.2 2.8 2.7 2.8 1.464 0 2.7-1.2 2.7-2.8v-6.222h2.38v6.405c0 3.1-2.425 4.986-5.078 4.986s-5.078-1.876-5.078-4.986zm21.318 3.614c-.64-1.006-1.555-1.693-2.882-1.693-2.104 0-3.614 1.6-3.614 3.614s1.5 3.614 3.614 3.614c1.327 0 2.242-.64 2.882-1.647L38.4 37.66a6.02 6.02 0 0 1-4.986 2.699c-3.888 0-6.13-2.928-6.13-5.856s2.242-5.856 6.13-5.856c2.38 0 3.888 1.144 4.986 2.7zm4.117-3.614h2.38v6.222c0 1.647 1.2 2.8 2.7 2.8 1.464 0 2.7-1.2 2.7-2.8v-6.222h2.38v6.405c0 3.1-2.425 4.986-5.078 4.986s-5.078-1.876-5.078-4.986zm13.13 4.163c0-2.836 1.876-4.437 4.07-4.437 1.693 0 2.882.823 3.34 1.967H61c.457-1.2 1.647-1.967 3.34-1.967 2.196 0 4.07 1.647 4.07 4.437v6.953h-2.38v-6.953c0-1.327-.823-2.104-1.83-2.104-1.144 0-1.967.686-1.967 2.425v6.587h-2.38v-6.587c0-1.738-.823-2.425-1.967-2.425-1.006 0-1.83.778-1.83 2.104v6.908H53.54zM71.34 25.63h2.38v4.666h.046c.55-.915 2.06-1.647 3.614-1.647 2.882 0 5.764 2.15 5.764 5.856s-2.882 5.856-5.764 5.856c-1.555 0-3.065-.732-3.614-1.647h-.046v1.372h-2.38zm5.8 5.26c-1.967 0-3.43 1.555-3.43 3.614s1.464 3.614 3.43 3.614c2.013 0 3.477-1.555 3.477-3.614 0-2.104-1.464-3.614-3.477-3.614zm18.802 6.725c-1.327 1.693-3.157 2.7-5.17 2.7-3.888 0-6.13-2.928-6.13-5.856s2.287-5.8 6.13-5.8c2.287 0 5.764 1.92 5.764 6.222v.412H87.35c.137 1.693 1.738 2.928 3.385 2.928 1.28 0 2.38-.64 3.202-1.738zm-2.196-4.3c-.503-1.693-1.738-2.608-3.294-2.608-1.5 0-2.745.96-3.157 2.608z" fill="#1b1d1e"/>
<path d="M110.815 11.64a7.49 7.49 0 0 0-7.491 7.491c0 3.645 2.613 6.674 6.06 7.348v2.145c4.483-.676 8.453-4.235 8.75-8.907.178-2.812-1.224-5.682-3.588-7.076a6.29 6.29 0 0 0-.414-.229 6.8 6.8 0 0 0-.443-.2c-.048-.02-.095-.038-.143-.057-.132-.05-.264-.103-.4-.143a7.43 7.43 0 0 0-2.33-.371z" fill="#00a818"/>
<path d="M112.36 14.413a.82.82 0 0 0-.715.286c-.137.183-.223.36-.315.543-.274.64-.183 1.327.23 1.83a2.01 2.01 0 0 0 1.458-1.187 1.47 1.47 0 0 0 .143-.6c.03-.486-.373-.828-.8-.872zm-3.33.043c-.418.04-.815.37-.815.83 0 .183.05.418.143.6.274.64.86 1.05 1.5 1.187.366-.503.46-1.2.186-1.83-.1-.183-.177-.363-.315-.5-.17-.206-.434-.313-.7-.286zm-2.244 2.2a.79.79 0 0 0-.444 1.415 3.44 3.44 0 0 0 .543.329c.64.274 1.382.18 1.93-.186-.137-.595-.604-1.14-1.244-1.415-.23-.1-.414-.143-.643-.143-.05-.005-.095-.002-.143 0zm7.048 2.774a2.09 2.09 0 0 0-1.187.343c.137.595.603 1.14 1.244 1.415.23.1.414.143.643.143.823.046 1.226-.972.586-1.43-.183-.137-.36-.223-.543-.314a1.98 1.98 0 0 0-.743-.157zm-6.247.043a1.97 1.97 0 0 0-.743.157c-.23.1-.406.192-.543.33-.595.503-.194 1.46.63 1.415.23 0 .46-.052.643-.143.64-.274 1.095-.82 1.187-1.415a2.06 2.06 0 0 0-1.172-.343zm2.316 1.4c-.64.137-1.183.546-1.458 1.187a1.38 1.38 0 0 0-.143.586c-.046.778 1.015 1.195 1.473.6.137-.183.223-.36.314-.543.274-.595.18-1.28-.186-1.83zm1.7.043c-.366.503-.46 1.2-.186 1.83.1.183.177.363.314.5.503.55 1.56.143 1.516-.543a1.44 1.44 0 0 0-.143-.6c-.274-.64-.86-1.05-1.5-1.187z" fill="#fff"/>
</g>
</symbol>
<symbol viewBox="0 0 672 147">
<g id="jasmine" fill="#8a4182">
<path d="M193 112.57c.115 5.045 3.21 10.201 8.941 10.201 3.438 0 5.96-1.604 7.681-4.47 1.604-2.866 1.604-7.106 1.604-10.315V66.838h-8.94V53.77h33.354v13.068h-8.824v43.096c0 7.337-.46 13.066-5.616 19.027-4.585 5.273-12.035 8.253-19.143 8.253-14.672 0-25.905-9.743-25.33-24.644H193M287.676 104.663c0-10.088-8.368-18.227-18.454-18.227-10.43 0-18.454 8.598-18.454 18.913 0 9.973 8.368 18.225 18.226 18.225 10.542 0 18.682-8.481 18.682-18.911zm-.23 22.693c-4.471 6.763-11.691 9.857-19.715 9.857-17.537 0-31.405-14.556-31.405-31.864 0-17.767 14.213-32.552 32.093-32.552 7.909 0 14.786 3.667 19.027 10.315v-8.711h21.893v13.066h-7.68v35.075h7.68v13.066h-21.893v-8.252M327.792 117.843c.458 5.502 4.126 9.169 9.857 9.169 4.241 0 8.366-2.979 8.366-7.563 0-6.075-5.73-7.106-10.431-8.368-10.659-2.75-22.351-6.075-22.351-19.484 0-11.692 9.857-18.454 20.747-18.454 5.5 0 10.429 1.147 13.867 5.501v-4.24h10.316v16.621h-13.526c-.229-4.357-3.552-7.222-7.907-7.222-3.782 0-7.794 2.178-7.794 6.418 0 5.731 5.616 6.991 10.087 8.022 11.002 2.521 22.809 5.962 22.809 19.717 0 12.379-10.43 19.255-21.892 19.255-6.191 0-11.808-1.948-15.818-6.647v5.043h-10.659v-17.767h14.329M373.522 87.468h-7.907V74.402h20.632v9.169c3.897-6.418 9.857-10.66 17.65-10.66 8.481 0 15.589 5.157 19.026 12.837 3.325-7.794 11.578-12.837 20.059-12.837 6.649 0 13.184 2.75 17.652 7.794 4.814 5.617 4.814 11.691 4.814 18.683v23.154h7.908v13.066h-29.801v-13.066h7.91v-19.715c0-4.012 0-7.565-1.834-11.119-2.293-3.323-6.076-5.043-9.973-5.043-3.781 0-7.91 1.605-10.316 4.584-2.865 3.67-2.865 7.107-2.865 11.578v19.715h7.908v13.066h-29.802v-13.066h7.91v-18.798c0-3.669 0-8.253-1.833-11.462-1.949-3.667-5.962-5.617-10.088-5.617-3.897 0-7.222 1.376-9.742 4.472-3.097 3.782-3.325 7.793-3.325 12.493v18.912h7.908v13.066h-29.8v-13.066h7.907V87.468M499.833 68.557H485.85V53.77h13.983v14.787zm0 53.986h7.909v13.066h-29.917v-13.066h8.024V87.468h-7.909V74.402h21.894l-.001 48.141M519.89 87.468h-7.909V74.402h21.894v8.711c3.668-6.763 10.544-10.087 18.107-10.087 6.649 0 13.182 2.752 17.654 7.566 5.041 5.617 5.156 11.004 5.156 17.994v23.957h7.908v13.066h-29.799v-13.066h7.908v-19.83c0-3.782 0-7.679-2.408-11.004-2.521-3.323-6.648-4.927-10.773-4.927-4.242 0-8.598 1.719-11.117 5.156-2.637 3.438-2.637 8.711-2.637 12.839v17.766h7.906v13.066h-29.799v-13.066h7.908V87.468M635.31 99.504c-2.405-8.825-10.2-14.443-19.255-14.443-8.255 0-16.163 6.418-17.882 14.443h37.137zm10.659 18.111c-4.813 11.689-16.158 19.599-28.881 19.599-17.884 0-32.21-13.983-32.21-31.979 0-18.11 13.64-32.666 31.864-32.666 8.483 0 16.965 3.782 22.924 9.858 6.077 6.418 8.598 14.212 8.598 22.923l-.458 4.929h-49.517c1.834 8.483 9.629 14.671 18.34 14.671 6.074 0 11.346-2.291 14.785-7.334h14.555M86.362 81.162h11.344l2.817-3.879v-30.39H83.545v30.393l2.817 3.876M79.05 94.718l3.505-10.788-2.819-3.88-28.902-9.391-5.247 16.148L74.494 96.2l4.556-1.482M89.681 105.861l-9.177-6.67-4.561 1.484-17.863 24.587 13.735 9.979 17.865-24.588v-4.792M103.565 99.191l-9.179 6.668.002 4.795 17.862 24.587 13.737-9.979-17.866-24.589-4.556-1.482M101.51 83.927l3.507 10.79 4.561 1.479 28.903-9.39-5.246-16.148-28.905 9.393-2.82 3.876"/>
<path d="M92.038 20.515c-40.381 0-73.234 32.847-73.234 73.223 0 40.389 32.854 73.247 73.234 73.247 40.377 0 73.226-32.857 73.226-73.247-.001-40.376-32.849-73.223-73.226-73.223zm0 14.826c32.246 0 58.398 26.141 58.398 58.396 0 32.266-26.152 58.418-58.398 58.418-32.26 0-58.407-26.152-58.407-58.418 0-32.255 26.147-58.396 58.407-58.396"/>
<path d="M136.391 110.015l-21.972-7.14 1.454-4.477 21.97 7.141-1.452 4.476M108.37 74.741l-3.808-2.766 13.578-18.691 3.808 2.765-13.578 18.692M75.933 74.569l-13.576-18.69 3.808-2.767 13.576 18.692-3.808 2.765M47.586 109.734l-1.453-4.476 21.97-7.136 1.453 4.475-21.97 7.137M89.536 140.426h4.705v-23.102h-4.705v23.102z"/>
</g>
</symbol>
<symbol viewBox="0 0 253 180">
<g id="saucelabs">
<path fill="#e2231a" d="M37.6,93.7c-2.1-5.3,0.6-11.3,5.9-13.4c1.7-0.6,3.5-0.8,5.3-0.6l-1.2,1.2h-0.3c-5,0-9.1,4.1-9.1,9.1  c0,0.8,0.1,1.7,0.3,2.5h8l-3.3,6.3l8.1-8.1h-11l12.3-12.3c-6.4-3-14-0.3-17.1,6.1c-2.8,6-0.6,13.2,5.1,16.5l3.9-7.2L37.6,93.7z"/>
<path fill="#e2231a" d="M54,79.1l-3.8,7.2H57c0.5,1.2,0.7,2.4,0.7,3.7c0,5.7-4.7,10.4-10.4,10.4c-0.5,0-1,0-1.5-0.1l1.2-1.2h0.4  c5,0,9.1-4.1,9.1-9.1c0-0.8-0.1-1.7-0.3-2.5h-8l3.4-6.3l-8.2,8.1h11L42,101.7c6.4,3,14,0.3,17.1-6.1C62,89.6,59.8,82.4,54,79.1"/>
<path fill="#474d54" d="M66.5,97.9l1.1-1.6c0.1-0.3,0.5-0.4,0.7-0.2c0.1,0,0.1,0.1,0.1,0.1c0.9,0.9,2.2,1.4,3.5,1.5  c1.4,0,2.5-1.1,2.5-2.4c0-1.2-0.8-2.1-2.4-3.1c-1.9-1.2-4.1-2.8-4.1-5.7s2-5.9,6.4-5.9c1.8,0,3.6,0.7,5,1.8c0.3,0.3,0.4,0.8,0.1,1.1  l-1.1,1.6c-0.2,0.3-0.6,0.4-1,0.1c-0.9-0.8-2-1.3-3.2-1.2c-1.3-0.1-2.4,0.9-2.4,2.2c0,1.1,0.8,1.7,2.5,2.8c1.9,1.2,4.3,2.8,4.3,5.9  c0,3.3-2.6,6.1-6.8,6.1c-2,0-3.9-0.8-5.3-2.2C66.3,98.6,66.2,98.3,66.5,97.9"/>
<path fill="#474d54" d="M92.1,93.9l-1.3-6.2h-0.1l-3.1,6.2H92.1z M80.4,99.9l10.6-19c0.1-0.2,0.3-0.3,0.5-0.3h0.2  c0.2,0,0.3,0.1,0.4,0.3l5.2,19c0.1,0.3-0.1,0.6-0.4,0.7c-0.1,0-0.1,0-0.2,0h-2.5c-0.3,0.1-0.7-0.2-0.7-0.5c0,0,0,0,0,0L93,97h-7  l-1.7,3.1c-0.2,0.3-0.5,0.6-0.9,0.6h-2.6C80.4,100.7,80.3,100.3,80.4,99.9"/>
<path fill="#474d54" d="M102.8,81.4c0-0.3,0.3-0.5,0.6-0.5h2.8c0.2,0,0.4,0.2,0.4,0.5c0,0,0,0.1,0,0.1l-1.7,11.9c0,0.3,0,0.6,0,0.9  c0,1.9,1,3,2.9,3c2.3,0,3.6-1.5,4-3.9l1.7-12c0-0.3,0.3-0.5,0.6-0.5h2.8c0.3,0,0.4,0.2,0.4,0.5c0,0,0,0,0,0l-1.8,12.2  c-0.6,4.3-3.6,7.4-8,7.4c-3.4,0.2-6.3-2.4-6.4-5.8c0-0.2,0-0.4,0-0.5c0-0.4,0-0.8,0.1-1.1L102.8,81.4z"/>
<path fill="#474d54" d="M130.9,80.6c2.3,0,4.4,1,5.9,2.7c0.2,0.3,0.1,0.6-0.1,0.8l-1.5,1.5c-0.2,0.3-0.6,0.3-0.9,0c0,0,0,0,0,0  c-0.9-0.9-2.2-1.4-3.5-1.4c-3.4,0-6.3,3.5-6.3,7.6c0,3,1.6,5.6,4.3,5.6c1.4-0.1,2.8-0.7,3.8-1.7c0.2-0.3,0.5-0.3,0.8-0.1  c0,0,0.1,0.1,0.1,0.1l1.5,1.8c0.1,0.3,0.1,0.6-0.1,0.8c-1.7,1.7-4,2.7-6.4,2.8c-4.9,0-8.1-3.9-8.1-8.8  C120.3,85.5,125,80.6,130.9,80.6"/>
<path fill="#474d54" d="M142.1,81.4c0-0.3,0.3-0.5,0.5-0.5h10.5c0.2,0,0.4,0.2,0.4,0.5c0,0,0,0.1,0,0.1l-0.3,2.3c0,0.3-0.3,0.5-0.6,0.5  h-7.2l-0.6,4.6h6c0.3,0,0.5,0.2,0.4,0.5c0,0,0,0,0,0l-0.3,2.3c0,0.3-0.3,0.5-0.6,0.5h-6l-0.7,5h7.3c0.3,0,0.4,0.2,0.4,0.5l-0.3,2.3  c0,0.3-0.3,0.5-0.6,0.5h-10.5c-0.2,0-0.4-0.2-0.4-0.4c0,0,0-0.1,0-0.1L142.1,81.4z"/>
<path fill="#e2231a" d="M160.2,81.4c0-0.3,0.3-0.5,0.6-0.5h1.2c0.3,0,0.5,0.2,0.4,0.5c0,0,0,0,0,0L160,98.8h7.2c0.2,0,0.4,0.2,0.4,0.5  c0,0,0,0,0,0.1l-0.1,0.8c0,0.3-0.3,0.5-0.6,0.5H158c-0.2,0-0.4-0.2-0.4-0.5c0,0,0,0,0-0.1L160.2,81.4z"/>
<path fill="#e2231a" d="M182.7,94l-2.2-9.3h-0.2l-4.8,9.3H182.7z M169.9,100l10.4-19c0.1-0.2,0.3-0.3,0.5-0.3h0.3  c0.2,0,0.3,0.1,0.4,0.3l5,19c0.1,0.3-0.1,0.6-0.4,0.7c0,0-0.1,0-0.1,0h-1.2c-0.2,0-0.4-0.1-0.4-0.3l-1.1-4.7h-8.8l-2.4,4.7  c-0.1,0.2-0.3,0.3-0.5,0.3h-1.2C169.9,100.7,169.7,100.4,169.9,100"/>
<path fill="#e2231a" d="M197.5,89.8c2.1,0,3.4-1.7,3.4-4.2c0-1.6-0.9-2.8-2.5-2.8h-3.9l-1,6.9L197.5,89.8z M196.6,98.8  c2.1-0.1,3.7-1.9,3.6-4c0-1.7-1.3-3-3-3h-4l-1,7.1L196.6,98.8z M200.2,90.7c1.5,0.7,2.4,2.2,2.4,3.8c0,3.5-2.5,6.1-6.4,6.1h-5.9  c-0.2,0-0.4-0.2-0.4-0.5c0,0,0,0,0-0.1l2.6-18.7c0-0.3,0.3-0.5,0.6-0.5h5.6c2.4-0.1,4.5,1.8,4.6,4.2c0,0.1,0,0.2,0,0.3  C203.4,87.6,202.2,89.6,200.2,90.7L200.2,90.7z"/>
<path fill="#e2231a" d="M206.1,97.7l0.5-0.5c0.3-0.3,0.6-0.4,0.9-0.1c1,1.3,2.6,2,4.2,2c1.9,0.1,3.5-1.3,3.6-3.2c0-0.1,0-0.2,0-0.2  c0-1.8-1.3-2.8-3.7-4.2s-3.8-2.6-3.8-5.2c0-2.4,1.5-5.7,6.1-5.7c1.6,0,3.1,0.5,4.4,1.4c0.1,0.1,0.4,0.4,0,1l-0.3,0.4  c-0.3,0.4-0.6,0.5-0.9,0.3c-1-0.8-2.1-1.2-3.4-1.2c-2-0.1-3.7,1.5-3.8,3.5c0,0,0,0,0,0c0,1.6,1.1,2.6,2.9,3.6  c2.7,1.5,4.8,2.9,4.8,5.8c0,3.1-2.3,5.6-6.2,5.6c-2,0-3.9-0.9-5.3-2.4C205.8,98.4,205.7,98.1,206.1,97.7"/>
<rect fill="none" x="29" y="73" width="195" height="34"/>
</g>
</symbol>
<symbol viewBox="0 0 90 32">
<g id="rspec">
<path d="M4.232,19.36,6.56,20A10.28,10.28,0,0,1,16.012,5.729h.19l1.377-1.876L16.463,2h-.451A14.021,14.021,0,0,0,2.95,21.094Z" fill="#5ecae6"/>
<path d="M18.387,3.971,16.962,5.8a10.267,10.267,0,0,1,9.286,10.212,10.143,10.143,0,0,1-.594,3.42l1.116,2.161,2.137-.166A14.127,14.127,0,0,0,30,16.012,13.985,13.985,0,0,0,17.247,2.071Z" fill="#a5ddef"/>
<path d="M26.343,22.258l-1-2.042a10.259,10.259,0,0,1-18.429.546l-2.47-.617L3.235,21.783a14.007,14.007,0,0,0,25.364.309Z" fill="#7fd2ed"/>
<polygon points="12.165 9.932 8.412 13.779 9.362 15.703 15.893 23.683 22.424 15.513 23.374 13.779 19.622 9.932 12.165 9.932" fill="#ef4561"/>
<line x1="8.412" y1="13.898" x2="10.763" y2="14.373" fill="none"/>
<polygon points="22.424 15.537 20.097 16.226 21.023 14.373 23.374 13.898 22.424 15.537" fill="#ef4d6e"/>
<polygon points="14.967 16.582 14.017 14.207 17.769 14.207 16.819 16.582 14.967 16.582" fill="#ef4561"/>
<polygon points="18.696 16.107 17.769 14.207 21.023 14.207 20.097 16.107 18.696 16.107" fill="#ef4561"/>
<polygon points="13.091 16.226 14.017 14.373 14.967 16.701 13.091 16.226" fill="#ef4d6e"/>
<polygon points="16.819 16.701 17.769 14.373 18.696 16.226 16.819 16.701" fill="#ef4d6e"/>
<polygon points="21.023 14.254 19.17 9.932 19.622 9.932 23.374 13.708 21.023 14.254" fill="#ef4561"/>
<polygon points="17.769 14.207 18.221 9.932 19.17 9.932 21.023 14.207 17.769 14.207" fill="#ef4d6e"/>
<polygon points="9.362 15.774 11.69 16.226 10.763 14.373 8.412 13.898 9.362 15.774" fill="#ef4d6e"/>
<polygon points="13.091 16.107 14.017 14.207 10.763 14.207 11.69 16.107 13.091 16.107" fill="#ef4561"/>
<polygon points="10.763 14.254 12.616 9.932 12.165 9.932 8.412 13.708 10.763 14.254" fill="#ef4561"/>
<polygon points="14.017 14.207 13.566 9.932 12.616 9.932 10.763 14.207 14.017 14.207" fill="#ef4d6e"/>
<polygon points="14.017 14.136 15.893 9.932 13.566 9.932 14.017 14.136" fill="#ef4561"/>
<polygon points="17.769 14.136 18.221 9.932 15.893 9.932 17.769 14.136" fill="#ef4561"/>
<polygon points="17.769 14.207 15.893 10.003 14.017 14.207 17.769 14.207" fill="#ef4d6e"/>
<polygon points="11.69 16.107 15.893 23.564 13.091 16.107 11.69 16.107" fill="#ef4d6e"/>
<polygon points="9.362 15.774 11.69 16.226 15.893 23.707 9.362 15.774" fill="#ef4561"/>
<polygon points="13.091 16.226 14.967 16.701 15.893 23.707 13.091 16.226" fill="#ef4561"/>
<polygon points="18.696 16.226 15.893 23.707 16.819 16.701 18.696 16.226" fill="#ef4561"/>
<polygon points="20.097 16.107 15.893 23.564 18.696 16.107 20.097 16.107" fill="#ef4d6e"/>
<polygon points="22.424 15.537 20.097 16.226 15.893 23.707 22.424 15.537" fill="#ef4561"/>
<polygon points="15.893 23.588 14.967 16.582 16.819 16.582 15.893 23.588" fill="#ef4d6e"/>
<g fill="#666" font-family="Calibri Light, Arial Narrow, sans-serif"><text font-size="22" y="24" x="34">Rspec</text></g>
</g>
</symbol>
<symbol viewBox="0 0 462 106">
<g id="maven" font-style="oblique" font-family="Verdana" font-weight="bold">
<text font-size="96" transform="scale(0.943,1.06)" x="82" y="76">m</text>
<text font-size="80" word-spacing="0" x="173" y="80"><tspan fill="#ff6804">a</tspan>ven</text>
</g>
</symbol>
<symbol viewBox="10 10 1017.716 311.856">
<g id="jenkins">
<path d="M232.147 160.275c0 61.786-48.968 111.874-109.375 111.874-60.405 0-109.373-50.088-109.373-111.874C13.399 98.488 62.367 48.4 122.772 48.4c60.407 0 109.375 50.089 109.375 111.876" fill="#d33833"/><path d="M17.856 187.983s-7.917-116.668 99.583-120l-7.499-12.5-58.332 19.582L34.94 94.233 20.356 122.15l-8.334 32.5 2.5 21.666" fill="#ef3d3a"/><path d="M47.86 83.956c-19.19 19.635-31.065 46.745-31.065 76.737 0 29.983 11.875 57.097 31.065 76.73 19.2 19.63 45.659 31.745 74.911 31.745 29.253 0 55.714-12.114 74.913-31.745 19.188-19.632 31.065-46.745 31.065-76.73 0-29.992-11.878-57.102-31.065-76.737-19.199-19.627-45.659-31.74-74.913-31.743-29.252.002-55.711 12.116-74.911 31.743zm-4.856 158.215C22.609 221.314 10 192.49 10 160.693c0-31.802 12.609-60.624 33.002-81.483 20.39-20.864 48.614-33.794 79.768-33.79 31.154-.004 59.381 12.926 79.767 33.79 20.397 20.859 33.008 49.684 33.004 81.483.003 31.796-12.607 60.62-33.004 81.478-20.386 20.862-48.613 33.792-79.767 33.792-31.153 0-59.378-12.93-79.766-33.792" fill="#231f20"/><path d="M168.814 160.895l-16.668 2.5-22.5 2.5-14.583.416-14.167-.416-10.833-3.334-9.583-10.416-7.5-21.25-1.667-4.584-10-3.332-5.833-9.584-4.167-13.75 4.583-12.084 10.834-3.75 8.75 4.168 4.166 9.166 5-.834 1.667-2.082-1.667-9.584-.416-12.084 2.5-16.666-.097-9.52L94.23 34.23l13.333-9.584 23.333-10 25.834 3.75 22.5 16.25 10.416 16.667 6.668 12.083 1.666 30-5 25.834-9.166 22.916-8.75 12.084" fill="#f0d6b7"/><path d="M154.646 232.978l-59.583 2.5v10l5 35-2.5 2.917-41.667-14.167-2.916-5-4.167-47.083-9.583-28.334-2.084-6.666L70.48 159.23l10.416-4.168 9.167 11.25 7.917 7.084 9.166 2.916 4.167 1.25 5 21.667 3.75 4.583 9.583-3.333-6.666 12.917 36.25 17.083-4.584 2.5" fill="#335061"/><path d="M55.896 87.561l10.834-3.75 8.75 4.168 4.166 9.166 5-.834 1.25-5-2.5-9.582 2.5-22.918-2.084-12.5 7.5-8.75 16.25-12.916-4.582-6.25-22.918 11.25-9.582 7.5-5.417 11.666-8.333 11.25-2.5 13.334 1.666 14.166" fill="#6d6b6d"/><path d="M72.979 48.395s6.25-15.416 31.25-22.916 1.25-5.418 1.25-5.418L78.395 30.48 67.979 40.895l-4.584 8.334 9.584-.834M60.479 84.645s-8.75-29.167 24.582-33.334l-1.25-5-22.916 5.418-6.666 21.666 1.666 14.166 4.584-2.916" fill="#dcd9d8"/><path d="M73.811 123.395l5.456-5.286s2.462.286 2.878 3.202c.416 2.918 1.666 29.168 19.584 43.335 1.633 1.293-13.334-2.085-13.334-2.085L75.061 141.73M150.481 115.479s.972-12.63 4.374-11.659c3.401.971 3.401 4.373 3.401 4.373s-8.261 5.343-7.775 7.286M185.063 69.229s-6.87 1.45-7.5 7.5c-.633 6.051 7.5 1.25 8.75.832M134.646 69.646s-9.166 1.25-9.166 7.083c0 5.832 10.416 5.417 13.334 2.917M77.979 96.729s-15.834-9.584-17.5-.418c-1.668 9.168-5.418 15.834 2.5 25.418l-5.418-1.668-5-12.916-1.666-12.5 9.584-10.001 10.832.834 6.25 5 .418 6.25M85.479 70.479s7.082-36.668 42.916-43.75c29.503-5.831 44.999 1.25 50.834 7.916 0 0-26.25-31.249-51.25-21.666-25 9.582-43.334 27.082-42.918 38.332.71 19.16.418 19.168.418 19.168M182.146 38.811s-12.082-.416-12.5 10.418c0 0-.001 1.666.834 3.332 0 0 9.585-10.833 15.416-5" fill="#f7e4cd"/><path d="M129.235 53.69s-2.08-16.629-16.256-6.961c-9.168 6.25-8.334 15-6.668 16.666 1.668 1.668 1.214 5.024 2.483 2.72 1.267-2.304.85-9.804 5.435-11.886 4.582-2.084 12.096-4.411 15.006-.539" fill="#f7e4cd"/><path d="M90.061 166.311l-39.166 17.5s16.25 64.584 7.916 84.584l-5.832-2.082-.418-24.584-10.832-46.666-4.584-12.918 40.834-27.499 12.082 11.665M94.089 202.033l5.556 6.778v25h-6.666s-.834-17.5-.834-19.583c0-2.083.834-9.583.834-9.583M94.229 237.563l-18.75.832 5.416 3.75 13.334 2.083" fill="#49728b"/><path d="M158.396 233.395l15.418-.417 3.75 38.333-15.834 2.083-3.334-39.999" fill="#335061"/><path d="M162.563 233.395l23.332-1.25s9.584-24.167 9.584-25.417 8.334-35 8.334-35l-18.75-19.582-3.75-3.333-10 10v38.75l-8.75 35.832" fill="#335061"/><path d="M172.979 230.478l-14.584 2.917 2.084 11.668c5.416 2.5 14.584-4.168 14.584-4.168M173.396 157.563l29.168 21.667.832-10-22.082-20.417-7.918 8.75" fill="#49728b"/><path d="M108.689 315.483l-8.626-35.007-4.29-25.828-.71-19.172 39.043-2.078 24.29-.004-2.207 43.754 3.75 33.75-.418 6.25-31.665 2.5-19.167-4.165" fill="#fff"/><path d="M152.979 232.978s-2.084 43.333 4.166 74.167c0 0-12.5 7.918-30.834 10l35.001-1.25 4.167-2.5-5-68.332-1.25-14.585" fill="#dcd9d8"/><path d="M178.272 267.983l16.25-4.584 30.833-1.666 4.584-14.168-8.334-24.582-9.582-1.25-13.334 4.166-12.793 6.246-6.791-1.246-5.293 2.079" fill="#fff"/><path d="M177.979 259.645s10.832-4.999 12.5-4.582l-4.584-22.918 5.417-2.082s3.75 21.666 3.75 24.166c0 0 23.333 1.25 25.417 1.25 0 0 5-9.583 3.75-19.583l4.583 13.333.417 7.5-6.667 10-7.5 1.667-12.5-.417-4.167-5.416-14.582 2.082-4.584 1.668" fill="#dcd9d8"/><path d="M161.605 230.066l-9.166-23.332-9.584-13.75s2.083-5.834 5-5.834h9.584l9.166 3.334-.832 15.416-4.168 24.166" fill="#fff"/><path d="M163.396 222.145s-11.666-22.499-11.666-25.832c0 0 2.083-5 5-3.75 2.916 1.25 9.166 4.582 9.166 4.582v-7.916l-14.166-2.918-9.584 1.25 16.25 38.334 3.334.418" fill="#dcd9d8"/><path d="M112.439 167.15l-11.543-1.255-10.834-3.334v3.75l5.294 5.838 16.667 7.5" fill="#fff"/><path d="M93.814 168.399s12.916 5.417 17.084 4.167l.413 4.995-11.664-2.495-7.083-5 1.25-1.667" fill="#dcd9d8"/><path d="M178.227 188.568c-7.07-.208-13.457-1.048-19.05-2.625.38-2.293-.332-4.543.24-6.195 1.558-1.123 4.172-1.105 6.527-1.368-2.038-1.002-4.899-1.397-7.251-.82-.056-1.591-.77-2.577-1.202-3.822 3.975-1.42 13.359-10.72 18.638-7.64 2.515 1.465 3.584 9.832 3.779 13.9.163 3.377-.305 6.782-1.68 8.57" fill="#d33833"/><path d="M178.227 188.568c-7.07-.208-13.457-1.048-19.05-2.625.38-2.293-.332-4.543.24-6.195 1.558-1.123 4.172-1.105 6.527-1.368-2.038-1.002-4.899-1.397-7.251-.82-.056-1.591-.77-2.577-1.202-3.822 3.975-1.42 13.359-10.72 18.638-7.64 2.515 1.465 3.584 9.832 3.779 13.9.163 3.377-.305 6.782-1.68 8.57z" fill="none" stroke="#d33833" stroke-width="2.5"/><path d="M144.419 177.01c-.019.535-.042 1.074-.063 1.614-2.207 1.45-5.77 1.432-8.194 2.651 3.572.156 6.383 1.016 8.815 2.229l-.157 4.042c-4.046 2.77-7.742 6.895-12.506 9.493-2.253 1.229-10.159 4.39-12.555 3.831-1.355-.315-1.478-1.997-2.02-3.584-1.155-3.395-3.814-8.8-4.047-13.915-.294-6.457-.947-17.278 6.012-15.948 5.614 1.07 12.145 3.657 16.491 6.032 2.657 1.45 4.194 3.245 8.224 3.555" fill="#d33833"/><path d="M144.419 177.01c-.019.535-.042 1.074-.063 1.614-2.207 1.45-5.77 1.432-8.194 2.651 3.572.156 6.383 1.016 8.815 2.229l-.157 4.042c-4.046 2.77-7.742 6.895-12.506 9.493-2.253 1.229-10.159 4.39-12.555 3.831-1.355-.315-1.478-1.997-2.02-3.584-1.155-3.395-3.814-8.8-4.047-13.915-.294-6.457-.947-17.278 6.012-15.948 5.614 1.07 12.145 3.657 16.491 6.032 2.657 1.45 4.194 3.245 8.224 3.555z" fill="none" stroke="#d33833" stroke-width="2.5"/><path d="M148.438 184.715c-.62-3.517-1.333-4.521-1.057-7.591 9.383-6.254 11.144 10.745 1.056 7.591" fill="#d33833"/><path d="M148.438 184.715c-.62-3.517-1.333-4.521-1.057-7.591 9.383-6.254 11.144 10.745 1.056 7.591z" fill="none" stroke="#d33833" stroke-width="2.5"/><path d="M162.021 187.566s-2.917-4.167-.832-5.417c2.082-1.25 4.167.001 5.417-2.083 1.25-2.082 0-3.332.416-5.832.418-2.5 2.503-2.918 4.584-3.334 2.083-.416 7.918-1.25 8.75.834l-2.5-7.5-5-1.668-15.834 9.168-.832 4.582v9.168M118.271 201.316c-.501-6.502-1.03-12.996-1.62-19.492-.881-9.7 2.33-8.008 10.739-8.008 1.284 0 7.907 1.532 8.381 2.5 2.273 4.642-3.8 3.61 2.619 7.11 5.416 2.954 14.988-1.793 12.799-8.36-1.225-1.46-6.383-.455-8.231-1.412l-9.765-5.063c-4.142-2.15-13.713-5.28-18.13-2.278-11.187 7.61.707 26.62 4.698 34.557" fill="#ef3d3a"/><path d="M129.235 53.69c-11.356-2.645-16.999 4.753-20.441 12.425-3.074-.745-1.85-4.925-1.074-7.055 2.033-5.59 10.225-13.031 16.918-12.022 2.88.433 6.778 3.067 4.597 6.652M184.569 66.623l.539.02c2.566 5.332 4.787 10.98 8.023 15.686-2.167 5.051-16.421 9.521-16.202.451 3.082-1.347 8.403-.275 11.136-1.996-1.579-4.336-3.859-8.028-3.496-14.161M135.05 66.761c2.435 4.464 3.228 9.154 6.689 12.528 1.559 1.519 4.59 3.37 3.087 7.594-.351.996-2.917 3.217-4.4 3.653-5.411 1.597-18.02.33-13.75-6.417 4.477.209 10.49 2.906 13.835-.341-2.567-4.107-7.146-12.23-5.461-17.017M182.537 112.129c-8.147 5.235-17.232 10.925-30.582 9.605-2.853-2.48-3.94-7.999-1.169-11.644 1.443 2.48.536 7.041 4.556 7.728 7.575 1.296 16.392-4.634 21.842-6.708 3.377-5.696-.293-7.791-3.336-11.457-6.23-7.512-14.59-16.822-14.287-28.067 2.52-1.826 2.736 2.788 3.098 3.628 3.254 7.614 11.442 17.354 17.419 23.871 1.467 1.605 3.883 3.145 4.152 4.206.775 3.088-2.016 6.785-1.692 8.838M75.127 106.619c-2.553-1.458-3.162-7.878-6.16-8.06-4.283-.261-3.502 8.327-3.486 13.35-2.948-2.676-3.467-10.921-1.301-15.154-2.47-1.212-3.573 1.338-4.941 2.236 1.76-12.787 18.706-5.93 15.889 7.628M187.725 117.454c-3.792 7.219-9.157 15.169-20.286 15.4-.226-2.331-.4-5.879.012-7.284 8.508-.816 13.76-5.146 20.274-8.116M134.409 122.134c7.097 3.734 20.142 4.134 29.79 3.851.517 2.114.505 4.725.525 7.303-12.402.618-27.064-2.45-30.315-11.154M133.059 129.094c4.909 12.324 21.779 10.905 36.005 10.565-.626 1.6-1.984 3.49-3.671 4.174-4.56 1.855-17.133 3.262-23.463-.1-4.014-2.133-6.591-6.954-8.791-9.78-1.061-1.365-6.35-4.852-.08-4.86" fill="#231f20"/><path d="M181.945 197.071c-5.76 9.865-11.27 19.998-18.105 28.7 2.865-8.425 4.091-22.523 4.524-33.272 5.994-2.804 11.126.632 13.581 4.572" fill="#81b0c4"/><path d="M212.94 232.529c-6.449 1.291-10.98 7.559-17.271 7.156 3.457-4.874 9.516-6.929 17.271-7.156M215.785 242.621c-5.256.557-11.43 1.407-16.761.968 2.523-3.855 12.247-2.525 16.761-.968M217.606 251.323c-5.907.128-13.25.01-18.863-.46 3.32-3.568 15.032-1.325 18.863.46" fill="#231f20"/><path d="M170.83 275.134c.846 7.419 3.787 14.936 3.42 23.061-3.266 1.101-5.143 2.065-9.52 2.06-.309-6.906-1.233-17.462-.956-24.045 2.153.143 5.327-1.537 7.056-1.076" fill="#dcd9d8"/><path d="M161.306 165.794c-2.966 1.936-5.492 4.355-8.341 6.422-6.318.313-9.765-.437-14.406-4.065.076-.29.542-.16.56-.518 6.762 3.012 15.359-1.23 22.187-1.84" fill="#f0d6b7"/><path d="M125.806 211.891c1.858-8.05 9.138-12.22 15.749-16.655 6.824 8.66 10.974 19.798 15.544 30.545-10.798-3.255-21.83-8.536-31.293-13.89" fill="#81b0c4"/><path d="M163.775 276.21c-.276 6.583.647 17.139.956 24.045 4.378.006 6.253-.957 9.52-2.06.369-8.125-2.573-15.642-3.42-23.061-1.73-.461-4.903 1.219-7.056 1.076zm-68.142-37.436c2.886 26.529 7.065 48.829 14.73 72.321 17.016 5.166 37.526 5.616 52.565.955-2.76-13.259-1.555-29.401-3.168-43.551-1.217-10.635-.596-21.335-2.264-32.185-18.223-3.79-43.98-.885-61.863 2.46zm66.17-2.291c-.153 11.392.51 22.63 1.38 34.038 4.376-.656 7.345-1.095 11.408-1.986-1.319-10.982-1.157-23.34-3.846-33.055-3.106.029-5.843-.036-8.941 1.003zm22.195-1.838c-2.077-.475-4.494-.019-6.478.02.933 9.288 3.195 19.538 3.991 29.286 3.122.097 4.789-1.375 7.357-1.87.137-8.558-.75-20.348-4.87-27.436zm33.605 30.704c6.506-1.579 10.596-9.548 8.777-17.733-1.221-5.5-3.396-15.856-5.724-19.375-1.72-2.6-6.383-6.008-10.107-3.625-6.058 3.88-16.73 5.005-21.146 9.7 2.215 7.375 2.902 17.505 3.816 26.85 7.567.473 16.877-2.082 23.171.63-4.394 1.422-10.095 1.433-13.89 3.507 3.103 1.498 10.366 1.196 15.103.046zm-60.504-39.568c-4.57-10.747-8.721-21.885-15.544-30.545-6.611 4.435-13.891 8.604-15.749 16.655 9.463 5.354 20.495 10.635 31.293 13.89zm11.265-33.28c-.433 10.748-1.659 24.847-4.524 33.27 6.834-8.7 12.345-18.833 18.105-28.698-2.455-3.942-7.587-7.378-13.581-4.573zm-12.77-4.538c-2.589-.28-4.786 2.976-8.154 1.568-.77.853-1.471 1.777-2.257 2.61 7.435 8.96 10.813 21.672 16.556 32.203 3.081-10.115 2.726-21.196 3.405-32.236-4.234.267-6.583-3.83-9.55-4.145zm-8.211-10.838c-.277 3.069.437 4.074 1.056 7.591 10.086 3.153 8.325-13.846-1.056-7.59zm-11.187-3.672c-4.346-2.375-10.877-4.963-16.491-6.033-6.959-1.332-6.306 9.493-6.011 15.949.232 5.114 2.89 10.52 4.046 13.915.543 1.586.664 3.269 2.02 3.584 2.396.558 10.301-2.603 12.555-3.832 4.764-2.597 8.46-6.722 12.506-9.492.053-1.348.104-2.695.158-4.043-2.433-1.21-5.244-2.072-8.815-2.228 2.422-1.22 5.986-1.202 8.194-2.652.02-.54.043-1.077.062-1.613-4.031-.308-5.567-2.103-8.224-3.555zM94.68 165.91c-3.608 3.663 10.117 8.654 14.489 8.924-.025-2.319 1.32-4.502 1.05-6.165-5.192-.911-12.013-.31-15.54-2.759zm44.44 1.72c-.018.358-.484.228-.56.52 4.641 3.627 8.089 4.377 14.406 4.064 2.849-2.067 5.375-4.485 8.341-6.422-6.829.61-15.425 4.852-22.187 1.838zm40.79 12.37c-.195-4.07-1.264-12.436-3.779-13.9-5.279-3.083-14.662 6.22-18.637 7.64.432 1.244 1.146 2.23 1.2 3.822 2.352-.578 5.215-.183 7.252.82-2.355.263-4.969.246-6.527 1.367-.572 1.651.14 3.901-.24 6.195 5.592 1.578 11.98 2.418 19.05 2.625 1.374-1.79 1.843-5.195 1.68-8.57zm-91.303-10.547c-1.132-.808-8.796-10.779-9.845-10.365-13.867 5.469-26.833 14.926-38.421 23.869 11.048 23.705 15.508 52.747 16.295 80.738 12.655 5.92 23.771 14.453 40.944 15.343-1.988-14.06-3.803-26.604-4.93-39.841-4.315-1.82-10.505.082-14.543-.565-.033-4.865 6.168-2.132 6.684-5.403.389-2.475-3.413-2.662-2.175-6.56 3.158 1.148 4.815 3.681 8.181 4.634 3.077-6.73-.042-18.638.4-24.263.084-1.056.528-5.85 2.893-5.01 2.094.744-.119 12.753.11 18.077.209 4.905-.593 9.65 1.394 12.73 16.595-2.26 33.457-3.72 51.412-4.212-3.95-1.695-8.642-3.298-13.787-6.198-2.79-1.572-11.582-4.844-12.387-7.493-1.283-4.221 3.369-6.47 4.165-10.089-8.376 4.57-10.011-4.378-11.992-10.716-1.795-5.741-2.818-10.03-3.258-13.341-7.215-3.44-14.93-6.924-21.14-11.335zm83.974-9.159c11.554-5.602 13.636 20.939 9.107 29.489.7 2.55 3.108 3.526 4.09 5.819-6.447 11.55-13.608 22.332-20.187 33.745 4.894-3.047 11.884-.545 17.643-2.824 2.105-.833 3.628-5.651 5.222-9.506 4.384-10.607 8.985-23.978 11.034-34.1.462-2.305 1.722-7.33 1.44-9.383-.504-3.675-5.49-6.4-8.026-8.672-4.673-4.198-7.615-7.89-12.49-11.815-1.975 2.915-6.217 4.875-7.833 7.247zM62.183 57.835c-5.507 6.056-4.354 17.408-3.687 25.483 9.952-6.262 23.159.493 23.034 11.142 4.751-.127 1.775-5.935.916-9.676-2.808-12.22 4.732-25.496.342-36.671-8.523.647-15.525 4.128-20.605 9.722zm39.392-35.157C89.113 26.21 73.139 35.266 68.018 46.463c3.966-.577 6.718-2.577 10.63-2.824 1.48-.096 3.416.619 5.115.197 3.386-.84 6.243-8.432 8.798-11.257 2.49-2.759 5.484-3.938 7.533-6.453 1.315-.635 3.261-.59 3.336-2.567-.571-.61-1.172-1.075-1.855-.881zM166.454 26c-12.936-7.297-34.833-12.787-48.593-5.929-11.103 5.538-26.112 14.697-31.23 26.304 4.78 11.203-1.416 21.466-1.811 32.838-.21 6.05 2.849 11.333 3.083 17.92-1.637 2.7-6.633 3.032-10.093 2.847-1.164-5.827-3.202-12.377-9.204-13.035-8.491-.929-14.698 6.099-15.085 13.443-.457 8.636 6.633 22.95 16.682 21.957 3.88-.384 4.836-4.275 9.064-4.235 2.292 4.574-3.536 6.01-4.136 9.281-.156.845.484 4.148.855 5.697 1.825 7.54 5.894 17.3 9.899 23.042 5.082 7.284 15.07 8.38 25.814 9.094 1.918-4.134 8.987-3.793 13.593-2.711-5.52-2.187-10.652-7.487-14.905-12.178-4.885-5.382-9.833-11.156-10.083-18.191 9.232 12.807 16.86 23.994 33.646 29.626 12.703 4.261 27.538-1.952 37.296-8.806 4.05-2.849 6.468-7.369 9.346-11.506 10.77-15.494 15.797-37.61 14.693-59.043-.455-8.841-.436-17.65-3.401-23.597-3.1-6.22-13.585-11.783-19.723-6.158-1.137-6.047 5.104-9.789 12.435-7.611-5.226-6.75-10.712-14.856-18.142-19.049zm24.101 199.459c10.109-5.025 28.996-13.526 35.334.019 2.339 4.993 5.082 13.432 6.294 18.587 1.71 7.27-1.855 22.554-9.33 24.994-6.6 2.155-14.303 2.025-22.254.426-.936-.779-1.979-2.136-2.708-3.551-5.677-.22-10.994.306-15.479 2.639.425 4.198-2.415 4.872-5.077 5.737-1.974 7.826 3.949 18.048 2.531 25.184-1.011 5.084-7.266 5.87-11.864 6.821-.15 2.825.202 5.184.515 7.574-1.05 3.874-5.766 6.079-10.235 6.619-14.697 1.765-37.016 2.56-51.153-2.525-3.945-9.678-7.054-21.45-10.34-32.498-13.789 1.473-24.942-5.95-35.455-10.812-3.64-1.688-8.677-2.618-10.035-5.515-1.319-2.807-.78-8.182-1.107-13.262-.832-12.97-1.545-25.482-4.97-38.763-1.538-5.96-4.22-11.22-6.09-16.962-1.728-5.322-4.747-11.9-5.536-17.207-1.167-7.866 6.239-8.304 10.975-11.713 7.323-5.27 13.07-8.186 20.999-12.943 2.349-1.41 9.43-4.975 10.236-6.618 1.601-3.256-2.749-7.847-3.912-10.4-1.84-4.036-2.799-7.465-3.063-11.449-6.652-1.05-11.694-5.01-14.74-9.473-5.039-7.387-8.534-21.055-4.174-31.452.342-.818 2.048-2.428 2.3-3.685.495-2.476-.935-5.77-1.023-8.403-.458-13.512 2.286-25.154 11.382-29.23 3.693-14.712 16.91-19.603 29.363-26.914 4.655-2.733 9.786-4.479 15.086-6.429 19.01-6.996 48.176-5.679 63.954 6.254 6.69 5.06 17.383 15.744 21.208 23.479 10.103 20.42 9.385 54.55 2.32 79.39-.95 3.336-2.328 8.238-4.252 12.245-1.341 2.797-5.51 8.395-5.004 10.865.521 2.553 9.506 9.375 11.431 11.232 3.47 3.346 10.06 7.788 10.593 12.011.574 4.493-1.98 10.64-3.275 14.978-4.321 14.472-8.541 27.849-13.445 40.75" fill="#231f20"/><path d="M123.114 125.286c.548-.73 3.563-1.838 7.782.193 0 0-5 .832-4.583 9.17l-2.083-.418c-.001 0-2.155-7.558-1.116-8.945" fill="#f7e4cd"/><path d="M159.646 196.938a2.291 2.291 0 1 1-4.582 0 2.291 2.291 0 0 1 4.582 0M161.938 207.563a2.292 2.292 0 1 1-4.585-.002 2.292 2.292 0 0 1 4.584.002" fill="#1d1919"/><g><path d="M402.111 114.35c-2.343.294-4.336.586-5.976.88a76.757 76.757 0 0 0-5.537 1.23c-2.404.645-3.942 1.79-4.614 3.43-.674 1.643-1.011 3.519-1.011 5.63v68.78c0 6.334-1.275 12.139-3.824 17.416s-6.051 9.704-10.503 13.28c-4.512 3.52-9.551 6.173-15.117 7.96-5.568 1.788-11.514 2.683-17.841 2.683-10.958 0-19.79-2.636-26.5-7.91-6.71-5.274-10.063-12.509-10.063-21.709 0-5.449 1.538-9.96 4.614-13.535 3.076-3.574 7.309-5.361 12.7-5.361 5.097 0 9.153 1.494 12.172 4.482 3.018 2.99 4.526 6.68 4.526 11.074 0 3.751-1.305 7.221-3.91 10.415-2.608 3.194-5.582 6.139-8.922 8.833v1.142c.529 1.173 1.674 2.169 3.438 2.989 1.76.821 3.553 1.23 5.376 1.23 7.05 0 12.587-2.521 16.612-7.564 4.025-5.042 6.039-12.666 6.039-22.87V126.4c0-2.111-.324-3.87-.972-5.277-.65-1.407-2.21-2.64-4.68-3.694-1.767-.763-3.9-1.408-6.403-1.935-2.502-.528-4.579-.909-6.226-1.144v-6.855h66.621v6.855zM506.349 211.206c-2.051 3.34-4.525 6.49-7.426 9.45-2.9 2.958-6.198 5.493-9.89 7.602-3.926 2.227-7.896 3.91-11.908 5.053-4.014 1.143-8.629 1.714-13.844 1.714-8.672 0-16.159-1.23-22.455-3.691-6.299-2.461-11.5-5.77-15.601-9.931-4.101-4.16-7.163-9.067-9.184-14.722-2.021-5.653-3.032-11.79-3.032-18.412 0-5.976 1.099-11.703 3.296-17.183a46.116 46.116 0 0 1 9.36-14.633c3.985-4.16 9.01-7.53 15.074-10.108 6.065-2.577 12.846-3.867 20.346-3.867 8.203 0 14.941.997 20.215 2.988 5.274 1.993 9.639 4.747 13.096 8.262 3.34 3.34 5.771 7.28 7.295 11.82 1.524 4.542 2.285 9.303 2.285 14.283v5.713h-59.414c0 12.012 2.315 21.154 6.944 27.422 4.629 6.27 11.983 9.404 22.06 9.404 5.508 0 10.459-1.507 14.854-4.526 4.395-3.018 8.145-6.84 11.25-11.47l6.679 4.832zm-33.574-33.398c0-3.515-.176-7.12-.527-10.81s-.967-6.71-1.847-9.053c-.996-2.754-2.36-4.834-4.086-6.24-1.729-1.406-3.912-2.11-6.549-2.11-4.511 0-8.115 2.285-10.81 6.855s-4.16 11.808-4.395 21.709l28.214-.351zM630.803 232.211H577.98v-6.416c1.113-.116 2.461-.264 4.043-.44s2.782-.467 3.603-.879c1.23-.643 2.11-1.582 2.637-2.812s.79-3.046.79-5.449v-41.132c0-5.977-1.102-10.473-3.305-13.492-2.203-3.017-5.45-4.526-9.74-4.526-2.35 0-4.537.351-6.564 1.055-2.026.703-4.01 1.729-5.95 3.076-1.704 1.173-3.07 2.373-4.098 3.604a81.796 81.796 0 0 0-2.6 3.253v47.196c0 2.051.293 3.766.879 5.141.585 1.378 1.551 2.418 2.9 3.12.936.528 2.11.998 3.515 1.406 1.406.412 2.782.703 4.131.88v6.415h-53.437v-6.416a77.21 77.21 0 0 0 4.438-.484c1.494-.205 2.77-.483 3.824-.835 1.875-.643 3.164-1.64 3.868-2.988.702-1.347 1.055-3.105 1.055-5.274V165.06c0-1.815-.47-3.603-1.407-5.36-.937-1.758-2.167-3.193-3.69-4.307-1.056-.703-2.388-1.288-4-1.758-1.612-.468-3.383-.79-5.317-.966v-6.416l41.924-2.285 1.318 1.319v12.743h.352a868.53 868.53 0 0 1 5.976-5.273c2.343-2.05 4.511-3.72 6.504-5.01 2.166-1.407 5.01-2.607 8.525-3.604 3.515-.996 7.265-1.494 11.25-1.494 9.55 0 16.712 2.711 21.489 8.13 4.775 5.42 7.162 12.613 7.162 21.578v43.067c0 2.169.321 3.898.966 5.185.645 1.29 1.847 2.315 3.604 3.076.936.412 2.095.822 3.471 1.23 1.377.412 2.944.703 4.703.88v6.415zM751.74 232.211h-41.428c-5.093-8.94-9.747-16.525-13.96-22.748a1173.113 1173.113 0 0 0-11.944-17.315l-5.178 4.38v19.16c0 2.11.307 3.838.922 5.185.615 1.348 1.802 2.345 3.56 2.988 1.055.47 2.285.88 3.692 1.23s2.812.588 4.218.703v6.416h-54.58v-6.416a73.913 73.913 0 0 0 4.424-.484c1.475-.205 2.773-.484 3.893-.835 1.886-.644 3.171-1.64 3.85-2.989.679-1.346 1.017-3.105 1.017-5.273v-97.998c0-1.934-.426-3.94-1.275-6.02-.85-2.079-2.096-3.647-3.735-4.702-1.113-.703-2.783-1.288-5.01-1.758-2.227-.469-4.248-.761-6.065-.879V98.44l43.767-2.285 1.32 1.406v90.7c4.33-3.868 9.202-8.35 14.615-13.447 5.413-5.096 9.758-9.315 13.037-12.655 1.934-1.991 3.001-3.5 3.207-4.525.204-1.025.308-1.655.308-1.89 0-1.055-.926-1.934-2.775-2.636-1.851-.703-4.635-1.32-8.353-1.847v-6.24h44.65v6.065c-5.852 1.642-10.313 3.18-13.383 4.614-3.07 1.436-6.42 3.355-10.048 5.756a117.312 117.312 0 0 0-6.972 4.974c-2.249 1.734-4.834 3.894-7.755 6.48 5.732 8.318 11.025 16.016 15.88 23.103s9.943 14.582 15.266 22.488c1.813 2.753 4.065 4.598 6.757 5.534 2.692.939 5.385 1.525 8.077 1.758v6.418zM808.254 232.211h-55.548v-6.416c1.524-.116 3.018-.264 4.483-.44 1.463-.176 2.725-.467 3.778-.879 1.875-.702 3.194-1.713 3.955-3.032.76-1.319 1.143-3.06 1.143-5.23V165.06c0-2.05-.47-3.852-1.406-5.405-.938-1.55-2.11-2.797-3.515-3.735-1.055-.702-2.652-1.376-4.79-2.02-2.14-.645-4.088-1.056-5.845-1.23v-6.417l43.066-2.285 1.319 1.319v69.785c0 2.05.44 3.793 1.318 5.23.88 1.436 2.14 2.505 3.78 3.207 1.172.528 2.46.998 3.867 1.406 1.406.412 2.87.703 4.395.88v6.415zM795.42 112.33c0 4.454-1.714 8.247-5.141 11.381-3.428 3.135-7.485 4.703-12.172 4.703-4.747 0-8.833-1.568-12.262-4.703-3.427-3.134-5.141-6.929-5.141-11.381 0-4.453 1.714-8.261 5.141-11.426s7.515-4.747 12.261-4.747 8.82 1.583 12.217 4.747c3.397 3.165 5.097 6.973 5.097 11.426zM932.355 232.211h-52.823v-6.416c1.113-.116 2.462-.264 4.043-.44s2.782-.467 3.604-.879c1.23-.643 2.11-1.582 2.636-2.812s.791-3.046.791-5.449v-41.132c0-5.977-1.102-10.473-3.306-13.492-2.202-3.017-5.449-4.526-9.739-4.526-2.35 0-4.537.351-6.565 1.055-2.026.703-4.01 1.729-5.95 3.076-1.704 1.173-3.07 2.373-4.097 3.604a81.796 81.796 0 0 0-2.6 3.253v47.196c0 2.051.292 3.766.878 5.141.585 1.378 1.552 2.418 2.9 3.12.937.528 2.11.998 3.515 1.406 1.407.412 2.783.703 4.132.88v6.415h-53.438v-6.416a77.21 77.21 0 0 0 4.439-.484c1.494-.205 2.769-.483 3.824-.835 1.875-.643 3.163-1.64 3.867-2.988.703-1.347 1.055-3.105 1.055-5.274V165.06c0-1.815-.47-3.603-1.406-5.36-.938-1.758-2.168-3.193-3.691-4.307-1.055-.703-2.388-1.288-3.999-1.758-1.613-.468-3.384-.79-5.317-.966v-6.416l41.923-2.285 1.319 1.319v12.743h.351a868.53 868.53 0 0 1 5.977-5.273c2.342-2.05 4.51-3.72 6.503-5.01 2.167-1.407 5.01-2.607 8.525-3.604 3.515-.996 7.265-1.494 11.25-1.494 9.55 0 16.713 2.711 21.489 8.13 4.775 5.42 7.163 12.613 7.163 21.578v43.067c0 2.169.32 3.898.966 5.185.645 1.29 1.846 2.315 3.604 3.076.936.412 2.095.822 3.47 1.23 1.377.412 2.945.703 4.703.88v6.415zM981.222 235.2a56.239 56.239 0 0 1-16.655-2.505c-5.42-1.67-9.623-3.441-12.612-5.317l-2.636 5.976h-6.855l-1.143-32.784h6.416c.88 2.636 2.343 5.611 4.395 8.921 2.052 3.31 4.395 6.284 7.032 8.922 2.753 2.636 5.902 4.863 9.448 6.68 3.545 1.817 7.34 2.725 11.382 2.725 5.331 0 9.301-1.04 11.908-3.12 2.607-2.08 3.912-5.288 3.912-9.624 0-2.343-.586-4.276-1.758-5.801-1.172-1.523-2.784-2.842-4.834-3.955-2.285-1.172-4.79-2.168-7.515-2.99-2.725-.818-6.078-1.814-10.063-2.988-3.985-1.171-7.398-2.359-10.239-3.56-2.843-1.2-5.787-3.09-8.832-5.669-2.637-2.285-4.747-5.037-6.328-8.26-1.583-3.222-2.373-7.06-2.373-11.515 0-8.26 3.472-14.94 10.416-20.038s16.04-7.647 27.29-7.647c5.33 0 10.238.543 14.72 1.627 4.483 1.085 8.248 2.27 11.295 3.56l1.846-5.185h6.68l1.406 29.97h-6.152c-2.053-6.092-5.568-11.35-10.548-15.775-4.98-4.424-10.341-6.637-16.084-6.637-4.512 0-8.056.938-10.635 2.813-2.578 1.876-3.867 4.482-3.867 7.822 0 4.454 1.886 7.677 5.659 9.668 3.772 1.994 9.05 3.867 15.836 5.625 10.47 2.696 18.132 6.372 22.989 11.03 4.855 4.659 7.282 10.591 7.282 17.797 0 9.61-3.766 17.052-11.294 22.324-7.531 5.273-17.36 7.91-29.488 7.91z"/></g>
</g>
</symbol>
</svg>