<svg xmlns="http://www.w3.org/2000/svg" xmlns:xlink="http://www.w3.org/1999/xlink" width="638.075" height="399.29" xmlns:v="https://vecta.io/nano"><style><![CDATA[.B{fill:#fff}.C{fill:#ffb69e}.D{fill:#253858}.E{fill:#f68a73}.F{fill:#1c2139}.G{fill:#cf856a}.H{fill:#5e6c84}.I{fill:#d9d9d9}.J{fill:#594e8a}.K{fill:#260e14}.L{fill:#9a644a}.M{fill:#97a0af}.N{fill:#36b37e}.O{fill:#262d4f}.P{fill:#89c33f}.Q{fill:#73a731}]]></style><g fill="rgba(255,255,255,0.95)"><path d="M323.065 227.937a10.21 10.21 0 0 0 9.452 6.18 9.68 9.68 0 0 0 4.362-1.091c2.587-1.17 4.589-3.338 5.549-6.011s.794-5.619-.459-8.167c0 0-19.995-45.806-23.63-62.528-1.454-5.817-2.181-21.449-2.545-28.719a5.6 5.6 0 0 1 3.635-5.453l44.715-13.451c5.453-1.454 8.725-7.634 7.271-13.087s-7.634-8.725-13.087-7.271c0 0-41.443 13.451-56.348 13.451-14.541 0-55.621-13.087-55.621-13.087-5.453-1.454-11.633 1.086-13.451 6.544-.907 2.748-.641 5.748.735 8.293s3.74 4.411 6.536 5.158l44.715 13.45c2.357.718 3.879 3.001 3.635 5.453-.364 7.271-1.091 22.9-2.545 28.719-3.635 16.723-23.63 62.528-23.63 62.528-2.428 5.324-.17 11.614 5.09 14.178a9.68 9.68 0 0 0 4.362 1.091 9.86 9.86 0 0 0 9.452-6.18l21.449-43.624z"/><circle cx="302.707" cy="70.89" r="20.358"/><path d="M446.304 143.6c0-79.308-64.292-143.6-143.6-143.6s-143.6 64.292-143.6 143.6 64.292 143.6 143.6 143.6c79.293-.038 143.562-64.307 143.6-143.6zm-263.2 0c0-66.052 53.546-119.599 119.598-119.6s119.6 53.544 119.602 119.596S368.762 263.197 302.71 263.2c-66.033-.051-119.552-53.567-119.607-119.6z"/></g><path d="M8.79 346.993l96.132-.419h123.106l13.243.027c4.551.083 9.117-.139 13.62 1.194 1.355.4 1.356 4.854 0 5.256-4.026 1.193-8.079 1.094-12.148 1.168l-11.771.054h-72.1c-32.043 0-64.088.171-96.132-.015l-53.951-.4c-2.298-.046-2.302-6.823.001-6.865z" fill="rgba(0,0,0,0.09)"/><path d="M119.959 240.73h57.5l6.323-34.521a2.66 2.66 0 0 0-2.613-3.137h-52.1c-1.283-.001-2.383.916-2.613 2.178z" class="H"/><path d="M175.162 237.973l5.886-32.143h-51.9l-5.884 32.143z" fill="#deebff"/><path d="M172.863 235.215l4.876-26.627H131.45l-4.874 26.627z" fill="#b2d4ff"/><path d="M104.497 239.519v1.213h72.993v-2.758h-71.448a1.54 1.54 0 0 0-1.545 1.545z" class="M"/><path d="M153.669 239.519v1.213h23.821v-2.758h-22.276a1.54 1.54 0 0 0-1.545 1.545z" class="H"/><path d="M149.909 227.608a7.74 7.74 0 0 0 7.309-6.21 5.37 5.37 0 0 0-1.087-4.469c-1.022-1.186-2.522-1.849-4.087-1.808-3.579.131-6.602 2.699-7.308 6.211a5.37 5.37 0 0 0 1.087 4.469c1.022 1.185 2.522 1.848 4.086 1.807zm2.134-12.106c1.452-.04 2.844.573 3.794 1.672a4.99 4.99 0 0 1 1 4.157c-.669 3.332-3.536 5.77-6.932 5.895a4.84 4.84 0 0 1-3.794-1.672c-.939-1.165-1.306-2.691-1-4.156.667-3.333 3.535-5.774 6.932-5.899zm7.323 17.79l.023-.232c.005-.043.006-.048 0-.015 0-.024.007-.047.011-.071l.019-.105c.017-.092.047-.182.072-.272h8.688l-.134.757h-8.683c.003-.019.001-.042.004-.062zm11.501.699l.357-2.026-1.8 1.013zm-18.342-9.421l1.132-6.418-5.708 3.209z" class="D"/><path d="M128.542 232.596l-.134.757h30.445l.134-.757z" class="B"/><path d="M159.96 232.979c.045-.193-.003-.396-.129-.549s-.316-.239-.514-.232a.97.97 0 0 0-.919.781c-.045.193.003.397.129.55s.317.239.515.231a.97.97 0 0 0 .918-.781z" class="D"/><path d="M220.91 251.058l10.542 101.006h6.24l-10.6-101.647c-.177-1.706-1.703-2.946-3.41-2.768s-2.946 1.703-2.768 3.409z" fill="#42526e"/><path d="M59.847 248.985c.819.761 1.896 1.182 3.013 1.179h1.634v9.99h169.262v-11.169z" class="H"/><use xlink:href="#B" fill="#2684ff"/><path d="M64.494 248.985v11.169h169.262v-9.99h1.635a4.39 4.39 0 0 0 3.006-1.179z" class="H"/><use xlink:href="#B" class="D"/><rect width="35.234" height="7.047" rx="3.524" fill="#172b4d" x="187.248" y="226.665"/><path d="M187.583 237.221c0 .976.791 1.767 1.767 1.767h29.628a.87.87 0 0 1 .779 1.314.87.87 0 0 1-.779.427h-31.369c-.469 0-.919-.186-1.25-.517s-.518-.781-.518-1.25v-3.483c0-.469.186-.918.518-1.25s.781-.517 1.25-.517h31.369a.87.87 0 1 1 0 1.741H189.35c-.469 0-.918.186-1.25.518s-.517.781-.517 1.25z" fill="#0065ff"/><path d="M219.098 237.221c-.014.601.069 1.201.245 1.776h-31.88v-3.552h31.876c-.175.575-.256 1.175-.241 1.776z" class="B"/><path d="M217.288 236.318a65.99 65.99 0 0 0-6.833-.039l-7 .006-6.833.007c-2.316 0-4.688-.13-7 .079a.05.05 0 0 0 0 .1c2.254.2 4.571.077 6.833.079l7 .007 6.833.007a67.82 67.82 0 0 0 7-.04c.057 0 .103-.046.103-.103s-.046-.103-.103-.103zm-2.163 1.473c-2.022-.177-4.074-.1-6.1-.1a43.86 43.86 0 0 0-5.8.1c-.028.009-.047.035-.047.064s.019.055.047.064a43.93 43.93 0 0 0 5.8.105l6.1-.1c.025-.012.042-.038.042-.066s-.016-.054-.042-.066z" class="I"/><path d="M219.514 223.156a1.77 1.77 0 0 0-1.767-1.767h-29.628a.87.87 0 0 1-.841-.87.87.87 0 0 1 .841-.87h31.37a1.77 1.77 0 0 1 1.768 1.768v3.482c0 .469-.186.918-.518 1.25s-.781.517-1.25.517h-31.37a.87.87 0 1 1 0-1.741h29.628a1.77 1.77 0 0 0 1.767-1.768z" class="N"/><path d="M187.999 223.157a5.64 5.64 0 0 0-.245-1.776h31.876v3.552h-31.876a5.64 5.64 0 0 0 .245-1.776z" class="B"/><path d="M189.81 224.06a66.36 66.36 0 0 0 6.833.04l7-.007 6.833-.007 7-.079a.05.05 0 0 0 0-.1c-2.253-.2-4.571-.077-6.833-.079l-7-.007-6.833-.007a68 68 0 0 0-7 .04c-.057 0-.103.046-.103.103s.046.103.103.103zm16.492-1.486l5.908.01a36.48 36.48 0 0 0 5.6-.095c.013-.004.022-.017.022-.03s-.009-.026-.022-.03c-1.861-.177-3.734-.21-5.6-.1-1.967 0-3.942-.055-5.908.01-.065 0-.118.053-.118.118s.053.118.118.118zm-14.327.011c2.022.177 4.074.1 6.1.1 1.934.093 3.871.058 5.8-.105.028-.009.047-.035.047-.064s-.019-.055-.047-.064a43.69 43.69 0 0 0-5.8-.1c-2.029 0-4.081-.082-6.1.1-.025.012-.042.038-.042.066s.016.054.042.066z" class="I"/><path d="M86.955 199.771c5.583 4.906 10.842 32.038 10.842 32.038 6.489 1.08 22.033 2.723 22.033 2.723 9.429-1 13.771 3.442 13.771 3.442l-13.12.2c-9.703 1.869-19.578 2.689-29.456 2.444-1.406-.058-3.482-5.409-3.482-5.409-7.273-23.592-.588-35.438-.588-35.438z" class="C"/><path d="M117.245 337.9h-9.954l8.621-4.976a.76.76 0 0 0-.761-1.318l-8.826 5.1 4.692-9.048a.76.76 0 0 0-.334-1.01.76.76 0 0 0-1.017.31l-4.454 8.589v-9.677a.76.76 0 1 0-1.522 0v9.955l-4.978-8.621a.76.76 0 1 0-1.318.761l5.1 8.826-9.047-4.692a.76.76 0 0 0-1.01.334.76.76 0 0 0 .31 1.017l8.588 4.453H91.66a.76.76 0 1 0 0 1.522h9.956l-8.622 4.977a.76.76 0 0 0 .381 1.42c.133.001.264-.034.379-.1l8.827-5.1-4.692 9.047a.76.76 0 0 0 .708 1.126.76.76 0 0 0 .643-.426l4.454-8.588v9.675a.76.76 0 1 0 1.522 0v-9.955l4.977 8.621a.76.76 0 0 0 1.323.004.76.76 0 0 0-.005-.765l-5.1-8.826 9.047 4.692a.76.76 0 0 0 1.01-.334.76.76 0 0 0-.31-1.017l-8.589-4.454h9.676a.76.76 0 1 0 0-1.522z" fill="#c1c7d0"/><path d="M104.45 353.323a14.59 14.59 0 0 0 14.588-14.588 14.59 14.59 0 0 0-14.588-14.588 14.59 14.59 0 0 0-14.588 14.588c.007 8.054 6.534 14.581 14.588 14.588zm0-25.589c6.075 0 11 4.925 11 11s-4.925 11-11 11-11-4.925-11-11c.007-6.072 4.928-10.993 11-11z" class="O"/><path d="M141.982 301.977l5.548 19.864-7.206 2.943-9.228-17.665z" class="E"/><path d="M162.94 321.998c.441 2.1-1.86 2.8-3.445 3.171l-5.994 1.391-7.258 1.684c-1.778.412-5.332 1.884-7.007.89-2.044-1.214-1.846-5.51-2.22-7.553a2.07 2.07 0 0 1-.048-.7c.444-2.8 4.524.512 5.7-.771.102-.145.133-.329.083-.5-.238-.636-.346-1.314-.319-1.993.178-.742.929-1.069 1.6-1.3l1.958-.661c.931-.324 2.126-.556 2.78.29a9.1 9.1 0 0 1 .632 1.444 1.39 1.39 0 0 0 .24.375 2.16 2.16 0 0 0 .8.515l.1.04.692.271 1.277.431.681.147c.399.073.806.097 1.211.07.012.004.025.004.037 0a6.16 6.16 0 0 0 1.244-.253c.937-.38 1.921-.632 2.925-.751a4.31 4.31 0 0 1 3.608 1.958c.359.548.604 1.161.723 1.805z" fill="#00212f"/><path d="M150.442 318.284c-1.661 1.9-4.455 3.531-6.533 3.4-.21-.014-.373-.327-.173-.472 1.074-.833 2.433-1.248 3.577-2.007.753-.534 1.452-1.142 2.086-1.813.06.137.141.263.24.375a2.16 2.16 0 0 0 .803.517zm2.07.743a12.58 12.58 0 0 1-.971 1.276c-.877 1.021-1.99 2.3-3.346 2.654a.41.41 0 0 1-.429-.61 28.47 28.47 0 0 1 2.623-2.675c.306-.349.573-.707.847-1.076a13.09 13.09 0 0 0 1.276.431z" class="B"/><path d="M51.936 248.554s-2.981 19.66 9.54 22.269c13.117 2.733 52.268-1.886 52.268-1.886l18.448 45.159s9.164.1 14.854-4.957c0 0-9.464-56.934-17.491-60.215-12.882-5.265-47.863-1.955-47.863-1.955z" fill="#222"/><path d="M137.921 303.683l5.548 19.864-7.206 2.943-9.228-17.665z" class="C"/><path d="M158.88 323.705c.44 2.1-1.86 2.8-3.444 3.171l-5.994 1.39-7.258 1.684c-1.778.412-5.332 1.884-7.007.89-2.045-1.214-1.846-5.51-2.22-7.553a2.09 2.09 0 0 1-.048-.7c.444-2.8 4.525.511 5.7-.772a.58.58 0 0 0 .083-.5c-.238-.636-.346-1.314-.319-1.993.178-.742.929-1.069 1.6-1.3l1.958-.661c.931-.323 2.126-.556 2.78.29a9.13 9.13 0 0 1 .631 1.444c.06.137.141.264.24.376a2.16 2.16 0 0 0 .8.515l.1.04.691.271a13.03 13.03 0 0 0 1.277.432l.681.147c.399.072.806.095 1.211.069.012.004.024.004.036 0 .422-.041.839-.126 1.244-.253a11.31 11.31 0 0 1 2.925-.75c1.456.002 2.813.738 3.608 1.957a4.92 4.92 0 0 1 .725 1.806z" fill="#003349"/><path d="M146.383 319.991c-1.661 1.9-4.454 3.531-6.533 3.4-.21-.014-.372-.327-.172-.472 1.074-.833 2.433-1.247 3.578-2.007.753-.535 1.452-1.142 2.086-1.813a1.4 1.4 0 0 0 .24.375 2.15 2.15 0 0 0 .801.517zm2.068.74a12.6 12.6 0 0 1-.971 1.277c-.877 1.021-1.99 2.3-3.346 2.654a.41.41 0 0 1-.429-.61 28.47 28.47 0 0 1 2.623-2.675c.306-.349.573-.708.846-1.076a12.77 12.77 0 0 0 1.277.43z" class="B"/><path d="M50.802 250.164s-4.777 21.164 7.744 23.772c13.117 2.733 55.51-1.207 55.51-1.207l13.964 44.027s8.21.113 13.9-4.945c0 0-7.966-57.777-15.87-60.938s-47.116-2.782-47.116-2.782z" fill="#333"/><path fill="#505f79" d="M45.379 273.551H105.1v19.031H45.379z"/><path d="M162.742 327.038a2.7 2.7 0 0 0-3.232-1.9c-5.007 1.081-9.939 2.612-14.875 3.973l-7.333 2.022a43.67 43.67 0 0 1-5.128 1.261 31 31 0 0 0-10.964-11.689 32.84 32.84 0 0 0-8.031-3.631 28.52 28.52 0 0 0-4.455-.9c-1.48-.194-3.227-.353-4.494.566a1.35 1.35 0 0 0-.65.967 1.34 1.34 0 0 0 .35 1.111 8.16 8.16 0 0 0 3.895 1.486 35.58 35.58 0 0 1 3.936 1.135 27.86 27.86 0 0 1 6.733 3.491c4.228 2.942 7.575 6.979 9.684 11.678a2.68 2.68 0 0 0 2.339 1.392 29.65 29.65 0 0 0 7.446-1.353l7.7-2.1c5.06-1.381 10.205-2.606 15.181-4.271a2.72 2.72 0 0 0 1.898-3.238zm-116.293-97.24c-.4-4.089-1.618-8.277-4.968-10.935-3.383-2.684-7.785-3.78-11.861-4.962a76.74 76.74 0 0 0-7.571-1.865c-1.487-.271-6.992-1.625-6.5 1.331.182 1.091 1.52 1.518 2.418 1.858 1 .378 2.01.722 3.027 1.052l6.27 1.963a142.19 142.19 0 0 1 5.96 2.033c1.548.537 3.027 1.256 4.407 2.14a.57.57 0 0 0 .118.072l.162.135c.148.123.3.245.438.374.268.239.52.495.755.766.029.046.217.3.245.335q.16.233.307.473a6.56 6.56 0 0 1 .529 1.017 16.03 16.03 0 0 1 .684 2.316q.059.282.11.567l.021.113c.005.052.012.111.022.192l.148 1.456c.316 4.085.244 8.223.338 12.318.057 2.448.076 4.9.23 7.345.082 1.288.238 2.568.38 3.849a7.6 7.6 0 0 0 .758 3.431 8.53 8.53 0 0 0 .324 1.313c.234.48.442.972.623 1.475a.75.75 0 0 0 1.436-.036 15.25 15.25 0 0 1 .561-1.505 8.8 8.8 0 0 0 .266-1.311c.458-1.037.664-2.168.6-3.3l.217-3.681c.072-2.326-.014-4.656-.06-6.982-.085-4.434.039-8.932-.394-13.347z" fill="#344563"/><path d="M85.693 223.835l-.358 2.685a47.86 47.86 0 0 0 6.981-.035c6.538-.534 6.254-1.552 6.254-1.552-4.459-23.556-7.995-26.506-7.995-26.506-5.939 6.1-5.23 20.949-4.953 24.588l.071.82z" fill="#0e5477"/><path d="M63.927 181.936c2.237 1.792 6.048 4.132 6.657 1.819.115-.436-.041-.948.218-1.316.304-.304.728-.454 1.155-.409 2.584-.055 5.137-.574 7.537-1.532a12.06 12.06 0 0 0 5.794-4.916c1.126-1.968 1.965-4.54 1.314-6.745-.556-2.173-1.646-4.173-3.172-5.817-1.122-1.078-2.465-1.897-3.937-2.4a41.53 41.53 0 0 0-5.274-1.471c2.05-1.658 2.679-4.515 1.514-6.881-.585-1.044-1.423-1.923-2.438-2.556-1.915-1.344-4.345-1.726-6.58-1.033-2.492 1.012-4.127 3.427-4.14 6.117a8.06 8.06 0 0 0 3.68 6.584c-.757-.5-3.053 1.5-3.486 1.986a11.52 11.52 0 0 0-2.207 3.605c-.773 2.313-.979 4.779-.6 7.188a13.78 13.78 0 0 0 2.409 6.342c.469.529.991 1.01 1.556 1.435z" class="F"/><path d="M86.287 220.598a26.85 26.85 0 0 1-1.417 7.405 18.52 18.52 0 0 1-6.607 9.065 8.93 8.93 0 0 1-5.313 1.852c-1.079-.063-2.136-.335-3.112-.8a12.05 12.05 0 0 1-6.115-5.979c-1.337-3.025-1.224-6.481-.8-9.761.334-2.537.841-5.151.188-7.626-.594-2.249-2.079-4.14-3.187-6.184a19.91 19.91 0 0 1-2.377-9.022c-.053-2.8 1.591-3.653 3.9-4.5l6.362-2.349a2 2 0 0 0 1.068-1.466l.36-2.413.46-3.006 7.939-.346.028 2.161.049 3.207.011.589a2 2 0 0 0 .961 1.662c3.13 1.862 6.08 2.99 7.541 6.661a7.62 7.62 0 0 1 .368 3.244c-.125 2.212-.558 4.4-.639 6.619-.092 2.387.228 4.767.342 7.15a36.87 36.87 0 0 1-.01 3.837z" class="C"/><path d="M77.712 190.838a8.56 8.56 0 0 1-7.222-2.921l7.174-.285z" class="E"/><path d="M65.635 176.429a7.56 7.56 0 0 0-.01.728 14.36 14.36 0 0 0 .4 3.042c.448 2.212 1.384 4.296 2.739 6.1a8.04 8.04 0 0 0 6.93 3.028c6.292-.273 8.254-5.779 8.848-9.918.021-.139.03-.267.052-.406.247-2.666.037-5.356-.623-7.951-1.542-3.923-8.135-4.309-8.135-4.309s-2.751 1.754-9.746 7.072a7.57 7.57 0 0 0-.455 2.614z" class="C"/><path d="M74.52 179.816z" class="J"/><path d="M77.082 177.405c-.093-.352-.162-.709-.207-1.07-.056-.279-.233-.915-.519-.39-.139.494-.098 1.021.114 1.488a13.1 13.1 0 0 0 .395 1.1c.048.121.291.5.253.635-.1.363-.779.308-1.032.263-.42-.075-.468.6-.044.666.6.1 1.85-.127 1.757-.922-.18-.612-.421-1.205-.717-1.77z" class="E"/><path d="M66.162 177.64s-1.777-2.458-2.762-1.385.084 6.439 3.616 6.158z" class="C"/><path d="M64.934 177.714c-.149-.068-.308.159-.183.271.331.278.636.585.913.917-.301-.021-.603.013-.892.1-.209.061-.217.4.028.4.398.052.799.069 1.2.049l.342.746c.055.098.172.144.279.107s.171-.145.153-.256c-.225-1.018-.903-1.878-1.84-2.334z" class="E"/><path d="M54.208 221.456c.039-.359.036-.718.048-1.08l.05-1.511c.3-10.41 2.744-18.159 1.105-21.979 0 0 1.628-.945 10.271-3.58 0 0 9.264 16.38 15.884 1.326.119-.271 8.883 3.56 9.007 3.8a51.69 51.69 0 0 0 .5 17.236c1.276 6.563-3.186 7.826-3.72 9.594-1.889 6.3-.211 18.915.195 20.348l-36.735 1.364c.344-1.388 1.382-7.012 3.395-25.518z" fill="#0c4765"/><path d="M70.373 221.648a17.9 17.9 0 0 0-2.646.261 14.02 14.02 0 0 1-2.779-.061 14.6 14.6 0 0 1-2.642-.571c-.9-.281-1.739-.692-2.617-1.021-.334-.126-.532.333-.27.537a11.36 11.36 0 0 0 5.391 1.915c.953.123 1.916.153 2.875.089a5.88 5.88 0 0 0 2.786-.653c.103-.055.158-.17.135-.284s-.117-.2-.233-.212z" fill="rgba(30,30,30,0.37)"/><path d="M78.79 173.699c.181-.242.523-.229.745-.249a4.11 4.11 0 0 1 .736.006 3.66 3.66 0 0 1 .715.139 1.45 1.45 0 0 1 .678.328c.072.079 0 .291-.106.285a3.72 3.72 0 0 1-.681-.2c-.222-.058-.449-.094-.678-.108s-.463-.005-.692.024l-.35.057a.43.43 0 0 1-.36-.021.2.2 0 0 1-.007-.261zm-4.797-.071c-.147-.263-.489-.3-.706-.344a4.05 4.05 0 0 0-.73-.092 3.66 3.66 0 0 0-.728.044 1.45 1.45 0 0 0-.715.236c-.082.068-.037.289.067.3a3.7 3.7 0 0 0 .7-.109c.228-.028.457-.034.686-.018a3.8 3.8 0 0 1 .683.115q.17.045.339.1a.43.43 0 0 0 .359.027.2.2 0 0 0 .045-.259zm5.773 2.761c.008-.038.019-.076.03-.114a.98.98 0 0 1 .175-.359c.085-.107.213-.169.349-.171a.47.47 0 0 1 .256.1c.203.159.318.405.311.663-.007.437-.448 1.129-.937.711-.125-.116-.202-.274-.215-.444a1.17 1.17 0 0 1 .031-.386zm-7.745-.367l.031-.114a.98.98 0 0 1 .176-.359.45.45 0 0 1 .349-.171.47.47 0 0 1 .255.1c.204.159.319.406.312.664-.008.437-.449 1.129-.937.71a.67.67 0 0 1-.216-.444c-.012-.129-.001-.26.03-.386z" class="F"/><path d="M73.399 181.383c.395.176.777.382 1.141.616a4.73 4.73 0 0 0 1.236.429 4.51 4.51 0 0 0 1.274.08l.633-.081a.96.96 0 0 1 .622.016.17.17 0 0 1 .065.2c-.157.406-.878.512-1.254.557-.998.129-2.012-.049-2.906-.51-.469-.189-.855-.54-1.088-.988a.23.23 0 0 1 .277-.319z" class="E"/><path d="M106.978 310.627q-.012 2.233-.023 4.467-.022 3.026-.067 6.036l-.372 16.972a2.17 2.17 0 0 1-2.107 2.085c-2.613 0-2.352-3.484-2.427-5.613-.126-3.409-.142-6.84-.171-10.272l-.022-30.773-.372-23.172-.134-7.749c-.089-3.089-.536-5.538-3.037-7.742-2.028-1.603-4.422-2.677-6.967-3.126-2.539-.581-4.831-.126-7.429-.067l-20.15.491c-3.328.082-16.071-.007-16.622-.067v8.248q.179 24.2.291 48.377c.007 3.32-5.144 3.313-5.2 0q-.224-13.175-.395-26.366l-.223-37.633 12.208 1.084c4.593.082 10.935.06 16.7 0h.186l13.965-.2c1.66-.03 3.342-.022 4.995.075a12.81 12.81 0 0 1 2.97.38c.023.007.038.014.06.022a19.56 19.56 0 0 1 4.072.678 13.25 13.25 0 0 1 7.727 5.411c1.657 2.769 2.546 5.929 2.575 9.156.11 2.112.031 39.041-.031 49.298z" fill="#344563"/><path d="M86.782 308.136H47.128l34.341-19.827a.76.76 0 0 0 .004-1.323.76.76 0 0 0-.765.005l-34.547 19.946 18.366-35.413a.76.76 0 0 0-.708-1.126.76.76 0 0 0-.643.426l-18.128 34.954v-39.374a.76.76 0 0 0-1.142-.659.76.76 0 0 0-.38.659v39.654l-19.827-34.342a.76.76 0 1 0-1.318.761l19.947 34.55-35.412-18.366a.76.76 0 0 0-1.126.708.76.76 0 0 0 .426.643l34.953 18.128H1.794a.76.76 0 1 0 0 1.522h39.654L7.107 329.489a.76.76 0 0 0-.004 1.323.76.76 0 0 0 .765-.005l34.547-19.945-18.365 35.411a.76.76 0 0 0 .325 1.025.75.75 0 0 0 .349.085.76.76 0 0 0 .677-.411l18.128-34.954v39.375a.76.76 0 1 0 1.522 0v-39.655l19.827 34.341a.76.76 0 0 0 1.332.013.76.76 0 0 0-.014-.773l-19.945-34.546 35.412 18.365a.75.75 0 0 0 .349.086.76.76 0 0 0 .351-1.436L47.41 309.66h39.375a.76.76 0 1 0 0-1.522z" fill="#c1c7d0"/><path d="M44.288 353.427a44.29 44.29 0 0 0 16.947-85.203 44.29 44.29 0 0 0-53.771 16.312 44.29 44.29 0 0 0 5.508 55.92 44 44 0 0 0 31.316 12.971zm0-84.987a40.7 40.7 0 0 1 28.779 69.479A40.7 40.7 0 0 1 3.588 309.14c.025-22.467 18.233-40.675 40.7-40.7z" class="O"/><g class="C"><path d="M55.794 197.443s4.789 2.153 7.745 15.082l4.333 19.039 23.423 14.24c-3.111 2.594-2.265 5.006-2.265 5.006s-25.139-7.246-29.91-12.254c-.958-1.006-6.034-16.383-6.992-23.245-1.321-9.482.367-18.929 3.666-17.868z"/><path d="M100.38 246.52a3.78 3.78 0 0 1 2.163 1.778.93.93 0 0 1 .075.574.84.84 0 0 1-.9.532c-.376-.065-.736-.201-1.062-.4-1.012-.5-2.114-.793-3.241-.862-.312-.019-.7.024-.822.312-.044.132-.051.273-.021.409.406 2.893 2.369 5.277 3.98 7.714.278.42.521 1.049.128 1.364-.165.109-.359.166-.557.164a9.08 9.08 0 0 1-4.584-.867c-1.38-.738-2.657-1.654-3.8-2.723-2.224-1.706-4.144-3.776-5.68-6.121a1.74 1.74 0 0 1-.321-1.126c.082-.326.266-.617.526-.83 3.46-3.269 10.331-1.562 14.116.082z"/></g><path d="M66.754 226.63s-8.026 3.646-15.947 1.974c0 0-1.878-30.806 4.6-31.718.003-.001 7.173-.659 11.347 29.744z" fill="#0e5477"/><g opacity=".086"><path d="M560.136 323.865l-111.611-.287H305.594c-5.125 0-10.251-.036-15.375.019-5.283.056-10.585-.1-15.813.817-1.573.275-1.574 3.32 0 3.595a86.84 86.84 0 0 0 14.1.8l13.667.037h83.708l111.611-.01 62.639-.277c2.671-.03 2.678-4.665.005-4.694z"/></g><g class="M"><path d="M491.455 269.406h3.098v50.618h-3.098z"/><path d="M479.201 318.728h28.275v1.845h-28.275z"/></g><circle cx="2.9" cy="2.9" r="2.9" transform="matrix(.229761 -.973247 .973247 .229761 503.987 325.959)" class="D"/><path d="M511.724 323.803h-8.5a4.25 4.25 0 1 1 8.5 0z" fill="#7a869a"/><circle cx="2.9" cy="2.9" r="2.9" transform="matrix(.229761 -.973247 .973247 .229761 475.712 325.959)" class="D"/><path d="M483.45 323.803h-8.5a4.25 4.25 0 1 1 8.5 0zm8.005-47.468h3.098v6.133h-3.098z" fill="#7a869a"/><path d="M465.224 260.389s-.345 12.229 9.186 15.245c8.279 2.62 30.637 4.192 39.215-5.82 5.891-6.876 11.737-45.852-3.247-43.462-17.946 2.862-27.427 11.3-29.96 22.958s-15.024 5.172-15.194 11.079z" class="M"/><path d="M496.666 188.292a9.59 9.59 0 0 0-.181-2.377c-.246-.809-.728-1.526-1.385-2.059a1.93 1.93 0 0 0-1.367-.435c-.503.051-.91.432-.994.93a1.82 1.82 0 0 0 .579 1.249c-1.358-.121-2.613-.773-3.493-1.814a7.01 7.01 0 0 0 .8 4.45 8.59 8.59 0 0 1-5.342-2.3c-1.076-.843-1.788-2.066-1.99-3.417-.813 1.095-1.281 2.408-1.344 3.771 0 .251.09 2.248-.276 2.224-.206-.013-.462-.729-.524-.869a11.92 11.92 0 0 1-.947-4.775c-.279-3.405 1.978-6.501 5.306-7.276a6.64 6.64 0 0 1 2.224-.442c.501.046.998.119 1.491.219 1.476.213 2.985-.095 4.468.06 1.706.182 3.292.962 4.479 2.2 1.385 1.592 2.166 3.621 2.205 5.731.037.974.022 1.949-.044 2.922.009.888-.284 1.753-.83 2.453-.872.912-2.691 1.111-2.835-.445z" class="F"/><path d="M474.561 250.301h34.952q.026-1.94-.1-3.873c-.126-1.936-.37-3.863-.729-5.77q-.312-1.686-.747-3.348c-.158-.612-.276-1.234-.353-1.861l-.412-5.181a29.81 29.81 0 0 0-.613-3l-.941-4.162-1.22-8.427-.3-1.6c-.525-3.042-1.687-5.939-3.411-8.5a7.06 7.06 0 0 0-3.088-2.538 8.68 8.68 0 0 0-2.27-.568l-.532-.053c-1.043-.085-2.135-.074-3.292-.064a28.68 28.68 0 0 0-5.135.352l-.268.057c-.866.183-1.697.505-2.46.955-1.214.753-2.205 1.818-2.869 3.084a20.88 20.88 0 0 0-2 5.97l-.97 5.473-.077.543c-.631 4.434-.99 8.906-1.311 13.386l-.063.846c-.342 4.814-.659 9.632-1.248 14.412-.159 1.287-.339 2.581-.543 3.867z" class="B"/><path d="M494.861 201.336s-3.744 3.66-8.754.195l.282-2.5.076-.685.313-2.957 7.6.651.167 1.813.059.661z" class="C"/><path d="M486.389 199.033l.076-.685.313-2.957 7.6.651s-1.683 4.592-7.989 2.991z" class="E"/><g class="C"><path d="M482.089 187.782s-1.279-1.332-2.131-.479-.16 5.327 2.77 5.22z"/><path d="M497.324 190.658c-.638 3.41-2.45 7.883-7.672 7.883s-7.03-4.472-7.669-7.883a20.66 20.66 0 0 1 .068-6.057c.209-1.85.938-3.758 3.051-4.067 1.378-.2 2.749.463 4.142.421 1.194-.036 2.335-.588 3.529-.571a4.53 4.53 0 0 1 3.179 1.524 5.01 5.01 0 0 1 1.429 3.776 30.72 30.72 0 0 1-.057 4.974z"/></g><path d="M487.431 185.398c-.268-.441-.989-.47-1.475-.493a3.3 3.3 0 0 0-1.7.334c-.3.159-.1.674.247.614a6 6 0 0 1 1.52-.15c.438.037.839.272 1.263.141.089-.028.159-.097.187-.186a.29.29 0 0 0-.042-.26zm3.637-.161c.3-.46 1.019-.424 1.506-.4a3.12 3.12 0 0 1 1.679.528c.292.2.06.751-.287.653a5.56 5.56 0 0 0-1.509-.308c-.44 0-.856.22-1.271.036a.34.34 0 0 1-.18-.226c-.023-.098 0-.202.062-.283z" class="F"/><path d="M489.026 190.642z" class="J"/><path d="M489.744 190.536a1.2 1.2 0 0 0-.6-.107l-.41-.012q.157-.883.307-1.767.086-.5.161-1.006a2.65 2.65 0 0 0 .075-.966.11.11 0 0 0-.2-.026 2.66 2.66 0 0 0-.261.927q-.1.5-.2 1-.188 1-.368 2c-.017.067-.003.139.04.194s.107.088.176.09l.674.019c.203.027.41 0 .6-.077.049-.027.08-.077.081-.133s-.027-.108-.075-.136zm-7.814-.402c-.011-.074-.032-.147-.063-.216a1.4 1.4 0 0 0-.1-.182c-.079-.119-.168-.232-.266-.336a1.5 1.5 0 0 0-.7-.469c-.09-.021-.171.1-.095.163.192.173.407.316.584.507l.048.056a.33.33 0 0 0-.058 0l-.16.02a2.25 2.25 0 0 0-.242.057c-.067.02-.109.086-.1.155s.067.121.137.123a2.45 2.45 0 0 0 .245 0c.04 0 .08-.007.12-.011a.49.49 0 0 0 .1-.015c.019-.006.039-.015.058-.022a.2.2 0 0 0 .087-.065l.1.155c.035.055.078.107.118.162.019.034.055.054.094.054.028-.002.055-.013.077-.032.023-.03.029-.069.016-.104z" class="E"/><g class="P"><path d="M474.814 203.71l-.174 1.391c0 .006-.087.771-.087.771l-.579 4.861-.069.533-.029.238-.052.458-.394 3.309-.058.452-1.112 9.306-.07.551-.011.1-.1.678c0 .006-.678 4.589-.678 4.589l-.11.747-.51 3.459c0 .006-.51-.209-1.35-.556l-.29-.116c-3.848-1.28-11.351-7.446-11.386-8.761 0-.046.545-.95 1.4-2.329l.672-1.084 5.58-8.877.185-.284 2.949-4.49a9.47 9.47 0 0 1 .29-.371c1.825-2.271 3.668-3.946 5.36-4.438.139-.041.273-.07.406-.1.072-.02.142-.025.217-.037z"/><path d="M469.507 250.302h12l.335-3.873.046-.564.042-.472.557-6.675.05-.606.113-1.4.032-.377 1.018-12.272.821-7.3.053-.5.652-6.178.039-.36.395-3.81.331-3.168.1-.994.025-.222c-.088-.144-.842-.088-1.945.074s-2.513.43-3.965.74l-.448.1a83.04 83.04 0 0 0-2.9.68l-.349.092a32.84 32.84 0 0 0-1.692.486l-.222.07-.42.155c-.208.061-.402.163-.571.3a67.37 67.37 0 0 0-.765 6.753c0 .035 0 .064-.007.1l-.046.479-.021.233q-.137 1.533-.292 3.3l-.039.437-.772 9.1-.035.426-.018.2-.039.458-.366 4.423-.1 1.181-.018.218-.035.448q-.132 1.575-.265 3.168l-.349 4.166-.025.278-.049.6q-.143 1.681-.278 3.334l-.053.589-.194 2.312-.331 3.871z"/></g><path d="M485.666 205.923s-.367-1.887-1.344-1.956c-.527-.038-1.958 1.769-2.748 2.184l2.384-4.066a4.14 4.14 0 0 1 2.385-2.6z" class="Q"/><path d="M494.94 205.855a.93.93 0 0 0 .01.166c.01.057 0 .106 0 .123l.236 4.109.043.624q.127 1.961.3 3.884l.042.49.736 7.151.032.271q.322 2.712.7 5.413l.046.321 1.431 9.121.109.6.976 5.47.109.592.469 2.235.758 2.848.208.634.138.391h11.634l-.236-.99-.057-.289-.081-.5-.3-2.1-.264-1.868-.067-.465-.1-.708-.06-.409q-.344-2.437-.7-4.874l-.078-.543-.3-2-.084-.578-.046-.289-.314-2.111-.814-5.357-.088-.6c0-.028-.01-.06-.014-.088l-.046-.3c-.754-4.874-1.558-9.741-2.478-14.584-.042-.352-.042-.709 0-1.061.025-.317.06-.67.1-1.04l.035-.338.025-.25.049-.539c.13-1.551.13-3.095-.659-3.436l-.966-.405-1.5-.6-.578-.222c-.088-.035-.18-.067-.268-.1q-.169-.074-.349-.137c-1.988-.754-3.941-1.438-5.312-1.875a7.96 7.96 0 0 0-1.9-.5c-.07.097-.117.21-.137.328-.234 1.385-.363 2.786-.384 4.191v.035c-.01.071-.006.127-.006.159z" class="P"/><path d="M494.602 198.518c.138.2.355 7.632.355 7.632s.356-2.7 1.636-2.667 1.9 1.957 3.143 2.221l-2.728-4.712c-.673-.941-1.484-1.775-2.406-2.474z" class="Q"/><path d="M497.264 187.782s1.278-1.332 2.131-.479.16 5.327-2.77 5.22z" class="C"/><path d="M498.324 189.049c.066-.05.127-.106.184-.166s.066-.159.013-.227-.148-.088-.223-.046c-.152.092-.291.204-.411.335-.123.117-.24.241-.348.372s-.216.27-.312.413l-.128.227a.35.35 0 0 0-.06.262.1.1 0 0 0 .12.068c.088-.016.146-.1.2-.167l.156-.2.205-.252c.039.018.062.035.085.051l.081.06-.04-.031c.067.052.137.099.209.143a1.01 1.01 0 0 0 .094.043l.046.022c.041.021.088.025.131.011s.076-.045.088-.088c.007-.031.007-.062 0-.093-.007-.024-.019-.047-.034-.067l-.05-.074a.51.51 0 0 0-.091-.1l-.094-.075c-.031-.023-.065-.043-.1-.059l-.07-.032.167-.173c.057-.055.119-.1.182-.157z" class="E"/><path d="M479.319 177.82a4.64 4.64 0 0 1-.624-4.491 1.4 1.4 0 0 1 1.388-.882 1.77 1.77 0 0 1 .87.628l1.411 1.551a1.31 1.31 0 0 1 1-1.652c.956-.145 1.688.772 2.47 1.34 2.045 1.486 7.695.086 8.046 3.428a2.48 2.48 0 0 1-.845 1.923 8.6 8.6 0 0 1-4.505 2c-1.776.469-3.659.308-5.33-.455-1.568-.745-2.901-1.907-3.854-3.358z" class="F"/><path d="M491.438 192.306c-1.297.286-2.628.392-3.954.315 0 0 .165 1.71 2.335 1.35a1.79 1.79 0 0 0 1.619-1.665z" class="B"/><path d="M482.504 230.362c-1.741.119-3.488.11-5.228-.026.812-2 1.367-4.096 1.651-6.236l3.361 3.637-.053.614z" class="F"/><path d="M508.123 235.74l-2.748-31.165c4.448 1.706 7.757 5.51 8.831 10.151 2.5 10.661 4.167 25.839 2.031 28.5-1.785 2.226-33.549-1.8-33.549-1.8a4.3 4.3 0 0 1 3.774-4.2c4.571-.855 6.408.206 6.408.206z" class="C"/><path d="M506.658 231.563s6.5.727 11.864-1.119c0 0-1.424-22.538-13.147-25.869z" class="P"/><path d="M506.051 219.99a84.65 84.65 0 0 1-.409-8.668l.018-2.435.018-1.248a3.93 3.93 0 0 0-.063-1.143c-.011-.034-.042-.057-.078-.057s-.067.023-.078.057a7.08 7.08 0 0 0-.292 2.141l-.107 2.185.028 4.371a79.92 79.92 0 0 0 .821 8.723c.235 1.647.562 3.28.981 4.891.077.289.486.162.439-.121l-1.278-8.696zm-31.162-14.518c-.007-.073-.115-.124-.154-.042a6.15 6.15 0 0 0-.38 1.49l-.251 1.5-.4 3.158-.243 3.167-.051 1.587a5.76 5.76 0 0 0 .042 1.577.2.2 0 0 0 .385 0 6.27 6.27 0 0 0 .114-1.514l.089-1.586q.079-1.554.219-3.1.14-1.546.314-3.093l.181-1.509c.103-.539.149-1.087.135-1.635z" class="Q"/><path d="M359.573 266.418a7.67 7.67 0 0 0-3.648 4.129 33.5 33.5 0 0 0-1.462 6.428c-.708 4.156-1.147 8.353-1.313 12.566-.061-.8-.1-1.6-.144-2.4l.849-14.365.817-8.514c.202-2.453.527-4.894.976-7.314a17.57 17.57 0 0 1 1.148-3.7 12.99 12.99 0 0 1 .855-1.585 10.04 10.04 0 0 0 .94-1.565c.051-.125-.107-.2-.2-.156a5.36 5.36 0 0 0-2.135 2.42 15.71 15.71 0 0 0-1.279 3.092c-.624 2.328-1.037 4.708-1.232 7.111-.5 4.383-.932 8.776-1.24 13.177-.131-2.199-.494-4.378-1.084-6.5-.837-2.861-2.321-6.019-4.886-7.721-1.296-.879-2.915-1.135-4.419-.7a5.98 5.98 0 0 0-3.676 2.8c-.039.08.049.2.138.138a10.2 10.2 0 0 1 3.582-2.154c1.371-.319 2.813.018 3.9.912 2.325 1.813 3.589 4.924 4.29 7.7a44.85 44.85 0 0 1 .986 9.94c.084 3.469.235 6.933.522 10.392q.237 2.861.578 5.711c.193 1.962.506 3.91.937 5.833.08.259.335.422.604.385s.471-.262.479-.532c-.083-1.212-.235-2.417-.393-3.621.094-1.086.221-2.146.244-3.24l.052-3.245q.094-3.3.381-6.584c.337-4.324.956-8.621 1.852-12.864a7.4 7.4 0 0 1 3.4-5.245c.471-.276.058-.974-.419-.729z" fill="#00875a"/><path d="M384.947 238.145a6.4 6.4 0 0 0-.706.043 7.69 7.69 0 0 0-5.543 3.391 11.57 11.57 0 0 1-1.9 2.806c-1.05.9-2.53 1.042-3.778 1.627-.578.272-1.112.629-1.584 1.059-.221.194-.428.404-.619.628-.84.979-1.557 2.057-2.134 3.21-1.041 1.962-2.023 4.045-3.736 5.457-1.328 1.137-3.13 1.549-4.82 1.1-1.738-.585-2.16-2.522-3.718-3.305a6.57 6.57 0 0 0-1.239-.456l-.43-.12a4.3 4.3 0 0 1-2.333-1.291 4.11 4.11 0 0 1-.18-5.018c1.032-1.411 2.917-2.066 3.77-3.589.275-.491.422-1.033.663-1.523.53-1.028 1.387-1.852 2.436-2.341.238-.12.482-.227.732-.319l.413-.138c1.511-.387 3.075-.522 4.63-.4a3.75 3.75 0 0 0 1.936-.25 5.13 5.13 0 0 0 1.231-1.136c1.214-1.145 2.785-1.838 4.45-1.962.498-.05.999-.07 1.5-.06.284-.009.559.009.844.026l2.6.258a20.25 20.25 0 0 1 5.862 1.325 8.05 8.05 0 0 1 1.653.978zm-6.334 55.378a15.72 15.72 0 0 1-1.171 3.1l-.525 1.084c-.009.026-.026.043-.035.069-.001-.19-.016-.38-.043-.568-.009-.009-.009-.017-.009-.035-.023-.212-.063-.422-.121-.628-.003-.038-.012-.076-.026-.112a5.9 5.9 0 0 0-2.324-3.288c-1.342-.912-3.15-1.334-3.968-2.745-.34-.852-.63-1.723-.869-2.608a3.68 3.68 0 0 0-1.274-1.549c-.214-.165-.45-.299-.7-.4a3.55 3.55 0 0 0-.826-.258c-.981-.163-2.006.069-2.987-.095a3.85 3.85 0 0 1-2.78-1.988c-.757-1.446-.576-3.305-1.386-4.682a3.54 3.54 0 0 0-.3-.43 2.41 2.41 0 0 0-.258-.267c-.861-.835-2.143-1.188-3.046-2-1.112-1.193-1.721-2.769-1.7-4.4-.078-1.232.193-2.461.783-3.546a6.69 6.69 0 0 1 2.332-2.178l.585-.327a16 16 0 0 1 4.665-1.481c2.763-.43 6.076-.181 7.617 2.143.921 1.386.99 3.236 2.066 4.493.469.483.985.919 1.54 1.3.086.06.172.129.258.2.198.165.385.343.559.534 1.144 1.459 1.825 3.228 1.954 5.078.362 2.4-1.351 4.708-.688 7.109a5.15 5.15 0 0 0 .7 1.454l.7.973c.372.479.698.992.973 1.532.604 1.429.712 3.019.304 4.516zm-29.135-28.817c-.069 4.528-3.133 3.822-5.87 5.991-1.359 1.084-1.446 3.2-2.668 4.441-.35.349-.765.627-1.222.818-.251.112-.51.207-.775.284a9.01 9.01 0 0 1-.912.249c-3.038.74-6.567 1.438-8.1 4.166-.474.843-.758 1.876-1.584 2.384a4.06 4.06 0 0 1-1.7.439 15.68 15.68 0 0 0-9.743 5.259l-.06-.706a16.75 16.75 0 0 1-.017-1.738c.18-3.761 1.627-7.342 4.105-10.165 1.023-1.014 1.977-2.095 2.857-3.236.15-.211.283-.432.4-.663.088-.159.166-.323.233-.491.456-1.11.542-2.332.947-3.459.661-1.823 2.086-3.266 3.9-3.951 1.523-.559 3.357-.611 4.441-1.816 2.315-2.582 2.462-4.613 6.481-4.863 2.2-.138 4.837.043 6.7 1.369.154.108.3.226.439.353a4.44 4.44 0 0 1 .628.646 7.08 7.08 0 0 1 1.52 4.689z" class="N"/><path d="M369.528 297.375v17.248c.001 6.642-5.382 12.028-12.024 12.032h-5.776c-6.643-.004-12.028-5.389-12.033-12.032v-17.248z" fill="#b3bac5"/><path d="M369.532 297.375v17.248c.001 6.642-5.382 12.028-12.024 12.032h-5.775c-3.099.005-6.079-1.192-8.314-3.339 12.867-3.184 14.984-19.727 15.312-25.941z" fill="#a5adba"/><path fill="#ebecf0" d="M339.704 303.661h29.827v4.79h-29.827z"/><path d="M338.977 264.68q-.658.516-1.317 1.059a3.62 3.62 0 0 1 .413 1.076 15.25 15.25 0 0 1 .361 1.764l.542 3.77.74 3.606a5.75 5.75 0 0 1-.775.284l-.688-3.477-.534-3.7a15.69 15.69 0 0 0-.31-1.773c-.078-.336-.25-.7-.353-1.059a26.79 26.79 0 0 0-5.414 5.827c-.861 1.434-1.837 2.795-2.918 4.071a29.21 29.21 0 0 1-3.357 3c-2.367 1.868-4.94 3.589-6.808 5.99a14.63 14.63 0 0 0-1.713 2.909 16.75 16.75 0 0 1-.017-1.738 13.29 13.29 0 0 1 1.721-2.436c2.092-2.367 4.786-4.071 7.2-6.077a19.76 19.76 0 0 0 3.331-3.391c.026-.045.054-.088.086-.129l-3.693-.878-1.687-.491c.15-.211.283-.432.4-.663l1.567.447 3.89.9 2.531-3.778a40.36 40.36 0 0 1 7.875-7.041c2.005-1.5 4.63-3.305 7.281-3.391a4.4 4.4 0 0 1 .628.645 11.62 11.62 0 0 0-4.277 1.36 34.8 34.8 0 0 0-4.705 3.314zm45.97-26.535a6.4 6.4 0 0 0-.706.043 13.77 13.77 0 0 0-4.9.12 24.6 24.6 0 0 0-4.028 1.343c-1.278.519-2.609.9-3.968 1.136a11.2 11.2 0 0 0-3.632.938 8.03 8.03 0 0 0-2.479 2.806l-.336.422c.706.2 1.394.49 2.083.732l2.324.766 2.126.62a6.08 6.08 0 0 0-.619.628l-1.713-.508-2.393-.826a13.09 13.09 0 0 1-2.186-.972c-.517.557-1.121 1.025-1.79 1.386-1.059.577-2.2.964-3.279 1.5a6.81 6.81 0 0 0-2.832 2.41 30.44 30.44 0 0 0-1.455 3.021l-.43-.12a10.05 10.05 0 0 1 1.7-3.71c.843-1.062 1.938-1.896 3.185-2.427l.913-.413c-.146-.329-.244-.677-.293-1.033l-.284-1.377-.49-2.676-.37-2.126a6.95 6.95 0 0 1 .732-.319l.387 2.341.482 2.78a9.96 9.96 0 0 1 .31 2.2 13.32 13.32 0 0 0 1.9-1 9.87 9.87 0 0 0 2.539-3.012 5.69 5.69 0 0 1 2.857-2.238 34.28 34.28 0 0 1 3.822-.8 12.53 12.53 0 0 0 1.472-.422c-.011-.015-.015-.034-.009-.052l.4-3.744c.284-.009.559.009.844.026l-.482 3.512 2.109-.826a16.29 16.29 0 0 1 4.234-1.067c.864-.093 1.734-.104 2.6-.034.588.257 1.144.583 1.655.972zm-7.505 58.476l-.525 1.084-.078-.5c-.009-.009-.009-.017-.009-.035l-.121-.628a.43.43 0 0 0-.026-.112 31.34 31.34 0 0 0-1.3-4.854 45.64 45.64 0 0 0-5.156-9.812l-.052.12-.387.878-.775 1.764-.766 1.713c-.214-.165-.45-.299-.7-.4l.688-1.609.757-1.773.387-.886.284-.628-2.772-3.813-5.121-6.541-.792-.921.069 1.024a18.05 18.05 0 0 1-.241 3.124 33.23 33.23 0 0 1-1.239 5 3.54 3.54 0 0 0-.3-.43 2.42 2.42 0 0 0-.259-.267 38.71 38.71 0 0 0 1.042-4.192 18.28 18.28 0 0 0 .31-3.133l-.069-1.61c0-.112-.017-.224-.026-.336l-1.1-1.179-1.782-1.67.585-.327a27.01 27.01 0 0 1 5.035 5.267l2.246 2.832c.489-.112.988-.175 1.49-.19l3.029-.4s2.004-.419 2.987-.706l1.1-.353c.086.06.172.129.258.2a5.54 5.54 0 0 1 .559.534l-1.678.5a27.64 27.64 0 0 1-2.9.645 24.62 24.62 0 0 1-2.866.327c-.513.031-1.028.028-1.541-.009l4.544 6.223c.184.047.302.225.276.413l2.461 3.959a62.84 62.84 0 0 1 .706 1.308 5.57 5.57 0 0 1 1.412.078l1.549.2.7.973a18.01 18.01 0 0 1-.861-.1l-1.5-.241-.93-.189c.905 1.762 1.679 3.589 2.315 5.465a32.04 32.04 0 0 1 1.059 4.1c.012.037.021.075.024.113z" fill="#00875a"/><path d="M427.157 318.397s1.926-2.968 3.445-12.631l9.318 2-6.005 14.484s-6.751-.126-6.758-3.853zm26.084-10.009s2.605 6.9.975 12.992c0 0 6.388.01 8.136-2.484v-11.129z" class="C"/><path d="M450.203 250.839s-7.67 2.456-10.421 9.028-15.466 44.892-15.131 45.141a27.51 27.51 0 0 0 20.53 5.235c0 0 3.9-19.531 7.391-35.974 2.172-10.219 19.487-10.285 19.487-10.285l12.685-11.463-2.405-2.678z" fill="#001216"/><path d="M500.943 270.705c-7.313 3.411-12.778 2.261-32 2.261-1.342 0-1.188 15.756-1.271 35.629 0 0-6.973 3.865-19.61 2.485 0 0 .988-38.656 3.74-49.664s26.051-11.65 26.051-11.65l31.7 3.3s3.961 11.775-8.61 17.639z" fill="#143031"/><path d="M539.817 326.611h-4.677l-7.889-75.636c-.093-.829.266-1.644.941-2.135s1.56-.583 2.321-.241 1.28 1.066 1.359 1.896z" class="D"/><path d="M414.919 322.647c-.016 1.589 1.916 2.13 3.7 2.379q2.75.382 5.5.755l6.6.906c2.077.285 4.206.756 4.723-1.969l.461-2.427c.152-.795.76-2.329.172-3.013-.468-.568-1.481-.373-2.1-.267s-2.458 1.11-2.974.634a.47.47 0 0 1-.1-.39 4.1 4.1 0 0 0 .109-1.617c-.2-.58-.821-.787-1.378-.92l-1.614-.385c-.768-.191-1.741-.289-2.2.436a7.32 7.32 0 0 0-.4 1.2c-.038.114-.093.221-.164.318a1.73 1.73 0 0 1-.6.47l-.076.039-.533.267a10.39 10.39 0 0 1-.99.439l-.534.168a3.96 3.96 0 0 1-.963.144c-.009.003-.02.003-.029 0-.341-.002-.681-.039-1.014-.111-.777-.235-1.582-.365-2.394-.385-1.164.108-2.195.796-2.741 1.83a3.26 3.26 0 0 0-.461 1.499z" fill="#1e1e1e"/><path d="M424.651 318.759c1.468 1.4 3.822 2.5 5.474 2.241.167-.027.274-.289.1-.39-.92-.587-2.037-.819-3.008-1.342a11.32 11.32 0 0 1-1.8-1.3c-.038.114-.093.221-.165.318a1.72 1.72 0 0 1-.601.473zm-1.599.746c.269.335.56.652.87.949a6.06 6.06 0 0 0 2.871 1.877.33.33 0 0 0 .32-.162c.065-.112.057-.253-.02-.358-.721-.699-1.487-1.349-2.294-1.947a13.25 13.25 0 0 1-.756-.8 10.43 10.43 0 0 1-.991.441z" class="B"/><path d="M446.089 327.951c.732 1.411 2.691.983 4.387.364q2.609-.953 5.214-1.913l6.253-2.295c1.968-.722 4.069-1.305 3.248-3.955l-.731-2.359c-.239-.773-.422-2.413-1.261-2.742-.68-.282-1.483.365-1.979.749s-1.65 2.133-2.329 1.955a.47.47 0 0 1-.274-.3c-.222-.5-.267-1.115-.662-1.479a1.71 1.71 0 0 0-1.648-.166l-1.606.417c-.768.192-1.673.562-1.741 1.417a7.31 7.31 0 0 0 .211 1.248c.019.119.019.239 0 .358a1.73 1.73 0 0 1-.312.7l-.049.07-.346.486c-.208.295-.431.58-.668.852l-.393.4a3.95 3.95 0 0 1-.783.579c0 .009-.018.014-.024.016-.302.158-.619.285-.947.377a9.06 9.06 0 0 0-2.3.783 3.46 3.46 0 0 0-1.563 2.9 3.26 3.26 0 0 0 .303 1.538z" fill="#1e1e1e"/><path d="M452.862 319.951c1.953.548 4.546.413 5.886-.588.135-.1.107-.383-.092-.393-1.088-.087-2.183.233-3.286.226a11.37 11.37 0 0 1-2.2-.3 1.14 1.14 0 0 1 0 .358 1.73 1.73 0 0 1-.308.697zm-1.063 1.41a10.15 10.15 0 0 0 1.214.431 6.06 6.06 0 0 0 3.416.311.33.33 0 0 0 .206-.293c.005-.129-.068-.25-.186-.307a22.8 22.8 0 0 0-2.939-.643c-.358-.1-.7-.224-1.042-.351-.208.295-.431.58-.669.852z" class="B"/><rect width="26.384" height="5.277" rx="2.639" fill="#172b4d" x="399.543" y="232.589"/><path d="M425.677 240.489c0 .351-.139.688-.387.936s-.585.388-.936.388h-22.187a.65.65 0 0 0-.607.991.65.65 0 0 0 .607.309h23.49c.731-.001 1.323-.593 1.323-1.324v-2.6c-.001-.73-.593-1.322-1.323-1.323h-23.49a.65.65 0 0 0-.607.991.65.65 0 0 0 .607.309h22.185c.351-.001.688.139.937.387s.388.585.388.936z" fill="#969fae"/><path d="M402.078 240.493c.01.45-.051.899-.183 1.33h23.87v-2.66h-23.87a4.22 4.22 0 0 1 .183 1.33z" class="B"/><path d="M403.433 239.817c1.704-.098 3.411-.108 5.116-.03l5.238.005 5.116.005 5.239.059c.02 0 .037.017.037.037s-.017.037-.037.037c-1.687.153-3.423.058-5.116.059l-5.239.005h-5.116c-1.745.08-3.494.07-5.238-.029-.033-.009-.056-.04-.056-.074s.023-.065.056-.074zm1.622 1.103c1.514-.133 3.051-.075 4.57-.071 1.448-.07 2.899-.043 4.343.079a.05.05 0 0 1 0 .1c-1.444.122-2.895.149-4.343.079-1.519 0-3.055.061-4.57-.071-.032 0-.058-.026-.058-.058s.026-.058.058-.058z" class="I"/><path d="M401.765 229.963c.001-.73.593-1.322 1.323-1.323h22.183a.65.65 0 0 0 .607-.991.65.65 0 0 0-.607-.309h-23.49c-.351 0-.688.14-.936.388s-.387.585-.387.936v2.599c0 .351.139.687.387.936s.585.387.936.387h23.49a.65.65 0 0 0 .607-.991.65.65 0 0 0-.607-.309h-22.187c-.729-.003-1.318-.594-1.319-1.323z" class="N"/><path d="M425.369 229.962c-.01-.45.051-.899.183-1.33h-23.87v2.66h23.87c-.131-.431-.193-.88-.183-1.33z" class="B"/><path d="M424.01 230.638c-1.704.098-3.412.107-5.117.029l-5.238-.005-5.116-.005c-1.734 0-3.511.1-5.239-.059-.021 0-.037-.017-.037-.037s.017-.037.037-.038c1.688-.153 3.423-.058 5.117-.059l5.238-.005 5.117-.005a50.87 50.87 0 0 1 5.238.029c.043 0 .078.035.078.077s-.035.077-.078.077zm-12.352-1.113l-4.424.007c-1.397.084-2.798.06-4.191-.071-.01-.003-.017-.012-.017-.023s.007-.02.017-.023c1.393-.131 2.794-.155 4.191-.071l4.424.007c.048 0 .087.039.087.087s-.039.087-.087.087zm10.73.01c-1.514.132-3.051.075-4.57.071-1.448.07-2.899.043-4.343-.079a.05.05 0 1 1 0-.1 32.78 32.78 0 0 1 4.343-.079l4.57.071c.032 0 .058.026.058.058s-.026.058-.058.058z" class="I"/><path d="M399.429 250.976l-7.894 75.636h-4.672l7.941-76.117c.133-1.277 1.276-2.206 2.553-2.073s2.206 1.276 2.073 2.553z" class="D"/><path fill="#42526e" d="M389.81 249.429h147.524v8.36H389.81z"/><rect width="156.636" height="7.195" rx="3.598" x="385.254" y="243.113" class="D"/><use xlink:href="#C" fill="#6e859c"/><g fill="#8993a4"><use xlink:href="#C"/><path d="M485.266 243.113h-44.638l-4.734-25.851a1.99 1.99 0 0 1 1.957-2.349h40.6a1.99 1.99 0 0 1 1.957 1.631z"/></g><path d="M483.682 243.113h-43.059l-4.734-25.851a1.99 1.99 0 0 1 1.957-2.349h39.02c.961-.001 1.784.686 1.956 1.631z" fill="#a5adba"/><path d="M445.047 233.26l8.355-1.517a.23.23 0 0 0 .165-.081c.031-.05-1.56-5.89-1.679-5.861-1.685.41-7.817 1.448-8.125 2.233-.197.495 1.026 5.269 1.284 5.226z" fill="#8993a4"/><path d="M443.902 230.191c-.768-.033-1.486-.392-1.974-.986-.359-.53-.542-1.16-.524-1.8a3.25 3.25 0 0 1 .4-1.73 3.03 3.03 0 0 1 2.041-1.3 4.26 4.26 0 0 1 2.56.3 2.36 2.36 0 0 1 1.138.965 2.52 2.52 0 0 1 .253 1.08c.05.657-.071 1.315-.351 1.911a3.64 3.64 0 0 1-3.543 1.56z" fill="#ebecf0"/><g fill="#003349"><rect width="4.455" height="2.228" rx="1.114" x="493.272" y="191.87"/><path d="M497.097 192.222s.889 1.2 1.276-.408-1.866-3.713-.916-4.544 2.85-.588 2.867.531a9.3 9.3 0 0 1-.795 4.237 2.8 2.8 0 0 1-2.432 1.4c-1.936-.188 0-1.216 0-1.216z"/></g><rect width="170.581" height="5.84" rx="2.92" opacity=".107" x="447.237" y="392.447"/><path d="M578.14 191.079q-.18-.321-.345-.65c-3.675-7.306-2.034-17.643 5.309-21.859 11.051-6.345 24.115.895 26.033 15.25 1.513 11.327-6.351 22.752-11.935 21.989-4.178-.57-6.139-5.027-9.622-6.489-3.971-1.628-7.291-4.526-9.44-8.241z" class="K"/><path d="M615.06 218.11c-33.919-6.479-45.312 20.809-50.13 42.481s-28.554 9.617-28.88 20.6c0 0-1.171 24.667 17.458 28.343a180.94 180.94 0 0 0 33.689 2.783v70.454c-17.594.95-20.483 10.481-20.483 10.481h47.539s-1.8-9.627-21.3-10.5v-70.6c17.919-.835 28.362-2.764 34.236-13.543 8.824-16.174 24.19-73.57-12.129-80.499z" fill="#969fae"/><path d="M603.353 212.28s-5.893 12.012-12.372 10.648-11.764-11.663-11.764-11.663l5.386-2.828c.718-.372 1.194-1.087 1.262-1.893l.057-.7.517-6.355 9.376 1.036.3 3.594.248 2.885a2.35 2.35 0 0 0 1.149 1.825z" class="G"/><path d="M567.67 232.245l.58-.924c4.609-7.771 1.462-16.12 1.462-16.12l10.718-4.9 1.069-.488.021.075c3.957-1.664 3.652-3.8 3.652-3.8l2.645 1.551s-.774 3.876 1.315 4.361 2.642-4.264 2.642-4.264l5.762-2.339c-.223.969-.047 1.987.49 2.824.774 1.163 4.129 2.769 5.072 3.2l2.885 1.316 2.111.98 6.5 2.967-7.063 46.1-34.824.207-2.721-19.657s-5.022-7.114-2.316-11.089z" fill="#c4c2db"/><path d="M537.333 396.601l3.74-5.01q2.94-3.747 6.211-7.246c1.216-1.131 2.216-2.473 2.954-3.961 2.3-5.521-.774-12.6-.125-17.639.732-5.755 10.531-.359 14.437-.248.337-.088.696-.003.958.226s.395.573.354.919q.539 7.143 1.1 14.285.208 2.691.414 5.383c.027.335.043.676.05 1.017.163 1.524.518 5-.067 6.118-.7 1.345-3.552 1.97-5.747 2.391a1.93 1.93 0 0 1-2.263-1.546v-.018q-4.46 2.369-8.932 4.694c-1.366.7-2.774 1.408-4.224 1.988a14.95 14.95 0 0 1-7.231 1.27c-.966-.111-2.167-.662-2.084-1.628a2.1 2.1 0 0 1 .455-.995zm-34.795-8.792a1.98 1.98 0 0 1 .58-.925l3.919-4.058c2.4-2.4 4.914-4.665 7.522-6.818a13.98 13.98 0 0 0 3.437-3.547c3-5.176 1.132-11.442 2.429-16.355 1.464-5.6 10.2-.152 14.065.455.347-.046.694.084.925.348a1.04 1.04 0 0 1 .22.963l-.676 13.264-.332 6.432a14.04 14.04 0 0 1-.113 1.228c.021 1.719-.033 4.145-.573 5.007-.805 1.286-3.7 1.683-5.917 1.93-.941.096-1.81-.512-2.042-1.429l-9.808 3.629c-1.436.524-2.913 1.035-4.4 1.421a14.91 14.91 0 0 1-7.383.332c-.96-.235-2.06-.925-1.853-1.877z" fill="#754c28"/><path d="M569.713 215.2s-6.348 3.59-13.713 20.08-10.566 24.63-9.052 27.72c0 0 3.545 3.832 7.114 2.079 5.3-2.6 11.6-14.28 18.31-28.67-.001-.004 3.689-12.552-2.659-21.209z" fill="#dddbee"/><path d="M562.224 228.489a14.29 14.29 0 0 1 2.868-4.307 6.41 6.41 0 0 1 4.678-1.924 3.1 3.1 0 0 1 1.9.7c.873.995 1.099 2.401.581 3.619-.405 1.229-1.152 2.326-1.529 3.564-.443 1.457-.352 3.042-.841 4.484-.396 1.01-.931 1.959-1.59 2.821l-4.962 7.155c-.537 1.011-1.422 1.792-2.491 2.2-1.879.449-3.558-1.678-3.441-3.606.132-2.154 1.654-4.049 2.062-6.2a34.66 34.66 0 0 1 2.765-8.506z" class="G"/><path d="M598.16 296.083c-23.641 2.7-36.078 6.857-36.078 6.857s11.926 55.053 11.926 69.928h-33.484s-5.442-68.208-2.539-77.641 19.228-10.522 20.317-9.433 42.433 9.994 39.858 10.289z" fill="#0a3950"/><path d="M609.656 261.43s9.329 31.98-15.8 35.611c-23.16 3.345-48.253-2.54-48.253-2.54l-1.913 68.752s-11.445 4.333-30.311-1.471c0 0 0-73.905 11.543-84.651 9.593-8.93 32.653-13.106 48.616-14.195s36.118-1.506 36.118-1.506z" fill="#0c4765"/><path d="M561.492 233.739c1.359 2.486 4.02 3.976 6.85 3.833 0 0-7.759 24.428-12.8 27.8-3.49 2.332-10.117.011-8.965-6.106s14.915-25.527 14.915-25.527z" class="G"/><path d="M596.119 204.122c-2.094 1.858-4.903 2.696-7.673 2.287-.86-.088-1.708-.277-2.524-.563l.519-6.355 9.375 1.036z" class="L"/><path d="M588.888 192.82c-.012.019-.012.001 0 0z" class="J"/><path d="M606.2 265.509l-1.225 1.091c-.863.965-1.991 1.655-3.243 1.983a3.98 3.98 0 0 1-3.246-1.114c-2.509-2.351-2.681-6.415-2.175-9.566a43.5 43.5 0 0 1 2.095-7.272 190.48 190.48 0 0 0 6.561-22.793l.528-2.444c.788-3.362 2.086-8.145 5.969-8.729 2.451-.369 4.167.216 5.445 2.455 2.288 4.011 2.234 9.636 1.919 14.115-.361 5.274-1.392 10.48-3.068 15.494a54.56 54.56 0 0 1-4.339 9.708c-.827 1.444-1.695 2.954-2.62 4.325a15.05 15.05 0 0 1-2.601 2.747z" fill="#dddbee"/><g class="O"><path d="M544.521 292.484a46.17 46.17 0 0 1-1.769-5.236c-.356-1.575-.379-3.256-1.072-4.724a.37.37 0 0 0-.635 0c-1.069 2.512-.121 6.18 1.216 8.877l-8.822-3.262c-.5-.152-.714.52-.333.791 3.04 2.167 6.992 3.342 10.517 4.452.253.067.523-.005.708-.19s.258-.455.19-.708z"/><rect width="11.113" height="20.574" rx="5.556" transform="matrix(-.995932 .090111 -.090111 -.995932 576.677 237.865)"/></g><g class="G"><path d="M578.009 244.759c2.815-.317 5.2-2.217 6.139-4.89 0 0 19.677 16.424 20.888 22.364.839 4.113-3.818 9.368-9.044 5.988s-17.983-23.462-17.983-23.462z"/><path d="M583.69 246.439c-1.464.363-9.723-.47-16.066-15.866a2.26 2.26 0 0 1-.08-1.31 2.56 2.56 0 0 1 .507-.936c.071-.1.148-.196.229-.287.1-.113.21-.235.32-.343.289-.296.594-.577.912-.842.145-.126.286-.238.426-.351.237-.182.486-.36.732-.524a3.03 3.03 0 0 1 .363-.212 2.12 2.12 0 0 1 .385-.19c.094-.027.189-.049.285-.064.883.022 1.706.452 2.227 1.165 2.025 2.1 3.862 4.372 5.491 6.792l-.133-3.427a2.94 2.94 0 0 1 .192-1.465c.211-.468.735-.707 1.226-.56a45.16 45.16 0 0 1 1.648 5.531c.836 2.701 1.857 5.341 3.058 7.9.349.775 1.1 1.73 1.02 2.577-.132 1.198-1.711 2.164-2.742 2.412z"/></g><path d="M573.094 236.951a16.22 16.22 0 0 1-3.095-4.492 23.08 23.08 0 0 1-1.948-4.131c.071-.099.147-.195.229-.286l.321-.343c.682 1.252 1.167 2.656 1.832 3.917.907 1.707 2.225 3.277 3 5.04.076.188-.161.457-.339.295zm1.892-1.705c-1.31-1.195-2.426-2.587-3.306-4.126a19.59 19.59 0 0 1-2.167-4.264l.425-.351c.805 1.192 1.421 2.553 2.174 3.77l3.1 4.771c.075.127-.118.309-.226.2zm2.104-1.559a38.58 38.58 0 0 1-3.658-4.508 32.46 32.46 0 0 1-2.4-3.409 2.1 2.1 0 0 1 .386-.19c1.05 1.158 1.967 2.49 2.9 3.727a49.81 49.81 0 0 1 3.087 4.169c.126.2-.171.347-.315.211z" class="L"/><path d="M592.957 312.147v5.509l-5.759 3.724v-9.07z" fill="#6c798f"/><path d="M601.853 187.159a8.85 8.85 0 0 1 .052.892c.028 1.258-.079 2.516-.32 3.751a16.67 16.67 0 0 1-3.182 7.029c-1.751 2.369-6.49 4.731-9.541 4.624-7.154-.25-9.063-6.553-10.022-11.594-.034-.17-.052-.325-.086-.494a28.81 28.81 0 0 1 .321-9.782c1.672-4.9 8.506-5.538 8.506-5.538s4.109 4.787 13.569 7.932a9.3 9.3 0 0 1 .703 3.18z" class="G"/><path d="M591.148 191.805c.01.016.006.02 0 .02-.01-.016-.006-.02 0-.02z" class="J"/><path d="M592.682 187.424c.069-.006.139-.004.208.008.758.133.8 1.148.565 1.715a.73.73 0 0 1-.658.509.81.81 0 0 1-.7-.6c-.206-.539-.185-1.62.585-1.632zm-9.508-.044a.82.82 0 0 0-.208.009c-.757.136-.795 1.151-.558 1.718.095.29.358.491.662.506.335-.036.614-.274.7-.6.201-.543.17-1.625-.596-1.633z" class="K"/><path d="M587.286 189.797c.192-.647.086-1.46.425-2.024a.05.05 0 0 1 .076-.018c.577.448.357 1.422.2 2.043-.107.435-.251.861-.4 1.285-.049.141-.308.595-.258.745.138.412.913.313 1.2.249.479-.108.569.664.086.764-.686.143-2.136-.048-2.071-.97a11.3 11.3 0 0 1 .742-2.074z" class="L"/><path d="M601.225 188.628s2-3.095 3.4-1.9c2.211 1.893.261 8.113-4.2 7.961z" class="G"/><path d="M603.149 188.762c.185-.094.4.184.246.332-.402.369-.77.773-1.1 1.207a3.14 3.14 0 0 1 1.128.073c.267.065.3.489-.011.511a8.42 8.42 0 0 1-1.513.13l-.388.959c-.061.131-.209.198-.347.157s-.227-.177-.207-.32c.226-1.298 1.033-2.422 2.192-3.049zm-16.287 7.307c.185-.042.377-.036.559.017l.489.086a5.13 5.13 0 0 0 1.074.048 4.78 4.78 0 0 0 1.034-.167c.353-.1.684-.254 1.045-.318.079-.022.163.01.207.079s.038.159-.015.221a2.27 2.27 0 0 1-1.016.589c-.386.131-.786.22-1.191.264a5.26 5.26 0 0 1-1.19-.012 2.83 2.83 0 0 1-.591-.12c-.21-.044-.399-.159-.534-.326-.039-.064-.046-.141-.021-.211s.08-.125.15-.15z" class="L"/><path d="M590.52 184.491l2.7.123 1.287.15c.281.052.656.155.78.44.041.092-.061.172-.145.157-.154-.026-.295-.1-.453-.131a4.03 4.03 0 0 0-.526-.046l-1.174-.052-2.446-.049c-.383.001-.41-.594-.023-.592zm-9.335.016c.15-.3.638-.29.926-.306a7.79 7.79 0 0 1 1.052.012c.351.026.7.08 1.042.162.279.069.754.129.915.4.023.038.028.084.013.125a.15.15 0 0 1-.089.089.8.8 0 0 1-.487-.023l-.466-.092a9.7 9.7 0 0 0-.973-.112c-.327-.021-.656-.021-.983 0-.276.018-.7.141-.919-.079a.15.15 0 0 1-.031-.176z" class="K"/><path d="M587.654 183.888c.238.003.431.192.441.429s-.168.441-.405.463c-.238-.003-.431-.192-.441-.429s.168-.441.405-.463z" fill="#de350b"/><path d="M601.342 194.659l.088-.209v-.007l.008-.011.019-.027a.85.85 0 0 1 .3-.3.84.84 0 0 1 .848 0c.124.073.227.176.3.3.059.075.1.162.12.255q.016.117.031.233v.026.039c.005.118-.021.236-.076.341a.66.66 0 0 1-.183.284.98.98 0 0 1-.625.259l-.236-.031a.88.88 0 0 1-.389-.228l-.139-.179c-.079-.135-.121-.289-.121-.446a1.77 1.77 0 0 1 .055-.299z" class="B"/><path d="M605.676 207.717c.904 2.333 1.1 4.882.563 7.326-.825 2.818-2.606 5.241-4.342 7.609s-3.494 4.814-4.261 7.647c-.78 2.878-.476 5.924-.166 8.889-3.125-3.774-6.155-8.1-6.182-13-.023-4.008 1.973-7.7 3.257-11.5a32.77 32.77 0 0 0 1.453-6.067c.266-1.964-.04-4.145.666-6.021.235-.704.727-1.294 1.378-1.652a4.19 4.19 0 0 1 4.793 1.225c.243.289.464.597.659.92a22.86 22.86 0 0 1 2.182 4.624z" class="K"/><defs ><path id="B" d="M58.406 245.007v.7c.005 2.458 1.996 4.449 4.454 4.454h172.53a4.39 4.39 0 0 0 3.007-1.179c.919-.841 1.442-2.029 1.441-3.275v-.7a4.45 4.45 0 0 0-4.448-4.454H62.86a4.45 4.45 0 0 0-4.454 4.454z"/><path id="C" d="M497.094 242.555v.563h-18.519v-1.724h17.348c.309-.002.607.12.826.338s.344.514.345.823z"/></defs></svg>