<svg version="1.1" xmlns="http://www.w3.org/2000/svg">
  <symbol viewBox="0 0 108.68 155.54">
  <g id="mobileLogo"><circle cx="53.16" cy="101.65" r="19.36"/><path d="M108.52,100.79V0H82V54.68a54.28,54.28,0,1,0-13.26,98.85,2,2,0,0,0,.48-.13V132a13.85,13.85,0,0,1-2.8,1.72,31.54,31.54,0,0,1-13.57,2.75,32.67,32.67,0,0,1-24.33-10,34.11,34.11,0,0,1-9.7-24.61c0-9.86,3.33-18.23,9.91-24.89S43.66,67,53.51,67c5,0,15.14,1.33,21.35,6.22,5.71,4.51,11.83,11.09,11.63,28.38-.06,5.12,0,28.08.12,43.39a21.19,21.19,0,0,0,2.6-2.13,54.12,54.12,0,0,0,19.28-40h0v-1.42C108.49,101.22,108.52,101,108.52,100.79Z" transform="translate(0.16)"/>
  </g>
  </symbol>
  <symbol viewBox="0 0 545.74 192.55">
  <g id="desktopLogo"><path d="M436.67,128.7c0,8-.29,13.61-.87,16.68a23.29,23.29,0,0,1-2.53,7.28,21.19,21.19,0,0,1-8.25,8,25.68,25.68,0,0,1-12.26,2.78c-8.19,0-13.78-2.07-17.11-6.34-3.53-4.54-5.33-12.85-5.33-24.69V77.81h-20.8v53.73c0,18.29,3.27,31.19,10,39.44s17.9,12.65,32.85,12.65a44.91,44.91,0,0,0,18.17-3.38,33.08,33.08,0,0,0,6.12-3.53V181h20.8V77.81h-20.8Z" transform="translate(-25.26 -28.55)"/>
  <path d="M223.29,146.74a31.57,31.57,0,0,1-10.51,11.59,30,30,0,0,1-16.79,4.8c-9,0-16.18-2.71-22.1-8.27a30.59,30.59,0,0,1-9.22-17.26h84.75v-5.28c0-16.7-4.92-30.52-14.62-41.07s-22.58-16.08-38-16.08c-15.65,0-28.72,5.17-38.85,15.38s-15.24,23.23-15.24,38.72a53.21,53.21,0,0,0,15.53,38.35,51.24,51.24,0,0,0,38.08,16,50.61,50.61,0,0,0,30-9.22c8.53-6.06,15.22-14.82,19.88-26l.69-1.65Zm-48.64-43.93c5.56-5,12.22-7.43,20.33-7.43,8.83,0,15.72,2.25,21.07,6.88,4.31,3.74,7.59,9.11,9.79,16H165.42A30.85,30.85,0,0,1,174.65,102.81Z" transform="translate(-25.26 -28.55)"/>
  <path d="M544.87,146.74a31.66,31.66,0,0,1-10.51,11.59,30,30,0,0,1-16.79,4.8c-9,0-16.18-2.71-22.1-8.27a30.55,30.55,0,0,1-9.21-17.26H571v-5.28c0-16.7-4.92-30.52-14.61-41.07s-22.59-16.08-38-16.08c-15.65,0-28.72,5.17-38.85,15.38s-15.24,23.23-15.24,38.72a53.21,53.21,0,0,0,15.53,38.35,51.27,51.27,0,0,0,38.08,16,50.59,50.59,0,0,0,30-9.22c8.53-6.06,15.22-14.82,19.88-26l.69-1.65Zm-48.64-43.93c5.57-5,12.22-7.43,20.33-7.43,8.83,0,15.73,2.25,21.07,6.88,4.31,3.75,7.59,9.12,9.79,16H487A30.92,30.92,0,0,1,496.23,102.81Z" transform="translate(-25.26 -28.55)"/>
  <g><circle cx="53" cy="101.65" r="19.36"/><path d="M133.78,129.34V28.55H107.26V83.23A54.28,54.28,0,1,0,94,182.08c.17,0,.32-.09.48-.13V160.53a13.58,13.58,0,0,1-2.8,1.72A31.59,31.59,0,0,1,78.11,165a32.66,32.66,0,0,1-24.33-10,34.1,34.1,0,0,1-9.7-24.61c0-9.86,3.33-18.23,9.91-24.89s14.93-10,24.78-10c5,0,15.14,1.33,21.35,6.22,5.71,4.51,11.83,11.09,11.63,28.38-.06,5.12,0,28.08.12,43.39a21.23,21.23,0,0,0,2.6-2.13,54.1,54.1,0,0,0,19.28-40h0v-.92c0-.17,0-.33,0-.5S133.78,129.51,133.78,129.34Z" transform="translate(-25.26 -28.55)"/></g>
  <path d="M362.14,218.52s0-3.4-.05-8.85l0-6.64v0c-.12-23.14-.32-64.92-.22-73.6.31-26.8-9.18-37-18-44-9.62-7.59-25.32-9.65-33.1-9.65-15.27,0-28.19,5.24-38.42,15.58s-15.38,23.29-15.38,38.58c0,15,5.07,27.88,15.05,38.17s22.72,15.55,37.72,15.55a48.89,48.89,0,0,0,21.11-4.24,23.37,23.37,0,0,0,9.06-7.43V221.1h22.31v-2.58Zm-52.62-55.61c-18.07,0-32.72-15-32.72-33.51s14.65-33.52,32.72-33.52,32.71,15,32.71,33.52S327.58,162.91,309.52,162.91Z" transform="translate(-25.26 -28.55)"/></g>
  </symbol>
  <symbol viewBox="0 0 123 120"><path id="searchIcon" d="M49.988,0h0.016v0.007C63.803,0.011,76.298,5.608,85.34,14.652c9.027,9.031,14.619,21.515,14.628,35.303h0.007v0.033v0.04 h-0.007c-0.005,5.557-0.917,10.905-2.594,15.892c-0.281,0.837-0.575,1.641-0.877,2.409v0.007c-1.446,3.66-3.315,7.12-5.547,10.307 l29.082,26.139l0.018,0.016l0.157,0.146l0.011,0.011c1.642,1.563,2.536,3.656,2.649,5.78c0.11,2.1-0.543,4.248-1.979,5.971 l-0.011,0.016l-0.175,0.203l-0.035,0.035l-0.146,0.16l-0.016,0.021c-1.565,1.642-3.654,2.534-5.78,2.646 c-2.097,0.111-4.247-0.54-5.971-1.978l-0.015-0.011l-0.204-0.175l-0.029-0.024L78.761,90.865c-0.88,0.62-1.778,1.209-2.687,1.765 c-1.233,0.755-2.51,1.466-3.813,2.115c-6.699,3.342-14.269,5.222-22.272,5.222v0.007h-0.016v-0.007 c-13.799-0.004-26.296-5.601-35.338-14.645C5.605,76.291,0.016,63.805,0.007,50.021H0v-0.033v-0.016h0.007 c0.004-13.799,5.601-26.296,14.645-35.338C23.683,5.608,36.167,0.016,49.955,0.007V0H49.988L49.988,0z M50.004,11.21v0.007h-0.016 h-0.033V11.21c-10.686,0.007-20.372,4.35-27.384,11.359C15.56,29.578,11.213,39.274,11.21,49.973h0.007v0.016v0.033H11.21 c0.007,10.686,4.347,20.367,11.359,27.381c7.009,7.012,16.705,11.359,27.403,11.361v-0.007h0.016h0.033v0.007 c10.686-0.007,20.368-4.348,27.382-11.359c7.011-7.009,11.358-16.702,11.36-27.4h-0.006v-0.016v-0.033h0.006 c-0.006-10.686-4.35-20.372-11.358-27.384C70.396,15.56,60.703,11.213,50.004,11.21L50.004,11.21z"/></symbol>
  <symbol viewBox="0 0 28 24"><g id="menuIcon"><rect x="2" y="3" rx="2" width="24" height="5"/><rect x="2" y="10" rx="2" width="24" height="5"/><rect x="2" y="17" rx="2" width="24" height="5"/></g></symbol>
  <symbol viewBox="0 0 80 80"><path id="showIcon" d="M70.3 13.8L40 66.3 9.7 13.8z" style="transform: rotate(var(--rotation-angle)); transform-origin: center; transition: transform 0.2s linear"/></symbol>
</svg>
