<svg version="1.1" xmlns="http://www.w3.org/2000/svg">
  <symbol viewBox="0 0 622 623">
  <g id="goal"><path d="
  M362.000000,624.000000 
    C241.333359,624.000000 121.166710,624.000000 1.000048,624.000000 
    C1.000032,416.333405 1.000032,208.666779 1.000016,1.000132 
    C208.333237,1.000088 415.666473,1.000088 622.999756,1.000044 
    C622.999878,208.666519 622.999878,416.333038 622.999939,623.999756 
    C536.166687,624.000000 449.333344,624.000000 362.000000,624.000000 
  M499.499969,578.632202 
    C530.210266,578.632202 560.920593,578.632202 592.776184,578.632202 
    C544.549927,520.634766 497.196808,463.687439 449.559967,406.398865 
    C423.359650,437.896790 397.514587,468.967651 371.417969,500.340942 
    C369.721649,498.380890 368.290710,496.782257 366.919159,495.134186 
    C354.239716,479.898163 341.567749,464.655945 328.898926,449.411072 
    C299.514923,414.052094 270.123199,378.699524 240.802063,343.288513 
    C239.892593,342.190155 239.344818,340.487000 239.302536,339.046021 
    C239.235779,336.771118 239.969360,334.479553 239.970917,332.194794 
    C240.012756,271.036194 240.004227,209.877579 240.004242,148.718964 
    C240.004242,146.785599 240.004227,144.852219 240.004227,143.042084 
    C262.299713,143.042084 283.865845,143.042084 305.848450,143.042084 
    C305.848450,147.083252 305.843536,150.720444 305.849487,154.357605 
    C305.862762,162.476852 307.250641,163.856873 315.472656,163.857773 
    C356.133972,163.862183 396.795593,163.925659 437.455902,163.723068 
    C440.411865,163.708328 444.218262,162.539703 446.105469,160.498611 
    C448.873169,157.505280 445.880981,154.359360 443.961731,151.666031 
    C435.277527,139.479340 426.570587,127.308846 417.782623,115.007629 
    C419.234070,113.091049 420.505493,111.367798 421.822693,109.680260 
    C429.406555,99.963913 437.143097,90.360924 444.471039,80.455536 
    C445.914459,78.504425 446.968689,74.826950 446.070953,72.983780 
    C445.158722,71.110893 441.663300,70.387230 439.193329,69.434608 
    C438.177612,69.042854 436.885284,69.367622 435.718781,69.367615 
    C407.222534,69.367493 378.726257,69.367508 350.230011,69.367508 
    C348.286194,69.367508 346.342346,69.367508 343.859741,69.367508 
    C343.859741,65.155449 343.861755,61.529984 343.859344,57.904522 
    C343.853882,49.669342 342.558929,48.369907 334.316528,48.368629 
    C302.320740,48.363667 270.324799,48.415035 238.329269,48.326347 
    C229.673706,48.302357 228.132706,49.592316 228.142212,58.238785 
    C228.214325,123.893898 228.299789,189.548996 228.363480,255.204117 
    C228.388214,280.700714 228.356659,306.197388 228.388733,331.694000 
    C228.391220,333.674377 228.155106,335.924255 228.980194,337.573425 
    C230.331497,340.274353 229.162369,341.851410 227.622894,343.697876 
    C212.369751,361.993134 197.142700,380.310150 181.915329,398.626892 
    C133.037872,457.420654 84.162186,516.215881 35.299252,575.021729 
    C34.531849,575.945251 33.936172,577.011475 32.840763,578.631775 
    C188.615433,578.631775 343.557678,578.631775 499.499969,578.632202 
  z" fill="none"
  />
  <path d="
  M498.999939,578.631958 
    C343.557678,578.631775 188.615433,578.631775 32.840763,578.631775 
    C33.936172,577.011475 34.531849,575.945251 35.299252,575.021729 
    C84.162186,516.215881 133.037872,457.420654 181.915329,398.626892 
    C197.142700,380.310150 212.369751,361.993134 227.622894,343.697876 
    C229.162369,341.851410 230.331497,340.274353 228.980194,337.573425 
    C228.155106,335.924255 228.391220,333.674377 228.388733,331.694000 
    C228.356659,306.197388 228.388214,280.700714 228.363480,255.204117 
    C228.299789,189.548996 228.214325,123.893898 228.142212,58.238785 
    C228.132706,49.592316 229.673706,48.302357 238.329269,48.326347 
    C270.324799,48.415035 302.320740,48.363667 334.316528,48.368629 
    C342.558929,48.369907 343.853882,49.669342 343.859344,57.904522 
    C343.861755,61.529984 343.859741,65.155449 343.859741,69.367508 
    C346.342346,69.367508 348.286194,69.367508 350.230011,69.367508 
    C378.726257,69.367508 407.222534,69.367493 435.718781,69.367615 
    C436.885284,69.367622 438.177612,69.042854 439.193329,69.434608 
    C441.663300,70.387230 445.158722,71.110893 446.070953,72.983780 
    C446.968689,74.826950 445.914459,78.504425 444.471039,80.455536 
    C437.143097,90.360924 429.406555,99.963913 421.822693,109.680260 
    C420.505493,111.367798 419.234070,113.091049 417.782623,115.007629 
    C426.570587,127.308846 435.277527,139.479340 443.961731,151.666031 
    C445.880981,154.359360 448.873169,157.505280 446.105469,160.498611 
    C444.218262,162.539703 440.411865,163.708328 437.455902,163.723068 
    C396.795593,163.925659 356.133972,163.862183 315.472656,163.857773 
    C307.250641,163.856873 305.862762,162.476852 305.849487,154.357605 
    C305.843536,150.720444 305.848450,147.083252 305.848450,143.042084 
    C283.865845,143.042084 262.299713,143.042084 240.004227,143.042084 
    C240.004227,144.852219 240.004242,146.785599 240.004242,148.718964 
    C240.004227,209.877579 240.012756,271.036194 239.970917,332.194794 
    C239.969360,334.479553 239.235779,336.771118 239.302536,339.046021 
    C239.344818,340.487000 239.892593,342.190155 240.802063,343.288513 
    C270.123199,378.699524 299.514923,414.052094 328.898926,449.411072 
    C341.567749,464.655945 354.239716,479.898163 366.919159,495.134186 
    C368.290710,496.782257 369.721649,498.380890 371.417969,500.340942 
    C397.514587,468.967651 423.359650,437.896790 449.559967,406.398865 
    C497.196808,463.687439 544.549927,520.634766 592.776184,578.632202 
    C560.920593,578.632202 530.210266,578.632202 498.999939,578.631958 
  M287.500000,130.996109 
    C295.162445,130.996414 302.824982,131.016663 310.487335,130.989380 
    C314.954407,130.973465 317.321259,132.882599 317.181335,137.612076 
    C317.040741,142.364273 317.150391,147.123886 317.150391,151.661957 
    C354.930634,151.661957 391.903412,151.661957 429.585846,151.661957 
    C422.950073,142.355560 416.815338,133.677597 410.601654,125.056541 
    C403.102600,114.652054 403.086853,114.683289 410.871246,104.744629 
    C416.868378,97.087883 422.826904,89.400925 429.365997,81.003899 
    C426.667084,81.003899 425.045654,81.003899 423.424225,81.003899 
    C395.606049,81.003891 367.787903,81.012360 339.969727,80.997162 
    C333.953400,80.993874 332.206665,79.276459 332.149017,73.374138 
    C332.107147,69.087654 332.140869,64.800438 332.140869,60.265678 
    C301.255432,60.265678 270.871429,60.265678 240.312103,60.265678 
    C240.312103,83.880630 240.312103,107.254440 240.312103,130.996109 
    C255.911621,130.996109 271.205811,130.996109 287.500000,130.996109 
  z"/>
  <path d="
  M287.000000,130.996109 
    C271.205811,130.996109 255.911621,130.996109 240.312103,130.996109 
    C240.312103,107.254440 240.312103,83.880630 240.312103,60.265678 
    C270.871429,60.265678 301.255432,60.265678 332.140869,60.265678 
    C332.140869,64.800438 332.107147,69.087654 332.149017,73.374138 
    C332.206665,79.276459 333.953400,80.993874 339.969727,80.997162 
    C367.787903,81.012360 395.606049,81.003891 423.424225,81.003899 
    C425.045654,81.003899 426.667084,81.003899 429.365997,81.003899 
    C422.826904,89.400925 416.868378,97.087883 410.871246,104.744629 
    C403.086853,114.683289 403.102600,114.652054 410.601654,125.056541 
    C416.815338,133.677597 422.950073,142.355560 429.585846,151.661957 
    C391.903412,151.661957 354.930634,151.661957 317.150391,151.661957 
    C317.150391,147.123886 317.040741,142.364273 317.181335,137.612076 
    C317.321259,132.882599 314.954407,130.973465 310.487335,130.989380 
    C302.824982,131.016663 295.162445,130.996414 287.000000,130.996109 
  z" fill="none"/></g>
  </symbol>
  <symbol viewBox="0 0 608 608">
  <g id="handshake"><path d="
  M29.389046,361.514954 
    C45.620960,304.002563 61.715424,246.872574 77.839546,189.750977 
    C79.537819,183.734665 82.988724,181.707642 89.169144,183.417160 
    C110.963753,189.445541 132.730652,195.575211 154.481033,201.761520 
    C159.806229,203.276138 161.937088,206.957825 160.245590,212.570831 
    C158.900940,217.032928 159.503983,218.676743 164.568283,219.119751 
    C179.141190,220.394577 193.412949,218.242340 207.704895,216.165344 
    C213.941498,215.259018 220.107025,213.865021 226.306458,212.701157 
    C234.493973,211.164047 242.190414,208.909271 249.348724,204.024200 
    C258.476929,197.794785 269.424347,196.220047 280.310944,195.739944 
    C301.902985,194.787750 322.993835,198.764572 344.031006,202.881927 
    C371.709564,208.299103 399.146484,215.071167 427.192932,218.414917 
    C439.227234,219.849655 451.355713,220.608185 463.532593,218.875626 
    C467.694183,218.283508 468.465240,216.833145 467.715607,213.065857 
    C466.002441,204.456345 467.281952,202.437210 475.609375,200.207397 
    C496.490082,194.616211 517.381226,189.062866 538.294861,183.596329 
    C545.218567,181.786575 548.341614,183.617767 550.142273,190.376297 
    C566.789185,252.858475 583.411438,315.347260 600.008240,377.842743 
    C601.906494,384.990753 599.979736,388.378662 593.161804,390.191406 
    C572.585938,395.662201 552.006592,401.120483 531.417419,406.540649 
    C522.423157,408.908356 521.104675,408.285797 516.618286,399.661407 
    C507.615021,403.429047 499.078735,408.089478 491.033844,413.678345 
    C488.430634,415.486786 489.480225,417.785645 490.413025,419.934814 
    C500.496918,443.168030 483.755005,466.122955 463.653595,468.329407 
    C453.721680,469.419617 451.435455,473.820038 448.105988,481.495972 
    C441.387665,496.984802 428.859161,505.337677 411.488403,505.068420 
    C409.156189,505.032288 408.173279,505.775391 407.458252,507.723846 
    C401.490997,523.984558 389.515472,531.426697 372.514923,531.317627 
    C369.511597,531.298401 367.875366,531.935791 366.913330,535.353821 
    C360.911377,556.678955 338.766205,564.488464 320.593414,551.844727 
    C317.486511,549.683105 314.649719,547.133118 311.601715,544.693359 
    C307.616364,547.918274 304.965515,552.056396 301.091370,554.990723 
    C287.153381,565.547607 269.097748,560.038940 263.667877,543.440674 
    C262.855621,540.957642 262.425812,538.747498 258.671906,539.825867 
    C242.340744,544.517151 221.351761,532.050415 222.722977,510.770081 
    C222.786438,509.785309 222.832642,508.753174 221.577255,507.507233 
    C211.120377,510.424896 200.577087,510.649719 191.369278,502.873444 
    C182.286163,495.202454 179.759689,485.093475 181.051804,473.494141 
    C175.054199,474.488220 169.825912,477.132935 163.989090,475.943146 
    C144.137009,471.896240 134.978226,453.556885 143.467728,434.644958 
    C144.080643,433.279541 144.786926,431.950134 145.531158,430.650574 
    C149.429016,423.844086 149.415237,422.038452 144.270309,416.195740 
    C135.356293,406.072662 123.458870,401.660889 110.657257,399.039673 
    C108.109749,398.518066 107.641136,399.987488 106.904274,401.850830 
    C104.685913,407.460571 101.741089,408.951477 95.960663,407.342957 
    C74.490387,401.368317 53.032921,395.347137 31.590557,389.273102 
    C25.024572,387.413147 23.120859,383.896057 24.911058,377.259613 
    C26.296831,372.122437 27.805876,367.018524 29.389046,361.514954 
  M305.426727,479.556000 
    C303.867310,475.787109 304.838379,472.596222 308.026733,470.292908 
    C311.282593,467.940826 314.620361,468.452881 317.701111,470.896240 
    C332.573975,482.691833 347.982452,493.892975 359.614716,509.243439 
    C364.413879,515.576660 371.180389,517.081177 378.424072,515.474365 
    C385.277344,513.954224 390.265137,509.668488 392.768311,502.811829 
    C393.752533,500.115967 393.687775,497.795380 392.146851,495.241547 
    C389.103760,490.198151 385.283691,485.840759 381.228912,481.631500 
    C368.481506,468.398621 354.584656,456.472443 340.082703,445.222443 
    C335.362488,441.560638 334.422241,436.979095 337.455505,433.161774 
    C340.149414,429.771667 345.241058,429.423798 349.551971,432.806305 
    C369.234253,448.249939 388.696259,463.941528 403.602142,484.401459 
    C405.765167,487.370422 408.795410,489.097626 412.406372,489.591064 
    C420.213684,490.657928 429.774475,484.174500 434.313629,474.859955 
    C437.602020,468.112061 436.284363,463.220764 429.306580,456.360840 
    C428.118713,455.193024 426.886902,454.069489 425.665710,452.935974 
    C407.564453,436.134399 388.016510,421.087799 368.591888,405.891632 
    C363.868469,402.196411 362.802277,397.780365 365.683167,393.841400 
    C368.461761,390.042297 373.372437,389.801025 378.074951,393.458832 
    C392.410248,404.609467 406.729340,415.775452 420.605591,427.508545 
    C430.386475,435.778748 439.439209,444.959930 450.491577,451.684082 
    C455.219452,454.560547 459.918030,454.578003 464.756287,452.281128 
    C480.089020,445.002014 482.312714,428.353088 469.225250,417.450592 
    C419.549225,376.068146 369.698730,334.894348 320.166504,293.340851 
    C311.002014,285.652588 301.911285,284.981110 291.505737,289.464844 
    C277.681244,295.421814 266.509033,305.234711 254.641586,314.107452 
    C239.948120,325.093079 223.719681,332.493347 204.903107,332.291351 
    C187.333435,332.102722 177.565720,318.560028 178.544617,305.870544 
    C179.145355,298.083038 181.018311,290.772675 183.986740,283.707764 
    C191.095810,266.788116 201.836227,252.173294 213.381241,238.083359 
    C215.076019,236.014999 217.623367,234.403000 217.962769,231.584763 
    C216.913528,230.442917 215.934357,230.337677 214.921509,230.533737 
    C196.404449,234.118317 177.720947,235.307953 158.902893,234.289993 
    C156.031876,234.134674 154.720673,235.160095 153.989777,237.905609 
    C151.465332,247.388550 148.745941,256.819702 146.086761,266.266632 
    C135.768478,302.923309 125.404259,339.567078 115.157516,376.243713 
    C113.122185,383.528870 113.336220,383.548492 120.612251,385.486084 
    C136.116867,389.614960 149.896561,396.498749 159.523254,409.986938 
    C159.859344,410.457886 160.535370,410.686218 161.162994,411.100220 
    C170.685013,401.622986 181.597580,396.560150 194.758194,401.238007 
    C207.957672,405.929688 214.348267,415.910400 213.634827,430.855286 
    C226.033264,425.102386 237.579773,422.797058 249.085419,430.446259 
    C260.755829,438.204987 262.864105,449.615082 260.889252,462.134583 
    C263.019348,462.811554 264.292175,462.468262 265.613373,462.218964 
    C280.123871,459.481140 297.081818,472.881683 297.148651,487.752136 
    C297.172729,493.107391 299.075439,494.648315 303.864868,495.755829 
    C316.532135,498.684845 324.836853,511.388733 321.644287,523.351013 
    C320.183624,528.823975 321.950653,532.257629 325.500061,535.608704 
    C328.052002,538.018005 330.798035,540.172607 334.011322,541.671631 
    C337.656891,543.372437 341.083313,543.028381 344.408356,540.783447 
    C352.114471,535.580505 353.540161,530.154480 349.043274,522.037354 
    C347.679718,519.575989 346.032196,517.216980 344.201477,515.079468 
    C338.113525,507.971313 331.109497,501.826111 323.953888,495.803650 
    C317.854248,490.669952 310.872681,486.550781 305.426727,479.556000 
  M218.545273,257.017792 
    C216.226868,260.274017 213.775726,263.444824 211.614090,266.801971 
    C204.129211,278.426514 196.461548,289.981628 193.967758,303.981445 
    C192.856857,310.217987 196.676147,315.798065 202.997299,316.564545 
    C206.938660,317.042450 210.944214,317.012787 214.912918,316.082947 
    C229.575989,312.647461 241.746826,304.784576 253.159103,295.300171 
    C263.561005,286.655426 274.584412,278.829742 287.525360,274.325592 
    C301.242157,269.551422 314.923065,268.778809 326.823761,278.541595 
    C355.800812,302.312988 384.436523,326.500305 413.232697,350.492554 
    C433.453827,367.340302 453.715942,384.138824 473.949127,400.972046 
    C475.786438,402.500610 477.281281,403.881195 479.986481,401.976471 
    C488.582123,395.924133 497.888245,391.025726 507.318909,386.437683 
    C511.485291,384.410736 512.178223,381.967621 511.019257,377.690552 
    C503.496552,349.929321 496.207123,322.104889 488.826050,294.305237 
    C483.834076,275.503784 478.767792,256.721802 473.858032,237.898972 
    C472.995789,234.593384 471.790100,233.246017 467.975891,233.882156 
    C455.081848,236.032669 442.067413,235.522354 429.155731,234.112717 
    C405.359436,231.514725 381.974426,226.495239 358.556305,221.635803 
    C333.041718,216.341339 307.584076,210.508575 281.211029,211.242508 
    C269.226196,211.576019 258.805359,215.232224 249.647705,223.000549 
    C238.007187,232.875061 228.244980,244.421783 218.545273,257.017792 
  M557.528198,277.890808 
    C551.003540,253.638031 544.380188,229.410980 538.048706,205.107880 
    C536.959229,200.926056 535.337097,200.273361 531.395691,201.387436 
    C517.950073,205.187897 504.413177,208.667923 490.895111,212.209030 
    C483.848206,214.054993 483.854401,213.991409 485.677063,220.802811 
    C491.907104,244.084656 498.140778,267.365509 504.335815,290.656708 
    C512.752380,322.300018 521.173706,353.942200 529.479187,385.614716 
    C530.452148,389.325348 531.788696,390.795288 535.936584,389.610382 
    C549.845154,385.637177 563.819458,381.876617 577.847473,378.348389 
    C582.396423,377.204224 583.555786,375.513062 582.256470,370.758514 
    C573.883606,340.119385 565.836182,309.391327 557.528198,277.890808 
  M85.027321,388.183624 
    C94.606926,390.631775 93.324455,392.422089 96.492203,381.580994 
    C99.847015,370.099640 103.035561,358.569611 106.280846,347.056396 
    C117.865623,305.957458 129.429901,264.852753 141.035156,223.759583 
    C143.544739,214.873398 143.613892,214.872223 134.471817,212.273544 
    C122.644211,208.911484 110.808289,205.578674 98.973160,202.243179 
    C90.991562,199.993729 91.004272,200.005554 88.735565,208.082321 
    C82.355148,230.797134 75.961456,253.508240 69.572739,276.220734 
    C60.707039,307.739075 51.865669,339.264313 42.937717,370.765015 
    C42.034660,373.951263 42.016960,376.147156 45.871517,377.192749 
    C58.696999,380.671875 71.473991,384.329742 85.027321,388.183624 
  M245.349274,449.233612 
    C240.391754,441.073517 232.708023,438.504303 225.076080,443.312195 
    C213.005936,450.916107 203.839752,461.417816 197.651581,474.256714 
    C194.378204,481.048126 196.786545,488.133545 203.162506,492.032288 
    C209.092056,495.658051 214.823654,493.931885 219.880432,490.149323 
    C229.578506,482.894958 237.465225,473.921631 243.365067,463.327911 
    C245.650955,459.223358 247.047195,454.763153 245.349274,449.233612 
  M261.297729,520.840149 
    C266.008423,516.844177 270.374664,512.487427 274.199341,507.649567 
    C277.500336,503.474091 280.556610,499.108826 281.742340,493.731110 
    C283.127136,487.450500 280.097839,483.213348 275.484589,479.615387 
    C270.875061,476.020386 266.285492,477.065399 262.134430,480.128723 
    C252.903275,486.940948 245.437820,495.470886 240.178970,505.642151 
    C235.755783,514.197083 238.967743,521.250488 247.960571,524.782715 
    C253.179428,526.832581 256.866333,523.860718 261.297729,520.840149 
  M173.329437,458.979279 
    C183.457718,452.427307 191.433609,443.884857 196.581421,432.952942 
    C199.334808,427.105835 198.117935,421.944946 193.901947,418.473602 
    C188.835388,414.301941 183.093369,413.700745 177.868042,417.707184 
    C169.072067,424.451263 161.987625,432.791718 157.009567,442.771912 
    C154.509125,447.784912 155.325256,452.496368 159.144104,456.512482 
    C162.933380,460.497559 167.422638,461.927185 173.329437,458.979279 
  M305.520233,523.879395 
    C306.356140,522.219666 306.811005,520.486023 306.676178,518.603821 
    C306.255127,512.724487 299.352722,508.499969 294.871338,511.756592 
    C287.314941,517.247864 282.121887,524.804810 278.732605,533.402405 
    C277.117279,537.500061 278.786163,541.226074 282.697296,543.646973 
    C286.586914,546.054565 289.672516,544.394165 292.465149,541.640808 
    C297.574280,536.603577 302.080170,531.102905 305.520233,523.879395 
  z"/>
  <path d="
  M198.264465,143.735687 
    C192.929153,138.464828 187.795212,133.491882 182.776901,128.404861 
    C178.972076,124.547920 178.507019,119.132347 181.520676,115.916237 
    C184.649323,112.577438 189.681870,112.844528 193.834747,116.885742 
    C208.364578,131.024841 222.846542,145.213638 237.271484,159.459702 
    C241.803375,163.935394 242.183319,168.538773 238.672852,172.151688 
    C235.321808,175.600525 230.504028,175.173523 225.983490,170.802994 
    C216.783859,161.908661 207.666687,152.929047 198.264465,143.735687 
  z"/>
  <path d="
  M410.403076,158.402557 
    C406.184509,162.685776 402.319916,166.828491 398.219818,170.723206 
    C394.452606,174.301697 389.801910,174.244354 386.682861,170.908752 
    C383.703400,167.722427 383.791412,162.667435 387.159821,159.217361 
    C401.574158,144.453552 416.001648,129.701630 430.543854,115.064133 
    C435.551147,110.024094 442.265930,110.713638 444.599121,116.244499 
    C446.313232,120.307861 444.929047,123.643211 441.962677,126.617592 
    C431.502686,137.105865 421.086945,147.638275 410.403076,158.402557 
  z"/>
  <path d="
  M285.038025,113.157928 
    C287.010254,120.433807 288.948181,127.300507 290.697754,134.214859 
    C292.022278,139.449463 290.057861,143.181000 285.578552,144.470337 
    C280.787506,145.849411 277.034332,143.682281 275.519226,138.289200 
    C269.997833,118.635864 264.527893,98.967613 259.157379,79.272583 
    C257.282684,72.397499 259.906555,67.765778 265.590637,67.257759 
    C270.020355,66.861855 272.858673,69.183945 274.301208,74.393562 
    C277.843109,87.185059 281.382385,99.977295 285.038025,113.157928 
  z"/>
  <path d="
  M351.939087,68.869980 
    C355.494720,66.126244 359.033630,65.764336 362.426178,68.006409 
    C366.338074,70.591705 365.822540,74.713951 364.903168,78.432358 
    C361.354279,92.785728 357.576569,107.082649 353.861084,121.394615 
    C352.358948,127.180771 350.921417,132.988220 349.224152,138.717758 
    C347.856995,143.332901 344.182434,145.265244 339.513245,144.206497 
    C335.655823,143.331802 332.786652,139.689316 333.861572,135.510269 
    C339.526093,113.487015 344.630249,91.311028 351.376678,69.575005 
    C351.423401,69.424461 351.566162,69.303719 351.939087,68.869980 
  z"/></g>
  </symbol>
  <symbol viewBox="0 0 622 623">
  <g id="cycle"><path d="
  M431.000000,624.000000 
    C287.333374,624.000000 144.166718,624.000000 1.000058,624.000000 
    C1.000038,416.333405 1.000038,208.666794 1.000019,1.000141 
    C208.333237,1.000094 415.666473,1.000094 622.999756,1.000047 
    C622.999878,208.666519 622.999878,416.333038 622.999939,623.999756 
    C559.166687,624.000000 495.333344,624.000000 431.000000,624.000000 
  M252.043900,443.522522 
    C198.974960,418.899353 171.648575,365.912628 170.625534,327.772522 
    C192.853683,327.772522 215.074417,327.772522 238.507797,327.772522 
    C204.422852,292.315765 171.140091,257.693451 137.738724,222.947754 
    C104.255096,257.796143 71.051636,292.352936 37.848175,326.909729 
    C38.083591,327.331970 38.319012,327.754211 38.554428,328.176453 
    C60.931538,328.176453 83.308640,328.176453 105.624321,328.176453 
    C112.902573,422.324036 180.037262,495.588196 265.544220,515.504150 
    C345.086487,534.030884 421.629395,502.033051 460.378357,457.997559 
    C445.824982,442.809662 431.331543,427.684296 416.943024,412.668427 
    C368.385162,457.388336 314.100067,469.380920 252.043900,443.522522 
  M250.680984,184.128815 
    C347.889374,138.842117 447.804413,209.274902 454.631470,298.425659 
    C432.260406,298.425659 409.928864,298.425659 386.434723,298.425659 
    C420.537811,333.875183 453.741760,368.390076 487.274506,403.246704 
    C520.812500,368.351135 553.937012,333.885834 588.179504,298.257294 
    C564.229492,298.257294 541.877808,298.257294 520.274780,298.257294 
    C507.030243,204.525650 458.314209,140.097168 367.044189,113.972610 
    C292.683319,92.688026 226.217102,112.462868 168.951630,163.347290 
    C184.370529,178.776825 199.261871,193.678436 213.386246,207.812576 
    C225.433105,200.130478 237.719788,192.295456 250.680984,184.128815 
  z" fill="none"/>
  <path d="
  M252.381927,443.694489 
    C314.100067,469.380920 368.385162,457.388336 416.943024,412.668427 
    C431.331543,427.684296 445.824982,442.809662 460.378357,457.997559 
    C421.629395,502.033051 345.086487,534.030884 265.544220,515.504150 
    C180.037262,495.588196 112.902573,422.324036 105.624321,328.176453 
    C83.308640,328.176453 60.931538,328.176453 38.554428,328.176453 
    C38.319012,327.754211 38.083591,327.331970 37.848175,326.909729 
    C71.051636,292.352936 104.255096,257.796143 137.738724,222.947754 
    C171.140091,257.693451 204.422852,292.315765 238.507797,327.772522 
    C215.074417,327.772522 192.853683,327.772522 170.625534,327.772522 
    C171.648575,365.912628 198.974960,418.899353 252.381927,443.694489 
  z"/>
  <path d="
  M250.343719,184.294617 
    C237.719788,192.295456 225.433105,200.130478 213.386246,207.812576 
    C199.261871,193.678436 184.370529,178.776825 168.951630,163.347290 
    C226.217102,112.462868 292.683319,92.688026 367.044189,113.972610 
    C458.314209,140.097168 507.030243,204.525650 520.274780,298.257294 
    C541.877808,298.257294 564.229492,298.257294 588.179504,298.257294 
    C553.937012,333.885834 520.812500,368.351135 487.274506,403.246704 
    C453.741760,368.390076 420.537811,333.875183 386.434723,298.425659 
    C409.928864,298.425659 432.260406,298.425659 454.631470,298.425659 
    C447.804413,209.274902 347.889374,138.842117 250.343719,184.294617 
  z"/></g>
  </symbol>
  <symbol viewBox="0 0 47.395 47.395">
  <g id="time" fill="#fff" stroke="#fff" style="fill: var(--icon-color); stroke: var(--icon-color)" transform="translate(-0.303 -0.303)">
  <path d="M24,.8A23.2,23.2,0,1,0,47.2,24,23.2,23.2,0,0,0,24,.8ZM24,45.2A21.2,21.2,0,1,1,45.2,24,21.2,21.2,0,0,1,24,45.2Z"/><path d="M25,23.586v-8.46a1,1,0,0,0-2,0V24a1,1,0,0,0,.293.707l6.4,6.4A1,1,0,1,0,31.1,29.688Z"/><path d="M24,8.521a1,1,0,0,0,1-1V6a1,1,0,0,0-2,0V7.521a1,1,0,0,0,1,1Z"/><path d="M24,40.141a1,1,0,0,0-1,1v1.522a1,1,0,0,0,2,0V41.141a1,1,0,0,0-1-1Z"/><path d="M7.19,23.331H5.669a1,1,0,0,0,0,2H7.19a1,1,0,1,0,0-2Z"/><path d="M40.81,25.331h1.521a1,1,0,0,0,0-2H40.81a1,1,0,0,0,0,2Z"/></g>
  </symbol>
  <symbol viewBox="0 0 44.416 44.416">
  <g id="foundation" fill="#fff" stroke="#fff" stroke-width="0.5" style="fill: var(--icon-color); stroke: var(--icon-color)" transform="translate(-6.75 -6.75)"><circle cx="1.159" cy="1.159" r="1.159" transform="translate(11.558 32.094)"/><circle cx="1.159" cy="1.159" r="1.159" transform="translate(22.959 32.094)"/><circle cx="1.159" cy="1.159" r="1.159" transform="translate(11.558 44.583)"/><circle cx="1.159" cy="1.159" r="1.159" transform="translate(22.959 44.583)"/><circle cx="1.159" cy="1.159" r="1.159" transform="translate(32.638 32.094)"/><circle cx="1.159" cy="1.159" r="1.159" transform="translate(44.039 32.094)"/><circle cx="1.159" cy="1.159" r="1.159" transform="translate(32.638 44.583)"/><circle cx="1.159" cy="1.159" r="1.159" transform="translate(44.039 44.583)"/><circle cx="1.159" cy="1.159" r="1.159" transform="translate(22.098 11.014)"/><circle cx="1.159" cy="1.159" r="1.159" transform="translate(33.499 11.014)"/><circle cx="1.159" cy="1.159" r="1.159" transform="translate(22.098 23.504)"/><circle cx="1.159" cy="1.159" r="1.159" transform="translate(33.499 23.504)"/><path d="M19.553,39.09a3.232,3.232,0,0,0-3.223,3.223v3.724a.878.878,0,0,0,1.757,0V44.4H21.02v1.634a.878.878,0,0,0,1.757,0V42.313a3.232,3.232,0,0,0-3.223-3.223ZM18.087,42.6V42.27a1.467,1.467,0,1,1,2.934,0V42.6Z" transform="translate(-1.135 -3.905)"/><path d="M45.646,28.08h-6.6a5.208,5.208,0,0,0,1.335-3.513V12.27A5.27,5.27,0,0,0,35.106,7H22.81a5.27,5.27,0,0,0-5.27,5.27v12.3a5.208,5.208,0,0,0,1.335,3.513h-6.6A5.27,5.27,0,0,0,7,33.35v12.3a5.27,5.27,0,0,0,5.27,5.27h12.3a5.27,5.27,0,0,0,4.392-2.336,5.27,5.27,0,0,0,4.392,2.336h12.3a5.27,5.27,0,0,0,5.27-5.27V33.35A5.27,5.27,0,0,0,45.646,28.08ZM19.3,24.566V12.27A3.513,3.513,0,0,1,22.81,8.757h12.3A3.513,3.513,0,0,1,38.62,12.27v12.3a3.513,3.513,0,0,1-3.513,3.513H22.81A3.513,3.513,0,0,1,19.3,24.566Zm5.27,24.593H12.27a3.513,3.513,0,0,1-3.513-3.513V33.35a3.513,3.513,0,0,1,3.513-3.513h12.3A3.513,3.513,0,0,1,28.08,33.35v12.3A3.513,3.513,0,0,1,24.566,49.16ZM49.16,45.646a3.513,3.513,0,0,1-3.513,3.513H33.35a3.513,3.513,0,0,1-3.513-3.513V33.35a3.513,3.513,0,0,1,3.513-3.513h12.3A3.513,3.513,0,0,1,49.16,33.35Z"/><path d="M31.435,23.511a4.075,4.075,0,0,0,2.881-1.195.882.882,0,0,0-1.247-1.247,2.284,2.284,0,0,1-1.634.685,2.319,2.319,0,0,1,0-4.638,2.284,2.284,0,0,1,1.634.685.882.882,0,0,0,1.247-1.247,4.075,4.075,0,1,0-2.881,6.956Z" transform="translate(-2.477 -1.017)"/><path d="M44.153,39.27H41.878a.878.878,0,0,0,0,1.757v4.8a.878.878,0,0,0,0,1.757h2.292a2.512,2.512,0,0,0,1.88-4.154,2.512,2.512,0,0,0-1.9-4.154Zm.755,2.521a.755.755,0,0,1-.755.755h-.518v-1.52h.545a.755.755,0,0,1,.729.764Zm-.755,4.032h-.518V44.3h.545a.764.764,0,0,1,0,1.52Z" transform="translate(-4.137 -3.926)"/></g>
  </symbol>
  <symbol viewBox="0 0 122.88 122.88">
  <g id="inclusion" fill="#fff" style="fill: var(--icon-color)"><path d="M61.44,0A61.46,61.46,0,1,1,18,18,61.21,61.21,0,0,1,61.44,0Zm-.39,74.18L52.1,98.91a4.94,4.94,0,0,1-2.58,2.83A5,5,0,0,1,42.7,95.5l6.24-17.28a26.3,26.3,0,0,0,1.17-4,40.64,40.64,0,0,0,.54-4.18c.24-2.53.41-5.27.54-7.9s.22-5.18.29-7.29c.09-2.63-.62-2.8-2.73-3.3l-.44-.1-18-3.39A5,5,0,0,1,27.08,46a5,5,0,0,1,5.05-7.74l19.34,3.63c.77.07,1.52.16,2.31.25a57.64,57.64,0,0,0,7.18.53A81.13,81.13,0,0,0,69.9,42c.9-.1,1.75-.21,2.6-.29l18.25-3.42A5,5,0,0,1,94.5,39a5,5,0,0,1,1.3,7,5,5,0,0,1-3.21,2.09L75.15,51.37c-.58.13-1.1.22-1.56.29-1.82.31-2.72.47-2.61,3.06.08,1.89.31,4.15.61,6.51.35,2.77.81,5.71,1.29,8.4.31,1.77.6,3.19,1,4.55s.79,2.75,1.39,4.42l6.11,16.9a5,5,0,0,1-6.82,6.24,4.94,4.94,0,0,1-2.58-2.83L63,74.23,62,72.4l-1,1.78Zm.39-53.52a8.83,8.83,0,1,1-6.24,2.59,8.79,8.79,0,0,1,6.24-2.59Zm36.35,4.43a51.42,51.42,0,1,0,15,36.35,51.27,51.27,0,0,0-15-36.35Z"/></g>
  </symbol>
  <symbol viewBox="0 0 65.67 29.124">
  <g id="arrow" fill="#89c33f" style="fill: var(--icon-color)" transform="translate(-481 -889.438)">
  <circle cx="2" cy="2" r="2" transform="translate(481 902)"/><circle cx="3" cy="3" r="3" transform="translate(491 901)"/><circle cx="4" cy="4" r="4" transform="translate(502 900)"/><g transform="translate(495.056 -86.801)"><path d="M51.6,990.539a2.788,2.788,0,0,0-.662-1.55L40.907,977.283a2.787,2.787,0,1,0-4.233,3.623l8.483,9.894-8.483,9.894a2.787,2.787,0,1,0,4.233,3.623L50.94,992.612a2.787,2.787,0,0,0,.662-2.073Z"/></g><circle cx="5" cy="5" r="5" transform="translate(516 899)"/>
  </g>
  </symbol>
  <symbol viewBox="0 0 512 512">
  <g id="banks"><path fill="currentColor" d="M493.6,493.6v-32.7h-16.4v-49.1h-16.4V215.5h16.4v-49.1h16.4v-54.3L256,2L18.4,112.1v54.3h16.4v49.1h16.4v196.3  H34.8v49.1H18.4v32.7H2V510h508v-16.4H493.6z M460.8,199.2h-81.9v-32.7h81.9V199.2z M297,411.8V215.5h16.4v-49.1h49.2v49.1H379  v196.3h-16.4v49.1h-49.2v-49.1H297z M133.1,411.8V215.5h16.4v-49.1h49.2v49.1H215v196.3h-16.4v49.1h-49.2v-49.1H133.1z M51.2,199.2  v-32.7h81.9v32.7H51.2z M116.7,215.5v196.3H67.5V215.5H116.7z M215,428.2h82v32.7h-82V428.2z M231.4,411.8V215.5h49.2v196.3H231.4z   M215,199.2v-32.7h82v32.7H215z M378.9,428.2h81.9v32.7h-81.9V428.2z M395.3,411.8V215.5h49.2v196.3H395.3z M34.8,150.1v-27.5  L256,20l221.2,102.5V150H34.8V150.1z M51.2,428.2h81.9v32.7H51.2V428.2z M477.2,493.6H34.8v-16.4h442.5L477.2,493.6L477.2,493.6z"/>
  <path fill="currentColor" d="M256,51.9c-22.6,0-41,18.3-41,40.9s18.4,40.9,41,40.9s41-18.3,41-40.9S278.6,51.9,256,51.9z M256,117.4  c-13.6,0-24.6-11-24.6-24.5s11-24.5,24.6-24.5s24.6,11,24.6,24.5S269.6,117.4,256,117.4z"/>
  <path d="M18.2,150.1v16.3h16.4v49.1H51v196.3H34.6v49.1H18.2v0.7l0,0l0.6,16.4h475v-16.4l-0.4,15.6v-16.3h-16.4v-49.1  h-16.4V215.5h16.4v-49.1h16.4v-16.3 M460.6,199.2h-81.9v-32.7h81.9V199.2z M296.9,411.8V215.5h16.4v-49.1h49.2v49.1h16.4v196.3  h-16.4v49.1h-49.2v-49.1H296.9z M132.9,411.8V215.5h16.4v-49.1h49.2v49.1h16.3v196.3h-16.4v49.1h-49.2v-49.1H132.9z M51,199.2v-32.7  h81.9v32.7H51z M116.5,215.5v196.3H67.3V215.5H116.5z M214.8,428.2h82v32.7h-82V428.2z M231.2,411.8V215.5h49.2v196.3H231.2z   M214.8,199.2v-32.7h82v32.7H214.8z M378.8,428.2h81.9v32.7h-81.9V428.2z M395.1,411.8V215.5h49.2v196.3H395.1z M51,428.2h81.9v32.7  H51V428.2z M477.1,461.6H34.6v15.6h442.5L477.1,461.6L477.1,461.6z"/></g>
  </symbol>
  <symbol viewBox="0 0 100 100">
  <g id="downloads"><path d="M58.3,72.9l-5.5,5.4V54.5c0-1.5-1-2.4-2.5-2.4c-1.5,0-2.5,0.9-2.5,2.4v24L42,72.9c-1-1-2.5-1-3.5,0  c-1,1-1,2.4,0,3.4l9.9,9.7c0.5,0.5,1,0.7,1.8,0.7c0.4,0,0.7-0.1,1-0.2c0.3-0.1,0.5-0.3,0.8-0.6l9.9-9.7c1-1,1-2.4,0-3.4  C60.7,71.9,59.3,71.9,58.3,72.9z"/>
  <path fill="currentColor" d="M75.5,36.1c-1.1-11.1-10.4-19.6-22-19.6c-8.7,0-16.6,5.3-20.4,13.2c-1.1-0.2-1.8-0.2-2.7-0.2  c-10.4,0-19,8.4-19,18.6s8.5,18.6,19,18.6h6.6c1.5,0,2.5-0.9,2.5-2.4s-1-2.4-2.5-2.4h-6.6c-7.7,0-14-6.2-14-13.7s6.3-13.7,14-13.7  c0.8,0,1.2,0,1.7,0c0.7,0,1.3,0.1,1.8,0.3c0,0,0,0,0.1,0c1.3,0.4,2.8-0.3,3.2-1.5c2-7,8.6-11.8,16.2-11.8c9.6,0,17.2,7.5,17.2,16.9  c0,1.5,1,2.4,2.5,2.4c6,0,10.7,4.5,10.7,10.5s-4.6,10.5-10.7,10.5h-9.9c-1.5,0-2.5,0.9-2.5,2.4s1,2.4,2.5,2.4h9.9  c8.8,0,15.7-6.8,15.7-15.4C88.9,43.4,83.2,37.2,75.5,36.1z"/></g>
  </symbol>
  <symbol viewBox="0 0 100 100">
  <g id="extensions"><path d="M69.5,52.1l-9.1,9.1l2.9,2.9l-6.8,6.8l-12.8,1.5L39.1,77l-9.6-9.6l4.6-4.6L35.6,50l6.8-6.8l2.5,2.5l9.1-9.1  c1.3-1.3,3.4-1.3,4.7,0s1.3,3.4,0,4.7l-9.1,9.1l6.1,6.1l9.1-9.1c1.3-1.3,3.4-1.3,4.7,0C70.8,48.7,70.8,50.8,69.5,52.1z"/>
  <path fill="currentColor" d="M99,10.6H1c-0.5,0-1,0.4-1,1v76.8c0,0.5,0.4,1,1,1h98c0.5,0,1-0.4,1-1V11.6C100,11.1,99.6,10.6,99,10.6z   M71.2,14.5h10.2v9H71.2V14.5z M57.1,14.5h10.2v9H57.1V14.5z M3.9,14.5h49.3v9H3.9V14.5z M96.1,85.5H3.9V27.4h92.2V85.5z M96.1,23.5  H85.4v-9h10.7C96.1,14.5,96.1,23.5,96.1,23.5z M87.9,17.5l0.8-0.8l1.9,1.9l1.9-1.9l0.8,0.8l-1.9,1.9l1.9,1.9l-0.8,0.8l-1.9-1.9  l-1.9,1.9l-0.8-0.8l1.9-1.9L87.9,17.5z M58.9,18.8h6.6V20h-6.6C58.9,20,58.9,18.8,58.9,18.8z M87.9,21.3l1.9-1.9l-1.9-1.9l0.8-0.8  l1.9,1.9l1.9-1.9l0.8,0.8l-1.9,1.9l1.9,1.9l-0.8,0.8l-1.9-1.9l-1.9,1.9L87.9,21.3z M73.2,21.4h5.9v-4.7h-5.9V21.4z M74.4,17.8h3.5  v2.4h-3.5V17.8z"/></g>
  </symbol>
  <symbol viewBox="0 0 100 100">
  <g id="audits">
  <g fill="currentColor"><rect x="32" y="68" width="7" height="8"/><rect x="20" y="78" width="19" height="2"/><path d="M39,61H12.3c-1,0-1.3-0.2-1.3-1.2V25.9c0-1,0.3-0.9,1.3-0.9H39v-5H8.7C7.2,20,6,20.8,6,22.3v41   C6,64.8,7.2,66,8.7,66H39V61z"/></g>
  <g><path d="M62,39H51V28h11V39z M53,37h7v-7h-7V37z"/><rect x="65" y="30" width="21" height="2"/><rect x="65" y="34" width="18" height="2"/><path d="M62,56H51V45h11V56z M53,54h7v-7h-7V54z"/><rect x="65" y="49" width="16" height="2"/><rect x="65" y="53" width="19" height="2"/><path d="M62,73H51V62h11V73z M53,71h7v-7h-7V71z"/><rect x="65" y="64" width="17" height="2"/><rect x="65" y="45" width="20" height="2"/><rect x="65" y="68" width="11" height="2"/></g>
  <g fill="currentColor"><path d="M13,32.1V59h26v-9c0,0-8.5,4.7-14.1-2.8c-1.7-2.3-0.7-6.6-4.2-10.6C18.1,33.8,13,32.1,13,32.1z"/><path d="M90.7,16H79.4c0-1-0.8-2-1.9-2H61.4c-1,0-1.9,1-1.9,2H46.3c-1.6,0-3.3,1.1-3.3,2.6v62.7c0,1.5,1.7,2.7,3.3,2.7  h44.5c1.6,0,3.3-1.2,3.3-2.7V18.6C94,17.1,92.3,16,90.7,16z M75.6,16.8c0.5,0,0.9,0.4,0.9,0.9c0,0.5-0.4,0.9-0.9,0.9  s-0.9-0.4-0.9-0.9C74.6,17.3,75.1,16.8,75.6,16.8z M63.3,16.8c0.5,0,0.9,0.4,0.9,0.9c0,0.5-0.4,0.9-0.9,0.9s-0.9-0.4-0.9-0.9  C62.4,17.3,62.8,16.8,63.3,16.8z M90,79.3c0,0-0.2,0.7-1.2,0.7H48.2c-0.9,0-1.2-0.7-1.2-0.7V20.6c0-0.9,1.2-0.6,1.2-0.6h11.4  c0,1,0.8,2,1.9,2h16.1c1,0,1.9-1,1.9-2h9.5c0,0,1.2-0.3,1.2,0.6L90,79.3L90,79.3z"/></g>
  </g>
  </symbol>
</svg>