<svg xmlns="http://www.w3.org/2000/svg" width="638.075" height="399.29" viewBox="0 0 638.075 399.29">
<g transform="translate(-805.156 -160.994)">
<g transform="translate(964.266 160.994)">
<path d="M121.321,174.648a10.209,10.209,0,0,0,9.452,6.18,9.679,9.679,0,0,0,4.362-1.091,10.484,10.484,0,0,0,5.09-14.178s-19.995-45.806-23.63-62.528c-1.454-5.817-2.181-21.449-2.545-28.719a5.6,5.6,0,0,1,3.635-5.453L162.4,55.408c5.453-1.454,8.725-7.634,7.271-13.087s-7.634-8.725-13.087-7.271c0,0-41.443,13.451-56.348,13.451-14.541,0-55.621-13.087-55.621-13.087C39.162,33.96,32.982,36.5,31.164,41.958a10.513,10.513,0,0,0,7.271,13.451L83.15,68.859a5.166,5.166,0,0,1,3.635,5.453c-.364,7.271-1.091,22.9-2.545,28.719-3.635,16.723-23.63,62.528-23.63,62.528a10.792,10.792,0,0,0,5.09,14.178,9.68,9.68,0,0,0,4.362,1.091,9.858,9.858,0,0,0,9.452-6.18l21.449-43.624Z" transform="translate(42.634 53.289)" fill="rgba(255,255,255,0.95)"/>
<circle cx="20.358" cy="20.358" r="20.358" transform="translate(123.239 50.532)" fill="rgba(255,255,255,0.95)"/>
<path d="M297.694,154.1a143.6,143.6,0,1,0-143.6,143.6A143.668,143.668,0,0,0,297.694,154.1Zm-263.2,0A119.6,119.6,0,1,1,154.1,273.7,119.7,119.7,0,0,1,34.493,154.1Z" transform="translate(-10.5 -10.5)" fill="rgba(255,255,255,0.95)"/>
</g>
<g transform="translate(805.156 309.306)">
<g transform="translate(7.064 198.242)">
<path d="M2627.214,3154.481c32.041-.579,64.089-.419,96.132-.419h123.106c4.415,0,8.829-.052,13.243.027,4.551.083,9.117-.139,13.62,1.194,1.355.4,1.356,4.854,0,5.256-4.026,1.193-8.079,1.094-12.148,1.168-3.924.071-7.847.054-11.771.054h-72.1c-32.043,0-64.088.171-96.132-.015-17.983-.105-35.968-.079-53.951-.4C2624.915,3161.3,2624.911,3154.523,2627.214,3154.481Z" transform="translate(-2625.488 -3154.042)" fill="rgba(0,0,0,0.09)"/>
</g>
<g transform="translate(0 0)">
<g transform="translate(104.497 54.76)">
<path d="M3057.046,2332.653h57.5l6.323-34.521a2.66,2.66,0,0,0-2.613-3.137h-52.1a2.654,2.654,0,0,0-2.613,2.178Z" transform="translate(-3041.584 -2294.995)" fill="#5e6c84"/>
<path d="M3125.573,2343.648l5.886-32.143h-51.9l-5.884,32.143Z" transform="translate(-3054.908 -2308.747)" fill="#deebff"/>
<path d="M3139.777,2354.644l4.876-26.627h-46.289l-4.874,26.627Z" transform="translate(-3071.411 -2322.501)" fill="#b2d4ff"/>
<path d="M3094.985,2505.506v1.213h72.993v-2.758H3096.53A1.542,1.542,0,0,0,3094.985,2505.506Z" transform="translate(-3094.985 -2469.059)" fill="#97a0af"/>
<path d="M3094.985,2505.506v1.213h23.821v-2.758H3096.53A1.542,1.542,0,0,0,3094.985,2505.506Z" transform="translate(-3045.813 -2469.059)" fill="#5e6c84"/>
<g transform="translate(23.911 12.045)">
<g transform="translate(16.229)">
<path d="M3221.045,2379.6a7.742,7.742,0,0,0,7.309-6.21,5.369,5.369,0,0,0-1.087-4.469,5.214,5.214,0,0,0-4.087-1.808,7.742,7.742,0,0,0-7.308,6.211,5.371,5.371,0,0,0,1.087,4.469A5.213,5.213,0,0,0,3221.045,2379.6Zm2.134-12.106a4.837,4.837,0,0,1,3.794,1.672,4.993,4.993,0,0,1,1,4.157,7.345,7.345,0,0,1-6.932,5.895,4.839,4.839,0,0,1-3.794-1.672,4.994,4.994,0,0,1-1-4.156A7.346,7.346,0,0,1,3223.179,2367.491Z" transform="translate(-3215.773 -2367.109)" fill="#253858"/>
</g>
<g transform="translate(30.955 17.479)">
<path d="M3150.736,2472.457c.006-.078.013-.155.023-.232.005-.043.006-.048,0-.015,0-.024.007-.047.011-.071s.011-.07.019-.105c.017-.092.047-.182.072-.272h8.688l-.134.757h-8.683C3150.735,2472.5,3150.733,2472.477,3150.736,2472.457Z" transform="translate(-3150.733 -2471.761)" fill="#253858"/>
</g>
<path d="M3133.942,2470.012l.357-2.026-1.8,1.013Z" transform="translate(-3091.483 -2451.138)" fill="#253858"/>
<path d="M3242.252,2391.7l1.132-6.418-5.708,3.209Z" transform="translate(-3218.135 -2382.247)" fill="#253858"/>
<path d="M3205.9,2471.761l-.134.757h30.445l.134-.757Z" transform="translate(-3205.766 -2454.282)" fill="#fff"/>
<path d="M3201.445,2470.156a.637.637,0,0,0-.643-.781.972.972,0,0,0-.919.781.637.637,0,0,0,.644.781A.972.972,0,0,0,3201.445,2470.156Z" transform="translate(-3169.893 -2452.294)" fill="#253858"/>
</g>
</g>
<g transform="translate(58.406 92.241)">
<g transform="translate(162.487 7.077)">
<path d="M2734.564,2565.2l10.542,101.006h6.24l-10.6-101.647a3.105,3.105,0,0,0-6.178.641Z" transform="translate(-2734.547 -2561.772)" fill="#42526e"/>
</g>
<path d="M2758.108,2569.885a4.407,4.407,0,0,0,3.013,1.179h1.634v9.99h169.262v-11.169Z" transform="translate(-2756.667 -2561.453)" fill="#5e6c84"/>
<path id="Path_490" data-name="Path 490" d="M2721.7,2523.854v.7a4.464,4.464,0,0,0,4.454,4.454h172.53a4.39,4.39,0,0,0,3.007-1.179,4.435,4.435,0,0,0,1.441-3.275v-.7a4.451,4.451,0,0,0-4.448-4.454h-172.53A4.452,4.452,0,0,0,2721.7,2523.854Z" transform="translate(-2721.7 -2519.4)" fill="#2684ff"/></g><g id="Group_669" data-name="Group 669" transform="translate(58.406 92.241)"><path id="Path_491" data-name="Path 491" d="M2730.327,2569.885v11.169h169.262v-9.99h1.635a4.389,4.389,0,0,0,3.006-1.179Z" transform="translate(-2724.239 -2561.453)" fill="#5e6c84"/><path id="Path_492" data-name="Path 492" d="M2721.7,2523.854v.7a4.464,4.464,0,0,0,4.454,4.454h172.53a4.39,4.39,0,0,0,3.007-1.179,4.435,4.435,0,0,0,1.441-3.275v-.7a4.451,4.451,0,0,0-4.448-4.454h-172.53A4.452,4.452,0,0,0,2721.7,2523.854Z" transform="translate(-2721.7 -2519.4)" fill="#253858"/></g><g id="Group_672" data-name="Group 672" transform="translate(185.841 71.336)"><g id="Group_671" data-name="Group 671"><g id="Group_670" data-name="Group 670"><rect id="Rectangle_312" data-name="Rectangle 312" width="35.234" height="7.047" rx="3.524" transform="translate(1.407 7.017)" fill="#172b4d"/><path id="Path_493" data-name="Path 493" d="M2843.116,2481.955a1.767,1.767,0,0,0,1.767,1.767h29.628a.871.871,0,1,1,0,1.741h-31.369a1.767,1.767,0,0,1-1.768-1.767v-3.483a1.767,1.767,0,0,1,1.768-1.767h31.369a.87.87,0,1,1,0,1.741h-29.628A1.767,1.767,0,0,0,2843.116,2481.955Z" transform="translate(-2841.374 -2464.382)" fill="#0065ff"/><path id="Path_494" data-name="Path 494" d="M2876.035,2490.595a5.636,5.636,0,0,0,.245,1.776H2844.4v-3.552h31.876A5.637,5.637,0,0,0,2876.035,2490.595Z" transform="translate(-2842.778 -2473.022)" fill="#fff"/><path id="Path_495" data-name="Path 495" d="M2883.815,2493.467a66.214,66.214,0,0,0-6.833-.039l-7,.006-6.833.007c-2.316,0-4.688-.13-7,.079a.049.049,0,0,0,0,.1c2.254.2,4.571.077,6.833.079l7,.007,6.833.007a67.927,67.927,0,0,0,7-.04A.1.1,0,0,0,2883.815,2493.467Z" transform="translate(-2852.368 -2476.797)" fill="#d9d9d9"/><path id="Path_496" data-name="Path 496" d="M2881.2,2502.167c-2.022-.177-4.074-.1-6.1-.1a43.806,43.806,0,0,0-5.8.1.067.067,0,0,0,0,.128,43.93,43.93,0,0,0,5.8.105c2.028,0,4.08.082,6.1-.1A.074.074,0,0,0,2881.2,2502.167Z" transform="translate(-2851.916 -2484.024)" fill="#d9d9d9"/><path id="Path_497" data-name="Path 497" d="M2865.216,2397.747a1.768,1.768,0,0,0-1.767-1.767h-29.628a.871.871,0,0,1,0-1.741h31.37a1.768,1.768,0,0,1,1.768,1.768v3.482a1.767,1.767,0,0,1-1.768,1.767h-31.37a.87.87,0,1,1,0-1.741h29.628A1.768,1.768,0,0,0,2865.216,2397.747Z" transform="translate(-2831.543 -2394.239)" fill="#36b37e"/><path id="Path_498" data-name="Path 498" d="M2842.928,2406.388a5.642,5.642,0,0,0-.245-1.776h31.876v3.552h-31.876A5.642,5.642,0,0,0,2842.928,2406.388Z" transform="translate(-2840.77 -2402.879)" fill="#fff"/><path id="Path_499" data-name="Path 499" d="M2855.457,2419.04a66.362,66.362,0,0,0,6.833.04l7-.007,6.833-.007c2.316,0,4.689.129,7-.079a.05.05,0,0,0,0-.1c-2.253-.2-4.571-.077-6.833-.079l-7-.007-6.833-.007a68,68,0,0,0-7,.04A.1.1,0,0,0,2855.457,2419.04Z" transform="translate(-2851.488 -2414.628)" fill="#d9d9d9"/><path id="Path_500" data-name="Path 500" d="M2853.574,2410.238c1.965.065,3.941.01,5.908.01a36.478,36.478,0,0,0,5.6-.095.032.032,0,0,0,0-.061,36.447,36.447,0,0,0-5.6-.1c-1.967,0-3.942-.055-5.908.01A.116.116,0,0,0,2853.574,2410.238Z" transform="translate(-2833.113 -2407.312)" fill="#d9d9d9"/><path id="Path_501" data-name="Path 501" d="M2936.787,2410.4c2.022.177,4.074.1,6.1.1a43.786,43.786,0,0,0,5.8-.105.067.067,0,0,0,0-.128,43.745,43.745,0,0,0-5.8-.1c-2.029,0-4.081-.082-6.1.1A.074.074,0,0,0,2936.787,2410.4Z" transform="translate(-2930.653 -2407.463)" fill="#d9d9d9"/></g></g></g><g id="Group_678" data-name="Group 678"><path id="Path_502" data-name="Path 502" d="M3360.559,2275.234c5.583,4.906,10.842,32.038,10.842,32.038,6.489,1.08,22.033,2.723,22.033,2.723,9.429-1,13.771,3.442,13.771,3.442l-13.12.2a137.673,137.673,0,0,1-29.456,2.444c-1.406-.058-3.482-5.409-3.482-5.409C3353.874,2287.08,3360.559,2275.234,3360.559,2275.234Z" transform="translate(-3273.604 -2223.775)" fill="#ffb69e"/><path id="Path_503" data-name="Path 503" d="M3477.476,3038.43h-9.954l8.621-4.976a.761.761,0,0,0-.761-1.318l-8.826,5.1,4.692-9.048a.761.761,0,0,0-1.351-.7l-4.454,8.589V3026.4a.761.761,0,0,0-1.522,0v9.955l-4.978-8.621a.761.761,0,0,0-1.318.761l5.1,8.826-9.047-4.692a.761.761,0,0,0-.7,1.351l8.588,4.453h-9.675a.761.761,0,0,0,0,1.522h9.956l-8.622,4.977a.761.761,0,0,0,.381,1.42.753.753,0,0,0,.379-.1l8.827-5.1-4.692,9.047a.761.761,0,1,0,1.351.7l4.454-8.588v9.675a.761.761,0,0,0,1.522,0v-9.955l4.977,8.621a.761.761,0,1,0,1.318-.761l-5.1-8.826,9.047,4.692a.761.761,0,0,0,.7-1.351l-8.589-4.454h9.676a.761.761,0,0,0,0-1.522Z" transform="translate(-3360.231 -2848.842)" fill="#c1c7d0"/><g id="Group_673" data-name="Group 673" transform="translate(89.862 175.835)"><path id="Path_504" data-name="Path 504" d="M3459.53,3049.065a14.588,14.588,0,1,0-14.588-14.588A14.6,14.6,0,0,0,3459.53,3049.065Zm0-25.589a11,11,0,1,1-11,11A11.013,11.013,0,0,1,3459.53,3023.476Z" transform="translate(-3444.942 -3019.889)" fill="#262d4f"/></g><path id="Path_505" data-name="Path 505" d="M3285.244,2887.152l5.548,19.864-7.206,2.943-9.228-17.665Z" transform="translate(-3143.262 -2733.487)" fill="#f68a73"/><g id="Group_674" data-name="Group 674" transform="translate(136.954 167.055)"><path id="Path_506" data-name="Path 506" d="M3207.746,2973.955c.441,2.1-1.86,2.8-3.445,3.171l-5.994,1.391-7.258,1.684c-1.778.412-5.332,1.884-7.007.89-2.044-1.214-1.846-5.51-2.22-7.553a2.072,2.072,0,0,1-.048-.7c.444-2.8,4.524.512,5.7-.771a.583.583,0,0,0,.083-.5,5.107,5.107,0,0,1-.319-1.993c.178-.742.929-1.069,1.6-1.3.649-.223,1.3-.445,1.958-.661.931-.324,2.126-.556,2.78.29a9.1,9.1,0,0,1,.632,1.444,1.39,1.39,0,0,0,.24.375,2.16,2.16,0,0,0,.8.515c.03.011.07.028.1.04.228.091.455.182.692.271a13.3,13.3,0,0,0,1.277.431c.228.055.448.111.681.147a4.914,4.914,0,0,0,1.211.07.059.059,0,0,0,.037,0,6.162,6.162,0,0,0,1.244-.253,11.314,11.314,0,0,1,2.925-.751,4.312,4.312,0,0,1,3.608,1.958A4.923,4.923,0,0,1,3207.746,2973.955Z" transform="translate(-3181.76 -2967.324)" fill="#00212f"/><path id="Path_507" data-name="Path 507" d="M3263.7,2980.351c-1.661,1.9-4.455,3.531-6.533,3.4-.21-.014-.373-.327-.173-.472,1.074-.833,2.433-1.248,3.577-2.007a14.053,14.053,0,0,0,2.086-1.813,1.414,1.414,0,0,0,.24.375A2.155,2.155,0,0,0,3263.7,2980.351Z" transform="translate(-3250.212 -2977.434)" fill="#fff"/><path id="Path_508" data-name="Path 508" d="M3249.333,2987.082a12.581,12.581,0,0,1-.971,1.276c-.877,1.021-1.99,2.3-3.346,2.654a.409.409,0,0,1-.429-.61,28.472,28.472,0,0,1,2.623-2.675c.306-.349.573-.707.847-1.076A13.09,13.09,0,0,0,3249.333,2987.082Z" transform="translate(-3233.775 -2983.422)" fill="#fff"/></g><path id="Path_509" data-name="Path 509" d="M3277.561,2554.278s-2.981,19.66,9.54,22.269c13.117,2.733,52.268-1.886,52.268-1.886l18.448,45.159s9.164.1,14.854-4.957c0,0-9.464-56.934-17.491-60.215-12.882-5.265-47.863-1.955-47.863-1.955Z" transform="translate(-3225.625 -2454.036)" fill="#222"/><path id="Path_510" data-name="Path 510" d="M3309.557,2897.371l5.548,19.864-7.206,2.943-9.228-17.665Z" transform="translate(-3171.636 -2742)" fill="#ffb69e"/><g id="Group_675" data-name="Group 675" transform="translate(132.893 168.762)"><path id="Path_511" data-name="Path 511" d="M3232.061,2984.175c.44,2.1-1.86,2.8-3.444,3.171l-5.994,1.39-7.258,1.684c-1.778.412-5.332,1.884-7.007.89-2.045-1.214-1.846-5.51-2.22-7.553a2.09,2.09,0,0,1-.048-.7c.444-2.8,4.525.511,5.7-.772a.581.581,0,0,0,.083-.5,5.106,5.106,0,0,1-.319-1.993c.178-.742.929-1.069,1.6-1.3.649-.222,1.3-.444,1.958-.661.931-.323,2.126-.556,2.78.29a9.131,9.131,0,0,1,.631,1.444,1.426,1.426,0,0,0,.24.376,2.162,2.162,0,0,0,.8.515l.1.04c.228.091.456.182.691.271a13.032,13.032,0,0,0,1.277.432c.229.055.448.111.681.147a4.977,4.977,0,0,0,1.211.069.055.055,0,0,0,.036,0,6.117,6.117,0,0,0,1.244-.253,11.311,11.311,0,0,1,2.925-.75,4.313,4.313,0,0,1,3.608,1.957A4.918,4.918,0,0,1,3232.061,2984.175Z" transform="translate(-3206.074 -2977.544)" fill="#003349"/><path id="Path_512" data-name="Path 512" d="M3288.015,2990.571c-1.661,1.9-4.454,3.531-6.533,3.4-.21-.014-.372-.327-.172-.472,1.074-.833,2.433-1.247,3.578-2.007a14.134,14.134,0,0,0,2.086-1.813,1.4,1.4,0,0,0,.24.375A2.155,2.155,0,0,0,3288.015,2990.571Z" transform="translate(-3274.525 -2987.654)" fill="#fff"/><path id="Path_513" data-name="Path 513" d="M3273.646,2997.3a12.6,12.6,0,0,1-.971,1.277c-.877,1.021-1.99,2.3-3.346,2.654a.409.409,0,0,1-.429-.61,28.47,28.47,0,0,1,2.623-2.675c.306-.349.573-.708.846-1.076A12.816,12.816,0,0,0,3273.646,2997.3Z" transform="translate(-3258.088 -2993.643)" fill="#fff"/></g><path id="Path_514" data-name="Path 514" d="M3308.8,2566.531s-4.777,21.164,7.744,23.772c13.117,2.733,55.51-1.207,55.51-1.207l13.964,44.027s8.21.113,13.9-4.945c0,0-7.966-57.777-15.87-60.938s-47.116-2.782-47.116-2.782Z" transform="translate(-3257.998 -2464.679)" fill="#333"/><rect id="Rectangle_313" data-name="Rectangle 313" width="59.721" height="19.031" transform="translate(45.379 125.239)" fill="#505f79"/><path id="Path_515" data-name="Path 515" d="M3241.972,2982.236a2.7,2.7,0,0,0-3.232-1.9c-5.007,1.081-9.939,2.612-14.875,3.973l-7.333,2.022a43.67,43.67,0,0,1-5.128,1.261,31.013,31.013,0,0,0-10.964-11.689,32.838,32.838,0,0,0-8.031-3.631,28.555,28.555,0,0,0-4.455-.9c-1.48-.194-3.227-.353-4.494.566a1.344,1.344,0,0,0-.3,2.078,8.159,8.159,0,0,0,3.895,1.486,35.58,35.58,0,0,1,3.936,1.135,27.835,27.835,0,0,1,6.733,3.491,28.387,28.387,0,0,1,9.684,11.678,2.678,2.678,0,0,0,2.339,1.392,29.646,29.646,0,0,0,7.446-1.353l7.7-2.1c5.06-1.381,10.205-2.606,15.181-4.271A2.719,2.719,0,0,0,3241.972,2982.236Z" transform="translate(-3079.23 -2803.51)" fill="#344563"/><path id="Path_516" data-name="Path 516" d="M3907.591,2363.708c-.4-4.089-1.618-8.277-4.968-10.935-3.383-2.684-7.785-3.78-11.861-4.962a76.739,76.739,0,0,0-7.571-1.865c-1.487-.271-6.992-1.625-6.5,1.331.182,1.091,1.52,1.518,2.418,1.858,1,.378,2.01.722,3.027,1.052,2.083.677,4.184,1.3,6.27,1.963,2,.636,3.99,1.309,5.96,2.033a20.794,20.794,0,0,1,4.407,2.14.571.571,0,0,0,.118.072c.042.036.089.075.162.135.148.123.3.245.438.374a8.246,8.246,0,0,1,.755.766c.029.046.217.3.245.335q.16.233.307.473a6.559,6.559,0,0,1,.529,1.017,16.031,16.031,0,0,1,.684,2.316q.059.282.11.567c.01.056.016.09.021.113.005.052.012.111.022.192.055.485.11.969.148,1.456.316,4.085.244,8.223.338,12.318.057,2.448.076,4.9.23,7.345.082,1.288.238,2.568.38,3.849a7.6,7.6,0,0,0,.758,3.431,8.531,8.531,0,0,0,.324,1.313,14.775,14.775,0,0,1,.623,1.475.75.75,0,0,0,1.436-.036,15.248,15.248,0,0,1,.561-1.505,8.8,8.8,0,0,0,.266-1.311,7.165,7.165,0,0,0,.6-3.3c.083-1.227.179-2.451.217-3.681.072-2.326-.014-4.656-.06-6.982C3907.9,2372.621,3908.024,2368.123,3907.591,2363.708Z" transform="translate(-3861.142 -2282.222)" fill="#344563"/><g id="Group_676" data-name="Group 676" transform="translate(50.807)"><path id="Path_517" data-name="Path 517" d="M3567.834,2292.592l-.358,2.685a47.858,47.858,0,0,0,6.981-.035c6.538-.534,6.254-1.552,6.254-1.552-4.459-23.556-7.995-26.506-7.995-26.506-5.939,6.1-5.23,20.949-4.953,24.588C3567.805,2292.3,3567.834,2292.592,3567.834,2292.592Z" transform="translate(-3532.948 -2217.069)" fill="#0e5477"/><path id="Path_518" data-name="Path 518" d="M3641.907,2000.765c2.237,1.792,6.048,4.132,6.657,1.819.115-.436-.041-.948.218-1.316a1.423,1.423,0,0,1,1.155-.409,21.564,21.564,0,0,0,7.537-1.532,12.058,12.058,0,0,0,5.794-4.916c1.126-1.968,1.965-4.54,1.314-6.745a13.445,13.445,0,0,0-3.172-5.817,10.665,10.665,0,0,0-3.937-2.4,41.531,41.531,0,0,0-5.274-1.471,5.644,5.644,0,0,0,1.514-6.881,7.106,7.106,0,0,0-2.438-2.556,7.557,7.557,0,0,0-6.58-1.033,6.636,6.636,0,0,0-4.14,6.117,8.06,8.06,0,0,0,3.68,6.584c-.757-.5-3.053,1.5-3.486,1.986a11.521,11.521,0,0,0-2.207,3.605,15.213,15.213,0,0,0-.6,7.188,13.782,13.782,0,0,0,2.409,6.342A10.584,10.584,0,0,0,3641.907,2000.765Z" transform="translate(-3628.787 -1967.141)" fill="#1c2139"/><path id="Path_519" data-name="Path 519" d="M3667.781,2224.743a26.852,26.852,0,0,1-1.417,7.405,18.521,18.521,0,0,1-6.607,9.065,8.931,8.931,0,0,1-5.313,1.852,8.374,8.374,0,0,1-3.112-.8,12.052,12.052,0,0,1-6.115-5.979c-1.337-3.025-1.224-6.481-.8-9.761.334-2.537.841-5.151.188-7.626-.594-2.249-2.079-4.14-3.187-6.184a19.91,19.91,0,0,1-2.377-9.022c-.053-2.8,1.591-3.653,3.9-4.5l6.362-2.349a2,2,0,0,0,1.068-1.466l.36-2.413.46-3.006,7.939-.346.028,2.161.049,3.207.011.589a2,2,0,0,0,.961,1.662c3.13,1.862,6.08,2.99,7.541,6.661a7.619,7.619,0,0,1,.368,3.244c-.125,2.212-.558,4.4-.639,6.619-.092,2.387.228,4.767.342,7.15A36.871,36.871,0,0,1,3667.781,2224.743Z" transform="translate(-3632.301 -2152.457)" fill="#ffb69e"/><path id="Path_520" data-name="Path 520" d="M3699.59,2205.761a8.559,8.559,0,0,1-7.222-2.921l7.174-.285Z" transform="translate(-3672.685 -2163.235)" fill="#f68a73"/><path id="Path_521" data-name="Path 521" d="M3650.476,2087.173c-.015.229-.018.472-.01.728a14.361,14.361,0,0,0,.4,3.042,15.175,15.175,0,0,0,2.739,6.1,8.039,8.039,0,0,0,6.93,3.028c6.292-.273,8.254-5.779,8.848-9.918.021-.139.03-.267.052-.406a23.477,23.477,0,0,0-.623-7.951c-1.542-3.923-8.135-4.309-8.135-4.309s-2.751,1.754-9.746,7.072A7.568,7.568,0,0,0,3650.476,2087.173Z" transform="translate(-3635.648 -2059.056)" fill="#ffb69e"/><path id="Path_522" data-name="Path 522" d="M3711.437,2155.758a.008.008,0,0,0,0,.015A.008.008,0,0,0,3711.437,2155.758Z" transform="translate(-3687.724 -2124.254)" fill="#594e8a"/><path id="Path_523" data-name="Path 523" d="M3693.159,2133.042a8.123,8.123,0,0,1-.207-1.07c-.056-.279-.233-.915-.519-.39a2.177,2.177,0,0,0,.114,1.488c.11.374.252.737.395,1.1.048.121.291.5.253.635-.1.363-.779.308-1.032.263-.42-.075-.468.6-.044.666.6.1,1.85-.127,1.757-.922A9.733,9.733,0,0,0,3693.159,2133.042Z" transform="translate(-3666.884 -2103.949)" fill="#f68a73"/><path id="Path_524" data-name="Path 524" d="M3759.518,2134.474s-1.777-2.458-2.762-1.385.084,6.439,3.616,6.158Z" transform="translate(-3744.163 -2105.146)" fill="#ffb69e"/><path id="Path_525" data-name="Path 525" d="M3758.131,2143.112c-.149-.068-.308.159-.183.271a7.333,7.333,0,0,1,.913.917,2.476,2.476,0,0,0-.892.1c-.209.061-.217.4.028.4a6.686,6.686,0,0,0,1.2.049c.12.243.222.493.342.746a.232.232,0,0,0,.432-.149A3.415,3.415,0,0,0,3758.131,2143.112Z" transform="translate(-3744.004 -2113.71)" fill="#f68a73"/><path id="Path_526" data-name="Path 526" d="M3614.438,2264.67c.039-.359.036-.718.048-1.08.019-.515.037-1.019.05-1.511.3-10.41,2.744-18.159,1.105-21.979,0,0,1.628-.945,10.271-3.58,0,0,9.264,16.38,15.884,1.326.119-.271,8.883,3.56,9.007,3.8a51.691,51.691,0,0,0,.5,17.236c1.276,6.563-3.186,7.826-3.72,9.594-1.889,6.3-.211,18.915.195,20.348l-36.735,1.364C3611.387,2288.8,3612.425,2283.176,3614.438,2264.67Z" transform="translate(-3611.037 -2191.526)" fill="#0c4765"/><path id="Path_527" data-name="Path 527" d="M3746,2399.153a17.9,17.9,0,0,0-2.646.261,14.02,14.02,0,0,1-2.779-.061,14.6,14.6,0,0,1-2.642-.571c-.9-.281-1.739-.692-2.617-1.021-.334-.126-.532.333-.27.537a11.359,11.359,0,0,0,5.391,1.915,14.793,14.793,0,0,0,2.875.089,5.878,5.878,0,0,0,2.786-.653A.264.264,0,0,0,3746,2399.153Z" transform="translate(-3726.434 -2325.817)" fill="rgba(30,30,30,0.37)"/><path id="Path_528" data-name="Path 528" d="M3668.581,2117.828c.181-.242.523-.229.745-.249a4.044,4.044,0,0,1,.736.006,3.661,3.661,0,0,1,.715.139,1.448,1.448,0,0,1,.678.328c.072.079,0,.291-.106.285a3.722,3.722,0,0,1-.681-.2,3.536,3.536,0,0,0-.678-.108,3.877,3.877,0,0,0-.692.024c-.116.015-.233.033-.35.057a.432.432,0,0,1-.36-.021A.2.2,0,0,1,3668.581,2117.828Z" transform="translate(-3640.598 -2092.441)" fill="#1c2139"/><path id="Path_529" data-name="Path 529" d="M3717.393,2116.526c-.147-.263-.489-.3-.706-.344a4.05,4.05,0,0,0-.73-.092,3.66,3.66,0,0,0-.728.044,1.449,1.449,0,0,0-.715.236c-.082.068-.037.289.067.3a3.7,3.7,0,0,0,.7-.109,3.517,3.517,0,0,1,.686-.018,3.8,3.8,0,0,1,.683.115q.17.045.339.1a.43.43,0,0,0,.359.027A.2.2,0,0,0,3717.393,2116.526Z" transform="translate(-3694.207 -2091.21)" fill="#1c2139"/><path id="Path_530" data-name="Path 530" d="M3673.39,2132.023c.008-.038.019-.076.03-.114a.979.979,0,0,1,.175-.359.453.453,0,0,1,.349-.171.472.472,0,0,1,.256.1.813.813,0,0,1,.311.663c-.007.437-.448,1.129-.937.711a.677.677,0,0,1-.215-.444A1.164,1.164,0,0,1,3673.39,2132.023Z" transform="translate(-3644.431 -2103.946)" fill="#1c2139"/><path id="Path_531" data-name="Path 531" d="M3719.756,2129.831c.009-.039.02-.076.031-.114a.98.98,0,0,1,.176-.359.451.451,0,0,1,.349-.171.47.47,0,0,1,.255.1.814.814,0,0,1,.312.664c-.008.437-.449,1.129-.937.71a.673.673,0,0,1-.216-.444A1.165,1.165,0,0,1,3719.756,2129.831Z" transform="translate(-3698.542 -2102.121)" fill="#1c2139"/><path id="Path_532" data-name="Path 532" d="M3688.663,2165.072a8.544,8.544,0,0,1,1.141.616,4.728,4.728,0,0,0,1.236.429,4.51,4.51,0,0,0,1.274.08c.212-.017.423-.043.633-.081a.96.96,0,0,1,.622.016.17.17,0,0,1,.065.2c-.157.406-.878.512-1.254.557a4.957,4.957,0,0,1-2.906-.51,2.123,2.123,0,0,1-1.088-.988A.229.229,0,0,1,3688.663,2165.072Z" transform="translate(-3666.071 -2132.001)" fill="#f68a73"/></g><path id="Path_533" data-name="Path 533" d="M3582.038,2610.273q-.012,2.233-.023,4.467-.022,3.026-.067,6.036c-.03,1.8-.164,15.1-.372,16.972a2.168,2.168,0,0,1-2.107,2.085c-2.613,0-2.352-3.484-2.427-5.613-.126-3.409-.142-6.84-.171-10.272-.074-10.258.06-20.515-.022-30.773-.045-5.188-.313-20.634-.372-23.172-.03-1.392-.126-7.451-.134-7.749-.089-3.089-.536-5.538-3.037-7.742a15.614,15.614,0,0,0-6.967-3.126c-2.539-.581-4.831-.126-7.429-.067l-20.15.491c-3.328.082-16.071-.007-16.622-.067.022,2.769-.022,5.538,0,8.248q.179,24.2.291,48.377c.007,3.32-5.144,3.313-5.2,0q-.224-13.175-.395-26.366c-.089-7.779.208-33.256-.223-37.633l12.208,1.084c4.593.082,10.935.06,16.7,0h.186c6.715-.067,12.6-.179,13.965-.2,1.66-.03,3.342-.022,4.995.075a12.811,12.811,0,0,1,2.97.38c.023.007.038.014.06.022a19.559,19.559,0,0,1,4.072.678,13.252,13.252,0,0,1,7.727,5.411,18.144,18.144,0,0,1,2.575,9.156C3582.179,2563.087,3582.1,2600.016,3582.038,2610.273Z" transform="translate(-3475.06 -2447.958)" fill="#344563"/><path id="Path_534" data-name="Path 534" d="M3719.26,2712.109h-39.654l34.341-19.827a.761.761,0,1,0-.761-1.318l-34.547,19.946,18.366-35.413a.761.761,0,1,0-1.351-.7l-18.128,34.954v-39.374a.761.761,0,1,0-1.522,0v39.654l-19.827-34.342a.761.761,0,0,0-1.318.761L3674.806,2711l-35.412-18.366a.761.761,0,1,0-.7,1.351l34.953,18.128h-39.375a.761.761,0,0,0,0,1.522h39.654l-34.341,19.827a.761.761,0,1,0,.761,1.318l34.547-19.945-18.365,35.411a.76.76,0,0,0,.325,1.025.75.75,0,0,0,.349.085.76.76,0,0,0,.677-.411l18.128-34.954v39.375a.761.761,0,0,0,1.522,0v-39.655l19.827,34.341a.761.761,0,1,0,1.318-.76l-19.945-34.546,35.412,18.365a.751.751,0,0,0,.349.086.761.761,0,0,0,.351-1.436l-34.953-18.128h39.375a.761.761,0,0,0,0-1.522Z" transform="translate(-3632.478 -2552.285)" fill="#c1c7d0"/><g id="Group_677" data-name="Group 677" transform="translate(0 116.54)"><path id="Path_535" data-name="Path 535" d="M3671.614,2753.455a44.287,44.287,0,1,0-31.316-12.971A44,44,0,0,0,3671.614,2753.455Zm0-84.987a40.7,40.7,0,1,1-40.7,40.7A40.746,40.746,0,0,1,3671.614,2668.468Z" transform="translate(-3627.326 -2664.88)" fill="#262d4f"/></g><path id="Path_536" data-name="Path 536" d="M3615.154,2260.9s4.789,2.153,7.745,15.082c2.8,12.26,4.333,19.039,4.333,19.039l23.423,14.24c-3.111,2.594-2.265,5.006-2.265,5.006s-25.139-7.246-29.91-12.254c-.958-1.006-6.034-16.383-6.992-23.245C3610.167,2269.286,3611.855,2259.839,3615.154,2260.9Z" transform="translate(-3559.36 -2211.769)" fill="#ffb69e"/><path id="Path_537" data-name="Path 537" d="M3557.795,2545.451a3.781,3.781,0,0,1,2.163,1.778.928.928,0,0,1,.075.574.841.841,0,0,1-.9.532,3.027,3.027,0,0,1-1.062-.4,8.493,8.493,0,0,0-3.241-.862c-.312-.019-.7.024-.822.312a.767.767,0,0,0-.021.409c.406,2.893,2.369,5.277,3.98,7.714.278.42.521,1.049.128,1.364a.986.986,0,0,1-.557.164,9.08,9.08,0,0,1-4.584-.867,17.973,17.973,0,0,1-3.8-2.723,24.926,24.926,0,0,1-5.68-6.121,1.742,1.742,0,0,1-.321-1.126,1.564,1.564,0,0,1,.526-.83C3547.139,2542.1,3554.01,2543.807,3557.795,2545.451Z" transform="translate(-3457.415 -2447.243)" fill="#ffb69e"/><path id="Path_538" data-name="Path 538" d="M3774.174,2287.695s-8.026,3.646-15.947,1.974c0,0-1.878-30.806,4.6-31.718C3762.83,2257.95,3770,2257.292,3774.174,2287.695Z" transform="translate(-3707.42 -2209.377)" fill="#0e5477"/></g></g></g><g id="at_Table" data-name="at Table" transform="translate(1115.614 333.421)"><g id="Group_682" data-name="Group 682" transform="translate(-37.233 151.138)" opacity="0.086"><path id="Path_539" data-name="Path 539" d="M736.434,1590.019c-37.2-.4-74.409-.287-111.611-.287H481.892c-5.125,0-10.251-.036-15.375.019-5.283.056-10.585-.1-15.813.817-1.573.275-1.574,3.32,0,3.595a86.84,86.84,0,0,0,14.1.8c4.555.049,9.111.037,13.667.037h83.708c37.2,0,74.408.117,111.611-.01,20.879-.072,41.761-.054,62.639-.277C739.1,1594.683,739.107,1590.048,736.434,1590.019Z" transform="translate(-449.523 -1589.719)"/></g><g id="Group_683" data-name="Group 683" transform="translate(180.997 96.979)"><rect id="Rectangle_314" data-name="Rectangle 314" width="3.098" height="50.618" transform="translate(0)" fill="#97a0af"/></g><rect id="Rectangle_315" data-name="Rectangle 315" width="28.275" height="1.845" transform="translate(168.743 146.301)" fill="#97a0af"/><circle id="Ellipse_46" data-name="Ellipse 46" cx="2.9" cy="2.9" r="2.9" transform="translate(193.529 153.532) rotate(-76.717)" fill="#253858"/><path id="Path_540" data-name="Path 540" d="M1807.067,1565.9h-8.5a4.249,4.249,0,1,1,8.5,0Z" transform="translate(-1605.801 -1414.524)" fill="#7a869a"/><circle id="Ellipse_47" data-name="Ellipse 47" cx="2.9" cy="2.9" r="2.9" transform="translate(165.254 153.532) rotate(-76.717)" fill="#253858"/><path id="Path_541" data-name="Path 541" d="M1609.192,1565.9h-8.5a4.249,4.249,0,1,1,8.5,0Z" transform="translate(-1436.2 -1414.524)" fill="#7a869a"/><rect id="Rectangle_316" data-name="Rectangle 316" width="3.098" height="6.133" transform="translate(180.997 103.908)" fill="#7a869a"/><path id="Path_542" data-name="Path 542" d="M1532.6,942.807s-.345,12.229,9.186,15.245c8.279,2.62,30.637,4.192,39.215-5.82,5.891-6.876,11.737-45.852-3.247-43.462-17.946,2.862-27.427,11.3-29.96,22.958S1532.77,936.9,1532.6,942.807Z" transform="translate(-1377.834 -854.845)" fill="#97a0af"/><g id="Group_685" data-name="Group 685" transform="translate(147.298 0)"><path id="Path_543" data-name="Path 543" d="M1653.9,564.212a9.591,9.591,0,0,0-.181-2.377,4.234,4.234,0,0,0-1.385-2.059,1.929,1.929,0,0,0-1.367-.435,1.123,1.123,0,0,0-.994.93,1.822,1.822,0,0,0,.579,1.249,5.177,5.177,0,0,1-3.493-1.814,7.012,7.012,0,0,0,.8,4.45,8.59,8.59,0,0,1-5.342-2.3,5.347,5.347,0,0,1-1.99-3.417,6.857,6.857,0,0,0-1.344,3.771c0,.251.09,2.248-.276,2.224-.206-.013-.462-.729-.524-.869a11.922,11.922,0,0,1-.947-4.775,6.892,6.892,0,0,1,5.306-7.276,6.642,6.642,0,0,1,2.224-.442,13.745,13.745,0,0,1,1.491.219c1.476.213,2.985-.095,4.468.06a7.275,7.275,0,0,1,4.479,2.2,8.985,8.985,0,0,1,2.205,5.731,27.483,27.483,0,0,1-.044,2.922,3.923,3.923,0,0,1-.83,2.453C1655.863,565.569,1654.044,565.768,1653.9,564.212Z" transform="translate(-1614.99 -548.347)" fill="#1c2139"/><path id="Path_544" data-name="Path 544" d="M1597.964,783.34h34.952q.026-1.94-.1-3.873a48.143,48.143,0,0,0-.729-5.77q-.312-1.686-.747-3.348a14.573,14.573,0,0,1-.353-1.861c-.215-1.745-.165-3.419-.412-5.181a29.812,29.812,0,0,0-.613-3c-.335-1.385-.708-2.767-.941-4.162-.458-2.767-.74-5.636-1.22-8.427-.092-.536-.19-1.068-.3-1.6a21.883,21.883,0,0,0-3.411-8.5,7.061,7.061,0,0,0-3.088-2.538,8.68,8.68,0,0,0-2.27-.568c-.176-.021-.352-.039-.532-.053a.032.032,0,0,0-.017,0c-1.026-.085-2.118-.074-3.275-.064a28.679,28.679,0,0,0-5.135.352c-.092.018-.18.035-.268.057a8.155,8.155,0,0,0-2.46.955,8.005,8.005,0,0,0-2.869,3.084,20.879,20.879,0,0,0-2,5.97c-.385,1.815-.7,3.641-.97,5.473-.028.18-.053.363-.077.543-.631,4.434-.99,8.906-1.311,13.386-.025.286-.043.564-.063.846-.342,4.814-.659,9.632-1.248,14.412C1598.348,780.76,1598.168,782.054,1597.964,783.34Z" transform="translate(-1581.159 -705.466)" fill="#fff"/><path id="Path_545" data-name="Path 545" d="M1687.516,698.665s-3.744,3.66-8.754.195l.282-2.5s.076-.685.076-.685l.313-2.957,7.6.651.167,1.813s.007,0,0,0l.059.661Z" transform="translate(-1650.411 -669.756)" fill="#ffb69e"/><path id="Path_546" data-name="Path 546" d="M1680.735,696.362s.076-.685.076-.685l.313-2.957,7.6.651S1687.041,697.963,1680.735,696.362Z" transform="translate(-1652.102 -669.756)" fill="#f68a73"/><path id="Path_547" data-name="Path 547" d="M1635.83,634.888s-1.279-1.332-2.131-.479-.16,5.327,2.77,5.22Z" transform="translate(-1611.497 -619.533)" fill="#ffb69e"/><path id="Path_548" data-name="Path 548" d="M1664.043,597.974c-.638,3.41-2.45,7.883-7.672,7.883s-7.03-4.472-7.669-7.883a20.659,20.659,0,0,1,.068-6.057c.209-1.85.938-3.758,3.051-4.067,1.378-.2,2.749.463,4.142.421,1.194-.036,2.335-.588,3.529-.571a4.531,4.531,0,0,1,3.179,1.524A5.012,5.012,0,0,1,1664.1,593,30.72,30.72,0,0,1,1664.043,597.974Z" transform="translate(-1624.475 -579.743)" fill="#ffb69e"/><path id="Path_549" data-name="Path 549" d="M1668.08,619.8c-.268-.441-.989-.47-1.475-.493a3.3,3.3,0,0,0-1.7.334c-.3.159-.1.674.247.614a6,6,0,0,1,1.52-.15c.438.037.839.272,1.263.141A.288.288,0,0,0,1668.08,619.8Z" transform="translate(-1638.405 -606.829)" fill="#1c2139"/><path id="Path_550" data-name="Path 550" d="M1713.093,619.179c.3-.46,1.019-.424,1.506-.4a3.124,3.124,0,0,1,1.679.528c.292.2.06.751-.287.653a5.56,5.56,0,0,0-1.509-.308c-.44,0-.856.22-1.271.036A.337.337,0,0,1,1713.093,619.179Z" transform="translate(-1679.781 -606.369)" fill="#1c2139"/><path id="Path_551" data-name="Path 551" d="M1699.154,659.492a.006.006,0,0,0,0,.013A.006.006,0,0,0,1699.154,659.492Z" transform="translate(-1667.884 -641.277)" fill="#594e8a"/><path id="Path_552" data-name="Path 552" d="M1695.231,635.15a1.2,1.2,0,0,0-.6-.107l-.41-.012q.157-.883.307-1.767.086-.5.161-1.006a2.648,2.648,0,0,0,.075-.966.11.11,0,0,0-.2-.026,2.657,2.657,0,0,0-.261.927q-.1.5-.2,1-.188,1-.368,2a.228.228,0,0,0,.216.284l.674.019a1.185,1.185,0,0,0,.6-.077A.155.155,0,0,0,1695.231,635.15Z" transform="translate(-1663.243 -617.041)" fill="#f68a73"/><path id="Path_553" data-name="Path 553" d="M1641.969,648.7a.843.843,0,0,0-.063-.216,1.4,1.4,0,0,0-.1-.182,2.583,2.583,0,0,0-.266-.336,1.5,1.5,0,0,0-.7-.469c-.09-.021-.171.1-.095.163.192.173.407.316.584.507.017.019.032.038.048.056a.329.329,0,0,0-.058,0c-.054.006-.108.01-.16.02a2.248,2.248,0,0,0-.242.057.142.142,0,0,0,.037.278,2.45,2.45,0,0,0,.245,0c.04,0,.08-.007.12-.011a.49.49,0,0,0,.1-.015c.019-.006.039-.015.058-.022a.2.2,0,0,0,.087-.065c.033.051.065.1.1.155s.078.107.118.162a.108.108,0,0,0,.094.054.133.133,0,0,0,.077-.032A.108.108,0,0,0,1641.969,648.7Z" transform="translate(-1617.795 -630.993)" fill="#f68a73"/><path id="Path_554" data-name="Path 554" d="M1497.413,750.943l-.174,1.391c0,.006-.087.771-.087.771l-.579,4.861-.069.533-.029.238-.052.458-.394,3.309-.058.452-1.112,9.306-.07.551-.011.1-.1.678c0,.006-.678,4.589-.678,4.589l-.11.747-.51,3.459c0,.006-.51-.209-1.35-.556-.093-.035-.191-.075-.29-.116-3.848-1.28-11.351-7.446-11.386-8.761,0-.046.545-.95,1.4-2.329.209-.336.429-.7.672-1.084,1.576-2.538,3.778-6.043,5.58-8.877.064-.1.122-.191.185-.284,1.454-2.283,2.625-4.079,2.949-4.49.093-.127.191-.249.29-.371,1.825-2.271,3.668-3.946,5.36-4.438.139-.041.273-.07.406-.1C1497.268,750.96,1497.338,750.955,1497.413,750.943Z" transform="translate(-1480.355 -719.66)" fill="#89c33f"/><path id="Path_555" data-name="Path 555" d="M1562.595,783.986h12c.113-1.29.222-2.587.335-3.873.014-.19.028-.377.046-.564.014-.159.028-.317.042-.472.194-2.291.381-4.543.557-6.675.014-.2.032-.405.05-.606.039-.472.077-.937.113-1.4.011-.127.021-.254.032-.377.525-6.4.913-11.335,1.018-12.272.187-1.508.493-4.24.821-7.3l.053-.5c.218-2.03.444-4.169.652-6.178.014-.12.025-.24.039-.36.145-1.371.278-2.668.395-3.81l.331-3.168c.046-.448.081-.79.1-.994.018-.145.025-.222.025-.222s0-.011-.007-.014c-.081-.13-.835-.074-1.938.088s-2.513.43-3.965.74c-.145.035-.3.067-.448.1-1,.218-2.009.451-2.9.68-.12.032-.236.06-.349.092-.645.169-1.223.335-1.692.486-.074.025-.148.049-.222.07-.155.053-.3.1-.42.155a1.645,1.645,0,0,0-.571.3,67.371,67.371,0,0,0-.765,6.753c0,.035,0,.064-.007.1-.014.159-.028.317-.046.479-.007.074-.014.155-.021.233q-.137,1.533-.292,3.3c-.01.145-.025.289-.039.437-.233,2.725-.494,5.808-.772,9.1-.011.144-.025.282-.035.426-.007.063-.01.13-.018.2-.014.155-.025.307-.039.458-.12,1.441-.243,2.925-.366,4.423-.035.395-.067.786-.1,1.181-.007.074-.01.148-.018.218-.011.148-.025.3-.035.448q-.132,1.575-.265,3.168c-.116,1.389-.233,2.781-.349,4.166-.007.092-.014.183-.025.278-.018.2-.036.4-.049.6q-.143,1.681-.278,3.334l-.053.589c-.063.775-.13,1.547-.194,2.312C1562.813,781.427,1562.7,782.72,1562.595,783.986Z" transform="translate(-1550.844 -706.111)" fill="#89c33f"/><path id="Path_556" data-name="Path 556" d="M1651.1,727.812s-.367-1.887-1.344-1.956c-.527-.038-1.958,1.769-2.748,2.184,0,0,1.965-3.087,2.384-4.066a4.139,4.139,0,0,1,2.385-2.6Z" transform="translate(-1623.19 -694.316)" fill="#73a731"/><path id="Path_557" data-name="Path 557" d="M1740.567,737.632c0,.056,0,.109.01.166s0,.106,0,.123c.067,1.392.144,2.756.236,4.109.011.211.025.416.043.624q.127,1.961.3,3.884c.011.166.028.328.042.49.208,2.411.455,4.786.736,7.151.01.092.021.183.032.271q.322,2.712.7,5.413c.017.106.031.212.046.321.426,3.013.906,6.037,1.431,9.121.036.208.074.4.109.6.307,1.8.634,3.62.976,5.47.035.2.074.4.109.592.141.744.3,1.491.469,2.235.218.958.465,1.914.758,2.848.067.211.134.419.208.634.042.13.088.261.138.391h11.634c-.088-.324-.169-.655-.236-.99-.021-.1-.039-.19-.057-.289-.031-.162-.056-.328-.081-.5-.1-.7-.2-1.4-.3-2.1l-.264-1.868c-.025-.155-.046-.31-.067-.465-.036-.236-.067-.472-.1-.708-.017-.138-.039-.272-.06-.409q-.344-2.437-.7-4.874c-.025-.18-.053-.363-.078-.543-.1-.666-.2-1.336-.3-2-.032-.194-.056-.384-.084-.578-.018-.1-.032-.194-.046-.289-.106-.7-.208-1.406-.314-2.111-.268-1.787-.536-3.57-.814-5.357-.028-.2-.056-.4-.088-.6,0-.028-.01-.06-.014-.088-.014-.1-.032-.2-.046-.3-.754-4.874-1.558-9.741-2.478-14.584a4.494,4.494,0,0,1,0-1.061c.025-.317.06-.67.1-1.04.011-.113.021-.226.035-.338.007-.081.018-.166.025-.25.017-.183.035-.36.049-.539.13-1.551.13-3.095-.659-3.436-.317-.13-.638-.268-.966-.405-.49-.2-.994-.4-1.5-.6l-.578-.222c-.088-.035-.18-.067-.268-.1q-.169-.074-.349-.137c-1.988-.754-3.941-1.438-5.312-1.875a7.961,7.961,0,0,0-1.9-.5.787.787,0,0,0-.137.328,27.646,27.646,0,0,0-.384,4.191v.035C1740.563,737.544,1740.567,737.6,1740.567,737.632Z" transform="translate(-1703.383 -704.204)" fill="#89c33f"/><path id="Path_558" data-name="Path 558" d="M1738.2,714.609c.138.2.355,7.632.355,7.632s.356-2.7,1.636-2.667,1.9,1.957,3.143,2.221c0,0-1.943-3.276-2.728-4.712A11.524,11.524,0,0,0,1738.2,714.609Z" transform="translate(-1701.354 -688.518)" fill="#73a731"/><path id="Path_559" data-name="Path 559" d="M1753,634.888s1.278-1.332,2.131-.479.16,5.327-2.77,5.22Z" transform="translate(-1713.492 -619.533)" fill="#ffb69e"/><path id="Path_560" data-name="Path 560" d="M1756.479,645.6a1.543,1.543,0,0,0,.184-.166.174.174,0,0,0-.21-.273,1.867,1.867,0,0,0-.411.335,4.263,4.263,0,0,0-.348.372,4.767,4.767,0,0,0-.312.413,2.6,2.6,0,0,0-.128.227.349.349,0,0,0-.06.262.1.1,0,0,0,.12.068c.088-.016.146-.1.2-.167s.105-.13.156-.2c.066-.086.135-.169.205-.252a.08.08,0,0,0,.018,0,.652.652,0,0,0,.067.051c.027.019.054.039.081.06l-.04-.031a2.267,2.267,0,0,0,.209.143,1.008,1.008,0,0,0,.094.043l.046.022a.173.173,0,0,0,.131.011.127.127,0,0,0,.088-.088.206.206,0,0,0,0-.093.225.225,0,0,0-.034-.067c-.017-.025-.033-.05-.05-.074a.511.511,0,0,0-.091-.1c-.03-.026-.062-.05-.094-.075a.586.586,0,0,0-.1-.059l-.07-.032c.056-.058.11-.118.167-.173S1756.416,645.657,1756.479,645.6Z" transform="translate(-1715.911 -628.978)" fill="#f68a73"/><path id="Path_561" data-name="Path 561" d="M1625.41,537.409a4.64,4.64,0,0,1-.624-4.491,1.4,1.4,0,0,1,1.388-.882,1.769,1.769,0,0,1,.87.628l1.411,1.551a1.311,1.311,0,0,1,1-1.652c.956-.145,1.688.772,2.47,1.34,2.045,1.486,7.695.086,8.046,3.428a2.481,2.481,0,0,1-.845,1.923,8.6,8.6,0,0,1-4.505,2,7.943,7.943,0,0,1-5.33-.455,9.474,9.474,0,0,1-3.854-3.358Z" transform="translate(-1603.847 -532.016)" fill="#1c2139"/><path id="Path_564" data-name="Path 564" d="M1692.351,671.132a14.486,14.486,0,0,1-3.954.315s.165,1.71,2.335,1.35A1.789,1.789,0,0,0,1692.351,671.132Z" transform="translate(-1658.669 -651.253)" fill="#fff"/><g id="Group_684" data-name="Group 684" transform="translate(19.522 51.673)"><path id="Path_565" data-name="Path 565" d="M1622.2,899.9a35.864,35.864,0,0,1-5.228-.026,25.526,25.526,0,0,0,1.651-6.236l3.361,3.637c-.031.4-.053.614-.053.614Z" transform="translate(-1616.974 -893.638)" fill="#1c2139"/></g><path id="Path_566" data-name="Path 566" d="M1680.269,788.165,1677.521,757a14.333,14.333,0,0,1,8.831,10.151c2.5,10.661,4.167,25.839,2.031,28.5-1.785,2.226-33.549-1.8-33.549-1.8a4.3,4.3,0,0,1,3.774-4.2c4.571-.855,6.408.206,6.408.206Z" transform="translate(-1629.902 -724.852)" fill="#ffb69e"/><path id="Path_567" data-name="Path 567" d="M1814.892,783.988s6.5.727,11.864-1.119c0,0-1.424-22.538-13.147-25.869Z" transform="translate(-1765.99 -724.852)" fill="#89c33f"/><path id="Path_568" data-name="Path 568" d="M1812.239,783.6a84.649,84.649,0,0,1-.409-8.668c0-.812,0-1.623.018-2.435.008-.416.006-.832.018-1.248a3.93,3.93,0,0,0-.063-1.143.082.082,0,0,0-.156,0,7.081,7.081,0,0,0-.292,2.141c-.055.727-.083,1.457-.107,2.185-.048,1.455-.029,2.916.028,4.371a80.046,80.046,0,0,0,.821,8.723,44.294,44.294,0,0,0,.981,4.891c.077.289.486.162.439-.121C1813.047,789.4,1812.532,786.522,1812.239,783.6Z" transform="translate(-1763.944 -736.037)" fill="#73a731"/><path id="Path_569" data-name="Path 569" d="M1591.2,762.767c-.007-.073-.115-.124-.154-.042a6.152,6.152,0,0,0-.38,1.49c-.094.5-.173,1-.251,1.5-.161,1.048-.3,2.1-.4,3.158s-.183,2.11-.243,3.167c-.03.529-.041,1.057-.051,1.587a5.761,5.761,0,0,0,.042,1.577.2.2,0,0,0,.385,0,6.268,6.268,0,0,0,.114-1.514c.025-.529.062-1.057.089-1.586q.079-1.554.219-3.1t.314-3.093c.057-.5.121-1.006.181-1.509A7.656,7.656,0,0,0,1591.2,762.767Z" transform="translate(-1574.067 -729.722)" fill="#73a731"/></g><g id="Group_687" data-name="Group 687" transform="translate(6.359 63.134)"><path id="Path_570" data-name="Path 570" d="M666.423,1090.868a7.672,7.672,0,0,0-3.648,4.129,33.5,33.5,0,0,0-1.462,6.428A97.844,97.844,0,0,0,660,1113.991c-.061-.8-.1-1.6-.144-2.4.233-4.791.448-9.582.849-14.365.238-2.841.517-5.679.817-8.514a72.916,72.916,0,0,1,.976-7.314,17.569,17.569,0,0,1,1.148-3.7,12.99,12.99,0,0,1,.855-1.585,10.042,10.042,0,0,0,.94-1.565c.051-.125-.107-.2-.2-.156a5.359,5.359,0,0,0-2.135,2.42,15.708,15.708,0,0,0-1.279,3.092,39.977,39.977,0,0,0-1.232,7.111c-.5,4.383-.932,8.776-1.24,13.177a31.226,31.226,0,0,0-1.084-6.5c-.837-2.861-2.321-6.019-4.886-7.721a5.265,5.265,0,0,0-4.419-.7,5.979,5.979,0,0,0-3.676,2.8c-.039.08.049.2.138.138a10.2,10.2,0,0,1,3.582-2.154,4.527,4.527,0,0,1,3.9.912c2.325,1.813,3.589,4.924,4.29,7.7a44.848,44.848,0,0,1,.986,9.94c.084,3.469.235,6.933.522,10.392q.237,2.861.578,5.711a48.153,48.153,0,0,0,.937,5.833.554.554,0,0,0,1.083-.147c-.083-1.212-.235-2.417-.393-3.621.094-1.086.221-2.146.244-3.24s.021-2.163.052-3.245q.094-3.3.381-6.584a99.794,99.794,0,0,1,1.852-12.864,7.4,7.4,0,0,1,3.4-5.245C667.313,1091.321,666.9,1090.623,666.423,1090.868Z" transform="translate(-623.667 -1060.011)" fill="#00875a"/><path id="Path_571" data-name="Path 571" d="M769.933,976.426a6.433,6.433,0,0,0-.706.043,7.689,7.689,0,0,0-5.543,3.391,11.57,11.57,0,0,1-1.9,2.806c-1.05.9-2.53,1.042-3.778,1.627a6.385,6.385,0,0,0-1.584,1.059,6.073,6.073,0,0,0-.619.628,15.775,15.775,0,0,0-2.134,3.21c-1.041,1.962-2.023,4.045-3.736,5.457a5.313,5.313,0,0,1-4.82,1.1c-1.738-.585-2.16-2.522-3.718-3.305a6.57,6.57,0,0,0-1.239-.456c-.146-.043-.292-.077-.43-.12a4.3,4.3,0,0,1-2.333-1.291,4.11,4.11,0,0,1-.18-5.018c1.032-1.411,2.917-2.066,3.77-3.589.275-.491.422-1.033.663-1.523a5.227,5.227,0,0,1,2.436-2.341,6.946,6.946,0,0,1,.732-.319c.137-.052.275-.095.413-.138a14.167,14.167,0,0,1,4.63-.4,3.755,3.755,0,0,0,1.936-.25,5.132,5.132,0,0,0,1.231-1.136,7.273,7.273,0,0,1,4.45-1.962,12.435,12.435,0,0,1,1.5-.06c.284-.009.559.009.844.026.869.052,1.738.155,2.6.258a20.249,20.249,0,0,1,5.862,1.325A8.066,8.066,0,0,1,769.933,976.426Z" transform="translate(-701.803 -973.842)" fill="#36b37e"/><path id="Path_572" data-name="Path 572" d="M780.462,1202.538a15.719,15.719,0,0,1-1.171,3.1c-.172.362-.344.723-.525,1.084-.009.026-.026.043-.035.069a4.206,4.206,0,0,0-.043-.568c-.009-.009-.009-.017-.009-.035a3.816,3.816,0,0,0-.121-.628.416.416,0,0,0-.026-.112,5.9,5.9,0,0,0-2.324-3.288c-1.342-.912-3.15-1.334-3.968-2.745a23.806,23.806,0,0,1-.869-2.608,3.674,3.674,0,0,0-1.274-1.549,2.967,2.967,0,0,0-.7-.4,3.55,3.55,0,0,0-.826-.258c-.981-.163-2.006.069-2.987-.095a3.849,3.849,0,0,1-2.78-1.988c-.757-1.446-.576-3.305-1.386-4.682a3.539,3.539,0,0,0-.3-.43,2.434,2.434,0,0,0-.258-.267c-.861-.835-2.143-1.188-3.046-2a6.336,6.336,0,0,1-1.7-4.4,6.556,6.556,0,0,1,.783-3.546,6.69,6.69,0,0,1,2.332-2.178c.189-.112.387-.224.585-.327a16,16,0,0,1,4.665-1.481c2.763-.43,6.076-.181,7.617,2.143.921,1.386.99,3.236,2.066,4.493a10.173,10.173,0,0,0,1.54,1.3c.086.06.172.129.258.2a5.586,5.586,0,0,1,.559.534,9.274,9.274,0,0,1,1.954,5.078c.362,2.4-1.351,4.708-.688,7.109a5.144,5.144,0,0,0,.7,1.454c.215.327.456.646.7.973a9.567,9.567,0,0,1,.973,1.532A6.923,6.923,0,0,1,780.462,1202.538Z" transform="translate(-718.666 -1144.576)" fill="#36b37e"/><path id="Path_573" data-name="Path 573" d="M526.689,1135.243c-.069,4.528-3.133,3.822-5.87,5.991-1.359,1.084-1.446,3.2-2.668,4.441a3.807,3.807,0,0,1-1.222.818,5.963,5.963,0,0,1-.775.284,9.008,9.008,0,0,1-.912.249c-3.038.74-6.567,1.438-8.1,4.166-.474.843-.758,1.876-1.584,2.384a4.062,4.062,0,0,1-1.7.439,15.685,15.685,0,0,0-9.743,5.259c-.026-.232-.043-.473-.06-.706a16.752,16.752,0,0,1-.017-1.738c-.008-.009-.008-.009,0-.009a16.6,16.6,0,0,1,4.105-10.156,32.633,32.633,0,0,0,2.857-3.236,5.206,5.206,0,0,0,.4-.663,4.244,4.244,0,0,0,.233-.491c.456-1.11.542-2.332.947-3.459a6.647,6.647,0,0,1,3.9-3.951c1.523-.559,3.357-.611,4.441-1.816,2.315-2.582,2.462-4.613,6.481-4.863,2.2-.138,4.837.043,6.7,1.369a4.337,4.337,0,0,1,.439.353,4.44,4.44,0,0,1,.628.646A7.082,7.082,0,0,1,526.689,1135.243Z" transform="translate(-494.028 -1106.098)" fill="#36b37e"/><g id="Group_686" data-name="Group 686" transform="translate(22.883 61.809)"><path id="Path_574" data-name="Path 574" d="M684,1406.4v17.248a12.031,12.031,0,0,1-12.024,12.032H666.2a12.041,12.041,0,0,1-12.033-12.032V1406.4Z" transform="translate(-654.172 -1406.395)" fill="#b3bac5"/><path id="Path_575" data-name="Path 575" d="M706.308,1406.4v17.248a12.031,12.031,0,0,1-12.024,12.032h-5.775a11.975,11.975,0,0,1-8.314-3.339c12.867-3.184,14.984-19.727,15.312-25.941Z" transform="translate(-676.476 -1406.395)" fill="#a5adba"/><rect id="Rectangle_317" data-name="Rectangle 317" width="29.827" height="4.79" transform="translate(0.004 6.291)" fill="#ebecf0"/></g><path id="Path_576" data-name="Path 576" d="M516.188,1145.774q-.658.516-1.317,1.059a3.623,3.623,0,0,1,.413,1.076,15.252,15.252,0,0,1,.361,1.764c.181,1.256.327,2.513.542,3.77.207,1.214.465,2.419.74,3.606a5.893,5.893,0,0,1-.775.284c-.267-1.153-.49-2.315-.688-3.477-.215-1.231-.379-2.462-.534-3.7a15.565,15.565,0,0,0-.31-1.773c-.078-.336-.25-.7-.353-1.059a26.79,26.79,0,0,0-5.414,5.827,30.965,30.965,0,0,1-2.918,4.071,29.212,29.212,0,0,1-3.357,3c-2.367,1.868-4.94,3.589-6.808,5.99a14.615,14.615,0,0,0-1.713,2.909,16.75,16.75,0,0,1-.017-1.738c-.008-.009-.008-.009,0-.009a13.543,13.543,0,0,1,1.721-2.427c2.092-2.367,4.786-4.071,7.2-6.077a19.727,19.727,0,0,0,3.331-3.391,1.076,1.076,0,0,1,.086-.129c-1.24-.258-2.47-.542-3.693-.878-.559-.155-1.127-.31-1.687-.491a5.206,5.206,0,0,0,.4-.663c.525.146,1.041.31,1.567.447,1.282.344,2.582.646,3.89.9.844-1.265,1.592-2.582,2.531-3.778a40.356,40.356,0,0,1,7.875-7.041c2.005-1.5,4.63-3.305,7.281-3.391a4.457,4.457,0,0,1,.628.645,11.623,11.623,0,0,0-4.277,1.36A34.8,34.8,0,0,0,516.188,1145.774Z" transform="translate(-494.028 -1116.655)" fill="#00875a"/><path id="Path_577" data-name="Path 577" d="M789.612,976.426a6.426,6.426,0,0,0-.706.043,13.777,13.777,0,0,0-4.9.12,24.574,24.574,0,0,0-4.028,1.343,19.363,19.363,0,0,1-3.968,1.136,11.2,11.2,0,0,0-3.632.938,8.026,8.026,0,0,0-2.479,2.806c-.112.155-.224.284-.336.422.706.2,1.394.49,2.083.732.774.267,1.541.525,2.324.766.706.224,1.411.43,2.126.62a6.079,6.079,0,0,0-.619.628c-.577-.155-1.145-.327-1.713-.508-.809-.25-1.61-.525-2.393-.826a13.091,13.091,0,0,1-2.186-.972,6.933,6.933,0,0,1-1.79,1.386c-1.059.577-2.2.964-3.279,1.5a6.809,6.809,0,0,0-2.832,2.41,30.439,30.439,0,0,0-1.455,3.021c-.146-.043-.292-.077-.43-.12a10.05,10.05,0,0,1,1.7-3.71,8.127,8.127,0,0,1,3.185-2.427c.3-.138.611-.276.913-.413a3.836,3.836,0,0,1-.293-1.033c-.1-.456-.2-.912-.284-1.377-.172-.886-.327-1.781-.49-2.676-.12-.706-.25-1.412-.37-2.126a6.95,6.95,0,0,1,.732-.319c.129.783.258,1.567.387,2.341.155.93.328,1.859.482,2.78a9.913,9.913,0,0,1,.31,2.2,13.322,13.322,0,0,0,1.9-1,9.87,9.87,0,0,0,2.539-3.012,5.692,5.692,0,0,1,2.857-2.238,34.278,34.278,0,0,1,3.822-.8,12.531,12.531,0,0,0,1.472-.422.058.058,0,0,1-.009-.052c.1-1.239.207-2.5.4-3.744.284-.009.559.009.844.026-.189,1.162-.319,2.341-.482,3.512.706-.267,1.4-.56,2.109-.826a16.266,16.266,0,0,1,4.234-1.067,13.823,13.823,0,0,1,2.6-.034A8.065,8.065,0,0,1,789.612,976.426Z" transform="translate(-721.482 -973.842)" fill="#00875a"/><path id="Path_578" data-name="Path 578" d="M798.008,1215.557c-.172.361-.344.723-.525,1.084-.026-.163-.052-.336-.078-.5-.009-.009-.009-.017-.009-.035-.043-.207-.077-.422-.121-.628a.429.429,0,0,0-.026-.112,31.343,31.343,0,0,0-1.3-4.854,45.638,45.638,0,0,0-5.156-9.812c-.017.043-.034.077-.052.12l-.387.878c-.25.594-.508,1.179-.775,1.764l-.766,1.713a2.963,2.963,0,0,0-.7-.4l.688-1.609c.25-.594.508-1.188.757-1.773.129-.293.258-.594.387-.886.095-.206.181-.43.284-.628-.887-1.3-1.816-2.565-2.772-3.813-1.678-2.2-3.365-4.407-5.121-6.541-.258-.31-.525-.62-.792-.921.034.336.06.68.069,1.024a18.048,18.048,0,0,1-.241,3.124,33.229,33.229,0,0,1-1.239,5,3.541,3.541,0,0,0-.3-.43,2.426,2.426,0,0,0-.259-.267,38.684,38.684,0,0,0,1.042-4.192,18.278,18.278,0,0,0,.31-3.133c0-.534-.035-1.076-.069-1.61,0-.112-.017-.224-.026-.336-.362-.4-.723-.792-1.1-1.179-.577-.577-1.179-1.128-1.782-1.67.189-.112.387-.224.585-.327a27.011,27.011,0,0,1,5.035,5.267c.749.938,1.5,1.876,2.246,2.832a7.685,7.685,0,0,1,1.49-.19c1.015-.1,2.022-.215,3.029-.4a29.437,29.437,0,0,0,2.987-.706c.37-.112.732-.232,1.1-.353.086.06.172.129.258.2a5.538,5.538,0,0,1,.559.534c-.568.2-1.153.353-1.678.5a27.638,27.638,0,0,1-2.9.645,24.557,24.557,0,0,1-2.866.327,11.567,11.567,0,0,1-1.541-.009c1.575,2.022,3.107,4.1,4.544,6.223a.373.373,0,0,1,.276.413c.861,1.3,1.7,2.608,2.461,3.959.241.431.474.869.706,1.308a5.565,5.565,0,0,1,1.412.078c.516.069,1.033.138,1.549.2.215.327.456.646.7.973-.284-.026-.577-.06-.861-.1-.5-.078-1-.146-1.5-.241-.292-.052-.62-.1-.93-.189a40.163,40.163,0,0,1,2.315,5.465,32.116,32.116,0,0,1,1.059,4.1A.485.485,0,0,1,798.008,1215.557Z" transform="translate(-737.383 -1154.497)" fill="#00875a"/></g><path id="Path_579" data-name="Path 579" d="M1266.213,1477.785s1.926-2.968,3.445-12.631l9.318,2-6.005,14.484S1266.22,1481.512,1266.213,1477.785Z" transform="translate(-1149.514 -1331.815)" fill="#ffb69e"/><path id="Path_580" data-name="Path 580" d="M1448.754,1479.783s2.605,6.9.975,12.992c0,0,6.388.01,8.136-2.484v-11.129Z" transform="translate(-1305.971 -1343.822)" fill="#ffb69e"/><path id="Path_581" data-name="Path 581" d="M1274.189,1074.78s-7.67,2.456-10.421,9.028-15.466,44.892-15.131,45.141a27.508,27.508,0,0,0,20.53,5.235s3.9-19.531,7.391-35.974c2.172-10.219,19.487-10.285,19.487-10.285l12.685-11.463-2.405-2.678Z" transform="translate(-1134.444 -996.368)" fill="#001216"/><path id="Path_582" data-name="Path 582" d="M1465.372,1094.192c-7.313,3.411-12.778,2.261-32,2.261-1.342,0-1.188,15.756-1.271,35.629,0,0-6.973,3.865-19.61,2.485,0,0,.988-38.656,3.74-49.664s26.051-11.65,26.051-11.65l31.7,3.3S1477.943,1088.328,1465.372,1094.192Z" transform="translate(-1274.887 -995.914)" fill="#143031"/><g id="Group_688" data-name="Group 688" transform="translate(216.78 75.985)"><path id="Path_583" data-name="Path 583" d="M1979.188,1141.98h-4.677l-7.889-75.636a2.323,2.323,0,1,1,4.621-.48Z" transform="translate(-1966.609 -1063.781)" fill="#253858"/></g><path id="Path_584" data-name="Path 584" d="M1180.563,1544.605c-.016,1.589,1.916,2.13,3.7,2.379q2.75.382,5.5.755l6.6.906c2.077.285,4.206.756,4.723-1.969l.461-2.427c.152-.795.76-2.329.172-3.013-.468-.568-1.481-.373-2.1-.267s-2.458,1.11-2.974.634a.468.468,0,0,1-.1-.39,4.1,4.1,0,0,0,.109-1.617c-.2-.58-.821-.787-1.378-.92-.535-.13-1.071-.26-1.614-.385-.768-.191-1.741-.289-2.2.436a7.32,7.32,0,0,0-.4,1.2,1.136,1.136,0,0,1-.164.318,1.728,1.728,0,0,1-.6.47l-.076.039c-.175.089-.351.179-.533.267a10.39,10.39,0,0,1-.99.439c-.178.061-.35.122-.534.168a3.959,3.959,0,0,1-.963.144.042.042,0,0,1-.029,0,4.926,4.926,0,0,1-1.014-.111,9.054,9.054,0,0,0-2.394-.385,3.463,3.463,0,0,0-2.741,1.83A3.259,3.259,0,0,0,1180.563,1544.605Z" transform="translate(-1076.102 -1394.385)" fill="#1e1e1e"/><path id="Path_585" data-name="Path 585" d="M1248.676,1551.358c1.468,1.4,3.822,2.5,5.474,2.241.167-.027.274-.289.1-.39-.92-.587-2.037-.819-3.008-1.342a11.321,11.321,0,0,1-1.8-1.3,1.133,1.133,0,0,1-.165.318A1.723,1.723,0,0,1,1248.676,1551.358Z" transform="translate(-1134.483 -1405.026)" fill="#fff"/><path id="Path_586" data-name="Path 586" d="M1237.485,1558.672a10.067,10.067,0,0,0,.87.949,6.058,6.058,0,0,0,2.871,1.877.328.328,0,0,0,.3-.52,22.823,22.823,0,0,0-2.294-1.947c-.27-.257-.51-.524-.756-.8A10.43,10.43,0,0,1,1237.485,1558.672Z" transform="translate(-1124.891 -1411.594)" fill="#fff"/><path id="Path_587" data-name="Path 587" d="M1396.929,1542.622c.732,1.411,2.691.983,4.387.364q2.609-.953,5.214-1.913l6.253-2.295c1.968-.722,4.069-1.305,3.248-3.955l-.731-2.359c-.239-.773-.422-2.413-1.261-2.742-.68-.282-1.483.365-1.979.749s-1.65,2.133-2.329,1.955a.468.468,0,0,1-.274-.3c-.222-.5-.267-1.115-.662-1.479a1.708,1.708,0,0,0-1.648-.166c-.534.136-1.068.272-1.606.417-.768.192-1.673.562-1.741,1.417a7.309,7.309,0,0,0,.211,1.248,1.135,1.135,0,0,1,0,.358,1.729,1.729,0,0,1-.312.7c-.015.021-.034.05-.049.07-.113.161-.226.322-.346.486a10.494,10.494,0,0,1-.668.852c-.129.137-.252.272-.393.4a3.949,3.949,0,0,1-.783.579c0,.009-.018.014-.024.016a4.913,4.913,0,0,1-.947.377,9.062,9.062,0,0,0-2.3.783,3.462,3.462,0,0,0-1.563,2.9A3.258,3.258,0,0,0,1396.929,1542.622Z" transform="translate(-1261.298 -1387.098)" fill="#1e1e1e"/><path id="Path_588" data-name="Path 588" d="M1446.1,1558.1c1.953.548,4.546.413,5.886-.588.135-.1.107-.383-.092-.393-1.088-.087-2.183.233-3.286.226a11.368,11.368,0,0,1-2.2-.3,1.142,1.142,0,0,1,0,.358A1.731,1.731,0,0,1,1446.1,1558.1Z" transform="translate(-1303.696 -1410.576)" fill="#fff"/><path id="Path_589" data-name="Path 589" d="M1438.662,1569.186a10.15,10.15,0,0,0,1.214.431,6.058,6.058,0,0,0,3.416.311.328.328,0,0,0,.02-.6,22.8,22.8,0,0,0-2.939-.643c-.358-.1-.7-.224-1.042-.351A10.463,10.463,0,0,1,1438.662,1569.186Z" transform="translate(-1297.321 -1420.252)" fill="#fff"/><g id="Group_690" data-name="Group 690" transform="translate(89.085 54.907)"><g id="Group_689" data-name="Group 689"><rect id="Rectangle_318" data-name="Rectangle 318" width="26.384" height="5.277" rx="2.639" transform="translate(0 5.255)" fill="#172b4d"/><path id="Path_590" data-name="Path 590" d="M1110.925,992.6a1.323,1.323,0,0,1-1.323,1.324h-22.187a.652.652,0,1,0,0,1.3h23.49a1.324,1.324,0,0,0,1.323-1.324V991.3a1.324,1.324,0,0,0-1.323-1.323h-23.49a.652.652,0,1,0,0,1.3H1109.6A1.323,1.323,0,0,1,1110.925,992.6Z" transform="translate(-1084.791 -979.445)" fill="#969fae"/><path id="Path_591" data-name="Path 591" d="M1089.6,1000.387a4.223,4.223,0,0,1-.183,1.33h23.87v-2.66h-23.87A4.222,4.222,0,0,1,1089.6,1000.387Z" transform="translate(-1087.065 -987.228)" fill="#fff"/><path id="Path_592" data-name="Path 592" d="M1099.737,1003.111a49.593,49.593,0,0,1,5.116-.03l5.238.005,5.116.005c1.734,0,3.511-.1,5.239.059a.037.037,0,0,1,0,.074c-1.687.153-3.423.058-5.116.059l-5.239.005-5.116,0a50.957,50.957,0,0,1-5.238-.029A.077.077,0,0,1,1099.737,1003.111Z" transform="translate(-1095.847 -990.628)" fill="#d9d9d9"/><path id="Path_593" data-name="Path 593" d="M1111.214,1010.722c1.514-.133,3.051-.075,4.57-.071a32.813,32.813,0,0,1,4.343.079.05.05,0,0,1,0,.1,32.813,32.813,0,0,1-4.343.079c-1.519,0-3.055.061-4.57-.071A.055.055,0,0,1,1111.214,1010.722Z" transform="translate(-1105.702 -997.136)" fill="#d9d9d9"/><path id="Path_594" data-name="Path 594" d="M1080.694,918.9a1.324,1.324,0,0,1,1.323-1.323H1104.2a.652.652,0,1,0,0-1.3h-23.49a1.323,1.323,0,0,0-1.323,1.324V920.2a1.323,1.323,0,0,0,1.323,1.323h23.49a.652.652,0,1,0,0-1.3h-22.187A1.324,1.324,0,0,1,1080.694,918.9Z" transform="translate(-1078.472 -916.271)" fill="#36b37e"/><path id="Path_595" data-name="Path 595" d="M1111.6,926.681a4.224,4.224,0,0,1,.183-1.33h-23.87v2.66h23.87A4.225,4.225,0,0,1,1111.6,926.681Z" transform="translate(-1085.774 -924.053)" fill="#fff"/><path id="Path_596" data-name="Path 596" d="M1119.749,937.938a49.617,49.617,0,0,1-5.117.029l-5.238-.005-5.116-.005c-1.734,0-3.511.1-5.239-.059a.037.037,0,0,1,0-.075c1.688-.153,3.423-.058,5.117-.059l5.238-.005,5.117-.005a50.872,50.872,0,0,1,5.238.029A.077.077,0,0,1,1119.749,937.938Z" transform="translate(-1095.282 -934.634)" fill="#d9d9d9"/><path id="Path_597" data-name="Path 597" d="M1105.975,930.236c-1.472.049-2.951.008-4.424.007a27.317,27.317,0,0,1-4.191-.071.024.024,0,0,1,0-.046,27.317,27.317,0,0,1,4.191-.071c1.473,0,2.952-.042,4.424.007A.087.087,0,0,1,1105.975,930.236Z" transform="translate(-1093.86 -928.045)" fill="#d9d9d9"/><path id="Path_598" data-name="Path 598" d="M1179.164,930.383c-1.514.132-3.051.075-4.57.071a32.835,32.835,0,0,1-4.343-.079.05.05,0,0,1,0-.1,32.782,32.782,0,0,1,4.343-.079c1.519,0,3.056-.061,4.57.071A.056.056,0,0,1,1179.164,930.383Z" transform="translate(-1156.319 -928.182)" fill="#d9d9d9"/></g></g><g id="Group_692" data-name="Group 692" transform="translate(74.796 70.686)"><g id="Group_691" data-name="Group 691" transform="translate(1.608 5.3)"><path id="Path_599" data-name="Path 599" d="M996.783,1066.344l-7.894,75.636h-4.672l7.941-76.117a2.325,2.325,0,0,1,4.626.48Z" transform="translate(-984.216 -1063.781)" fill="#253858"/></g><rect id="Rectangle_319" data-name="Rectangle 319" width="147.524" height="8.36" transform="translate(4.556 6.316)" fill="#42526e"/><rect id="Rectangle_320" data-name="Rectangle 320" width="156.636" height="7.195" rx="3.598" transform="translate(0 0)" fill="#253858"/></g><g id="Group_693" data-name="Group 693" transform="translate(125.398 42.486)"><path id="Path_600" data-name="Path 600" d="M1644.571,1015.822v.563h-18.519v-1.724H1643.4A1.165,1.165,0,0,1,1644.571,1015.822Z" transform="translate(-1583.333 -988.18)" fill="#6e859c"/><path id="Path_601" data-name="Path 601" d="M1644.571,1015.822v.563h-18.519v-1.724H1643.4A1.165,1.165,0,0,1,1644.571,1015.822Z" transform="translate(-1583.333 -988.18)" fill="#8993a4"/><path id="Path_602" data-name="Path 602" d="M1376.5,857.543h-44.638l-4.734-25.851a1.992,1.992,0,0,1,1.957-2.349h40.6a1.988,1.988,0,0,1,1.957,1.631Z" transform="translate(-1327.09 -829.343)" fill="#8993a4"/><path id="Path_603" data-name="Path 603" d="M1374.916,857.543h-43.059l-4.734-25.851a1.992,1.992,0,0,1,1.957-2.349H1368.1a1.987,1.987,0,0,1,1.956,1.631Z" transform="translate(-1327.09 -829.343)" fill="#a5adba"/><path id="Path_604" data-name="Path 604" d="M1383.575,912.993l8.355-1.517a.23.23,0,0,0,.165-.081c.031-.05-1.56-5.89-1.679-5.861-1.685.41-7.817,1.448-8.125,2.233C1382.094,908.262,1383.317,913.036,1383.575,912.993Z" transform="translate(-1374.384 -894.646)" fill="#8993a4"/><path id="Path_605" data-name="Path 605" d="M1368.415,900.882a2.707,2.707,0,0,1-1.974-.986,3.053,3.053,0,0,1-.524-1.8,3.248,3.248,0,0,1,.4-1.73,3.031,3.031,0,0,1,2.041-1.3,4.261,4.261,0,0,1,2.56.3,2.361,2.361,0,0,1,1.138.965,2.522,2.522,0,0,1,.253,1.08,3.805,3.805,0,0,1-.351,1.911A3.638,3.638,0,0,1,1368.415,900.882Z" transform="translate(-1360.369 -885.604)" fill="#ebecf0"/></g><rect id="Rectangle_321" data-name="Rectangle 321" width="4.455" height="2.228" rx="1.114" transform="translate(182.814 19.443)" fill="#003349"/><path id="Path_606" data-name="Path 606" d="M617.17,550.344s.889,1.2,1.276-.408-1.866-3.713-.916-4.544,2.85-.588,2.867.531a9.3,9.3,0,0,1-.795,4.237,2.8,2.8,0,0,1-2.432,1.4C615.234,551.372,617.17,550.344,617.17,550.344Z" transform="translate(-430.531 -530.549)" fill="#003349"/></g><g id="Sitting_in_Chair" data-name="Sitting in Chair" transform="translate(1296.508 327.251)"><rect id="Rectangle_322" data-name="Rectangle 322" width="170.581" height="5.84" rx="2.92" transform="translate(-44.115 226.19)" opacity="0.107"/><path id="Path_442" data-name="Path 442" d="M3711.264,1824.394q-.18-.321-.345-.65c-3.675-7.306-2.034-17.643,5.309-21.859,11.051-6.345,24.115.895,26.033,15.25,1.513,11.327-6.351,22.752-11.935,21.989-4.178-.57-6.139-5.027-9.622-6.489A19.414,19.414,0,0,1,3711.264,1824.394Z" transform="translate(-3624.476 -1799.572)" fill="#260e14"/><path id="Path_443" data-name="Path 443" d="M3547.811,2107.154c-33.919-6.479-45.312,20.809-50.13,42.481s-28.554,9.617-28.88,20.6c0,0-1.171,24.667,17.458,28.343a180.939,180.939,0,0,0,33.689,2.783v70.454c-17.594.95-20.483,10.481-20.483,10.481h47.539s-1.8-9.627-21.3-10.5v-70.6c17.919-.835,28.362-2.764,34.236-13.543C3568.764,2171.479,3584.13,2114.083,3547.811,2107.154Z" transform="translate(-3424.103 -2055.301)" fill="#969fae"/><path id="Path_444" data-name="Path 444" d="M3753.125,2012.624s-5.893,12.012-12.372,10.648-11.764-11.663-11.764-11.663l5.386-2.828a2.355,2.355,0,0,0,1.262-1.893l.057-.7.517-6.355,9.376,1.036.3,3.594.248,2.885a2.348,2.348,0,0,0,1.149,1.825Z" transform="translate(-3641.124 -1966.601)" fill="#cf856a"/><path id="Path_445" data-name="Path 445" d="M3655.389,2062.282c.207-.3.4-.606.58-.924,4.609-7.771,1.462-16.12,1.462-16.12l10.718-4.9,1.069-.488c.007.025.014.05.021.075,3.957-1.664,3.652-3.8,3.652-3.8l2.645,1.551s-.774,3.876,1.315,4.361,2.642-4.264,2.642-4.264l5.762-2.339a3.694,3.694,0,0,0,.49,2.824c.774,1.163,4.129,2.769,5.072,3.2l2.885,1.316,2.111.98,6.5,2.967-7.063,46.1-34.824.207-2.721-19.657S3652.683,2066.257,3655.389,2062.282Z" transform="translate(-3579.071 -1996.294)" fill="#c4c2db"/><path id="Path_446" data-name="Path 446" d="M3474.29,3004.112c1.2-1.7,2.443-3.368,3.74-5.01q2.94-3.747,6.211-7.246a13.764,13.764,0,0,0,2.954-3.961c2.3-5.521-.774-12.6-.125-17.639.732-5.755,10.531-.359,14.437-.248a1.054,1.054,0,0,1,1.312,1.145q.539,7.143,1.1,14.285.208,2.691.414,5.383c.027.335.043.676.05,1.017.163,1.524.518,5-.067,6.118-.7,1.345-3.552,1.97-5.747,2.391a1.932,1.932,0,0,1-2.263-1.546l0-.018q-4.46,2.369-8.932,4.694c-1.366.7-2.774,1.408-4.224,1.988a14.957,14.957,0,0,1-7.231,1.27c-.966-.111-2.167-.662-2.084-1.628A2.107,2.107,0,0,1,3474.29,3004.112Z" transform="translate(-3428.309 -2773.768)" fill="#754c28"/><path id="Path_447" data-name="Path 447" d="M3266.807,2962.671a1.982,1.982,0,0,1,.58-.925c1.27-1.394,2.58-2.76,3.919-4.058,2.4-2.4,4.914-4.665,7.522-6.818a13.955,13.955,0,0,0,3.437-3.547c3-5.176,1.132-11.442,2.429-16.355,1.464-5.6,10.2-.152,14.065.455a1.044,1.044,0,0,1,1.145,1.311c-.221,4.431-.455,8.847-.676,13.264-.11,2.14-.221,4.292-.332,6.432-.021.409-.056.822-.113,1.228.021,1.719-.033,4.145-.573,5.007-.805,1.286-3.7,1.683-5.917,1.93a1.906,1.906,0,0,1-2.042-1.429c-3.266,1.229-6.53,2.454-9.808,3.629-1.436.524-2.913,1.035-4.4,1.421a14.908,14.908,0,0,1-7.383.332C3267.7,2964.313,3266.6,2963.623,3266.807,2962.671Z" transform="translate(-3255.621 -2741.119)" fill="#754c28"/><path id="Path_448" data-name="Path 448" d="M3555.458,2094.495s-6.348,3.59-13.713,20.08-10.566,24.63-9.052,27.72c0,0,3.545,3.832,7.114,2.079,5.3-2.6,11.6-14.28,18.31-28.67C3558.116,2115.7,3561.806,2103.152,3555.458,2094.495Z" transform="translate(-3477.097 -2045.552)" fill="#dddbee"/><path id="Path_449" data-name="Path 449" d="M3602.318,2143.2a14.289,14.289,0,0,1,2.868-4.307,6.412,6.412,0,0,1,4.678-1.924,3.1,3.1,0,0,1,1.9.7,3.444,3.444,0,0,1,.581,3.619c-.405,1.229-1.152,2.326-1.529,3.564-.443,1.457-.352,3.042-.841,4.484a11.657,11.657,0,0,1-1.59,2.821l-4.962,7.155a4.726,4.726,0,0,1-2.491,2.2c-1.879.449-3.558-1.678-3.441-3.606.132-2.154,1.654-4.049,2.062-6.2A34.662,34.662,0,0,1,3602.318,2143.2Z" transform="translate(-3531.446 -2080.968)" fill="#cf856a"/><path id="Path_450" data-name="Path 450" d="M3536.4,2528.449c-23.641,2.7-36.078,6.857-36.078,6.857s11.926,55.053,11.926,69.928h-33.484s-5.442-68.208-2.539-77.641,19.228-10.522,20.317-9.433S3538.975,2528.154,3536.4,2528.449Z" transform="translate(-3429.592 -2398.623)" fill="#0a3950"/><path id="Path_451" data-name="Path 451" d="M3428.52,2373.07s9.329,31.98-15.8,35.611c-23.16,3.345-48.253-2.54-48.253-2.54l-1.913,68.752s-11.445,4.333-30.311-1.471c0,0,0-73.905,11.543-84.651,9.593-8.93,32.653-13.106,48.616-14.195S3428.52,2373.07,3428.52,2373.07Z" transform="translate(-3310.216 -2277.897)" fill="#0c4765"/><path id="Path_452" data-name="Path 452" d="M3546.564,2206.211a7.383,7.383,0,0,0,6.85,3.833s-7.759,24.428-12.8,27.8c-3.49,2.332-10.117.011-8.965-6.106S3546.564,2206.211,3546.564,2206.211Z" transform="translate(-3476.424 -2138.729)" fill="#cf856a"/><path id="Path_453" data-name="Path 453" d="M3779.586,2004.466a9.476,9.476,0,0,1-7.673,2.287,11.064,11.064,0,0,1-2.524-.563l.519-6.355,9.375,1.036Z" transform="translate(-3674.819 -1966.601)" fill="#9a644a"/><path id="Path_454" data-name="Path 454" d="M3787.218,1959.637a.009.009,0,1,1,0,.018C3787.206,1959.656,3787.206,1959.638,3787.218,1959.637Z" transform="translate(-3689.682 -1933.074)" fill="#594e8a"/><path id="Path_455" data-name="Path 455" d="M3840.731,2151.648c-.413.365-.828.725-1.225,1.091a6.593,6.593,0,0,1-3.243,1.983,3.982,3.982,0,0,1-3.246-1.114c-2.509-2.351-2.681-6.415-2.175-9.566a43.5,43.5,0,0,1,2.095-7.272,190.479,190.479,0,0,0,6.561-22.793c.172-.815.338-1.633.528-2.444.788-3.362,2.086-8.145,5.969-8.729,2.451-.369,4.167.216,5.445,2.455,2.288,4.011,2.234,9.636,1.919,14.115a62.283,62.283,0,0,1-3.068,15.494,54.559,54.559,0,0,1-4.339,9.708c-.827,1.444-1.695,2.954-2.62,4.325A15.05,15.05,0,0,1,3840.731,2151.648Z" transform="translate(-3725.883 -2052.396)" fill="#dddbee"/><path id="Path_456" data-name="Path 456" d="M3461.577,2509.231a46.172,46.172,0,0,1-1.769-5.236c-.356-1.575-.379-3.256-1.072-4.724a.37.37,0,0,0-.635,0c-1.069,2.512-.121,6.18,1.216,8.877-2.973-1.017-5.823-2.345-8.822-3.262-.5-.152-.714.52-.333.791,3.04,2.167,6.992,3.342,10.517,4.452A.734.734,0,0,0,3461.577,2509.231Z" transform="translate(-3408.408 -2383.004)" fill="#262d4f"/><rect id="Rectangle_311" data-name="Rectangle 311" width="11.113" height="20.574" rx="5.556" transform="translate(85.325 71.608) rotate(174.83)" fill="#262d4f"/><path id="Path_457" data-name="Path 457" d="M3721.709,2248.035a7.384,7.384,0,0,0,6.139-4.89s19.677,16.424,20.888,22.364c.839,4.113-3.818,9.368-9.044,5.988S3721.709,2248.035,3721.709,2248.035Z" transform="translate(-3635.052 -2169.533)" fill="#cf856a"/><g id="Group_659" data-name="Group 659" transform="translate(76.132 59.246)"><path id="Path_458" data-name="Path 458" d="M3674.49,2177.514c-1.464.363-9.723-.47-16.066-15.866a2.258,2.258,0,0,1-.08-1.31,2.56,2.56,0,0,1,.507-.936,3.383,3.383,0,0,1,.229-.287c.1-.113.21-.235.32-.343a12.174,12.174,0,0,1,.912-.842c.145-.126.286-.238.426-.351.237-.182.486-.36.732-.524a3.031,3.031,0,0,1,.363-.212,2.118,2.118,0,0,1,.385-.19,2.386,2.386,0,0,1,.285-.064,2.847,2.847,0,0,1,2.227,1.165,50.007,50.007,0,0,1,5.491,6.792c-.033-1.148-.083-2.287-.133-3.427a2.941,2.941,0,0,1,.192-1.465,1.023,1.023,0,0,1,1.226-.56,45.158,45.158,0,0,1,1.648,5.531,61.155,61.155,0,0,0,3.058,7.9c.349.775,1.1,1.73,1.02,2.577C3677.1,2176.3,3675.521,2177.266,3674.49,2177.514Z" transform="translate(-3658.284 -2156.578)" fill="#cf856a"/><path id="Path_459" data-name="Path 459" d="M3666.745,2179.056a16.22,16.22,0,0,1-3.095-4.492,23.082,23.082,0,0,1-1.948-4.131,3.313,3.313,0,0,1,.229-.286c.1-.113.21-.235.321-.343.682,1.252,1.167,2.656,1.832,3.917.907,1.707,2.225,3.277,3,5.04C3667.16,2178.949,3666.923,2179.218,3666.745,2179.056Z" transform="translate(-3661.135 -2167.608)" fill="#9a644a"/><path id="Path_460" data-name="Path 460" d="M3675.983,2171.358a17.025,17.025,0,0,1-3.306-4.126,19.592,19.592,0,0,1-2.167-4.264c.144-.126.285-.238.425-.351.805,1.192,1.421,2.553,2.174,3.77.994,1.621,2.181,3.1,3.1,4.771C3676.284,2171.285,3676.091,2171.467,3675.983,2171.358Z" transform="translate(-3668.481 -2161.615)" fill="#9a644a"/><path id="Path_461" data-name="Path 461" d="M3685.73,2165.147a38.581,38.581,0,0,1-3.658-4.508,32.507,32.507,0,0,1-2.4-3.409,2.1,2.1,0,0,1,.386-.19c1.05,1.158,1.967,2.49,2.9,3.727a49.784,49.784,0,0,1,3.087,4.169C3686.171,2165.136,3685.874,2165.283,3685.73,2165.147Z" transform="translate(-3676.124 -2156.963)" fill="#9a644a"/></g><path id="Path_462" data-name="Path 462" d="M3782.839,2678.7v5.509l-5.759,3.724v-9.07Z" transform="translate(-3681.234 -2532.81)" fill="#6c798f"/><path id="Path_463" data-name="Path 463" d="M3747.847,1869.679a8.852,8.852,0,0,1,.052.892,17.573,17.573,0,0,1-.32,3.751,16.669,16.669,0,0,1-3.182,7.029c-1.751,2.369-6.49,4.731-9.541,4.624-7.154-.25-9.063-6.553-10.022-11.594-.034-.17-.052-.325-.086-.494a28.812,28.812,0,0,1,.321-9.782c1.672-4.9,8.506-5.538,8.506-5.538s4.109,4.787,13.569,7.932A9.3,9.3,0,0,1,3747.847,1869.679Z" transform="translate(-3637.346 -1848.777)" fill="#cf856a"/><path id="Path_464" data-name="Path 464" d="M3800.838,1953.519a.01.01,0,0,1,0,.02A.01.01,0,0,1,3800.838,1953.519Z" transform="translate(-3701.042 -1927.971)" fill="#594e8a"/><path id="Path_465" data-name="Path 465" d="M3806.63,1927.107a.815.815,0,0,1,.208.008c.758.133.8,1.148.565,1.715a.731.731,0,0,1-.658.509.812.812,0,0,1-.7-.6C3805.839,1928.2,3805.86,1927.119,3806.63,1927.107Z" transform="translate(-3705.3 -1905.94)" fill="#260e14"/><path id="Path_466" data-name="Path 466" d="M3748.334,1926.846a.821.821,0,0,0-.208.009c-.757.136-.795,1.151-.558,1.718a.735.735,0,0,0,.662.506.813.813,0,0,0,.7-.6C3749.131,1927.936,3749.1,1926.854,3748.334,1926.846Z" transform="translate(-3656.512 -1905.723)" fill="#260e14"/><path id="Path_467" data-name="Path 467" d="M3773.913,1931.106c.192-.647.086-1.46.425-2.024a.05.05,0,0,1,.076-.018c.577.448.357,1.422.2,2.043-.107.435-.251.861-.4,1.285-.049.141-.308.595-.258.745.138.412.913.313,1.2.249.479-.108.569.664.086.764-.686.143-2.136-.048-2.071-.97A11.3,11.3,0,0,1,3773.913,1931.106Z" transform="translate(-3677.979 -1907.566)" fill="#9a644a"/><path id="Path_468" data-name="Path 468" d="M3857.566,1923.441s2-3.095,3.4-1.9c2.211,1.893.261,8.113-4.2,7.961Z" transform="translate(-3747.693 -1901.07)" fill="#cf856a"/><path id="Path_469" data-name="Path 469" d="M3862.182,1935.088c.185-.094.4.184.246.332a9.174,9.174,0,0,0-1.1,1.207,3.138,3.138,0,0,1,1.128.073c.267.065.3.489-.011.511a8.422,8.422,0,0,1-1.513.13c-.138.313-.251.634-.388.959a.292.292,0,0,1-.554-.163A4.306,4.306,0,0,1,3862.182,1935.088Z" transform="translate(-3750.385 -1912.583)" fill="#9a644a"/><path id="Path_470" data-name="Path 470" d="M3774.22,1977.522a1.106,1.106,0,0,1,.559.017c.164.023.326.06.489.086a5.131,5.131,0,0,0,1.074.048,4.781,4.781,0,0,0,1.034-.167c.353-.1.684-.254,1.045-.318a.186.186,0,0,1,.192.3,2.264,2.264,0,0,1-1.016.589,5.607,5.607,0,0,1-1.191.264,5.214,5.214,0,0,1-1.19-.012,2.844,2.844,0,0,1-.591-.12.934.934,0,0,1-.534-.326A.247.247,0,0,1,3774.22,1977.522Z" transform="translate(-3678.71 -1947.71)" fill="#9a644a"/><path id="Path_471" data-name="Path 471" d="M3795.7,1909.446c.9,0,1.8.04,2.7.123.428.04.863.072,1.287.15.281.052.656.155.78.44.041.092-.061.172-.145.157-.154-.026-.295-.1-.453-.131a4.077,4.077,0,0,0-.526-.046c-.391-.017-.783-.039-1.174-.052-.815-.026-1.631-.049-2.446-.049C3795.34,1910.039,3795.313,1909.444,3795.7,1909.446Z" transform="translate(-3696.532 -1891.212)" fill="#260e14"/>
<path d="M3740.76,1907.943c.15-.3.638-.29.926-.306a7.791,7.791,0,0,1,1.052.012,6.506,6.506,0,0,1,1.042.162c.279.069.754.129.915.4a.146.146,0,0,1-.076.214.8.8,0,0,1-.487-.023c-.155-.036-.311-.066-.466-.092a9.7,9.7,0,0,0-.973-.112,7.744,7.744,0,0,0-.983,0c-.276.018-.7.141-.919-.079A.15.15,0,0,1,3740.76,1907.943Z" transform="translate(-3650.927 -1889.693)" fill="#260e14"/>
<path d="M3777.749,1905.8a.447.447,0,0,1,.036.892A.447.447,0,0,1,3777.749,1905.8Z" transform="translate(-3681.447 -1888.169)" fill="#de350b"/>
<path d="M3862.12,1967.344c.029-.07.059-.14.088-.209l0-.007.008-.011.019-.027a.849.849,0,0,1,.3-.3.841.841,0,0,1,.848,0,.846.846,0,0,1,.3.3.637.637,0,0,1,.12.255q.016.117.031.233a.076.076,0,0,1,0,.01.075.075,0,0,0,0,.016c0,.013,0,.026,0,.039a.667.667,0,0,1-.076.341.658.658,0,0,1-.183.284.98.98,0,0,1-.625.259l-.236-.031a.878.878,0,0,1-.389-.228l-.139-.179a.886.886,0,0,1-.121-.446A1.77,1.77,0,0,1,3862.12,1967.344Z" transform="translate(-3752.13 -1938.942)" fill="#fff"/>
<path d="M3816.1,2013.688a12.723,12.723,0,0,1,.563,7.326c-.825,2.818-2.606,5.241-4.342,7.609s-3.494,4.814-4.261,7.647c-.78,2.878-.476,5.924-.166,8.889-3.125-3.774-6.155-8.1-6.182-13-.023-4.008,1.973-7.7,3.257-11.5a32.769,32.769,0,0,0,1.453-6.067c.266-1.964-.04-4.145.666-6.021a2.954,2.954,0,0,1,1.378-1.652,4.191,4.191,0,0,1,4.793,1.225,7.283,7.283,0,0,1,.659.92A22.859,22.859,0,0,1,3816.1,2013.688Z" transform="translate(-3701.776 -1972.228)" fill="#260e14"/>
</g>
</g>
</svg>