<svg xmlns="http://www.w3.org/2000/svg" viewBox="0 0 108.68 155.54">
  <g>
    <circle cx="53.16" cy="101.65" r="19.36" fill="hsl(0 0% 100%)"/>
    <path d="M108.52,100.79V0H82V54.68a54.28,54.28,0,1,0-13.26,98.85,2,2,0,0,0,.48-.13V132a13.85,13.85,0,0,1-2.8,1.72,31.54,31.54,0,0,1-13.57,2.75,32.67,32.67,0,0,1-24.33-10,34.11,34.11,0,0,1-9.7-24.61c0-9.86,3.33-18.23,9.91-24.89S43.66,67,53.51,67c5,0,15.14,1.33,21.35,6.22,5.71,4.51,11.83,11.09,11.63,28.38-.06,5.12,0,28.08.12,43.39a21.19,21.19,0,0,0,2.6-2.13,54.12,54.12,0,0,0,19.28-40h0v-1.42C108.49,101.22,108.52,101,108.52,100.79Z" transform="translate(0.16)" fill="hsl(0 0% 100%)"/>
  </g>
</svg>